<svg xmlns="http://www.w3.org/2000/svg" viewBox="0 0 45 35"><path d="M226.929-157.073c.515 1.095.735 1.74.63 1.846-.289.289-4.572 2.637-4.81 2.637-.255 0-1.995-3.547-1.779-3.626.074-.028 1.185-.606 2.468-1.287 1.283-.68 2.416-1.24 2.516-1.245.101-.005.54.75.975 1.675m2.33-1.1c1.057.32 2.692.8 3.634 1.067 1.927.546 9.926 2.854 11.712 3.379l1.166.343-1.833.87c-1.563.742-1.907.849-2.333.723-.275-.082-3.163-.897-6.417-1.813-3.254-.915-6.05-1.705-6.213-1.755-.32-.096-2.066-3.397-1.798-3.397.087 0 1.024.262 2.081.582m-8.804 10.584c-.787 2.43-2.592 8.088-4.011 12.575-1.541 4.871-2.7 8.268-2.876 8.431-.317.294-3.046 2.024-3.046 1.934 0-.141 6.803-21.17 9.038-27.939l.854-2.583.736 1.583.736 1.584-1.43 4.416m10.758-6.34c1.224.362 3.987 1.154 6.142 1.76 2.154.605 4.07 1.2 4.258 1.323.19.123.912 1.444 1.623 2.97l1.281 2.748-2.428 7.478a4422.7 4422.7 0 0 1-4.123 12.63l-1.695 5.152-2.719 1.473c-1.496.81-2.871 1.473-3.056 1.473-.25 0-8.492-2.34-12.69-3.604-.185-.056-.844-1.182-1.728-2.952l-1.428-2.863 1.864-5.832c1.026-3.208 2.528-7.895 3.339-10.416.81-2.52 1.75-5.483 2.088-6.583.337-1.1.72-2.113.851-2.25.385-.405 5.447-3.14 5.837-3.154.197-.007 1.36.284 2.584.646m16.645 3.551c.64 1.352 1.162 2.514 1.16 2.582-.002.069-.819.555-1.816 1.08-1.966 1.036-1.898 1.038-2.404-.067-.154-.337-.587-1.274-.961-2.084-1.137-2.456-1.231-2.094.813-3.126.983-.496 1.846-.888 1.916-.872.07.016.652 1.135 1.292 2.487m-21.193 5.009-2.273 1.854 1.345 1.471 1.345 1.471 1.265-1.257c.721-.717 1.407-1.258 1.595-1.258.182 0 .855.15 1.496.334.641.183 1.182.333 1.202.333.02 0-.73-1.082-1.666-2.405-.937-1.323-1.778-2.403-1.87-2.401-.091.002-1.189.838-2.439 1.858m3.356-1.791c0 .134 3.178 4.481 3.309 4.526.116.04 2.413-3.123 2.326-3.204-.058-.054-5.384-1.416-5.537-1.416a.096.096 0 0 0-.098.094m17.342 5.5c-.909 2.744-2.224 6.751-2.923 8.906-1.96 6.041-5.45 16.576-5.513 16.645-.07.076-1.384-2.75-1.509-3.249-.055-.22.503-2.17 1.41-4.922 1.8-5.468 3.09-9.444 4.7-14.474.659-2.063 1.37-4.266 1.58-4.896l.381-1.146 1.725-.965c.948-.53 1.741-.948 1.763-.927.021.021-.705 2.284-1.614 5.028m-12.302-2.205c-.566.764-1.071 1.498-1.122 1.631-.074.193.275.3 1.713.528.994.157 1.926.285 2.071.285.209 0 .085-.409-.577-1.917-.464-1.054-.89-1.916-.95-1.916-.058 0-.57.625-1.135 1.39m-1.422 2.394c-.042.073-.13.574-.195 1.114-.096.787-.075.965.104.898a90.645 90.645 0 0 1 2.02-.635c.989-.303 1.739-.6 1.667-.662-.072-.061-.768-.24-1.547-.398a42.938 42.938 0 0 1-1.694-.368c-.153-.044-.312-.021-.355.051m1.924 1.955-2.041.685 1.479 1.472c.831.827 1.526 1.396 1.586 1.298.06-.096.362-.872.673-1.726.31-.853.645-1.758.742-2.01.231-.597.149-.588-2.439.28m-5.623 2.353c-1.282.687-2.42 1.342-2.53 1.454-.244.253-1.463 4.27-1.334 4.398.052.052 1.044-.27 2.207-.717l2.113-.81.961-2.791c.528-1.536.95-2.79.938-2.788-.013.003-1.073.567-2.355 1.254m3.007-1.081c-.048.132-.49 1.327-.984 2.656-.493 1.33-.876 2.442-.85 2.472.064.076 4.907-2.202 4.908-2.309 0-.047-.672-.755-1.493-1.573-1.03-1.025-1.52-1.411-1.58-1.246m-6.843 9.35c-.949.49-1.584 1.134-1.584 1.606 0 .38 1.356 2.758 1.69 2.964.162.1 2.19-.95 2.685-1.39.543-.482.403-1.043-.665-2.665-.66-1.004-1.016-1.09-2.126-.516m-10.843 5.848c.67 1.398 1.187 2.595 1.148 2.661-.095.164-3.562 2.015-3.633 1.94-.09-.093-2.26-4.815-2.303-5.008-.04-.183 2.98-2.095 3.35-2.12.125-.008.743 1.077 1.438 2.527m7.615 4.89 6.483 1.922 1.09.324.877 1.764c.482.97.844 1.796.805 1.836-.04.04-2.35-.64-5.134-1.51-6.814-2.129-12.822-3.934-13.09-3.934-.527 0-.11-.314 1.487-1.12.94-.473 1.794-.865 1.898-.87.105-.006 2.617.709 5.584 1.588m14.539 1.207c.424.947.771 1.786.771 1.863 0 .197-4.514 2.728-4.885 2.74-.226.006-.485-.42-1.041-1.716-.408-.948-.74-1.815-.74-1.926 0-.244 4.872-2.96 5.02-2.797.057.063.45.889.875 1.836m-53.984-38.779c1.325.381 2.375.749 2.333.817-.042.067-1.127.776-2.411 1.574l-2.335 1.45-2.874-.617c-1.58-.339-3.084-.667-3.342-.728-.412-.097-.078-.296 2.75-1.637 1.77-.84 3.275-1.533 3.344-1.54.069-.007 1.21.3 2.535.681m7.714 1.892c1.306.32 2.488.582 2.625.582.138 0 .248.056.244.125-.003.068-1.327.95-2.942 1.958a342.345 342.345 0 0 0-6.286 4.05l-3.349 2.218-1.25-.087c-1.377-.096-6.981-.857-7.086-.961-.063-.063 1.484-.962 7.336-4.264 1.467-.827 3.792-2.14 5.167-2.92 1.507-.852 2.632-1.388 2.833-1.349.183.036 1.402.328 2.708.648m-16.374 2.517c1.925.242 3.556.49 3.624.551.068.061-.27.341-.75.621-.48.281-2.545 1.523-4.587 2.76l-3.713 2.25-1.287-.227c-.708-.125-2.597-.418-4.2-.651-1.601-.234-2.933-.447-2.959-.472-.026-.026 1.998-1.084 4.496-2.352 2.499-1.267 4.768-2.436 5.043-2.598.275-.162.575-.3.667-.308.091-.008 1.741.184 3.666.426m-9.614 6.551c2.688.447 4.907.84 4.932.872.183.234 2.266 4.306 2.266 4.43 0 .087-.657.254-1.459.371-.802.117-2.77.426-4.373.687-1.603.26-2.962.42-3.02.355-.058-.065-.792-1.614-1.632-3.443-1.39-3.029-1.824-4.097-1.66-4.089.033.002 2.26.37 4.946.817m11.694.28c1.693.231 3.09.434 3.105.452.014.017.3.577.633 1.244.436.87.547 1.233.395 1.29-.307.111-6.089 1.414-6.278 1.414-.125 0-1.278-1.892-2.983-4.899-.1-.176.904-.079 5.128.498m6.823 7.473c1.383 1.78 2.514 3.273 2.514 3.317 0 .044-.919.78-2.042 1.634a221.05 221.05 0 0 0-3.731 2.911c-.93.746-1.777 1.41-1.883 1.476-.106.066-1.572-.351-3.257-.926l-3.065-1.046 1.754-1.677 1.754-1.677-.749-2c-.836-2.233-1.202-3.39-1.1-3.477.128-.108 6.566-1.74 6.93-1.757.28-.013.929.714 2.875 3.222m-10.921 1.506c.441 1.161.767 2.146.725 2.188-.042.042-1.119-.11-2.392-.34-1.273-.23-3.1-.553-4.059-.72l-1.743-.302-.215-1.063c-.119-.584-.177-1.1-.13-1.147.046-.046 1.565-.324 3.375-.616 2.628-.425 3.325-.49 3.464-.321.095.116.534 1.16.975 2.321m-3.514 2.423c1.998.366 3.68.666 3.737.666.057 0-.598.525-1.455 1.167-.857.641-1.605 1.166-1.663 1.166-.122 0-2.588.458-5.837 1.083-1.237.238-3.471.662-4.964.942l-2.714.51-3.938-1.634c-3.23-1.34-3.866-1.655-3.536-1.757.221-.068 1.94-.39 3.819-.716 1.88-.326 5.254-.923 7.5-1.327 2.246-.404 4.383-.742 4.75-.75.367-.009 2.302.284 4.3.65m17.117 1.719v1.385l-2.459 2.169c-3.665 3.231-5.018 4.393-5.119 4.393-.05 0-.09-.778-.09-1.728v-1.729l3.47-2.6c1.908-1.43 3.607-2.752 3.775-2.938.169-.186.332-.338.364-.338.032 0 .058.623.058 1.385m-35.871 2.719c2.042.885 3.692 1.625 3.667 1.645l-6.525 4.894-6.479 4.858-2.854-1.06a628.73 628.73 0 0 0-4.855-1.78c-1.1-.396-2.054-.764-2.12-.818-.105-.088 1.67-1.201 12.37-7.758 1.42-.87 2.696-1.584 2.833-1.586.138-.003 1.921.72 3.963 1.605m22.665 1.33c1.717.606 3.328 1.176 3.58 1.267.454.163.459.182.459 1.635v1.47l-.458.093c-2.902.583-14.476 2.6-14.92 2.6-.244 0-2.452-.609-4.907-1.354-2.456-.745-4.634-1.391-4.84-1.436-.206-.045-.375-.139-.375-.209 0-.139 2.193-1.825 2.785-2.141.202-.109.99-.312 1.75-.453 1.867-.346 11.548-2.22 12.382-2.396 1.15-.244 1.348-.203 4.544.925m-19.733 6.413c1.479.467 3.439 1.075 4.355 1.351.917.276 1.765.557 1.886.622.157.086.014.302-.5.758-.396.35-1.856 1.713-3.246 3.029-1.39 1.315-2.594 2.392-2.675 2.392-.167 0-8.678-3.134-9.01-3.318-.14-.076.927-1.08 3.083-2.9 1.812-1.53 3.323-2.782 3.357-2.782.034 0 1.272.381 2.75.848m-67.599-34.871-.046 2.5-2.083-.917a370.052 370.052 0 0 0-2.64-1.153l-.558-.237.486-.627c.267-.345 1.455-2.049 2.64-3.787l2.155-3.16.046 2.441a160.59 160.59 0 0 1 0 4.94m3.539-3.541c1.368 2.004 2.433 3.694 2.368 3.756-.128.122-4.823 2.309-4.956 2.309-.044 0-.08-2.225-.08-4.945s.04-4.904.09-4.854c.05.05 1.21 1.73 2.578 3.734m-5.983 5.984 2.398 1.078.038 5.376.038 5.377-.635-1.5c-4.48-10.576-4.89-11.617-4.542-11.506.167.053 1.384.582 2.703 1.175m8.648-1.163c0 .082-4.806 11.721-5.158 12.494-.096.21-.157-1.613-.164-4.93l-.011-5.262 2.542-1.186c2.534-1.183 2.791-1.286 2.791-1.116m-10.31 4.577a910.46 910.46 0 0 0 2.577 6.11l1.573 3.693-.045 3.464-.045 3.465-1.317-2.158a409.524 409.524 0 0 1-1.833-3.029c-.29-.49-.638-.873-.794-.875-.153-.002-.628.147-1.056.33-.427.183-.809.333-.847.333-.038 0-.065-3.506-.06-7.791l.01-7.792.417.917c.23.504.87 2.004 1.42 3.333m10.848 1.989-.046 6.156-.917-.406c-.505-.223-1.01-.402-1.121-.397-.112.005-.991 1-1.954 2.209l-1.75 2.199-.05-.941c-.046-.887.12-1.35 2.834-7.955 1.586-3.858 2.92-7.016 2.966-7.018.046-.001.063 2.767.038 6.153m13.857-.322c.972.687 1.765 1.287 1.764 1.333-.005.105-4.06 2-4.28 2-.09 0-.214-.694-.274-1.542-.061-.848-.158-2.097-.216-2.776l-.106-1.236.673.486c.37.266 1.468 1.047 2.44 1.735m-3.61.625c.1 1.443.165 2.642.145 2.664-.021.022-.895-.342-1.943-.81-1.047-.467-2.114-.94-2.369-1.052l-.465-.203 2.045-1.612c1.124-.887 2.125-1.612 2.224-1.612.112 0 .247.976.362 2.625m-34.468 3.429.017 3.304-2.504-1.299-2.503-1.299 2.378-2.383c2.145-2.15 2.39-2.346 2.487-2.005.06.208.116 1.865.125 3.682m4.424-.572c.637.646 1.124 1.203 1.083 1.237-.254.214-4.487 2.447-4.638 2.447-.13 0-.186-1.065-.186-3.6v-3.602l1.292 1.172c.71.644 1.812 1.7 2.45 2.346m27.717-.285 2.375 1.032v12.421l-.542-.249a10.465 10.465 0 0 0-.833-.345c-.256-.084-.292-.336-.292-2.047v-1.952l-1.667-1.732-1.666-1.732v-3.214c0-1.767.056-3.213.125-3.214.068 0 1.193.464 2.5 1.032m8.203 4.594c-.005 5.134-.028 5.596-.266 5.292-.407-.52-4.414-8.61-4.354-8.79.056-.17 4.062-2.085 4.417-2.111.163-.012.207 1.21.203 5.61m-13.509-3.185 1.347.607v1.476c0 .812-.03 1.476-.066 1.476-.037 0-.712-.296-1.5-.659l-1.434-.659v-1.424c0-.783.069-1.424.153-1.424.084 0 .759.273 1.5.607m-16.153 1.07c0 1.35.107 1.32-1.708.496l-1.028-.467 1.243-.589c.684-.323 1.3-.595 1.368-.603.07-.008.125.516.125 1.163m27.083 4.155c1.238 2.474 2.25 4.536 2.25 4.582 0 .046-1.05.61-2.333 1.252l-2.333 1.17v-5.752c0-3.163.037-5.751.083-5.751.045 0 1.095 2.024 2.333 4.499m-32.083-1.003v3.162l-.534.276c-.294.152-1.344 1.066-2.333 2.031l-1.8 1.754v-7.856l2.292-1.259c1.26-.693 2.31-1.262 2.334-1.265.023-.003.041 1.417.041 3.157m-8.065-1.734 2.399 1.262v6.105c0 3.6-.062 6.04-.15 5.946-.163-.174-4.85-14.072-4.85-14.383 0-.106.045-.192.101-.192.056 0 1.18.568 2.5 1.262m11.279-.073c.753.287 1.466.6 1.585.693.146.116.2.514.167 1.24l-.049 1.068-1.583.654a54.21 54.21 0 0 1-1.625.655c-.023 0-.042-1.087-.042-2.416s.04-2.416.089-2.416c.048 0 .705.235 1.458.522m18.446 1.821c1.104.474 2.007.89 2.007.924 0 .034-.469 1.004-1.042 2.156-.756 1.52-1.11 2.071-1.291 2.015-.283-.089-6.666-2.782-7.382-3.115-.255-.119-.43-.307-.387-.419.043-.11.73-1.026 1.527-2.034l1.449-1.832 1.555.722c.856.397 2.46 1.11 3.564 1.583m-29.555 7.48 1.951 5.739-.591.51c-.326.281-1.8 1.467-3.278 2.637l-2.687 2.125v-4.936c0-4.446.027-4.925.266-4.833.146.056.446.147.666.202l.402.101.013-5.56.013-5.56.647 1.917c.356 1.055 1.525 4.5 2.598 7.656m16.312-5.126c.367.654 1.173 2.008 1.792 3.011.618 1.002 1.124 1.872 1.124 1.933-.001.108-7.905 3.86-8.133 3.86-.064 0-.487-.807-.94-1.792a223.55 223.55 0 0 0-1.542-3.274c-.395-.815-.717-1.565-.716-1.667.001-.163 7.164-3.237 7.582-3.253.091-.004.466.528.833 1.182m15.95 1.633c-.89.437-1.64.775-1.667.752-.028-.024.31-.81.75-1.748l.8-1.706.867.954.866.954-1.616.794m-6.825.452 3.792 1.635v8.235l-1.042-.464c-1.036-.462-1.042-.469-1.091-1.211l-.05-.747-2.909-1.31-2.908-1.309v-3.323c0-2.596.045-3.303.208-3.232.115.05 1.914.827 4 1.726m8.654 4.073-.038 4.345-.84 2.442a493.882 493.882 0 0 0-1.93 5.775c-.599 1.834-1.167 3.409-1.261 3.5-.118.114-.14.035-.068-.25.057-.229.104-4.447.106-9.373l.002-8.957 1.958-.984c1.077-.542 1.992-.952 2.033-.913.041.039.058 2.026.038 4.415m-25.604-.813c1.397 2.859 1.598 3.403 1.2 3.245-1.863-.735-5.745-2.371-5.856-2.469-.115-.1 2.988-3.64 3.199-3.649.028 0 .683 1.292 1.457 2.873m35.395-.974.737.385-.737.423a944.67 944.67 0 0 1-3.546 2.005l-2.81 1.582-1.19-.55-1.19-.55-.05-.932c-.033-.61.014-.93.138-.93.103 0 .653.186 1.222.413l1.035.414 2.577-1.323c1.418-.728 2.69-1.324 2.827-1.323.138 0 .582.174.987.386m1.18 6.555v5.29l-2.458-2.426a472.076 472.076 0 0 0-3.459-3.384c-.816-.781-.954-.988-.75-1.12.629-.407 6.43-3.639 6.542-3.644.069-.003.125 2.375.125 5.284m-25.779-4.12c-.076.07-.738.39-1.471.713-.733.323-2.065.928-2.958 1.347l-1.625.76v.714c-.001.692-.028.728-.878 1.172-.483.252-.933.458-1 .458-.067 0-.122-.53-.122-1.176v-1.177l2.125-.994a599.03 599.03 0 0 1 4.041-1.873l1.917-.877.055.402c.03.222-.008.46-.084.53m-11.43 1.841c1.123.48 2.042.926 2.042.99 0 .102-1.354 1.317-2.196 1.971-.248.193-.479-.047-2.042-2.12-.969-1.286-1.762-2.373-1.762-2.415 0-.087 1.021.319 3.959 1.574m-2.707 1.16 1.915 2.554-.357.597c-.197.328-1.097 1.906-2 3.506l-1.643 2.909v-6.145c0-3.38.038-6.107.085-6.06.047.046.947 1.234 2 2.639m17.728-1.282c1.41.658 2.556 1.26 2.549 1.337-.012.12-2.357 1.271-4.612 2.264l-.667.293-1.916-.89c-1.055-.49-2.28-1.063-2.723-1.272l-.806-.38 2.722-1.27c1.498-.697 2.76-1.27 2.807-1.274.045-.003 1.236.534 2.646 1.192m13.24.552.895.438.11 4.005c.06 2.203.109 4.705.109 5.56v1.553l-.996.503c-.547.276-1.035.502-1.083.502-.048 0-.088-2.925-.088-6.5s.036-6.5.08-6.5c.043 0 .482.197.973.439m6.61 5.674c1.145 1.117 2.045 2.066 2 2.107-.044.042-1.598.835-3.455 1.762l-3.375 1.686v-10.225l1.375 1.32c.757.725 2.311 2.234 3.456 3.351m-32.431 6.554c-.116.907-.128.872-1.25-3.584-.624-2.475-1.138-4.69-1.142-4.922-.006-.319.286-.68 1.2-1.485l1.209-1.063.05 5.068c.027 2.788-.003 5.481-.067 5.986m16.1-8.74v2.095l.375-.116c.206-.064.814-.336 1.35-.605.537-.27 1.007-.459 1.045-.42.037.037.049 2.399.024 5.247l-.044 5.178-1.627-1.778a278.471 278.471 0 0 0-4.291-4.528l-2.664-2.75.041-.893.041-.893 2.75-1.299c1.513-.714 2.806-1.306 2.875-1.315.07-.01.125.926.125 2.078m-9.4-.705 2.65 1.223.05.854.05.854-3.3 3.547a833.705 833.705 0 0 1-4.255 4.548l-.955 1.001-.003-5.2-.003-5.2.625.26c.343.144.903.402 1.243.575.34.173.696.315.792.315.11 0 .173-.727.173-2 0-1.1.064-2 .142-2 .078 0 1.334.55 2.791 1.223m-14.824 8.223c-.034.035-1.531-.706-3.326-1.646-1.794-.94-3.249-1.721-3.231-1.735.017-.015 1.494-1.165 3.281-2.557l3.25-2.53.045 4.203c.024 2.311.016 4.23-.019 4.265m11.058-7.366v.747l-.84-.33c-.462-.183-.893-.337-.958-.345-.133-.016 1.475-.793 1.673-.81.068-.005.125.327.125.738m15.437-.112c.258.144.183.189-1.397.817-.148.06-.208-.136-.208-.678v-.76l.671.237c.369.13.79.303.934.384m5.389 4.823-.006 4.958-1.952.935c-1.074.514-1.973.919-1.998.899-.052-.04 3.855-11.75 3.92-11.75.023 0 .04 2.23.036 4.958m-25.376 1.25c.73 2.956 1.28 5.394 1.224 5.418-.138.059-6.731-3.348-6.747-3.487-.019-.173 3.976-7.303 4.093-7.305.057 0 .701 2.417 1.43 5.374m11.049 3.794v6.67l-4.209-2.108c-2.314-1.16-4.235-2.132-4.267-2.16-.033-.028 1.548-1.762 3.512-3.853a515.319 515.319 0 0 0 4.204-4.51c.347-.39.66-.708.696-.708.035 0 .064 3.001.064 6.67m7.205-.004c1.158 1.238 2.052 2.305 1.987 2.371-.135.14-8.14 4.296-8.272 4.296-.048 0-.087-3.013-.087-6.696v-6.695l2.133 2.237c1.173 1.23 3.08 3.25 4.239 4.487m-64.863-40.324a853.77 853.77 0 0 0-2.776 6.657c-1.202 2.904-2.248 5.242-2.325 5.194-.274-.17-4.815-9.438-4.68-9.555.074-.065 1.486-.593 3.136-1.173 1.65-.58 3.9-1.374 5-1.766 1.1-.392 2.053-.717 2.119-.722.065-.005-.148.61-.474 1.365m6.276 8.233c2.736 5.024 4.958 9.152 4.937 9.173-.02.02-.635-.148-1.365-.377a1733.698 1733.698 0 0 0-13.285-3.986c-.527-.151-.958-.333-.958-.405 0-.127 2.007-5.052 4.25-10.43.612-1.466 1.153-2.8 1.202-2.964.05-.164.125-.264.167-.222.042.042 2.315 4.187 5.052 9.21m-14.37-.823c1.31 2.615 2.355 4.783 2.32 4.817-.033.034-3.618-1.137-7.966-2.602-4.348-1.465-8.055-2.667-8.238-2.67-.295-.008-.286-.035.083-.234.23-.123 2.63-1.023 5.333-1.998 2.704-.976 5.067-1.841 5.25-1.924.184-.083.446-.149.584-.147.16.001 1.11 1.72 2.633 4.758m-14.72 1.046.606.996-1.718 2.129a364.035 364.035 0 0 0-3.218 4.055c-2.473 3.176-2.227 2.96-3.687 3.24-.71.135-1.312.224-1.338.197-.027-.027 1.32-1.852 2.996-4.057a999.938 999.938 0 0 0 4.364-5.782c.726-.976 1.336-1.774 1.355-1.774.02 0 .308.448.64.996m8.753 1.754c4.171 1.404 7.817 2.638 8.102 2.742l.517.19-2.658 6.367c-1.462 3.502-2.676 6.386-2.698 6.408-.045.048-.598-.827-4.188-6.624a1512.103 1512.103 0 0 0-4.571-7.333c-2.992-4.757-2.93-4.64-2.379-4.419.16.065 3.704 1.266 7.875 2.67m-3.33 7.249a970.378 970.378 0 0 0 4.159 6.666c.153.23.449.698.655 1.042l.377.625-.722-.311a760.79 760.79 0 0 1-4.472-1.986 890.11 890.11 0 0 0-7.083-3.122C1.884-135.336.33-136.038.264-136.1c-.128-.12.665-1.186 4.084-5.49 1.935-2.434 2.18-2.685 2.368-2.416.115.165 1.954 3.113 4.088 6.55m18.997-2.255c2.98.888 6.274 1.878 7.321 2.2l1.905.586-3.238 1.212c-1.78.667-5.676 2.166-8.655 3.332l-7.074 2.767c-.912.356-1.69.618-1.726.58-.038-.037.268-.878.68-1.87.411-.99 1.476-3.564 2.367-5.718l1.84-4.45c.202-.483.267-.52.693-.394l5.887 1.755m6.126 5.297c-.53.812-8.92 14.092-9.39 14.864-.275.452-.576.847-.668.878-.092.03-1.87-2.01-3.952-4.535-3.092-3.751-3.73-4.612-3.492-4.703.161-.061 4.193-1.63 8.96-3.487 4.766-1.857 8.693-3.38 8.727-3.384.033-.004-.05.161-.185.367m-28.96 2.34c7.851 3.39 9.19 3.985 9.118 4.057-.035.035-1.37.436-2.966.89l-2.901.827-2.203-1.25-2.203-1.252-2.2-2.618a1410.81 1410.81 0 0 1-2.463-2.939c-.326-.394-1-.658 5.819 2.285m29.794 5.881-.045 2.763-4.917 2.384c-2.704 1.311-4.94 2.364-4.968 2.339-.05-.043 1.033-1.782 7.312-11.748l2.573-4.084.045 2.792c.025 1.535.025 4.035 0 5.554m-33.819-5.103 2.334 2.743-.095 3.924c-.052 2.158-.111 3.945-.133 3.971-.021.026-.567-1.511-1.214-3.417a534.54 534.54 0 0 0-2.355-6.762C.83-132.651.3-134.185.3-134.245c0-.155.043-.106 2.643 2.95m-1.44 2.256c2.231 6.385 3.106 8.997 3.036 9.067-.04.039-1.158-.485-2.488-1.165l-2.416-1.235.008-5.833.008-5.834.343.834c.189.458.868 2.333 1.509 4.166m15.464 8.268c0 6.295-.017 6.679-.292 6.58-.16-.058-1.627-.723-3.26-1.477l-2.967-1.37.11-4.334c.06-2.383.138-4.363.173-4.4.08-.084 5.748-1.657 6.027-1.672.164-.009.209 1.43.209 6.673m4.667-1.732c3.265 3.939 3.658 4.475 3.41 4.656-.153.112-1.846 1-3.762 1.972l-3.482 1.768v-6.423c0-3.533.033-6.424.072-6.424.04 0 1.733 2.003 3.762 4.452M245.33-84.946l.329 1.104 1.648 1.051c1.068.682 1.642 1.15 1.632 1.334-.009.155-.191 1.046-.406 1.98l-.39 1.698.696.993c.383.546.741 1.11.796 1.251.063.165-.457 1.003-1.442 2.322l-1.541 2.064-2.16.203c-1.189.11-2.187.176-2.219.144-.031-.031-.103-.466-.16-.965l-.1-.909 1.54-2.292c.846-1.261 1.508-2.322 1.47-2.357-.037-.035-.78.374-1.651.909s-1.64.977-1.709.981c-.068.005-.125-.122-.125-.282 0-.268-.542-3.25-1.069-5.875-.119-.596-.256-.971-.304-.834-.048.138-.41 2.144-.802 4.46l-.715 4.208-.43-.283c-1.707-1.124-3.03-1.924-3.088-1.866-.037.038.636.93 1.497 1.983 1.273 1.558 1.566 2.02 1.571 2.476l.007.56-.708-.098c-.39-.054-1.534-.147-2.542-.207l-1.833-.108-1.359-2.611-1.358-2.611 1.01-1.66c1.007-1.652 1.012-1.666 1.142-3.326.07-.917.133-1.822.139-2.01.008-.294.317-.441 2.082-.99l2.073-.645 1.337-1.45 1.338-1.45 2.738 1.002 2.737 1.003.329 1.103m-27.292-.641c0 .97.086 1.34.5 2.161.677 1.341.654 1.998-.114 3.296-.337.57-.67 1.038-.737 1.038-.068 0-.391-.43-.72-.953-.78-1.249-.804-2.143-.095-3.547.403-.8.5-1.201.5-2.079 0-.977.034-1.088.333-1.088.302 0 .333.111.333 1.172m10.834-.59c0 .111-5.783 6.7-5.997 6.833-.112.07-.169-.618-.166-2.03l.004-2.135 1.87-.822a81.094 81.094 0 0 0 2.955-1.367c1.08-.543 1.334-.634 1.334-.48m.833 2.233c0 2.059-.032 2.324-.292 2.403-.16.049-1.529.613-3.041 1.255-1.513.64-2.775 1.141-2.805 1.112-.056-.056 5.973-7.084 6.077-7.084.034 0 .06 1.041.06 2.314m1.396-1.55.645.733-.118 1.737-.119 1.738-.61-.21-.61-.212-.046-2.275c-.026-1.251.012-2.268.083-2.26.072.01.42.346.775.75m1.53-.078c.94.416 1.033.592.388.734-.462.102-.601.034-1.21-.586-.752-.769-.632-.79.822-.148m-18.172 2.325c.062.282.086.949.055 1.482l-.058.968 1.083.728c1.256.843 1.616 1.44 1.773 2.947.132 1.258.072 1.272-1.461.362-1.723-1.024-2.145-1.827-2.145-4.084 0-1.826.159-2.915.426-2.915.118 0 .265.23.327.512m7.08 1.91c0 2.526-.14 3.218-.768 3.773-.382.338-2.37 1.472-2.581 1.472-.241 0-.174-1.392.105-2.183.315-.892.76-1.38 1.786-1.956l.791-.445v-1.541c0-1.43.025-1.542.334-1.542.318 0 .333.111.333 2.422m19.403 6.454.118.793.698-.473c1.072-.726 1.187-.783 1.028-.513-.076.128-.462.65-.858 1.16l-.72.925.403 2.908c.221 1.599.453 3.301.514 3.782l.112.875h-2.015c-1.811 0-2.016-.03-2.011-.291.003-.16.214-1.732.47-3.491l.465-3.2-.595-.617-.595-.616.559.381c.367.25.597.32.67.201.061-.099.289-1.44.505-2.981.217-1.541.436-2.875.488-2.964.08-.14.34 1.261.764 4.12m-6.07 11.541-1.411 1.42-5.294-5.292-5.294-5.292v-5.668l6.706 6.706 6.706 6.707-1.412 1.42m-22.185-8.506.018 3.16-.985.923c-.542.508-2.053 1.935-3.358 3.173-1.623 1.54-2.331 2.118-2.243 1.833.186-.6 3.018-7.474 4.807-11.667l1.529-3.583.107 1.5c.06.825.116 2.922.125 4.66m3.852-3.44c.476.578.833 1.737.833 2.705 0 .27-.052.492-.116.492-.302 0-2.4-1.387-2.778-1.836-.5-.594-.771-1.46-.772-2.465l-.001-.717 1.175.617c.647.34 1.393.882 1.66 1.205m5.112-.722c-.112 1.197-.276 1.606-.926 2.306-.389.42-2.297 1.612-2.579 1.612-.172 0-.125-1.351.071-2.058.098-.352.416-.894.707-1.204.512-.544 2.345-1.738 2.67-1.738.094 0 .117.436.057 1.082m30.12 8.13c1.155 2.912 2.1 5.337 2.1 5.39 0 .05-1.538-1.389-3.417-3.2-2.88-2.776-3.417-3.367-3.417-3.77 0-.318.316-.904.95-1.763 1.008-1.366 1.582-2.06 1.647-1.994.021.023.983 2.424 2.138 5.337m-36.88-4.687c1.181.63 2.059 1.553 2.3 2.421.172.619.248 2.054.11 2.054-.038 0-.602-.308-1.255-.684-1.241-.716-1.836-1.35-2.153-2.3-.2-.596-.262-2.016-.088-2.016.056 0 .544.236 1.086.525m6.738.51c-.14 1.238-.412 1.927-.946 2.397-.416.366-2.365 1.568-2.544 1.568-.167 0-.116-1.364.079-2.063.23-.83 1.155-1.8 2.318-2.433.504-.274.983-.5 1.063-.501.082-.002.095.458.03 1.031m24.966 2.59c.1.613.068.66-1.555 2.285-.912.913-1.694 1.623-1.738 1.579-.087-.087-.6-3.36-.6-3.826 0-.226.273-.31 1.46-.444 2.46-.28 2.317-.303 2.433.407m-31.466.97c.545.327 1.156.75 1.357.938.516.482.884 1.682.884 2.885 0 1.114.097 1.347.443 1.06.145-.12.225-.573.227-1.29.006-1.86.686-2.835 2.698-3.87.968-.498 1.023-.453.89.723-.153 1.364-.506 2.073-1.297 2.607a38.73 38.73 0 0 0-1.47 1.064l-.825.629v1.407c0 1.236-.04 1.428-.333 1.585-.321.172-.334.127-.336-1.202-.001-.762-.095-1.562-.208-1.785-.113-.222-.762-.786-1.442-1.254-1.44-.99-1.88-1.685-1.984-3.125-.085-1.177.013-1.203 1.396-.372m36.907 5.034 1.75 1.7-2.186.002-2.186.002-1.024-2.958c-.563-1.627-1.023-3.032-1.022-3.122 0-.09.658.476 1.46 1.256l3.208 3.12m-40.49-1.296c-.55 1.583-1.03 2.909-1.066 2.945-.036.036-1.022.044-2.191.019l-2.127-.047 3.128-2.962c1.72-1.63 3.157-2.933 3.192-2.898.035.035-.386 1.36-.936 2.943m13.962 3.93-4.095 4.078-2.771-.045-2.77-.046 5.453-5.467 5.454-5.467 1.413 1.435 1.412 1.435-4.096 4.077m12.343 1.004-4.6 4.601-1.444-1.476-1.443-1.476 3.211-3.119 3.211-3.12 2.833-.005 2.833-.006-4.6 4.601m-27.236-1.142c.064.16.558 1.554 1.097 3.096l.982 2.805-2.289-2.138a307.577 307.577 0 0 0-3.358-3.097l-1.069-.958h2.261c1.998 0 2.274.034 2.376.292m42.34.585a621.38 621.38 0 0 0-2.731 2.415c-1.51 1.34-2.353 1.848-2.356 1.416-.001-.068.346-1.156.772-2.416l.772-2.292 2.27.002 2.27.003-.997.872m-20.95 7.076-.982 1.202.798.404c1.406.71 3.042 1.137 3.912 1.019l.782-.106.185.722c.102.398.482 1.498.844 2.446.69 1.806.907 3.527.445 3.527-.177 0-10.127-9.898-13.282-13.211l-.912-.958 1.41-1.418 1.41-1.417 3.186 3.293 3.186 3.294-.982 1.203m-21.53-3.15 2.525 2.368-.201.79-.201.79-1.618.047-1.618.048-.345-.798c-.624-1.443-2.982-7.26-2.982-7.358 0-.053.432.318.959.825.527.506 2.094 1.986 3.482 3.288m42.35-1.328c-.778 1.894-1.104 2.514-1.29 2.457a62.022 62.022 0 0 1-1.395-.475l-1.145-.4 2.374-2.119c1.306-1.164 2.402-2.09 2.436-2.056.033.033-.408 1.2-.98 2.593m-8.3.933c1.672.345 1.961.455 2.334.892.348.408.637.536 1.592.702 1.674.292 2.536.718 3.625 1.792.527.52.958.99.958 1.045 0 .054-.656.267-1.458.474l-1.458.375-.964-.428c-.53-.234-.988-.427-1.018-.427-.03 0-.099.366-.151.812-.053.447-.435 1.853-.85 3.125-.413 1.273-.801 2.726-.863 3.23-.093.771-.22 1.031-.8 1.639-1.71 1.794-3.673 1.843-5.374.134-.77-.773-.865-.95-.971-1.817-.065-.528-.487-2.085-.938-3.46-.452-1.375-.821-2.759-.821-3.074v-.574l-1.11.418-1.11.417-1.098-.34c-1.637-.506-1.628-.484-.681-1.546.998-1.12 1.831-1.551 3.499-1.81 1.038-.162 1.32-.276 1.666-.674.345-.395.72-.548 2.167-.882a80.139 80.139 0 0 1 1.833-.41c.046-.004.942.17 1.992.387m-22.658 2.841v1.75h-7.667v-3.5h7.667v1.75m17.016 2.683c-.192.245-.35.509-.35.587 0 .129 1.524.98 1.754.98.054 0 .076-.304.047-.675-.041-.547-.15-.736-.576-1.005l-.525-.332-.35.445m6.692-.082c-.46.295-.542.448-.542.999 0 .357.04.65.089.65.204 0 1.745-.849 1.744-.961 0-.067-.17-.328-.375-.58l-.374-.457-.542.349m-28.042 1.732v1.75h-7.833v-3.5h7.833v1.75m8.667 0v1.75h-7.833v-3.5h7.833v1.75m23.5-.993c0 .29-2.243 5.577-2.366 5.577-.246 0 .024-1.159.635-2.722.316-.81.62-1.804.675-2.209.093-.675.14-.736.579-.736.262 0 .477.04.477.09m-36.5 5.327v1.75h-7.667v-3.5h7.667v1.75m8.667 0v1.75h-7.834v-3.5h7.834v1.75m8.666 0v1.75h-7.666v-3.5h7.666v1.75m10.667.087c0 .094.3.496.667.893.366.398.666.81.666.913 0 .105.075.19.167.19.092 0 .167-.085.167-.19 0-.104.3-.515.666-.913.367-.397.667-.8.667-.893 0-.104-.59-.17-1.5-.17s-1.5.066-1.5.17m-1.684 2.562c.644.656 1.255 1.02 2.262 1.345.25.081-.309.447-2.333 1.528-5.651 3.017-8.449 4.431-8.308 4.2.08-.134 1.56-1.902 3.287-3.931 1.894-2.224 3.284-3.717 3.5-3.76.757-.147.894-.094 1.592.618m-5.758 3.202c-1.545 1.81-2.976 3.484-3.181 3.72l-.373.429.04-2.383.04-2.383 3.083-1.388c1.695-.763 3.109-1.365 3.14-1.337.032.028-1.205 1.531-2.75 3.342m-7.035-1.88 2.895 1.222.037 2.403.038 2.404-.593-.667c-1.738-1.955-5.55-6.583-5.42-6.583.082 0 1.452.55 3.043 1.221m-1.088 2.07a509.356 509.356 0 0 0 2.968 3.52c.343.39.334.389-.569-.065-1.275-.64-12.234-6.435-12.32-6.515-.037-.035 1.59-.065 3.616-.065h3.684l2.62 3.125m-61.306-48.495c-2.919 1.58-6.05 3.087-6.158 2.962-.066-.077-.258-.615-.428-1.195-.251-.859-.268-1.08-.089-1.19.121-.075.904-.226 1.739-.336.835-.11 2.306-.335 3.269-.498 2.762-.47 2.954-.44 1.666.257m.474 4.007c-.661 2.282-1.209 4.162-1.216 4.179-.007.017-.748-.126-1.647-.317l-1.633-.347-.905-1.806c-.498-.993-.906-1.865-.906-1.938 0-.073.956-.632 2.125-1.242s2.836-1.485 3.704-1.944c.869-.459 1.602-.811 1.63-.784.028.028-.49 1.918-1.152 4.2m-7.902-2.145c.27.661.451 1.242.404 1.29-.08.08-1.925-.116-3.613-.384l-.721-.114 1.47-1.031c.81-.567 1.584-1.016 1.721-.998.14.019.465.563.74 1.237m12.324.61c.423.496.77.94.77.986 0 .046-.825-.19-1.833-.522-1.324-.438-1.834-.68-1.834-.874 0-.424.16-.491 1.175-.491.946 0 .956.006 1.722.901m-1.375.917c2.12.657 2.58.847 2.38.983-.093.064-.815.81-1.604 1.658-1.395 1.5-1.44 1.574-1.64 2.695-.168.937-.272 1.17-.557 1.247-.74.199-.917.103-1.266-.687-.19-.432-.448-.9-.572-1.041-.189-.217-.161-.477.18-1.673.916-3.222 1.073-3.667 1.292-3.667.123 0 .927.218 1.787.485m-12.039.197 1.733.21.809 1.727c.445.95.809 1.77.809 1.823 0 .051-.117.05-.26-.006-.142-.054-.76-.177-1.374-.273-.614-.096-1.242-.213-1.396-.26-.153-.046-.833-.775-1.509-1.618-1.628-2.031-1.625-2.026-1.029-1.908.267.053 1.264.19 2.217.305m3.267 4.813c4.35.815 4.417.83 4.417 1.03 0 .17-3.153 4.118-3.555 4.452-.159.131-.66.188-1.388.156l-1.14-.05-1.62-3.083c-.89-1.696-1.622-3.15-1.625-3.23-.007-.182.353-.129 4.911.725m-5.196.047c.221.39 1.004 1.88 1.74 3.313l1.337 2.605-1.083 1.725c-1.01 1.61-3.524 5.494-3.64 5.623-.028.032-1.275.344-2.771.692-1.496.35-2.91.683-3.14.743l-.422.108-.813-4.102c-.697-3.517-.78-4.135-.58-4.33.488-.475 8.74-7.076 8.853-7.08.065-.003.299.313.52.703m11.944 5.493c.826 2.166 1.496 4.037 1.49 4.16-.007.122-.274.439-.592.704-.533.443-.63.468-1.197.303a308.86 308.86 0 0 0-1.574-.452c-.903-.257-.999-.337-1.675-1.386a54.206 54.206 0 0 1-1.265-2.076l-.548-.963 1.801-2.242c.991-1.233 1.86-2.184 1.93-2.114.071.071.805 1.9 1.63 4.066m4.236-2.932c.884.42 1.293.71 1.35.958.42 1.862.427 1.76-.17 2.42-.505.56-.7.644-2.088.91-.842.162-1.55.27-1.575.243-.069-.08-1.585-4.112-1.585-4.216 0-.143 2.083-.845 2.691-.907.06-.006.679.26 1.377.592m-9.916 4.66c.407.69.34.905-.287.902-.327-.002-.55-.158-.823-.581-.45-.696-.452-.706-.084-.802.654-.17.858-.088 1.194.481m-19.7 6.404c-1.588 3.53-3.294 7.373-3.79 8.542-.496 1.168-.96 2.125-1.032 2.125-.072 0-.133-.77-.136-1.709-.004-.94-.076-4.07-.16-6.958-.083-2.888-.107-5.908-.051-6.712.09-1.306.138-1.47.45-1.539.89-.197 7.52-.489 7.561-.332.025.091-1.255 3.054-2.843 6.583m17.033-3.106.016 1.477-1.187 1.773a91.556 91.556 0 0 1-1.254 1.846c-.118.13-1.892-1.719-1.892-1.97 0-.132.919-1.61 2.041-3.282l2.042-3.04.109.859c.06.473.116 1.524.125 2.337m-13.07.356c.74 3.81.803 4.656.634 8.394l-.131 2.894-.834.306c-1.298.478-8.163 2.794-8.194 2.765-.024-.022 2.703-6.172 6.684-15.072.627-1.4 1.159-2.526 1.183-2.5.024.025.32 1.471.658 3.213m27.801-2.241c.594.865.625.97.479 1.62-.086.381-.349 1.022-.584 1.424l-.428.73-1.716.107c-.944.058-3.472.191-5.62.295l-3.903.188-.715-.812c-.393-.446-.716-.924-.718-1.061-.005-.438.617-1.634.934-1.797.936-.48 1.161-.413 1.788.53.563.848.666.92 1.807 1.261.666.199 1.603.482 2.082.63.865.266.873.265 1.25-.137.208-.222.67-.642 1.027-.933l.648-.53-.187-.74c-.102-.408-.23-.856-.284-.995-.078-.203.165-.306 1.206-.509 2.018-.394 2.194-.35 2.934.729m-13.32 4.301c.265.292.256.38-.14 1.479-.445 1.232-.531 1.957-.255 2.128.092.056.167.174.167.261 0 .139-6.587 5.489-6.757 5.489-.036 0 .26-.47.657-1.042 1.441-2.078 4.49-6.566 5.15-7.583.373-.573.727-1.042.788-1.042.06 0 .236.14.39.31m12.602 1.35c.185.363.336.985.336 1.381 0 .642-.087.806-.791 1.488l-.792.766-4.856-.189-4.857-.19-.342-.416c-.754-.918-.794-1.118-.427-2.14l.339-.943 3.905-.182c2.147-.1 4.634-.193 5.526-.208l1.622-.027.337.66m-17.998.852 1.047 1.178-2.282 3.363a356.489 356.489 0 0 1-2.49 3.642c-.19.255-.379.211-2.2-.518-1.214-.487-1.99-.888-1.987-1.03.002-.126.066-1.592.143-3.257l.14-3.027 2.94-.694a159.61 159.61 0 0 0 3.107-.752c.412-.142.596-.014 1.582 1.095m6.198 3.071c.18.23.466.417.635.417.77 0 .84.14.505.99-.31.786-.31.8.03 1.36.772 1.277 1.29 1.786 1.93 1.894.345.058.716.161.826.229.208.128 4.282 12.51 4.158 12.635-.04.04-2.125-.265-4.634-.676-2.51-.411-5.857-.958-7.439-1.214-1.58-.257-2.875-.526-2.875-.598 0-.072 1.046-2.664 2.323-5.76 1.277-3.097 2.546-6.189 2.818-6.87.806-2.016 1.174-2.823 1.288-2.823.059 0 .254.187.435.416m-3.316 4.625c-1.053 2.59-2.397 5.9-2.986 7.358-.59 1.457-1.113 2.715-1.163 2.796-.096.156-.872-.251-3.776-1.983l-1.795-1.07.89-1.28a1025.7 1025.7 0 0 0 2.033-2.936c.629-.91 1.403-1.886 1.722-2.166.923-.815 6.767-5.417 6.884-5.422.058-.003-.755 2.114-1.809 4.703m11.33-3.934 1.763.108.442.812.441.811-.333.54a5.857 5.857 0 0 1-.804.98l-.47.443-1.75-.225c-4.276-.55-4.31-.56-4.759-1.22-.481-.71-.49-.81-.14-1.686l.269-.67h1.789c.984 0 2.582.048 3.552.107m-.356 4.613 1.27.196 1.8 2.334c.99 1.283 1.91 2.523 2.045 2.756.238.41.184.512-1.88 3.551-1.17 1.721-2.148 3.106-2.176 3.077-.027-.028-.772-2.339-1.656-5.134-.884-2.796-1.748-5.515-1.921-6.042l-.315-.958.78.012c.43.007 1.353.1 2.053.208m5.869 10.655c.052 1.718.051 3.125-.003 3.125-.392 0-4.22-1.246-4.22-1.374 0-.09.493-.885 1.097-1.77.604-.883 1.485-2.182 1.958-2.885l.86-1.278.106.528c.058.29.149 1.935.202 3.654m-24.073-2.067c1.228.741 2.316 1.376 2.416 1.412.252.088-.153.524-2.385 2.569-1.351 1.238-1.936 1.677-2.02 1.518-.065-.123-.206-1.537-.314-3.14-.108-1.605-.23-3.132-.272-3.393-.093-.594-.19-.632 2.575 1.034m11.167 3.11c3.63.598 6.773 1.126 6.986 1.174.344.077-.075.561-3.666 4.234l-4.055 4.147-.308-.36c-.17-.197-.839-1.26-1.487-2.36a250.085 250.085 0 0 0-2.983-4.878c-.993-1.582-1.805-2.913-1.805-2.959 0-.176.923-.05 7.318 1.003m-8.542-.294c-.044.16-.328 1.81-.63 3.666-.304 1.857-.6 3.375-.66 3.375-.112 0-3.033-3.118-3.115-3.324-.025-.063.688-.76 1.584-1.547.895-.788 1.849-1.664 2.118-1.947.547-.575.823-.663.703-.223m2.327 2.172c2.82 4.553 4.609 7.547 4.544 7.61-.035.036-1.076-.253-2.314-.641-4.996-1.567-5.166-1.631-5.166-1.954 0-.169.262-1.841.583-3.717.32-1.877.583-3.49.583-3.587 0-.45.36.016 1.77 2.29m16.776.136c1.12.33 2.055.617 2.076.636.022.019-.817 1.063-1.864 2.32l-1.903 2.284-.093-.712c-.11-.841-.427-4.417-.428-4.837 0-.16.039-.292.087-.292.048 0 1.004.27 2.125.601m-2.395 2.834c.24 2.007.232 2.894-.027 2.97-.888.264-7.88 1.728-7.945 1.664-.044-.045 1.64-1.805 3.745-3.911l3.825-3.83.11.794c.061.437.192 1.478.292 2.313M85.963-73.817c0 12.203-.006 12.447-.314 12.125-.664-.695-7.02-8.958-7.02-9.126 0-.098 1.341-2.996 2.98-6.44a1007.07 1007.07 0 0 0 3.607-7.638c.344-.756.654-1.375.687-1.375.033 0 .06 5.604.06 12.454m1.155-11.746c.17.39 1.15 2.434 2.176 4.542 4.645 9.54 4.901 10.121 4.65 10.534-.232.38-6.664 8.587-7.088 9.043-.191.206-.226-1.71-.226-12.291 0-6.895.04-12.536.089-12.536.049 0 .228.319.399.708m13.762 16.038c2.933.407 6.451.894 7.818 1.08 2.463.335 2.862.43 2.414.574-1.397.446-3.233.99-7.9 2.337-3.024.874-6.287 1.823-7.25 2.108-3.406 1.01-8.573 2.47-8.61 2.432-.022-.021 1.464-1.948 3.302-4.283 1.838-2.334 3.488-4.437 3.667-4.672.237-.311.45-.413.776-.373.247.03 2.85.389 5.783.797m-20.96 1.546c3.208 4.049 5.4 6.906 5.342 6.964-.06.06-.765-.14-10.299-2.933a9584.07 9584.07 0 0 0-8.583-2.51c-4.029-1.171-5.113-1.506-5.056-1.563.03-.03 1.518-.253 3.306-.495 4.201-.568 9.974-1.37 11.25-1.563 2.256-.342 2-.475 4.04 2.1m-15.04 1.712c3.492 1 12.164 3.537 15.416 4.51 4.173 1.25 5.02 1.521 4.952 1.59-.038.037-1.486.659-3.218 1.38-1.733.723-4.338 1.812-5.79 2.421-1.466.615-2.764 1.065-2.917 1.011-.152-.053-3.014-2.792-6.36-6.087-4.365-4.298-5.942-5.947-5.583-5.837.275.085 1.85.54 3.5 1.012m41.016 4.694c-3.19 3.134-5.99 5.846-6.218 6.026-.415.326-.42.326-1.274-.036-.472-.2-3.127-1.31-5.901-2.468s-5.003-2.146-4.953-2.196c.086-.086 2.138-.696 15.746-4.684a804.252 804.252 0 0 0 6.5-1.925c.688-.213 1.397-.394 1.576-.401.207-.01-1.788 2.063-5.476 5.684M77.947-48.287c-4.148 6.15-7.566 11.157-7.595 11.127-.03-.03.091-.836.27-1.791l1.005-5.403c1.113-5.985 1.838-9.646 1.982-9.997.097-.24 1.738-1.001 5.953-2.766 3.2-1.34 5.842-2.417 5.872-2.394.03.024-3.339 5.075-7.487 11.224m16.1-8.49c2.658 1.113 4.889 2.08 4.957 2.148.124.123.438 1.64 1.54 7.441.315 1.65.874 4.57 1.244 6.487.37 1.918.643 3.517.606 3.554-.037.037-1.489-2.057-3.226-4.653-1.737-2.597-5.09-7.571-7.45-11.054-2.36-3.484-4.328-6.425-4.373-6.537-.09-.228-.135-.246 6.701 2.615m-8.086 4.63-.002 6.958-7.456 4.274c-4.1 2.35-7.485 4.246-7.52 4.213-.035-.033 1.515-2.406 3.446-5.273 1.931-2.868 5.298-7.89 7.481-11.159 2.184-3.27 3.99-5.951 4.012-5.958.023-.007.04 3.118.04 6.945m3.38-3.167c6.753 9.98 12.483 18.57 12.426 18.627-.059.059-2.313-1.22-11.512-6.534l-3.625-2.093v-6.897c0-3.792.032-6.895.072-6.895.04 0 1.227 1.706 2.638 3.791M13.844-86.54c-2.527 3.662-3.468 4.937-3.645 4.944-.157.006-1.629-2.824-1.523-2.93.148-.148 6.229-3.879 6.335-3.887.073-.005-.452.838-1.167 1.873m1.891 1.7c-.055.143-2.558 1.71-4.352 2.725-.089.05.253-.505.76-1.233.506-.728 1.516-2.18 2.245-3.225l1.323-1.9.048 1.723c.027.947.016 1.806-.024 1.91m5.68-1.005 2.198 1.327-.772 1.465c-.425.805-.824 1.464-.887 1.464-.1 0-4.656-6.359-4.797-6.696-.058-.14.796.35 4.258 2.44m-2.77.508c1.136 1.605 2.09 2.986 2.117 3.068.027.082-.966-.454-2.209-1.19l-2.258-1.34v-1.728c0-.95.063-1.729.14-1.729.079 0 1.072 1.314 2.21 2.92m-9.673 2.5c.36.78.656 1.456.656 1.5 0 .103-5.26.066-9.583-.067l-3.334-.103 3.334-.813c1.833-.447 4.308-1.06 5.5-1.36 1.191-.3 2.303-.553 2.469-.561.222-.012.476.36.958 1.404m18.596-.67c4.336 1.035 7.075 1.742 7.353 1.898.13.072-1.74.181-4.154.242-5.202.13-8.306.141-8.306.03 0-.045.317-.72.704-1.5.462-.932.8-1.42.982-1.42.152 0 1.692.338 3.42.75m-8.106 1.46c2.23 1.32 2.682 1.516 5.834 2.52 1.879.598 4.316 1.375 5.416 1.727l2 .639.044 6.39.044 6.391-.765 2.937c-1.74 6.683-1.695 6.564-3.615 9.478a278.155 278.155 0 0 0-2.93 4.542c-.658 1.054-1.365 2.037-1.57 2.184-.206.148-1.963 1.441-3.904 2.875-1.941 1.434-3.572 2.607-3.625 2.607-.052 0-.095-9.946-.095-22.102v-22.103l.375.243c.206.133 1.462.886 2.791 1.673m-3.666 20.31c0 21.927-.002 22.02-.33 21.791-1.16-.801-5.921-4.35-6.74-5.023-.787-.647-1.325-1.351-2.678-3.508a422.247 422.247 0 0 0-2.825-4.438C1.986-54.815 1.897-55.06.39-60.673l-.895-3.333-.059-6.57-.058-6.572 5.167-1.634c2.841-.899 5.241-1.636 5.333-1.637.092-.002 1.404-.75 2.917-1.664 1.512-.912 2.806-1.662 2.875-1.666.069-.004.125 9.903.125 22.014m-8.834-19.04 1.084.103-4.584 1.433-4.583 1.433-1.417-1.21c-.779-.667-1.6-1.408-1.825-1.647l-.409-.436 5.326.111c2.929.061 5.813.157 6.408.213m30-.253c0 .033-.819.781-1.82 1.663l-1.82 1.603-2.639-.843c-5.565-1.78-6.63-2.141-6.387-2.167.292-.031 8.256-.24 10.875-.286.985-.017 1.791-.004 1.791.03m-39.958 2.247 1.625 1.413.002 2.098c0 1.154.04 3.56.087 5.348.06 2.266.034 3.149-.085 2.916-.134-.261-3.06-10.818-3.599-12.983-.155-.622-.09-.581 1.97 1.208m38.445 5.055a869 869 0 0 1-1.828 6.637c-.072.23-.135-1.983-.142-4.917l-.012-5.333 1.79-1.55c1.183-1.026 1.806-1.467 1.84-1.304.029.135-.713 3.045-1.648 6.467m-39.173.054c2.227 8.219 2.52 9.337 2.52 9.613 0 .19-.404.32-1.623.522-.892.148-1.667.216-1.723.15-.055-.065-.228-2.819-.385-6.119-.377-7.917-.454-10.034-.358-9.833.044.092.75 2.642 1.57 5.667m41.125-2.459c-.186 4.886-.576 12.734-.635 12.793-.03.03-.392-.006-.805-.08a35.97 35.97 0 0 0-1.708-.248c-.933-.11-.956-.125-.86-.56.154-.707.961-3.734 2.34-8.78a440.911 440.911 0 0 0 1.447-5.375c.094-.39.208-.708.252-.708.045 0 .031 1.331-.03 2.958M.055-59.195c.417 1.545.732 2.836.7 2.868-.032.032-.389-.37-.793-.893a402.557 402.557 0 0 0-2.473-3.143c-.956-1.204-1.748-2.253-1.758-2.331-.01-.077.693-.257 1.564-.4l1.583-.258.21.673c.115.37.55 1.938.967 3.484m36.54-3.64c.047.039-3.578 4.641-4.657 5.913-.454.534-.487.548-.4.166a480.09 480.09 0 0 1 1.666-6.428c.04-.125.557-.105 1.7.065.902.134 1.663.262 1.691.284m-38.251 4.266c3.072 3.938 2.96 3.754 2.517 4.112-1.269 1.03-2.253 1.737-2.322 1.668-.061-.061-1.667-5.073-2.82-8.8-.175-.567-.16-.55 2.625 3.02m37.792-1.758c-.268.818-.914 2.838-1.434 4.488-.52 1.65-.974 3.03-1.008 3.067-.094.103-2.566-1.831-2.566-2.008 0-.085.244-.514.542-.953.7-1.032 4.833-6.203 4.902-6.134.029.028-.167.722-.436 1.54m-32.2 9.835C5.25-48.424 6.3-46.708 6.269-46.68c-.076.07-7.289-5.462-7.3-5.598-.008-.109 2.344-1.973 2.492-1.974.046-.001 1.16 1.691 2.475 3.76m28.406-2.619c.524.401.953.752.953.78 0 .029-1.144.933-2.542 2.01a421.544 421.544 0 0 0-3.678 2.861c-.625.497-1.16.878-1.188.846-.059-.068 3.898-6.294 4.514-7.102.357-.469.454-.515.701-.334.158.116.716.539 1.24.94M4.128-47.68c1.513 1.175 2.85 2.228 2.971 2.341.182.168.083.482-.56 1.762-.734 1.46-.797 1.536-1.026 1.23-.402-.536-5.643-8.118-5.985-8.659-.28-.44-.19-.4.767.345.596.465 2.32 1.806 3.833 2.981m28.578-3.284c-.57.89-4.14 5.977-5.217 7.438l-1.092 1.479-.76-1.53-.759-1.53.715-.593c1.012-.841 7.273-5.715 7.346-5.719.033-.002-.072.203-.233.455M11.077-40.619c3.672 4.655 4.032 5.135 3.718 4.949-.519-.307-8.26-5.64-8.472-5.835-.183-.17-.113-.422.394-1.437.742-1.48.87-1.652 1.157-1.542.122.047 1.563 1.786 3.203 3.865m14.292-2.525c.423.795.71 1.498.64 1.563-.125.112-2.748 1.918-6.84 4.708-1.03.703-1.874 1.235-1.874 1.182 0-.134 6.138-7.877 6.69-8.44.248-.252.488-.458.533-.458.046 0 .429.65.851 1.445m-12.438 2.222 2.855 2.083.004 1.744c.004 1.47-.03 1.706-.22 1.5-.19-.207-4.71-6-5.684-7.286-.434-.572-.347-.516 3.045 1.959m8.485-.792c-.675.848-2.073 2.61-3.106 3.917-1.034 1.306-1.91 2.375-1.948 2.375-.037 0-.067-.745-.067-1.655v-1.655l3.041-2.252c1.673-1.238 3.102-2.256 3.174-2.262.073-.005-.42.684-1.094 1.532M230.234-2.836l1.337 4.751-.407 1.999c-.318 1.564-.464 1.993-.67 1.976-.432-.036-10.272-3.635-10.273-3.757-.001-.158 5.998-10.467 7.304-12.553l.418-.666.476 1.75c.263.961 1.08 3.886 1.815 6.5m2.54-5.045c2.018 1.626 3.994 3.257 4.393 3.625l.724.668-2.794 2.355c-1.536 1.295-2.812 2.339-2.835 2.32-.04-.035-2.112-7.37-2.932-10.383-.23-.848-.376-1.542-.322-1.542.054 0 1.749 1.33 3.766 2.957m6.612 9.917.85 4.29-2.444 2.665c-1.345 1.466-2.503 2.63-2.573 2.587-.113-.07-3.25-4.364-3.548-4.857-.064-.105.088-1.185.338-2.399l.455-2.207 2.92-2.46c2.339-1.972 2.943-2.406 3.035-2.185.064.151.499 2.206.967 4.565M220.729 8.08c.704 2.475 1.256 4.527 1.227 4.56-.029.034-1.862-.97-4.073-2.233l-4.022-2.294.388-.376c1.987-1.929 5.062-4.553 5.125-4.374.042.12.652 2.242 1.355 4.717m4.187-3.26a3116.3 3116.3 0 0 1 4.952 1.803c.368.137.122.377-3.238 3.175-2 1.665-3.667 2.996-3.704 2.96-.037-.037-.622-2.073-1.3-4.523a571.221 571.221 0 0 0-1.33-4.764c-.054-.17-.061-.308-.017-.308.045 0 2.132.745 4.637 1.656m17.888 3.05c1.084.54 1.725.951 1.677 1.077-.057.148-3.783 5.212-4.186 5.689-.062.073-.505-.163-2.529-1.349l-1.704-.998.37-.455c.929-1.138 4.352-4.837 4.477-4.837.077 0 .93.393 1.895.873m-9.775 2.21 1.658 2.334-.593 1.083a792.73 792.73 0 0 1-3.095 5.5c-1.376 2.43-2.701 4.773-2.946 5.21l-.445.791-1.89-4.869a2123.49 2123.49 0 0 1-2.186-5.647l-.295-.778 3.853-3.194c3.144-2.606 3.893-3.154 4.067-2.978.117.118.96 1.265 1.872 2.549m-15.534 1.056c2.095 1.177 3.95 2.217 4.122 2.31.27.148-.191.524-3.303 2.694-1.988 1.388-3.675 2.523-3.747 2.523-.073 0-.178-.469-.234-1.042-.056-.572-.254-2.5-.44-4.284-.332-3.176-.406-4.34-.273-4.34.036 0 1.78.962 3.875 2.14m27.965.892.447 2.115-2.186 3.051c-1.202 1.678-2.242 3.071-2.31 3.096-.069.025-.242-1.057-.385-2.404l-.26-2.45 1.362-1.845a2111.9 2111.9 0 0 0 2.075-2.817c.392-.534.735-.946.761-.916.027.03.25 1.006.496 2.17m-7.731 2.229c2.126 1.253 2.142 1.266 2.237 1.958.329 2.373.568 5.033.462 5.135-.146.142-11.91 3.999-11.98 3.928-.09-.09 6.855-12.278 6.998-12.28.078-.002 1.105.565 2.283 1.259m-13.085 5.497c1.122 2.929 2.016 5.35 1.987 5.382-.03.031-2.656-1.23-5.839-2.803l-5.785-2.86.565-.398c5.231-3.684 6.756-4.722 6.882-4.687.083.023 1.069 2.438 2.19 5.366M165.119-1.553c.046.047-.185.85-.513 1.784-.329.935-.598 1.781-.598 1.881 0 .1.282-.08.625-.4.344-.32.788-.716.987-.88.199-.166 1.834-.705 3.634-1.199l3.272-.898.824.36c.454.198.825.408.825.466 0 .059-1.388.77-3.084 1.58-1.696.81-3.065 1.49-3.042 1.513.05.048 4.252-1.048 6.364-1.66.818-.238 1.502-.414 1.521-.392.455.536 1.16 2.084 1.554 3.412.724 2.442.709 2.47-1.866 3.469-3.149 1.22-7.782 3.13-7.728 3.184.027.026 2.055-.468 4.508-1.099l4.46-1.148-.113.528c-.159.738-.36 1.075-.699 1.172-.16.045-3.704 1.148-7.875 2.449-11.621 3.625-16 4.95-16 4.837 0-.056.281-.85.625-1.766l.625-1.664 1.833-.618c1.009-.34 3.221-1.07 4.917-1.624 2.87-.936 3.008-1 2-.913-.596.05-2.841.386-4.99.745-2.148.36-3.944.615-3.991.567-.12-.12-.871-3.277-.797-3.352.033-.033 1.965-.844 4.294-1.802 2.329-.958 4.159-1.744 4.067-1.747-.091-.002-2.116.37-4.5.827-2.383.457-4.49.831-4.68.832-.278.001-1.715-.724-3.205-1.618-.13-.078 2.05-.73 5.417-1.62 3.1-.818 5.722-1.53 5.828-1.583.107-.052.922-.948 1.813-1.99l1.62-1.897.991.09c.546.05 1.03.128 1.077.174m3.28 7.048-3.693.57-3.181 1.442c-1.75.793-3.16 1.464-3.134 1.49.171.171 9.548-2.37 13.2-3.577 1.965-.649 1.415-.636-3.192.075m-17.875 2.108c.513.397 1.108 1.945 1.817 4.728l.346 1.356-.832 2.054c-.634 1.567-.922 2.09-1.214 2.2-.359.137-3.692-.13-4-.32-.072-.044-.769-1.055-1.549-2.247l-1.417-2.166V7.8l1.542-1.102 1.541-1.101 1.75.9c.963.495 1.87.993 2.016 1.107m-4.748.638-1.101 1.348v3.697l1.019 1.722c.56.947 1.08 1.76 1.155 1.805.18.112 3.186-.378 3.337-.543.064-.07.313-.502.553-.96.408-.778.436-.977.436-3.096 0-2.136-.021-2.283-.375-2.6-.427-.384-3.73-2.722-3.846-2.722-.042 0-.572.607-1.178 1.349m2.671.5c.775.56 1.509 1.179 1.632 1.376.123.197.312 1.174.42 2.17l.195 1.813-.46.88-.46.88-1.23.115c-.675.063-1.252.09-1.283.058a64.342 64.342 0 0 1-1.071-1.604l-1.015-1.546V9.959l.857-1.116c.471-.614.891-1.116.932-1.116.042 0 .71.457 1.483 1.016m-.166 2.078c.454.592.496.749.433 1.615-.062.844-.118.97-.468 1.058-.308.078-.495-.016-.836-.421-1.159-1.378-1.107-1.353-.719-.346.195.504.43 1.129.524 1.388.135.377.24.452.523.37.194-.058.59-.148.877-.2.58-.106.6-.168.82-2.495l.112-1.186-.615-.115a6.879 6.879 0 0 1-.884-.219c-.172-.066-.087.135.233.551m15.196-.147c.12.048.264.042.32-.013.055-.056-.044-.095-.22-.088-.193.008-.233.048-.1.1m15.24 1.02c.746.49.77.613.166.839-1.172.438-4.597 2.022-4.375 2.023.138.001 1.582-.324 3.209-.722 2.098-.513 3.001-.67 3.105-.54.081.101.379.645.661 1.21.438.874.479 1.055.276 1.223-.131.109-1.17.45-2.307.76-1.622.44-2.37.745-3.464 1.417-.768.471-1.246.823-1.063.78.183-.041 1.817-.468 3.63-.948 1.815-.48 3.4-.834 3.525-.786.302.116.522 1.714.277 2.01-.102.122-2.136 1-4.52 1.952-2.384.952-4.277 1.747-4.207 1.768.07.02 1.74-.36 3.712-.845 1.97-.486 3.607-.865 3.637-.844.03.021-.066.27-.212.554-.159.306-.518.62-.888.776-.341.143-4.408 1.639-9.037 3.324a7080.33 7080.33 0 0 0-11.167 4.072c-1.513.555-2.807 1.01-2.876 1.01-.07 0 .228-.533.662-1.186l.79-1.187 4.337-2.162c2.385-1.189 4.074-2.108 3.754-2.041-.321.066-2.265.598-4.32 1.182-2.054.584-3.75 1.043-3.77 1.02-.02-.023-.233-.98-.474-2.125a97.865 97.865 0 0 0-.528-2.417c-.08-.294.162-.43 2.042-1.148 4.172-1.593 6.648-2.672 7.76-3.382.62-.396 1.156-.72 1.191-.72.036 0 .22.262.409.582.292.494 1.056 1.12 1.587 1.3.082.027-.068.356-.333.73-.355.503-.7.758-1.314.974-.459.16-1.884.701-3.167 1.202-2.269.885-3.218 1.36-2.067 1.036.312-.088 1.986-.46 3.72-.826 1.735-.366 3.167-.685 3.182-.707l.8-1.208c.424-.641 1.01-1.447 1.303-1.79.525-.613.53-.633.303-1.333-.347-1.07-.9-1.533-2.118-1.773-.574-.112-1.123-.155-1.22-.095-.098.06-1.153.812-2.346 1.67-2.019 1.454-2.3 1.602-4.112 2.161-1.07.33-2.86.895-3.98 1.255-1.119.36-2.116.655-2.215.655-.1 0-.61-.314-1.132-.698a532.24 532.24 0 0 0-1.51-1.105l-.56-.407 1.476-.465c.812-.255 3.163-.991 5.226-1.635 2.062-.644 5.812-1.82 8.333-2.614 2.521-.793 5.521-1.727 6.667-2.076 2.307-.703 1.971-.731 3.542.3m-34.902 3.534c.438.592.264.628-.688.141-.62-.315-.663-.373-.369-.488.55-.215.671-.175 1.057.347m-.679 1.064c.984.494 1.92 1.044 2.082 1.223.478.53 1.464 3.526 1.646 5.003l.17 1.374-.67 1.46a47.469 47.469 0 0 0-.836 1.901c-.134.357-.33.478-1.022.626-.825.177-.915.158-2.426-.507-.863-.38-1.636-.774-1.716-.876-.08-.102-.674-1.297-1.32-2.656l-1.172-2.472.416-1.519c.653-2.382.73-2.525 1.887-3.517.596-.51 1.103-.93 1.128-.933.024-.003.85.4 1.833.893m27.573-.656c.644.108 1.3.737 1.3 1.245 0 .15-.214.4-.474.554-.79.467-2.068-.099-2.406-1.063-.132-.376.342-1.01.685-.916.153.042.556.123.895.18m-28.57 1.683c-.05.05-.562.218-1.139.375l-1.048.284-.573 1.72-.573 1.72.893 1.929.893 1.93 1.724.82c.949.45 1.747.796 1.774.767.027-.03.433-.772.9-1.65.821-1.54.852-1.645.852-2.94 0-1.271-.04-1.417-.753-2.757-.553-1.04-.929-1.532-1.413-1.852-.61-.404-1.32-.564-1.536-.346m1.227 1.005c.593.307 1.542 2.185 1.831 3.627.162.807.142.96-.233 1.706a15.04 15.04 0 0 0-.698 1.7l-.288.878-.944-.534c-1.493-.846-1.527-.871-1.527-1.176 0-.16.19-.414.422-.566.368-.24.392-.312.192-.546-.126-.148-.325-.623-.442-1.056-.206-.764-.198-.804.266-1.363.263-.317.526-.581.583-.588.057-.006.413.324.791.735.379.41.688.708.688.661 0-.127-1.016-2.13-1.191-2.348-.107-.133-.438.108-1.09.793l-.939.983.212 1.425c.117.783.161 1.475.099 1.538-.173.172-.7-.601-1.17-1.715l-.42-1 .383-1.584.383-1.583 1.075-.096c.591-.053 1.172-.11 1.292-.125.119-.016.445.09.725.234m4.783.571c.564.146.704.25.633.468-.57 1.743-.817 2.488-.897 2.698-.053.137-.157-.125-.23-.583a13.282 13.282 0 0 0-.475-1.818c-.41-1.188-.408-1.141-.048-1.037.16.047.618.17 1.017.272m6.187 1.01c1.55 1.14 1.856 1.44 1.995 1.96.303 1.135 1.176 5.371 1.176 5.706 0 .183-.405.925-.901 1.65-.496.723-.976 1.447-1.066 1.608-.155.278-.248.278-1.973 0-.995-.16-1.96-.322-2.143-.36-.365-.075-1.7-2.027-2.218-3.245-.177-.415-.452-1.36-.612-2.1l-.291-1.348.44-1.566c.241-.861.51-1.732.596-1.936.147-.346 2.47-1.685 2.959-1.705.114-.004 1.031.597 2.038 1.337m-3.163.67c-.504.275-.998.59-1.097.7-.1.111-.387.846-.636 1.633l-.454 1.43.893 2.233.894 2.232 1.63.32 1.631.318 1.213-1.204 1.212-1.204-.132-.706a57.44 57.44 0 0 0-.398-1.861c-.57-2.466-.482-2.316-1.847-3.145a90.136 90.136 0 0 1-1.623-1.003c-.338-.222-.45-.2-1.286.257m2.14 1.138 1.298.653.472 1.805c.7 2.683.707 2.509-.149 3.639-.416.55-.757 1.048-.758 1.107-.002.09-2.482-.795-2.64-.943-.03-.028.458-.33 1.084-.672 2.016-1.103 1.85-.88 1.668-2.219-.15-1.111-.194-1.198-.803-1.602-.736-.487-.834-.387-.234.24.292.304.443.697.52 1.36l.11.932-.545.19c-.878.306-1.055.236-1.496-.597l-.416-.788-.083 1.496-.084 1.496-.934-1.833c-.514-1.009-.898-1.946-.852-2.084.582-1.767.733-2.009 1.508-2.412.428-.223.836-.41.907-.413.07-.005.713.286 1.427.645m-5.398 4.274c.061.328.15.694.195.813.055.144-.178.281-.697.412-.429.108-.806.17-.838.138-.1-.1 1.002-2.1 1.118-2.028.06.037.16.336.222.665M98.202-13.037l.795 2.002-.47.983c-.259.54-.63 1.183-.824 1.427l-.354.444-.706-1.262c-.388-.694-.706-1.388-.706-1.54 0-.236 1.357-4.056 1.44-4.056.016 0 .387.9.824 2.002m-2.734 3.968c.704.585 1.323 1.174 1.375 1.31.125.325.123 3.054-.002 3.054-.053 0-.755-.56-1.56-1.242-1.618-1.373-1.671-1.486-1.675-3.57-.002-1.22-.21-1.27 1.862.448m5.723.472-.116 1.388-1.5 1.252c-.826.688-1.57 1.252-1.652 1.252-.25 0-.178-2.466.086-2.978.131-.253.9-1.012 1.709-1.685 1.68-1.401 1.655-1.415 1.473.771m12.982.6c-.03.206-.141 1.125-.25 2.042-.108.916-.28 1.773-.382 1.903-.177.225-2.33 1.68-2.486 1.68-.04 0-.126-.596-.19-1.324-.135-1.548-.04-1.799 1.037-2.75.625-.552 2.243-1.9 2.304-1.92.01-.003-.005.163-.033.369M84.145-6.621l1.292 1.277v1.306c0 1.968 0 1.968-1.428.98-.675-.466-1.266-.971-1.314-1.122-.088-.28-.417-3.193-.422-3.74-.004-.443.377-.179 1.872 1.3m4.792 3.736c0 .155-.372 1.099-.826 2.096l-.827 1.814-.671-1.461-.672-1.46.32-.947c.175-.52.553-1.47.84-2.11l.523-1.163.656 1.474c.362.811.657 1.602.657 1.757m12.254-1.53c-.105 1.444-.167 1.678-.561 2.097-.529.563-2.602 2.278-2.753 2.278-.059 0-.107-.67-.107-1.49 0-1.31.046-1.542.375-1.912.355-.398 2.972-2.586 3.103-2.594.034-.002.009.727-.057 1.621m8.208-.25c1.003 2.796.987 2.453.181 3.945-.393.727-.758 1.295-.812 1.262-.054-.033-.425-.86-.825-1.836l-.727-1.775.728-1.486c.4-.816.78-1.485.845-1.485.064 0 .338.619.61 1.375m-14.034.072 1.572 1.281v1.657c0 1.297-.045 1.622-.208 1.499-1.383-1.042-2.86-2.372-2.977-2.682-.161-.424-.208-3.035-.054-3.035.052 0 .802.576 1.667 1.28M84.048-1.835l1.132.38.635 1.312c.35.722.609 1.34.576 1.372-.109.109-3.622-.895-3.88-1.108-.242-.202-1.272-1.94-1.494-2.523-.099-.259-.03-.262.896-.046.552.129 1.513.405 2.135.613m31.389-.626c0 .043-.383.68-.851 1.418-.534.842-.984 1.369-1.208 1.417-.915.196-3.247.587-3.505.587-.241 0-.187-.19.333-1.181.342-.65.777-1.283.968-1.406.493-.32 4.263-1.059 4.263-.835m-8.01 2.532.716 1.86-.718 1.348c-.396.742-.764 1.349-.82 1.349-.157 0-1.502-3.287-1.502-3.671 0-.42 1.377-3.028 1.511-2.863.053.064.419.954.813 1.977M90.336-.371c.33.826.6 1.624.6 1.774 0 .317-1.506 3.558-1.654 3.558-.055 0-.38-.632-.723-1.404-.53-1.195-.597-1.475-.451-1.875.19-.519 1.556-3.554 1.6-3.554.015 0 .297.675.628 1.501m5.9 1.213.714.729-.048 1.52-.048 1.521-1.417-1.173c-.78-.646-1.507-1.373-1.618-1.617-.11-.244-.204-1.068-.208-1.83l-.007-1.386.958.753c.527.415 1.28 1.082 1.673 1.483m4.981-.623c-.058.875-.163 1.692-.233 1.815-.167.29-2.919 2.587-3.104 2.59-.077.002-.115-.716-.083-1.597l.058-1.6.666-.577c1.744-1.51 2.61-2.222 2.7-2.222.056 0 .053.716-.004 1.59M85.099 1.966c1.052.277 1.965.558 2.03.624.263.273 1.277 2.705 1.127 2.705-.575 0-3.745-.937-3.94-1.165-.478-.559-1.532-2.669-1.332-2.668.112 0 1.063.228 2.115.504m27.317.87a48.88 48.88 0 0 1-.921 1.448c-.105.118-3.941.85-4.023.768-.092-.092 1.072-2.248 1.399-2.59.22-.23 3.15-.947 4.025-.985.35-.015.314.084-.48 1.36m-7.34 1.03c.382.955.694 1.857.694 2.003 0 .29-1.318 2.996-1.412 2.9-.16-.163-1.421-3.484-1.421-3.743 0-.356 1.168-2.9 1.332-2.9.061 0 .425.783.807 1.74m-12.815-.25c.549 1.313.437 2.542-.388 4.265l-.635 1.33-.659-1.416c-.414-.89-.624-1.552-.566-1.781.2-.799 1.607-3.603 1.734-3.458.074.085.306.561.514 1.06m3.218 1.136 1.458 1.23v3.335l-1.214-1.005c-1.974-1.632-1.925-1.55-2.057-3.424-.134-1.92-.287-1.908 1.813-.136m5.69.167c-.076 1.133-.191 1.719-.38 1.935-.347.402-2.786 2.44-2.918 2.44-.055 0-.1-.674-.1-1.498 0-1.4.029-1.53.458-1.999.567-.621 2.745-2.481 2.92-2.494.07-.005.079.722.02 1.616m9.762.666c-.003.069-.363.725-.799 1.459l-.793 1.333-1.326.281c-.73.155-1.68.33-2.114.39l-.788.109.765-1.35c.42-.743.835-1.394.92-1.447.128-.079 3.588-.843 4.016-.887a.105.105 0 0 1 .119.112m-24.086.46c.866.23 1.733.478 1.927.55.406.15 1.73 2.758 1.431 2.82-.1.021-1.003-.166-2.005-.416l-1.822-.455-.79-1.459c-.54-1.001-.714-1.458-.551-1.458.13 0 .945.188 1.81.419m16.449 2.796.39 1.133-.722 1.409c-.397.775-.771 1.41-.832 1.41-.16-.001-1.36-3.217-1.36-3.646 0-.199.312-.979.694-1.733l.693-1.371.373.833c.205.458.549 1.343.764 1.965m-9.212-.306.86.909-.316.8c-.647 1.634-1.275 3.046-1.356 3.044-.14-.004-1.333-2.681-1.333-2.994 0-.161.175-.696.39-1.19.213-.492.436-1.026.494-1.186.162-.448.332-.365 1.26.617m-5.477 1.538c2.53.674 2.445.618 3.183 2.086.369.734.629 1.377.578 1.428-.052.051-.971-.163-2.044-.476l-1.95-.568-.8-1.39c-.44-.764-.8-1.421-.8-1.461 0-.08.462.016 1.833.381m19.991-.322c-.004.069-.333.687-.73 1.375l-.72 1.25-2.041.466c-1.123.256-2.077.43-2.12.386-.044-.043.286-.702.733-1.465l.812-1.387 1.746-.362c1.937-.402 2.333-.447 2.32-.263m-10.49 5.333.003 4.792.385-.674c.212-.37.971-1.805 1.688-3.189l1.303-2.515.564.333.565.333-.396.69c-.217.378-.905 1.675-1.527 2.88l-1.131 2.193-.984.336c-.75.256-1.112.3-1.518.183a4.591 4.591 0 0 0-1.048-.153c-.5 0-.548-.073-1.879-2.859-.75-1.572-1.345-2.866-1.321-2.875.025-.009.282-.14.572-.292l.528-.276 1.257 2.699c.69 1.485 1.33 2.884 1.42 3.11.112.282.166-1.128.174-4.55l.01-4.957h1.333l.002 4.791m2.23 5.639c.199.516.094.752-.481 1.092-.652.384-.753.644-.25.644.41 0 .426.2.041.54-.41.363-2.718.96-3.71.96-.708 0-.831-.047-.831-.32 0-.691.178-.846.976-.849 1.253-.004 1.353-.253.203-.508-.837-.186-1.012-.284-1.01-.565.005-.689.202-.78 1.091-.511 1.156.35 1.52.319 2.656-.234 1.198-.583 1.188-.581 1.316-.25m.385 7.492c.852 2.19 1.547 4.06 1.543 4.155-.008.224-.79 1.185-.883 1.084-.038-.043-.773-1.949-1.632-4.237l-1.562-4.16-.044 5.787-.044 5.787-.662-.337-.662-.338-.044-5.255-.044-5.254-1.659 4.184c-.912 2.302-1.707 4.214-1.766 4.25-.059.037-.315-.15-.568-.414l-.461-.48 1.671-4.055 1.671-4.055.89-.122c.488-.067 1.226-.23 1.639-.363.412-.133.821-.223.909-.2.088.023.857 1.833 1.708 4.023M31.028 1.472c3.136 1.313 3.507 1.507 3.139 1.645-1.488.56-14.635 4.865-14.835 4.858-.473-.017-7.252-3.446-6.998-3.54.137-.05 2.162-.668 4.5-1.373a636.645 636.645 0 0 0 6-1.836C25.844.272 26.739.016 27.111 0c.199-.01 1.961.654 3.917 1.472m3.934 5.637-.045 3.292-5.083 1.784-7.485 2.626c-1.321.463-2.421.823-2.444.8-.023-.024-.097-1.523-.164-3.332-.115-3.13-.106-3.294.194-3.416.68-.278 14.662-5.006 14.86-5.025.167-.016.203.687.167 3.27m-19.723-.056 3.58 1.735.05 3.307c.026 1.819.025 3.342-.003 3.386-.029.043-1.679-.744-3.667-1.75l-3.615-1.83-.045-3.291c-.025-1.81-.009-3.292.036-3.292.046 0 1.694.78 3.664 1.735m21.463 4.7c.943.148 1.815.324 1.938.39.154.084-.345.62-1.628 1.749l-1.851 1.627-2.039-.28c-2.67-.367-2.622-.35-2.622-.926 0-.324-.118-.546-.36-.676-.456-.244-.423-.263 2.027-1.145a74.497 74.497 0 0 0 2.25-.838c.452-.199.355-.203 2.285.1m-22.39 2.71 3.563 1.793-2.773.628-2.772.628-3.065-1.89c-1.685-1.038-3.044-1.91-3.02-1.936.037-.038 4.125-.97 4.422-1.007.046-.006 1.686.797 3.646 1.783M39.5 15.753c0 2.693-.009 2.767-.335 2.682-.184-.048-1.046-.26-1.916-.469l-1.582-.381V16.9c0-.659.066-.743 1.792-2.29.985-.884 1.848-1.611 1.916-1.617.07-.005.125 1.237.125 2.76m-30.27.82 2.604 1.608v3.318c0 1.825-.045 3.318-.1 3.318-.055 0-1.405-.86-3-1.911l-2.9-1.911v-6.549l.397.26c.218.143 1.568.983 3 1.868m20.231 1.362-.045 3.286-2.667.63c-1.466.347-5.193 1.23-8.281 1.965-3.089.733-5.657 1.334-5.709 1.334-.051 0-.093-1.532-.093-3.404v-3.404l1.875-.435c5.986-1.388 14.262-3.227 14.587-3.24l.378-.017-.045 3.285m3.122-1.955c2.488.36 2.25.223 2.245 1.302l-.004.95-2.023 1.084a98.518 98.518 0 0 1-2.162 1.14c-.077.03-.14-1.045-.14-2.39v-2.443l.459.094c.252.051.983.17 1.625.263m7.81 3.83c2.144.554 3.963 1.008 4.044 1.01.195.004-1.11.833-5.688 3.61a802.888 802.888 0 0 0-4.25 2.588c-.395.25-.641.199-4.875-1.009-2.452-.7-4.457-1.31-4.457-1.357 0-.047.545-.372 1.209-.721 4.18-2.202 5.77-3.056 7.623-4.094 1.146-.642 2.177-1.136 2.29-1.1.114.037 1.96.52 4.104 1.073m-30.371 5.17c.437.316.603.523.457.57-.126.04-.772.23-1.435.423l-1.205.35-3.628-1.772C2.216 23.577.659 22.75.75 22.715c.092-.035 1.03-.311 2.084-.613l1.916-.549 2.293 1.465c1.261.806 2.602 1.69 2.98 1.963m35.014-.122c-.046 2.101-.137 3.274-.262 3.399-.293.292-9.781 6.226-9.955 6.226-.085 0-.154-1.049-.154-2.375-.001-1.306-.048-2.755-.103-3.22l-.102-.845.811-.507A405.62 405.62 0 0 1 38 25.867c1.055-.64 3.042-1.851 4.417-2.69 1.375-.84 2.543-1.526 2.596-1.526.052 0 .063 1.443.024 3.208m-20.662-.996-1.041.525v4.568l-7.375 2.455c-4.056 1.35-7.469 2.49-7.584 2.532-.162.06-.208-.678-.208-3.345v-3.422l1.695-.526c1.254-.39 1.786-.486 2.043-.369.26.119 1.853-.205 6.346-1.289 3.3-.796 6.112-1.492 6.25-1.548.137-.055.4-.102.583-.104.183-.001-.136.234-.709.523M4.167 25.531l3.083 1.59.045 3.411.045 3.412-2.461-1.295a807.516 807.516 0 0 0-3.545-1.855l-1.084-.56-.108-.917c-.06-.504-.116-2.024-.125-3.377L0 23.48l.542.23c.298.127 1.93.946 3.625 1.82m24.908 1.2c2.375.685 4.37 1.304 4.434 1.375.065.07.169 1.617.232 3.435.108 3.144.099 3.302-.188 3.216l-3.886-1.173a435.821 435.821 0 0 0-4.417-1.317l-.833-.233-.045-3.275c-.036-2.591 0-3.274.17-3.274.119 0 2.159.56 4.533 1.246M-36.959 6.924c2.583 1.167 2.64 1.203 2.703 1.751l.065.56-3.124 1.001-3.124 1.002-2.968-1.489c-2.363-1.185-2.899-1.514-2.634-1.617.184-.071 1.571-.635 3.084-1.253 1.512-.618 2.887-1.128 3.055-1.135.167-.006 1.492.525 2.943 1.18m6.334 2.834c.001.128-1.406.975-1.619.975-.145 0-1.047-1.713-1.047-1.988 0-.081.6.089 1.333.378.732.29 1.332.576 1.333.636m-13.755.195c1.753.882 1.954 1.024 1.59 1.127-.23.065-.702.126-1.05.135-.565.015-.761.154-1.845 1.308-2.397 2.552-2.655 2.867-2.416 2.95.125.045 1.038.264 2.029.49l1.801.408.865-.393c.476-.215.961-.416 1.078-.444.136-.034.504.718 1.02 2.082l.807 2.134-.21 5.5c-.114 3.024-.237 5.528-.273 5.564-.054.054-6.121-10.718-8.672-15.397l-.782-1.435 1.318-2.084a2269.76 2269.76 0 0 0 1.665-2.634c.418-.665.357-.679 3.076.69m11.38 1.486c3.472 5.335 3.56 5.486 3.349 5.74-.113.135-.527.468-.922.74l-.717.493-2.376-1.873-4.265-3.366-1.888-1.495.638-.209c2.927-.958 4.836-1.556 4.992-1.563.103-.005.638.685 1.19 1.533m-8.286.917c-.567 1.9-.692 2.067-1.912 2.584-1.1.466-1.202.48-2.103.289-1.51-.32-1.517-.346-.42-1.53 1.746-1.881 1.606-1.802 3.176-1.802h1.396l-.137.459m5.465 3.268 4.028 3.144v.981c0 .54-.018.98-.041.979-.023-.002-1.836-.364-4.028-.804l-3.985-.801-.722-1.905c-.398-1.047-.723-2.012-.723-2.144 0-.132.2-.858.447-1.613.393-1.207.48-1.35.721-1.177.15.108 2.087 1.611 4.303 3.34m-18.848-1.419 3.207.109-3.1 3.917c-4.742 5.99-5.948 7.5-5.99 7.5-.08 0-2.407-11.209-2.407-11.59 0-.197.754-.191 8.29.064m-9.74.42c-.234.399-6.696 9.502-7.112 10.017l-.399.496.323-1.662c.177-.914.507-2.631.731-3.816.225-1.185.427-2.169.45-2.187.167-.136 5.903-3.07 6.007-3.072.073-.002.073.099 0 .224m2.5 7.939.735 3.583-5.268.084c-2.897.045-5.288.038-5.314-.017-.026-.054 1.485-2.24 3.358-4.859 1.873-2.617 3.728-5.235 4.123-5.816l.717-1.057.457 2.25c.252 1.236.788 3.861 1.192 5.832m10.783 2.79v10.291l-4.58-4.577c-3.995-3.994-4.553-4.613-4.374-4.86.175-.242 2.362-3.011 7.581-9.602.672-.848 1.255-1.542 1.297-1.542.042 0 .076 4.63.076 10.29m4.836-2.623c2.222 3.987 4.3 7.718 4.617 8.29l.576 1.04-.39.15c-1.373.532-3.267 1.317-5.84 2.42-1.624.697-3.03 1.266-3.126 1.266-.113 0-.173-.999-.173-2.875 0-3.545.207-17.642.258-17.584.02.024 1.855 3.305 4.078 7.293m16.466-4.062c-.041.478-.2.727-.76 1.188l-.709.583v-.676c0-.578.09-.75.622-1.188.341-.282.683-.512.76-.512.076 0 .115.272.087.605m-42.134 3.405c-.87 4.506-.753 4.126-1.249 4.031-.23-.044-.421-.09-.424-.102-.142-.583-.432-3.74-.355-3.864.437-.698 2.58-3.577 2.627-3.53.032.032-.237 1.591-.6 3.465m34.063-1.645 1.646.366-.104 1.093a30.907 30.907 0 0 0-.104 2.367l-.001 1.274-1.849 2.81c-1.016 1.544-1.888 2.846-1.937 2.892-.049.045-.043-1.155.014-2.667l.21-5.625c.073-1.932.169-2.875.293-2.876.102 0 .926.164 1.832.366m-23.48 6.801c-.058.183-.612 1.493-1.232 2.911l-1.126 2.578-2.57 1.99c-1.415 1.094-2.62 1.94-2.68 1.88-.121-.122-2.975-9.253-2.975-9.52 0-.114 1.784-.172 5.344-.172 5.267 0 5.343.005 5.24.333m5.157 4.292c2.351 2.315 4.195 4.209 4.097 4.209-.506 0-10.498-2.79-10.72-2.993-.145-.133 2.066-5.528 2.24-5.464.058.022 2.031 1.934 4.383 4.248m14.355 3.084c-.055.664-.177 2.705-.272 4.535-.095 1.83-.209 3.363-.253 3.408-.045.044-.398-.035-.784-.175l-.704-.255-.701-3.136c-1.01-4.521-1.093-4.01.784-4.85.871-.389 1.684-.714 1.806-.722.175-.01.202.245.124 1.195m-20.387-.613c.61.207.787.355.855.708.18.941.66 7.028.56 7.127-.057.057-.42-.001-.806-.13l-.703-.234-1.29-3.242-1.29-3.241.69-.62c.786-.705.922-.73 1.984-.368m15.896 1.696c-.048.252-.328 2.37-.622 4.708s-.58 4.304-.636 4.37c-.174.203-1.403-.315-1.523-.642-.062-.171-.352-1.736-.644-3.478-.292-1.741-.566-3.286-.609-3.433-.06-.206.374-.461 1.884-1.109 1.079-.463 2.024-.849 2.1-.858.076-.009.098.19.05.442m-19.271.917c0 .664.05 2.615.11 4.334l.109 3.126-.569-.107c-.312-.06-.67-.16-.794-.226-.124-.065-.71-1.383-1.304-2.928l-1.079-2.81.388-.283c.214-.156.95-.735 1.638-1.288s1.306-1.01 1.375-1.016c.069-.006.125.533.126 1.198" fill="#000"/></svg>