<svg xmlns="http://www.w3.org/2000/svg" width="50" height="55" viewBox="0 0 50 55"><path d="M165.408 6.087c.515 1.095.735 1.74.63 1.846-.29.29-4.573 2.638-4.81 2.638-.255 0-1.995-3.547-1.779-3.627.074-.027 1.184-.606 2.468-1.286 1.283-.68 2.415-1.241 2.516-1.246s.54.75.975 1.675m2.329-1.1c1.058.32 2.693.801 3.635 1.068 1.926.546 9.926 2.853 11.711 3.378l1.167.343-1.833.87c-1.563.743-1.907.85-2.334.723-.275-.081-3.162-.897-6.416-1.812-3.255-.916-6.05-1.705-6.213-1.755-.32-.097-2.066-3.398-1.798-3.398.087 0 1.023.263 2.08.583m-8.803 10.584c-.787 2.429-2.593 8.088-4.012 12.575-1.54 4.87-2.7 8.268-2.875 8.43-.317.293-3.046 2.025-3.046 1.933 0-.14 6.803-21.17 9.038-27.938l.853-2.584.737 1.584.736 1.583zM169.69 9.23c1.224.362 3.988 1.155 6.142 1.76 2.155.606 4.071 1.201 4.26 1.323.19.124.911 1.445 1.622 2.97l1.28 2.748-2.428 7.478a4423 4423 0 0 1-4.122 12.63l-1.695 5.153-2.72 1.473c-1.495.81-2.87 1.472-3.055 1.472-.25 0-8.492-2.34-12.69-3.603-.186-.056-.845-1.182-1.728-2.953l-1.429-2.862 1.865-5.833c1.025-3.207 2.528-7.894 3.338-10.415.811-2.521 1.75-5.483 2.088-6.583s.72-2.113.852-2.25c.385-.406 5.446-3.14 5.837-3.155.197-.007 1.36.285 2.583.647m16.646 3.55c.64 1.352 1.162 2.514 1.16 2.583-.002.068-.819.554-1.816 1.08-1.967 1.035-1.899 1.037-2.404-.068l-.961-2.083c-1.137-2.457-1.231-2.095.813-3.126.983-.496 1.845-.889 1.916-.873s.652 1.136 1.292 2.487m-21.193 5.01-2.273 1.853 1.345 1.472 1.345 1.471 1.265-1.258c.72-.716 1.407-1.257 1.595-1.257.181 0 .855.15 1.496.333.64.183 1.182.333 1.202.333s-.73-1.082-1.667-2.405c-.936-1.323-1.777-2.403-1.869-2.4-.091.002-1.19.838-2.44 1.857M168.5 16c0 .133 3.178 4.48 3.309 4.525.116.04 2.413-3.123 2.326-3.203-.058-.054-5.384-1.417-5.537-1.417a.096.096 0 0 0-.098.094m17.342 5.5c-.909 2.744-2.224 6.752-2.923 8.906-1.96 6.042-5.45 16.576-5.513 16.645-.071.077-1.384-2.75-1.51-3.248-.054-.22.504-2.171 1.41-4.922 1.8-5.468 3.091-9.445 4.7-14.475.66-2.062 1.37-4.265 1.58-4.896l.382-1.145 1.724-.966c.949-.53 1.742-.947 1.763-.926.022.021-.704 2.283-1.613 5.027m-12.302-2.204c-.567.764-1.071 1.498-1.122 1.631-.074.193.275.3 1.713.527.994.157 1.926.285 2.071.285.208 0 .085-.408-.578-1.916-.463-1.054-.89-1.917-.949-1.917s-.57.625-1.135 1.39m-1.422 2.395c-.042.072-.13.574-.195 1.114-.096.786-.075.965.104.897a91 91 0 0 1 2.02-.635c.988-.303 1.738-.6 1.667-.662-.072-.06-.768-.24-1.547-.398a43 43 0 0 1-1.695-.367c-.152-.045-.312-.022-.354.051m1.924 1.954-2.041.685 1.479 1.473c.83.827 1.526 1.396 1.586 1.298.06-.096.362-.873.673-1.726.31-.854.644-1.758.742-2.01.231-.598.148-.588-2.439.28m-5.623 2.353c-1.282.687-2.42 1.341-2.53 1.454-.244.252-1.463 4.269-1.334 4.398.051.051 1.044-.271 2.207-.717l2.113-.81.96-2.792c.53-1.535.951-2.79.938-2.787-.012.002-1.072.566-2.354 1.254m3.007-1.082-.984 2.657c-.494 1.329-.877 2.441-.851 2.471.065.077 4.908-2.201 4.908-2.308 0-.048-.671-.756-1.492-1.573-1.03-1.025-1.52-1.412-1.58-1.247m-6.844 9.35c-.948.49-1.583 1.135-1.583 1.607 0 .38 1.355 2.757 1.69 2.964.162.1 2.19-.95 2.685-1.39.543-.483.403-1.043-.665-2.666-.66-1.003-1.017-1.09-2.127-.515m-10.841 5.848c.67 1.398 1.186 2.596 1.148 2.661-.095.164-3.562 2.015-3.633 1.941-.09-.094-2.261-4.815-2.303-5.008-.04-.184 2.98-2.095 3.35-2.12.125-.009.742 1.076 1.438 2.526m7.614 4.89 6.484 1.923 1.09.323.877 1.764c.482.97.844 1.797.804 1.836s-2.35-.639-5.133-1.509c-6.814-2.129-12.822-3.935-13.091-3.935-.526 0-.11-.313 1.488-1.119.94-.474 1.794-.866 1.898-.871.105-.005 2.617.71 5.583 1.589m14.54 1.206c.424.948.77 1.786.77 1.864 0 .196-4.513 2.727-4.884 2.739-.227.006-.486-.42-1.042-1.715-.407-.948-.74-1.815-.74-1.926 0-.245 4.873-2.96 5.02-2.798.058.063.452.89.875 1.837M121.91 7.43c1.326.382 2.376.75 2.334.817-.042.068-1.127.776-2.411 1.574l-2.335 1.451-2.874-.617c-1.58-.34-3.085-.667-3.342-.728-.412-.098-.078-.296 2.75-1.638 1.77-.84 3.274-1.532 3.343-1.54.07-.006 1.21.3 2.536.682m7.714 1.891c1.306.32 2.487.582 2.625.582s.247.056.244.125-1.327.95-2.942 1.958a342 342 0 0 0-6.286 4.051l-3.35 2.218-1.25-.088c-1.376-.096-6.98-.856-7.085-.96-.063-.064 1.484-.963 7.336-4.264 1.466-.828 3.791-2.141 5.166-2.92 1.507-.853 2.633-1.389 2.834-1.35.183.037 1.402.328 2.708.648M113.25 11.84c1.925.242 3.556.49 3.624.552.068.06-.27.34-.75.621s-2.545 1.522-4.587 2.76l-3.713 2.249-1.287-.227a202 202 0 0 0-4.2-.65c-1.601-.235-2.933-.447-2.959-.473s1.997-1.084 4.496-2.351c2.498-1.268 4.768-2.437 5.043-2.598s.575-.3.666-.309c.092-.007 1.742.184 3.667.426m-9.614 6.551c2.687.448 4.907.84 4.932.872.183.234 2.265 4.307 2.265 4.431 0 .087-.656.253-1.458.37-.802.118-2.77.427-4.373.687s-2.963.42-3.02.356c-.058-.065-.792-1.615-1.632-3.444-1.391-3.029-1.825-4.096-1.66-4.088.033.001 2.259.369 4.946.816m11.693.28c1.694.231 3.092.435 3.106.452s.299.578.633 1.244c.436.871.547 1.234.394 1.29-.307.111-6.088 1.415-6.278 1.415-.125 0-1.277-1.893-2.982-4.9-.1-.176.904-.078 5.127.499M75.72 21.946c.43 4.073.535 3.823-1.095 2.613a68 68 0 0 0-2.165-1.546c-.434-.289-.756-.618-.715-.73.041-.113.434-.689.873-1.28.635-.855.969-1.143 1.632-1.41.458-.183.912-.339 1.008-.345.105-.006.29 1.077.462 2.698m1.661-2.374c.995.307 1.16.43 2.014 1.486l.93 1.152-1.704 1.582c-.937.87-1.717 1.57-1.732 1.555-.015-.014-.146-1.076-.292-2.36a171 171 0 0 0-.367-3.041c-.056-.39-.063-.709-.017-.709.047 0 .573.151 1.168.335m3.119 6.753v3.587l-.39.149c-.215.081-.74.2-1.167.264-.724.11-.776.092-.776-.25 0-.2.151-.959.336-1.685l.337-1.319-.348-.683c-.192-.376-.314-.773-.272-.883.1-.26 2.092-2.768 2.199-2.768.044 0 .081 1.615.081 3.588m41.653-.183c1.382 1.781 2.514 3.274 2.514 3.318s-.92.779-2.042 1.634a221 221 0 0 0-3.732 2.91c-.929.747-1.776 1.411-1.882 1.477-.106.065-1.572-.352-3.257-.927l-3.065-1.045 1.754-1.678 1.753-1.677-.748-2q-1.254-3.348-1.1-3.477c.127-.108 6.566-1.74 6.93-1.756.28-.013.928.713 2.875 3.221m-48.82-1.51c.963.73 1.802 1.373 1.864 1.426s.236.809.384 1.68.344 1.864.434 2.208c.163.618.173.625 1.009.625h.845l-.49.458c-.36.338-.632.918-1.036 2.208-.3.963-.575 1.78-.61 1.818-.034.037-1.075-.7-2.314-1.637l-2.252-1.704v-4.332c0-3.42.043-4.305.208-4.206.115.069.996.723 1.958 1.455m37.899 3.018c.44 1.16.767 2.145.725 2.187-.043.043-1.119-.11-2.392-.34-1.273-.229-3.1-.552-4.059-.719l-1.744-.303-.215-1.062c-.118-.584-.177-1.1-.13-1.147s1.565-.324 3.375-.617c2.628-.424 3.326-.489 3.465-.32.095.115.534 1.16.975 2.321m-3.515 2.423c2 .366 3.681.665 3.738.665s-.598.525-1.455 1.167-1.605 1.167-1.663 1.167c-.122 0-2.588.457-5.837 1.082-1.238.238-3.471.662-4.964.942l-2.714.51-3.938-1.633c-3.231-1.34-3.866-1.655-3.536-1.757.221-.069 1.94-.391 3.819-.717s5.254-.922 7.5-1.326c2.245-.405 4.383-.742 4.75-.75.366-.01 2.302.283 4.3.65m17.116 1.717v1.385l-2.458 2.17c-3.665 3.232-5.018 4.394-5.118 4.394-.05 0-.09-.778-.09-1.729v-1.728l3.47-2.6c1.907-1.43 3.606-2.752 3.775-2.938s.332-.339.364-.339.057.624.057 1.385M80.5 30.974c0 .13.039.337.086.46.053.137-.694.925-1.906 2.014-1.096.984-2.026 1.79-2.066 1.79-.057 0 .868-3.46.969-3.624.014-.022.504-.105 1.09-.185.681-.094 1.126-.244 1.237-.419.211-.335.59-.358.59-.036m8.463 3.534c2.042.885 3.692 1.626 3.666 1.645-.025.02-2.961 2.223-6.524 4.895l-6.479 4.858-2.855-1.06a629 629 0 0 0-4.854-1.78c-1.1-.396-2.054-.764-2.12-.819-.106-.087 1.67-1.2 12.37-7.757 1.42-.87 2.695-1.585 2.833-1.587.137-.002 1.92.72 3.963 1.605m22.665 1.331c1.717.606 3.328 1.176 3.58 1.266.453.163.459.182.459 1.635v1.471l-.459.092c-2.901.583-14.475 2.601-14.92 2.601-.243 0-2.451-.61-4.907-1.354s-4.633-1.392-4.84-1.436-.374-.14-.374-.209c0-.14 2.192-1.826 2.784-2.142.203-.108.99-.312 1.75-.453 1.868-.346 11.548-2.219 12.382-2.396 1.15-.243 1.349-.202 4.545.925m-19.733 6.414c1.479.466 3.438 1.074 4.355 1.35.917.277 1.765.557 1.886.623.156.086.014.302-.5.757-.396.351-1.856 1.714-3.246 3.03s-2.594 2.391-2.676 2.391c-.167 0-8.677-3.133-9.01-3.317-.139-.077.928-1.08 3.083-2.9 1.813-1.53 3.324-2.782 3.358-2.783s1.271.382 2.75.849M24.296 7.382l-.046 2.499-2.083-.917a370 370 0 0 0-2.641-1.153l-.557-.236.485-.627c.268-.345 1.456-2.05 2.641-3.788L24.25 0l.046 2.442a161 161 0 0 1 0 4.94m3.539-3.543c1.367 2.004 2.433 3.695 2.367 3.757-.127.121-4.823 2.308-4.956 2.308-.044 0-.08-2.225-.08-4.944 0-2.72.041-4.904.091-4.854s1.21 1.73 2.578 3.734m-5.983 5.983 2.398 1.078.038 5.377.038 5.376-.636-1.5C19.211 9.58 18.8 8.538 19.148 8.648c.168.053 1.384.582 2.704 1.175M30.5 8.66c0 .082-4.806 11.722-5.159 12.494-.096.21-.156-1.613-.163-4.929l-.011-5.262 2.541-1.186C30.243 8.594 30.5 8.49 30.5 8.66m-10.31 4.577c.552 1.33 1.711 4.08 2.577 6.11l1.573 3.694-.045 3.464-.045 3.464-1.317-2.157c-.724-1.187-1.55-2.55-1.833-3.03-.29-.49-.638-.873-.795-.875-.152-.001-.627.147-1.055.33s-.809.334-.847.334-.065-3.507-.06-7.792l.01-7.792.417.917c.23.504.869 2.004 1.42 3.333m10.848 1.99-.046 6.155-.917-.406c-.505-.223-1.01-.401-1.122-.396-.111.005-.99.999-1.953 2.208l-1.75 2.2-.05-.942c-.046-.886.12-1.35 2.834-7.955 1.585-3.858 2.92-7.015 2.966-7.017s.063 2.767.038 6.152m13.857-.322c.972.688 1.765 1.288 1.763 1.333-.004.106-4.06 2-4.28 2-.09 0-.213-.693-.274-1.541-.06-.848-.157-2.098-.216-2.777l-.105-1.235.672.485c.37.267 1.468 1.048 2.44 1.735m-3.61.625c.1 1.444.166 2.643.145 2.665-.02.022-.894-.343-1.942-.81s-2.114-.94-2.37-1.052l-.464-.203 2.045-1.612c1.124-.887 2.125-1.613 2.224-1.613.112 0 .247.976.362 2.625M6.817 18.96l.016 3.303-2.503-1.298-2.503-1.299 2.378-2.383c2.145-2.15 2.389-2.346 2.487-2.006.06.208.115 1.865.125 3.682m4.424-.571c.636.646 1.124 1.203 1.083 1.237-.254.214-4.487 2.447-4.638 2.447-.131 0-.186-1.065-.186-3.601V14.87l1.292 1.171c.71.645 1.812 1.7 2.449 2.347m27.717-.286 2.375 1.033v12.42l-.541-.248a11 11 0 0 0-.834-.345c-.255-.084-.291-.336-.291-2.048v-1.952L38 25.23l-1.667-1.732v-3.213c0-1.767.056-3.214.125-3.214.07 0 1.194.464 2.5 1.031m8.203 4.595c-.005 5.134-.028 5.596-.266 5.292-.407-.52-4.414-8.611-4.354-8.791.057-.17 4.063-2.084 4.417-2.11.163-.013.207 1.209.203 5.609M33.653 19.51l1.347.61v1.476c0 .812-.03 1.476-.067 1.476s-.712-.297-1.5-.66L32 21.754v-1.425c0-.783.069-1.424.153-1.424s.758.273 1.5.607M17.5 20.582c0 1.35.107 1.32-1.708.495l-1.028-.466 1.243-.589c.684-.324 1.3-.595 1.368-.603s.125.515.125 1.163m27.083 4.154c1.237 2.475 2.25 4.537 2.25 4.582 0 .046-1.05.61-2.333 1.253l-2.333 1.169v-5.751c0-3.164.037-5.752.082-5.752s1.096 2.025 2.334 4.5M12.5 23.732v3.163l-.534.276c-.294.152-1.344 1.066-2.334 2.03l-1.799 1.755V23.1l2.292-1.26c1.26-.692 2.31-1.261 2.333-1.264s.042 1.417.042 3.156M4.435 22l2.398 1.262v6.105c0 3.599-.06 6.039-.149 5.945-.163-.173-4.85-14.071-4.85-14.382 0-.106.045-.192.1-.192s1.181.567 2.5 1.262m11.28-.073c.753.287 1.466.599 1.585.692.146.116.2.515.166 1.24l-.048 1.069-1.584.653c-.87.36-1.602.655-1.625.655-.023.001-.041-1.086-.041-2.415 0-1.33.04-2.417.088-2.417.05 0 .705.235 1.459.523m18.445 1.821c1.104.474 2.008.89 2.008.924s-.469 1.004-1.042 2.155c-.756 1.52-1.11 2.072-1.292 2.015-.282-.088-6.665-2.782-7.381-3.115-.256-.118-.43-.307-.387-.418s.73-1.027 1.526-2.035l1.45-1.832 1.555.722c.856.397 2.46 1.11 3.563 1.584M4.605 31.227l1.95 5.74-.59.51c-.326.28-1.8 1.467-3.278 2.636L0 42.24v-4.935c0-4.447.026-4.925.265-4.834.146.056.446.148.667.203l.401.1.013-5.56.013-5.559.648 1.917c.356 1.054 1.525 4.5 2.598 7.656M20.917 26.1c.366.654 1.173 2.009 1.791 3.011.619 1.003 1.125 1.872 1.124 1.933 0 .108-7.905 3.86-8.132 3.86-.064 0-.487-.806-.94-1.791a224 224 0 0 0-1.543-3.274c-.394-.816-.716-1.566-.716-1.667.002-.164 7.164-3.237 7.582-3.254.092-.003.467.529.834 1.182m15.95 1.634c-.89.436-1.64.775-1.667.751-.028-.023.31-.81.75-1.748l.8-1.705.866.954.867.953zm-6.825.451 3.791 1.635v8.235l-1.041-.464c-1.036-.461-1.042-.468-1.092-1.21l-.049-.747-2.909-1.31-2.909-1.309v-3.323c0-2.596.046-3.304.209-3.232zm8.653 4.074-.037 4.344-.84 2.442a494 494 0 0 0-1.93 5.776c-.599 1.833-1.167 3.408-1.261 3.5-.118.114-.14.034-.069-.25.058-.23.105-4.448.106-9.374l.003-8.957 1.958-.984c1.077-.541 1.992-.952 2.033-.913.041.04.058 2.026.037 4.416m-25.604-.813c1.398 2.858 1.599 3.402 1.2 3.245-1.863-.735-5.744-2.372-5.855-2.47-.115-.1 2.988-3.64 3.198-3.648.028-.001.684 1.292 1.457 2.873m35.396-.975.737.386-.737.422a945 945 0 0 1-3.546 2.005l-2.81 1.583-1.19-.55-1.191-.551-.05-.931c-.033-.61.015-.93.138-.93.104 0 .654.185 1.223.413l1.035.414 2.577-1.324c1.417-.728 2.69-1.323 2.827-1.323s.581.174.987.386m1.18 6.556v5.29l-2.459-2.426a472 472 0 0 0-3.458-3.384c-.816-.782-.954-.988-.75-1.12.629-.408 6.43-3.64 6.542-3.644.069-.003.125 2.375.125 5.284m-25.779-4.121c-.076.07-.738.391-1.471.714s-2.065.928-2.959 1.346l-1.625.76v.714c0 .692-.027.728-.878 1.172-.482.253-.932.459-1 .459s-.122-.53-.122-1.177v-1.176l2.125-.995c1.17-.547 2.988-1.39 4.042-1.872l1.917-.877.054.402c.03.221-.007.46-.083.53m-11.43 1.84c1.123.48 2.042.926 2.042.99 0 .102-1.354 1.317-2.196 1.972-.248.192-.479-.048-2.042-2.121-.969-1.286-1.762-2.372-1.762-2.415 0-.087 1.021.32 3.958 1.575m-2.706 1.16 1.914 2.554-.357.596c-.196.329-1.096 1.906-2 3.506l-1.642 2.91v-6.146c0-3.38.038-6.107.085-6.06s.947 1.235 2 2.64m17.727-1.283c1.41.658 2.557 1.26 2.55 1.338-.013.12-2.357 1.271-4.612 2.263l-.667.294-1.917-.891c-1.054-.49-2.28-1.062-2.723-1.272l-.806-.38 2.723-1.269c1.498-.698 2.76-1.271 2.806-1.274s1.237.533 2.646 1.191m13.241.552.894.439.11 4.005c.06 2.203.11 4.704.11 5.559v1.554l-.996.502c-.547.276-1.035.502-1.083.502s-.088-2.925-.088-6.5.035-6.5.08-6.5c.043 0 .481.198.973.44m6.61 5.674c1.145 1.117 2.044 2.065 2 2.107-.044.041-1.599.834-3.455 1.762L42.5 46.406V36.18l1.375 1.32c.756.725 2.311 2.233 3.455 3.35M14.9 47.405c-.116.908-.129.873-1.251-3.583-.624-2.475-1.137-4.69-1.141-4.922-.006-.32.286-.68 1.2-1.485l1.209-1.063.05 5.068c.027 2.788-.003 5.481-.068 5.985M31 38.665v2.095l.375-.116c.206-.064.814-.337 1.35-.606s1.006-.458 1.044-.42.05 2.4.025 5.247l-.044 5.179-1.627-1.778a279 279 0 0 0-4.292-4.528l-2.664-2.75.042-.893.041-.893L28 37.903c1.513-.714 2.806-1.306 2.875-1.315.069-.01.125.925.125 2.077m-9.4-.704 2.65 1.223.05.854.05.854-3.3 3.546a834 834 0 0 1-4.255 4.548l-.955 1.002-.004-5.2-.003-5.2.625.26c.344.143.904.402 1.244.575s.696.315.791.315c.11 0 .174-.727.174-2 0-1.1.063-2 .141-2s1.335.55 2.792 1.223M6.776 46.184c-.035.034-1.531-.706-3.326-1.647-1.795-.94-3.249-1.72-3.232-1.735L3.5 40.246l3.25-2.53.044 4.202c.025 2.311.017 4.231-.018 4.266m11.057-7.366v.748l-.84-.331c-.46-.182-.892-.337-.958-.345-.132-.015 1.476-.793 1.673-.809.07-.005.125.326.125.737m15.439-.112c.258.145.182.19-1.397.818-.148.059-.208-.137-.208-.678v-.76l.67.236c.37.13.79.303.935.384m5.389 4.823-.007 4.958-1.952.935c-1.074.515-1.973.92-1.998.9-.051-.041 3.856-11.75 3.921-11.75.023-.001.039 2.23.036 4.957m-25.376 1.25c.73 2.956 1.28 5.395 1.224 5.418-.139.06-6.732-3.348-6.747-3.486-.019-.173 3.975-7.303 4.092-7.305.058-.001.702 2.417 1.431 5.373m11.048 3.795v6.67l-4.208-2.109c-2.315-1.16-4.235-2.131-4.267-2.16-.033-.027 1.548-1.761 3.512-3.852a515 515 0 0 0 4.204-4.51c.347-.39.66-.709.695-.709s.064 3.001.064 6.67m7.205-.003c1.159 1.237 2.053 2.304 1.988 2.371-.136.139-8.141 4.296-8.273 4.296-.047 0-.086-3.013-.086-6.696v-6.696l2.133 2.238c1.173 1.23 3.08 3.25 4.238 4.487M-33.325 8.247a859 859 0 0 0-2.777 6.656c-1.201 2.905-2.247 5.242-2.324 5.195-.274-.17-4.815-9.439-4.68-9.555.074-.065 1.486-.593 3.136-1.173s3.9-1.375 5-1.767 2.053-.716 2.118-.722c.066-.005-.148.61-.473 1.366m6.275 8.232c2.737 5.025 4.959 9.152 4.938 9.173s-.635-.148-1.365-.376a1734 1734 0 0 0-13.285-3.987c-.527-.15-.958-.333-.958-.404 0-.127 2.007-5.052 4.25-10.43.611-1.466 1.152-2.8 1.202-2.965.05-.164.124-.264.166-.222s2.316 4.187 5.052 9.211m-14.37-.824c1.31 2.616 2.355 4.783 2.321 4.817s-3.618-1.137-7.966-2.601c-4.348-1.465-8.055-2.667-8.239-2.671-.295-.007-.285-.034.084-.233.229-.124 2.629-1.023 5.333-1.999 2.704-.975 5.067-1.84 5.25-1.923s.446-.15.583-.148c.16.002 1.111 1.72 2.634 4.758m-14.72 1.046.606.997-1.718 2.128a364 364 0 0 0-3.218 4.056c-2.473 3.175-2.227 2.96-3.687 3.239-.71.135-1.312.224-1.339.198-.027-.027 1.322-1.853 2.996-4.057a1000 1000 0 0 0 4.365-5.783c.725-.975 1.335-1.774 1.355-1.774s.308.449.64.996m8.753 1.755c4.17 1.404 7.816 2.637 8.101 2.742l.518.19-2.658 6.367c-1.463 3.502-2.676 6.385-2.698 6.408-.045.047-.598-.827-4.188-6.624a1512 1512 0 0 0-4.571-7.334c-2.993-4.757-2.93-4.64-2.38-4.418.161.064 3.705 1.265 7.876 2.669m-3.33 7.25a970 970 0 0 0 4.158 6.666c.154.23.45.698.656 1.041l.376.625-.722-.31a802 802 0 0 1-4.471-1.987 890 890 0 0 0-7.084-3.121c-1.833-.796-3.387-1.497-3.453-1.56-.129-.12.665-1.186 4.084-5.489 1.935-2.435 2.18-2.686 2.368-2.416.114.165 1.954 3.113 4.087 6.55m18.998-2.256c2.979.888 6.273 1.879 7.32 2.2l1.906.586-3.238 1.213a823 823 0 0 0-8.655 3.331l-7.075 2.767c-.912.357-1.688.618-1.726.58-.037-.037.269-.878.68-1.869.412-.99 1.477-3.564 2.367-5.718s1.72-4.157 1.841-4.45c.201-.483.267-.52.693-.394zm6.126 5.298c-.53.812-8.92 14.092-9.39 14.863-.275.452-.576.847-.668.878-.093.03-1.871-2.01-3.952-4.535-3.092-3.75-3.73-4.611-3.492-4.702.16-.062 4.192-1.63 8.959-3.487s8.694-3.38 8.727-3.384c.034-.004-.05.16-.184.367m-28.96 2.34c7.85 3.389 9.19 3.985 9.117 4.057-.035.035-1.37.435-2.965.89l-2.902.827-2.203-1.251-2.202-1.252-2.2-2.618a1411 1411 0 0 1-2.463-2.938c-.327-.394-1-.659 5.818 2.285m29.796 5.88-.046 2.763-4.916 2.385c-2.705 1.31-4.94 2.363-4.969 2.338-.048-.043 1.034-1.782 7.313-11.748l2.572-4.083.046 2.792c.025 1.535.025 4.034 0 5.554m-33.82-5.103 2.335 2.743-.095 3.923c-.052 2.159-.112 3.946-.133 3.972s-.568-1.512-1.214-3.417a535 535 0 0 0-2.356-6.762c-.649-1.814-1.18-3.348-1.18-3.409 0-.154.044-.106 2.644 2.95m-1.44 2.257c2.231 6.384 3.106 8.996 3.035 9.067-.038.038-1.158-.486-2.487-1.165l-2.417-1.235.009-5.834.008-5.833.343.833c.189.459.867 2.334 1.508 4.167m15.464 8.268c0 6.295-.017 6.678-.291 6.58-.16-.059-1.628-.723-3.26-1.477l-2.967-1.371.11-4.333c.06-2.384.138-4.364.173-4.4.08-.084 5.748-1.657 6.027-1.672.163-.01.208 1.43.208 6.673m4.668-1.733c3.265 3.94 3.657 4.475 3.41 4.656-.154.113-1.847 1-3.762 1.973l-3.482 1.768V42.63c0-3.534.032-6.425.072-6.425s1.733 2.004 3.762 4.452"/></svg>