<svg xmlns="http://www.w3.org/2000/svg" width="39" height="46" viewBox="0 0 39 46"><path d="M16.455 1.683c.515 1.095.735 1.74.629 1.846-.289.289-4.572 2.638-4.81 2.638-.255 0-1.994-3.548-1.779-3.627.074-.027 1.185-.606 2.468-1.286S15.38.013 15.48.008s.54.75.975 1.675m2.328-1.1c1.058.32 2.694.801 3.635 1.068 1.927.546 9.926 2.853 11.712 3.378l1.166.343-1.833.87c-1.563.742-1.907.849-2.333.723-.275-.081-3.163-.897-6.417-1.812-3.254-.916-6.05-1.706-6.213-1.755C18.18 3.3 16.434 0 16.702 0c.087 0 1.024.262 2.081.583M9.98 11.167c-.787 2.429-2.592 8.087-4.011 12.575-1.54 4.87-2.7 8.268-2.876 8.43-.317.293-3.046 2.024-3.046 1.933 0-.14 6.803-21.17 9.039-27.938l.853-2.584.736 1.584.736 1.583zm10.758-6.341c1.224.362 3.988 1.154 6.142 1.76s4.07 1.201 4.259 1.323c.19.124.911 1.444 1.623 2.97l1.28 2.748-2.428 7.478a4423 4423 0 0 1-4.123 12.63l-1.695 5.153-2.719 1.472c-1.496.81-2.87 1.473-3.056 1.473-.25 0-8.492-2.34-12.69-3.604-.185-.055-.844-1.181-1.728-2.952l-1.428-2.862 1.864-5.833c1.026-3.207 2.528-7.895 3.339-10.415.81-2.521 1.75-5.484 2.088-6.584.337-1.1.72-2.112.851-2.25.385-.405 5.447-3.14 5.837-3.154.197-.007 1.36.284 2.584.647m16.645 3.55c.64 1.352 1.162 2.514 1.16 2.583-.001.068-.819.554-1.816 1.08-1.966 1.035-1.898 1.037-2.404-.068-.154-.337-.586-1.274-.96-2.083-1.138-2.457-1.232-2.095.812-3.126.983-.496 1.846-.889 1.916-.873s.652 1.136 1.292 2.487m-21.193 5.01-2.273 1.853 1.345 1.471 1.345 1.472 1.265-1.258c.721-.717 1.407-1.257 1.595-1.257.182 0 .855.15 1.496.333s1.182.333 1.202.333-.73-1.082-1.666-2.405-1.778-2.403-1.87-2.4c-.091.001-1.189.837-2.439 1.857m3.356-1.79c0 .133 3.178 4.48 3.31 4.525.115.04 2.412-3.123 2.326-3.204-.058-.054-5.385-1.416-5.538-1.416a.096.096 0 0 0-.098.094m17.342 5.5c-.908 2.744-2.224 6.752-2.923 8.906-1.96 6.041-5.45 16.576-5.513 16.645-.07.077-1.384-2.75-1.509-3.248-.055-.22.503-2.171 1.41-4.923 1.8-5.468 3.09-9.444 4.7-14.474.659-2.063 1.37-4.266 1.58-4.896l.381-1.146 1.725-.965c.948-.53 1.741-.948 1.763-.926.021.02-.705 2.283-1.614 5.027M24.586 14.89c-.566.765-1.07 1.499-1.122 1.632-.074.192.275.3 1.714.527.993.157 1.925.285 2.07.285.209 0 .085-.408-.577-1.916-.464-1.055-.89-1.917-.95-1.917-.058 0-.57.625-1.135 1.39m-1.421 2.395c-.043.072-.13.573-.196 1.113-.095.787-.075.966.104.898a91 91 0 0 1 2.02-.635c.989-.303 1.739-.6 1.667-.662-.072-.06-.768-.24-1.547-.398a43 43 0 0 1-1.694-.368c-.153-.044-.312-.02-.354.052m1.923 1.954-2.04.685 1.478 1.472c.831.828 1.526 1.396 1.587 1.298.059-.095.361-.872.672-1.725.31-.854.645-1.759.742-2.01.232-.598.149-.588-2.439.28m-5.623 2.352c-1.282.688-2.42 1.342-2.53 1.454-.244.253-1.463 4.27-1.334 4.399.052.051 1.045-.272 2.207-.717l2.113-.81.961-2.792c.529-1.535.95-2.79.938-2.787-.013.002-1.073.566-2.355 1.253m3.008-1.08-.985 2.656c-.493 1.329-.876 2.441-.85 2.471.064.076 4.907-2.201 4.908-2.308 0-.048-.672-.756-1.493-1.573-1.03-1.025-1.52-1.412-1.58-1.247m-6.843 9.35c-.948.49-1.584 1.134-1.584 1.607 0 .38 1.356 2.757 1.69 2.964.162.1 2.19-.95 2.685-1.39.543-.483.403-1.043-.665-2.666-.66-1.003-1.016-1.09-2.126-.516M4.788 35.71c.67 1.397 1.187 2.595 1.149 2.66-.096.164-3.562 2.015-3.634 1.94-.09-.093-2.26-4.814-2.303-5.007-.04-.184 2.98-2.095 3.35-2.12.125-.009.743 1.076 1.438 2.526m7.615 4.89c2.966.88 5.884 1.744 6.483 1.923l1.09.323.877 1.764c.482.97.845 1.796.805 1.836s-2.35-.64-5.134-1.509C9.71 42.805 3.702 41 3.434 41c-.527 0-.11-.313 1.487-1.119.94-.474 1.794-.866 1.899-.871s2.616.71 5.583 1.588m14.539 1.207c.424.947.771 1.786.771 1.864 0 .196-4.514 2.727-4.885 2.738-.226.007-.485-.419-1.041-1.714-.407-.949-.74-1.815-.74-1.927 0-.244 4.872-2.96 5.02-2.797.057.063.45.89.875 1.836M-27.043 3.026c1.325.382 2.375.75 2.333.817-.041.068-1.127.776-2.41 1.574l-2.336 1.45-2.874-.616c-1.58-.34-3.084-.667-3.342-.728-.411-.098-.078-.297 2.75-1.638 1.77-.84 3.275-1.533 3.344-1.54.07-.006 1.21.3 2.535.681m7.714 1.892c1.307.32 2.488.582 2.625.582.138 0 .248.056.244.125-.003.069-1.327.95-2.942 1.958a342 342 0 0 0-6.285 4.051l-3.35 2.218-1.25-.088c-1.376-.096-6.981-.856-7.086-.961-.063-.063 1.485-.962 7.336-4.263l5.167-2.92c1.507-.853 2.632-1.389 2.833-1.35.183.037 1.402.328 2.708.648m-16.375 2.517c1.925.242 3.556.49 3.624.551s-.27.341-.75.622-2.545 1.522-4.587 2.76l-3.713 2.249-1.287-.227a207 207 0 0 0-4.2-.651c-1.6-.234-2.933-.446-2.959-.472-.025-.026 1.998-1.084 4.496-2.352s4.768-2.436 5.043-2.598.575-.3.667-.308c.091-.008 1.741.184 3.666.426m-9.613 6.551c2.687.448 4.906.84 4.931.872.183.234 2.266 4.307 2.266 4.431 0 .086-.656.253-1.459.37-.802.117-2.77.426-4.373.687-1.603.26-2.962.42-3.02.356-.057-.066-.792-1.615-1.632-3.444-1.39-3.029-1.824-4.097-1.66-4.088.034.001 2.26.369 4.947.816m11.693.28c1.694.231 3.09.435 3.105.452s.3.577.633 1.244c.436.87.547 1.234.395 1.29-.307.111-6.089 1.415-6.278 1.415-.125 0-1.278-1.893-2.983-4.9-.1-.176.904-.078 5.128.499m-39.61 3.276c.43 4.073.536 3.823-1.095 2.613a68 68 0 0 0-2.164-1.546c-.435-.29-.756-.618-.715-.73.04-.113.434-.689.873-1.28.635-.855.968-1.143 1.631-1.41.459-.184.913-.339 1.009-.345.105-.006.29 1.077.461 2.698m1.662-2.374c.994.307 1.16.429 2.013 1.486l.93 1.151-1.704 1.583c-.937.87-1.716 1.57-1.731 1.555-.015-.014-.147-1.076-.293-2.36a171 171 0 0 0-.366-3.041c-.056-.39-.064-.709-.017-.709s.572.15 1.168.335m3.118 6.753v3.587l-.39.149c-.214.081-.74.2-1.166.264-.724.109-.777.092-.777-.25 0-.2.152-.96.337-1.685l.337-1.319-.349-.683c-.191-.376-.314-.773-.271-.883.1-.26 2.092-2.768 2.198-2.768.045 0 .081 1.615.081 3.588m41.654-.183c1.382 1.78 2.513 3.274 2.513 3.318s-.919.779-2.042 1.633A221 221 0 0 0-30.06 29.6c-.93.747-1.777 1.411-1.883 1.476-.106.066-1.571-.351-3.257-.926l-3.065-1.046 1.754-1.677 1.754-1.677-.749-2q-1.254-3.348-1.1-3.477c.128-.108 6.566-1.74 6.93-1.756.28-.013.929.713 2.876 3.221m-48.82-1.511c.962.732 1.801 1.374 1.864 1.427.062.053.235.808.383 1.68.149.87.344 1.864.434 2.208.163.618.174.625 1.01.625h.844l-.489.458c-.36.338-.633.918-1.036 2.208-.301.963-.576 1.78-.61 1.818-.035.037-1.076-.7-2.315-1.637l-2.252-1.704v-4.332c0-3.42.044-4.305.208-4.206.115.068.996.723 1.959 1.455m37.898 3.018c.441 1.16.767 2.145.725 2.187s-1.118-.11-2.392-.34c-1.273-.229-3.1-.553-4.058-.72l-1.744-.302-.215-1.062c-.119-.585-.177-1.1-.13-1.147s1.565-.324 3.375-.617c2.628-.424 3.326-.489 3.464-.32.095.115.534 1.16.975 2.32m-3.514 2.423c1.999.367 3.68.666 3.737.666s-.598.525-1.455 1.167c-.856.642-1.605 1.167-1.663 1.167-.122 0-2.588.457-5.837 1.082-1.237.238-3.47.662-4.964.942l-2.714.51-3.938-1.633c-3.23-1.34-3.866-1.656-3.536-1.758.221-.068 1.94-.39 3.82-.716 1.878-.326 5.253-.923 7.5-1.327 2.245-.404 4.382-.741 4.75-.75.366-.009 2.301.284 4.3.65m17.116 1.718v1.385l-2.459 2.169c-3.664 3.233-5.017 4.394-5.118 4.394-.05 0-.09-.777-.09-1.728v-1.728l3.47-2.6c1.908-1.43 3.607-2.752 3.775-2.938.169-.187.333-.339.364-.339.032 0 .058.623.058 1.385m-44.334-.815c0 .13.04.337.086.46.053.137-.693.925-1.906 2.014-1.096.984-2.025 1.79-2.065 1.79-.058 0 .867-3.46.968-3.624.014-.022.504-.106 1.09-.185.682-.094 1.127-.244 1.237-.419.211-.335.59-.358.59-.036m8.463 3.534c2.042.885 3.692 1.626 3.667 1.645l-6.525 4.894-6.479 4.859-2.854-1.06a629 629 0 0 0-4.855-1.78c-1.1-.396-2.054-.765-2.12-.819-.105-.087 1.67-1.2 12.37-7.757 1.42-.871 2.696-1.585 2.833-1.587.138-.002 1.921.72 3.963 1.605m22.665 1.331c1.717.606 3.329 1.176 3.58 1.266.454.163.46.182.46 1.635v1.47l-.46.093c-2.9.583-14.475 2.601-14.92 2.601-.243 0-2.45-.61-4.906-1.355-2.456-.744-4.634-1.39-4.84-1.436-.206-.045-.375-.138-.375-.208 0-.14 2.193-1.826 2.785-2.142.202-.108.99-.312 1.75-.453 1.867-.346 11.548-2.22 12.382-2.396 1.15-.243 1.348-.203 4.544.925m-19.732 6.413c1.478.467 3.438 1.075 4.354 1.351.917.277 1.766.557 1.886.623.157.086.014.302-.5.757-.395.35-1.856 1.714-3.246 3.03S-57.157 46-57.239 46c-.167 0-8.678-3.133-9.01-3.317-.14-.077.927-1.08 3.083-2.9 1.813-1.53 3.324-2.783 3.358-2.783.033 0 1.27.382 2.75.848m-67.6-34.87-.046 2.498-2.083-.916a370 370 0 0 0-2.64-1.153l-.558-.236.486-.627c.267-.345 1.455-2.05 2.64-3.788l2.155-3.16.046 2.442a161 161 0 0 1 0 4.94m3.54-3.543c1.367 2.004 2.432 3.694 2.367 3.757-.128.121-4.823 2.308-4.956 2.308-.044 0-.08-2.225-.08-4.945 0-2.719.04-4.903.09-4.853s1.21 1.73 2.578 3.733m-5.983 5.984 2.398 1.078.038 5.377.038 5.376-.635-1.5c-4.48-10.575-4.89-11.616-4.542-11.506.167.053 1.384.582 2.703 1.175m8.648-1.163c0 .082-4.805 11.721-5.158 12.494-.096.21-.157-1.613-.164-4.929l-.01-5.262 2.54-1.187c2.535-1.182 2.792-1.285 2.792-1.116m-10.31 4.577c.553 1.33 1.712 4.079 2.577 6.11l1.574 3.693-.045 3.465-.046 3.464-1.317-2.158a389 389 0 0 1-1.833-3.029c-.29-.49-.638-.873-.794-.875-.153-.002-.628.147-1.056.33-.427.184-.809.334-.847.334s-.065-3.507-.06-7.792l.01-7.792.418.917c.23.504.868 2.004 1.42 3.333m10.847 1.99-.046 6.155-.917-.406c-.505-.223-1.01-.401-1.121-.396-.112.005-.991.998-1.954 2.208l-1.75 2.2-.05-.942c-.046-.886.12-1.35 2.834-7.955 1.586-3.858 2.92-7.015 2.966-7.017s.063 2.767.038 6.152m13.857-.322c.972.687 1.766 1.287 1.764 1.333-.004.105-4.06 2-4.28 2-.09 0-.214-.694-.274-1.541-.06-.848-.158-2.098-.216-2.777l-.106-1.235.673.485c.37.267 1.468 1.047 2.44 1.735m-3.61.625c.1 1.444.165 2.643.145 2.665-.021.021-.895-.343-1.943-.81-1.047-.467-2.113-.94-2.369-1.052l-.465-.203 2.045-1.613c1.125-.886 2.125-1.612 2.224-1.612.113 0 .247.976.362 2.625m-34.468 3.43.017 3.303-2.504-1.298-2.503-1.3 2.378-2.383c2.146-2.15 2.39-2.346 2.487-2.005.06.208.116 1.865.125 3.682m4.424-.571c.637.646 1.124 1.202 1.084 1.237-.255.214-4.487 2.447-4.639 2.447-.13 0-.186-1.065-.186-3.601v-3.601l1.292 1.171c.71.645 1.813 1.7 2.45 2.347m27.717-.286 2.375 1.032V27.15l-.542-.249a11 11 0 0 0-.833-.344c-.256-.084-.292-.336-.292-2.048v-1.952l-1.667-1.732-1.666-1.732V15.88c0-1.767.056-3.214.125-3.214s1.194.463 2.5 1.031m8.203 4.595c-.005 5.134-.028 5.595-.266 5.291-.407-.52-4.414-8.61-4.354-8.79.056-.17 4.062-2.084 4.417-2.11.163-.013.207 1.209.203 5.609m-13.509-3.185 1.347.607v1.476c0 .812-.03 1.477-.066 1.477s-.712-.297-1.5-.66l-1.434-.658v-1.425c0-.783.07-1.424.153-1.424.084 0 .759.273 1.5.607m-16.153 1.07c0 1.351.107 1.32-1.708.496l-1.028-.466 1.243-.59c.684-.323 1.3-.595 1.368-.603.07-.008.125.516.125 1.164m27.083 4.154c1.238 2.474 2.25 4.536 2.25 4.582s-1.05.61-2.333 1.253l-2.333 1.168v-5.75c0-3.164.037-5.752.083-5.752.045 0 1.095 2.025 2.333 4.5m-32.083-1.004v3.162l-.534.277c-.294.152-1.344 1.065-2.333 2.03l-1.8 1.755v-7.857l2.292-1.259c1.26-.692 2.31-1.261 2.334-1.265.023-.003.041 1.418.041 3.157m-8.065-1.733 2.399 1.262v6.104c0 3.6-.061 6.04-.15 5.946-.163-.173-4.85-14.071-4.85-14.382 0-.106.045-.193.101-.193s1.18.568 2.5 1.263m11.28-.074c.752.288 1.466.6 1.584.693.146.116.2.515.167 1.24l-.049 1.068-1.583.654c-.871.36-1.602.655-1.625.655s-.042-1.086-.042-2.415c0-1.33.04-2.417.089-2.417s.705.235 1.458.522m18.446 1.822c1.104.474 2.007.89 2.007.924s-.469 1.004-1.042 2.155c-.756 1.52-1.11 2.072-1.291 2.015-.283-.089-6.666-2.782-7.382-3.115-.255-.119-.43-.307-.387-.418.043-.112.73-1.027 1.527-2.035l1.449-1.832 1.556.722c.855.397 2.459 1.11 3.563 1.584m-29.555 7.479 1.951 5.739-.591.51c-.325.281-1.8 1.468-3.278 2.637l-2.687 2.126v-4.936c0-4.446.027-4.925.266-4.833.146.056.446.147.667.203l.4.1.014-5.56.013-5.559.647 1.917c.356 1.054 1.525 4.499 2.598 7.656m16.312-5.127c.367.654 1.173 2.009 1.792 3.011.618 1.003 1.124 1.872 1.124 1.933-.001.108-7.905 3.86-8.132 3.86-.065 0-.488-.806-.941-1.792a224 224 0 0 0-1.542-3.274c-.395-.815-.717-1.565-.716-1.666.001-.164 7.164-3.238 7.582-3.254.091-.003.466.528.833 1.182m15.95 1.633c-.89.437-1.64.775-1.667.752s.31-.81.75-1.748l.8-1.705.867.953.866.954zm-6.825.452 3.792 1.635v8.235l-1.042-.464c-1.036-.462-1.042-.468-1.091-1.21l-.05-.747-2.908-1.31-2.91-1.31v-3.322c0-2.596.046-3.304.21-3.233.114.05 1.914.827 4 1.726m8.653 4.074-.037 4.344-.84 2.442a494 494 0 0 0-1.93 5.776c-.6 1.833-1.167 3.408-1.262 3.5-.117.113-.14.034-.068-.25.057-.23.105-4.448.106-9.374l.002-8.957 1.958-.984c1.077-.541 1.992-.952 2.033-.913.041.04.058 2.026.038 4.416m-25.604-.813c1.397 2.858 1.598 3.402 1.2 3.245-1.863-.735-5.744-2.372-5.856-2.47-.115-.1 2.988-3.64 3.199-3.648.028-.001.684 1.291 1.457 2.873m35.395-.975.737.385-.737.423a945 945 0 0 1-3.546 2.005l-2.81 1.583-1.19-.55-1.19-.552-.05-.93c-.033-.61.014-.931.138-.931.103 0 .653.186 1.222.414l1.035.414 2.577-1.324c1.418-.728 2.69-1.323 2.827-1.323.138 0 .582.174.987.386m1.18 6.556v5.29l-2.458-2.426a472 472 0 0 0-3.459-3.384c-.815-.782-.954-.988-.75-1.12.63-.408 6.43-3.64 6.542-3.644.069-.003.125 2.375.125 5.284m-25.779-4.121c-.075.07-.738.391-1.47.713-.734.323-2.066.929-2.96 1.347l-1.624.76v.714c-.001.692-.028.728-.878 1.172-.483.252-.933.459-1 .459s-.122-.53-.122-1.177v-1.177l2.125-.994c1.169-.547 2.987-1.39 4.041-1.872l1.917-.878.055.403c.03.221-.008.46-.084.53m-11.43 1.84c1.124.48 2.042.926 2.042.99 0 .102-1.354 1.317-2.196 1.971-.248.193-.478-.047-2.041-2.12-.97-1.286-1.763-2.373-1.763-2.415 0-.087 1.022.319 3.959 1.574m-2.707 1.16 1.915 2.554-.357.597c-.197.328-1.097 1.906-2 3.506l-1.643 2.91v-6.146c0-3.38.038-6.107.085-6.06s.947 1.234 2 2.64m17.728-1.283c1.41.658 2.556 1.26 2.549 1.337-.012.12-2.357 1.272-4.612 2.264l-.667.293-1.916-.89c-1.054-.49-2.28-1.063-2.723-1.272l-.806-.38 2.723-1.269c1.497-.698 2.76-1.271 2.806-1.274s1.236.533 2.646 1.191m13.24.552.895.438.11 4.006c.06 2.202.109 4.704.109 5.559v1.553l-.995.503c-.548.276-1.035.502-1.084.502-.048 0-.088-2.925-.088-6.5s.036-6.5.08-6.5.482.198.974.439m6.61 5.674c1.144 1.118 2.044 2.066 2 2.108-.044.041-1.6.834-3.456 1.761l-3.375 1.687V31.775l1.375 1.32c.757.726 2.312 2.234 3.456 3.351M-134.054 43c-.116.908-.128.873-1.25-3.583-.624-2.475-1.138-4.69-1.142-4.922-.006-.32.286-.68 1.2-1.485l1.21-1.064.049 5.069c.027 2.788-.003 5.48-.067 5.985m16.1-8.739v2.095l.375-.117c.207-.064.814-.336 1.35-.605s1.007-.458 1.045-.42.049 2.399.024 5.247l-.044 5.179-1.627-1.779a279 279 0 0 0-4.291-4.528l-2.664-2.75.041-.892.041-.894 2.75-1.298c1.513-.715 2.807-1.306 2.875-1.316.07-.009.125.926.125 2.078m-9.4-.705 2.65 1.224.05.854.05.854-3.3 3.546a834 834 0 0 1-4.255 4.548l-.955 1.001-.003-5.2-.003-5.2.625.261c.344.143.903.402 1.243.575s.696.314.792.314c.11 0 .173-.726.173-2 0-1.1.064-2 .142-2s1.334.55 2.792 1.223m-14.825 8.223c-.034.035-1.53-.706-3.326-1.646-1.794-.94-3.248-1.72-3.231-1.735l3.281-2.556 3.25-2.53.045 4.202c.025 2.311.016 4.23-.019 4.265m11.058-7.365v.748l-.84-.331c-.461-.182-.893-.337-.958-.345-.132-.015 1.475-.793 1.673-.81.069-.005.125.327.125.738m15.438-.112c.259.145.183.19-1.397.817-.148.06-.208-.136-.208-.677v-.76l.671.236c.37.13.79.303.934.384m5.39 4.823-.007 4.958-1.952.935c-1.074.514-1.973.919-1.998.899-.052-.04 3.855-11.75 3.92-11.75.023 0 .04 2.231.036 4.958m-25.376 1.25c.73 2.956 1.28 5.394 1.225 5.418-.14.059-6.732-3.348-6.747-3.486-.02-.173 3.975-7.303 4.092-7.305.058-.001.701 2.417 1.43 5.373m11.049 3.795v6.67l-4.209-2.109c-2.314-1.16-4.234-2.132-4.267-2.16-.032-.027 1.548-1.761 3.513-3.852a515 515 0 0 0 4.203-4.51c.347-.39.66-.709.696-.709s.064 3.001.064 6.67m7.205-.003c1.158 1.237 2.052 2.304 1.987 2.37-.135.14-8.14 4.296-8.272 4.296-.048 0-.087-3.013-.087-6.695v-6.696l2.133 2.238c1.173 1.23 3.08 3.25 4.239 4.487m-64.864-40.324c-.326.756-1.575 3.751-2.776 6.656-1.202 2.905-2.248 5.242-2.325 5.195-.274-.17-4.815-9.439-4.68-9.555.074-.066 1.486-.593 3.136-1.173s3.9-1.375 5-1.767 2.053-.717 2.119-.722c.065-.005-.148.61-.474 1.366m6.276 8.232c2.736 5.024 4.958 9.152 4.937 9.173s-.635-.148-1.365-.376a1734 1734 0 0 0-13.285-3.987c-.527-.15-.958-.333-.958-.404 0-.127 2.007-5.053 4.25-10.43.612-1.467 1.153-2.8 1.202-2.965.05-.164.125-.264.167-.222s2.315 4.187 5.052 9.211m-14.37-.824c1.31 2.616 2.355 4.783 2.32 4.817-.033.034-3.618-1.137-7.966-2.602s-8.055-2.666-8.238-2.67c-.295-.007-.286-.034.083-.233.23-.124 2.63-1.024 5.333-2 2.704-.975 5.067-1.84 5.25-1.923.184-.082.446-.148.584-.147.16.002 1.11 1.72 2.633 4.758m-14.719 1.046.605.996-1.718 2.13a364 364 0 0 0-3.218 4.055c-2.473 3.175-2.227 2.959-3.687 3.238-.71.136-1.312.225-1.338.199-.027-.027 1.321-1.853 2.996-4.057a1000 1000 0 0 0 4.364-5.783c.726-.976 1.336-1.774 1.355-1.774.02 0 .308.448.641.996m8.752 1.755c4.171 1.403 7.817 2.637 8.102 2.742l.517.19-2.658 6.367c-1.462 3.502-2.676 6.385-2.698 6.408-.045.047-.598-.827-4.188-6.625a1512 1512 0 0 0-4.571-7.333c-2.992-4.757-2.929-4.64-2.379-4.418.16.064 3.704 1.265 7.875 2.669m-3.33 7.25a970 970 0 0 0 4.159 6.666c.153.229.449.698.655 1.041l.377.625-.722-.31a875 875 0 0 1-4.472-1.987 890 890 0 0 0-7.083-3.121c-1.834-.796-3.388-1.498-3.454-1.56-.128-.12.665-1.186 4.084-5.489 1.935-2.435 2.18-2.686 2.368-2.416.115.165 1.954 3.113 4.088 6.55m18.997-2.256c2.98.888 6.274 1.878 7.321 2.2l1.905.586-3.238 1.213a851 851 0 0 0-8.655 3.33l-7.074 2.768c-.912.357-1.689.618-1.726.58-.038-.037.268-.878.68-1.87.411-.99 1.476-3.563 2.367-5.718l1.84-4.45c.202-.483.267-.52.693-.394zm6.126 5.298c-.53.811-8.92 14.091-9.39 14.863-.275.452-.576.847-.668.878-.092.03-1.87-2.01-3.952-4.535-3.092-3.751-3.73-4.612-3.492-4.703.161-.06 4.193-1.63 8.96-3.487 4.766-1.856 8.693-3.379 8.727-3.383.033-.005-.05.16-.185.367m-28.96 2.34c7.851 3.389 9.19 3.984 9.118 4.057-.035.035-1.37.435-2.966.89l-2.901.827-2.203-1.252-2.203-1.251-2.2-2.618a1411 1411 0 0 1-2.463-2.938c-.326-.395-.999-.659 5.819 2.285m29.795 5.88-.045 2.763-4.917 2.384c-2.704 1.312-4.94 2.364-4.968 2.339-.049-.043 1.033-1.782 7.312-11.748l2.573-4.083.045 2.791c.025 1.536.025 4.035 0 5.555m-33.819-5.103 2.334 2.742-.095 3.924c-.052 2.158-.111 3.945-.133 3.971-.02.026-.567-1.511-1.214-3.416a535 535 0 0 0-2.355-6.763c-.65-1.814-1.18-3.347-1.18-3.408 0-.155.043-.106 2.643 2.95m-1.44 2.257c2.231 6.384 3.106 8.996 3.036 9.066-.039.04-1.158-.485-2.488-1.164l-2.416-1.236.008-5.833.008-5.833.343.833c.189.458.868 2.333 1.509 4.167m15.464 8.268c0 6.295-.017 6.678-.292 6.579-.16-.058-1.627-.722-3.26-1.476l-2.967-1.371.11-4.334c.06-2.383.138-4.363.173-4.4.08-.084 5.748-1.656 6.027-1.672.164-.008.209 1.431.209 6.674m4.667-1.733c3.265 3.94 3.658 4.475 3.41 4.656-.153.113-1.846 1-3.762 1.973l-3.482 1.768v-6.425c0-3.533.033-6.424.072-6.424.04 0 1.733 2.003 3.762 4.452"/></svg>