<svg xmlns="http://www.w3.org/2000/svg" width="48" height="53" viewBox="0 0 48 53"><path d="M21.391-69.019c.515 1.095.735 1.74.63 1.846-.29.289-4.573 2.638-4.81 2.638-.255 0-1.995-3.548-1.779-3.627.074-.027 1.184-.606 2.468-1.286 1.283-.68 2.416-1.241 2.516-1.246s.54.75.975 1.675m2.329-1.1c1.058.32 2.693.8 3.635 1.068 1.926.546 9.926 2.853 11.711 3.378l1.167.343-1.833.87c-1.563.742-1.907.849-2.334.723-.275-.081-3.162-.897-6.416-1.812-3.254-.916-6.05-1.706-6.213-1.755-.32-.097-2.066-3.398-1.798-3.398.087 0 1.023.262 2.08.583m-8.803 10.584c-.787 2.429-2.592 8.087-4.012 12.575-1.54 4.87-2.7 8.268-2.875 8.43-.317.293-3.046 2.024-3.046 1.933 0-.14 6.803-21.17 9.038-27.938l.853-2.584.737 1.584.736 1.583zm10.758-6.341c1.224.362 3.988 1.154 6.142 1.76s4.071 1.201 4.26 1.323c.19.124.911 1.444 1.622 2.97l1.28 2.748-2.427 7.478a4423 4423 0 0 1-4.123 12.63l-1.695 5.153-2.72 1.472c-1.495.81-2.87 1.473-3.055 1.473-.25 0-8.492-2.34-12.69-3.604-.186-.055-.845-1.181-1.728-2.952l-1.43-2.862 1.865-5.833c1.026-3.208 2.528-7.895 3.339-10.415.81-2.521 1.75-5.484 2.087-6.584s.72-2.112.852-2.25c.385-.405 5.446-3.14 5.837-3.154.197-.007 1.36.284 2.583.647m16.646 3.55c.64 1.352 1.162 2.514 1.16 2.583-.002.068-.819.554-1.816 1.08-1.966 1.035-1.899 1.037-2.404-.068-.154-.337-.587-1.274-.961-2.083-1.137-2.457-1.231-2.095.813-3.126.983-.496 1.845-.89 1.916-.873.07.016.652 1.136 1.292 2.487m-21.193 5.01-2.273 1.853 1.345 1.471 1.345 1.472 1.265-1.258c.72-.717 1.407-1.257 1.595-1.257.182 0 .855.15 1.496.333.64.183 1.182.333 1.202.333s-.73-1.082-1.666-2.405c-.937-1.323-1.778-2.403-1.87-2.4-.091.001-1.19.837-2.44 1.857m3.357-1.79c0 .133 3.178 4.48 3.309 4.525.116.04 2.413-3.123 2.326-3.204-.058-.054-5.384-1.416-5.537-1.416a.096.096 0 0 0-.098.094m17.342 5.5c-.909 2.744-2.224 6.752-2.923 8.906-1.96 6.041-5.45 16.576-5.513 16.645-.07.077-1.384-2.75-1.51-3.248-.054-.22.504-2.171 1.41-4.923 1.8-5.468 3.091-9.444 4.7-14.474.66-2.063 1.37-4.266 1.58-4.896l.382-1.146 1.724-.965c.949-.53 1.742-.948 1.763-.926.022.02-.704 2.283-1.613 5.027m-12.302-2.205c-.566.765-1.071 1.499-1.122 1.632-.074.192.275.3 1.713.527.994.157 1.926.285 2.071.285.208 0 .085-.408-.578-1.916-.463-1.055-.89-1.917-.949-1.917s-.57.625-1.135 1.39M28.1-53.418c-.042.072-.13.573-.195 1.113-.096.787-.075.966.104.898a91 91 0 0 1 2.02-.635c.988-.303 1.738-.6 1.667-.662-.072-.06-.768-.24-1.547-.398a43 43 0 0 1-1.695-.368c-.152-.044-.312-.02-.354.052m1.924 1.954-2.041.685 1.479 1.472c.83.828 1.526 1.396 1.586 1.298.06-.095.362-.872.673-1.725.31-.854.644-1.759.742-2.01.231-.598.148-.588-2.439.28m-5.623 2.352c-1.282.688-2.42 1.342-2.53 1.454-.244.253-1.463 4.27-1.334 4.399.051.051 1.044-.272 2.207-.717l2.113-.81.96-2.792c.53-1.535.951-2.79.938-2.787-.012.002-1.072.566-2.354 1.253m3.007-1.08c-.048.131-.49 1.326-.984 2.656-.494 1.329-.876 2.44-.85 2.471.064.076 4.907-2.201 4.908-2.308 0-.048-.672-.756-1.493-1.573-1.03-1.025-1.52-1.412-1.58-1.247m-6.844 9.35c-.948.49-1.583 1.134-1.583 1.607 0 .38 1.355 2.757 1.69 2.964.162.1 2.19-.95 2.685-1.39.543-.483.403-1.043-.665-2.666-.66-1.003-1.016-1.09-2.127-.516m-10.841 5.85c.67 1.397 1.186 2.595 1.148 2.66-.095.164-3.562 2.015-3.633 1.94-.09-.093-2.261-4.814-2.303-5.007-.04-.184 2.98-2.095 3.35-2.12.125-.009.743 1.076 1.438 2.526m7.615 4.89 6.483 1.923 1.09.323.877 1.764c.482.97.844 1.796.805 1.836-.04.04-2.35-.64-5.134-1.51-6.814-2.128-12.822-3.934-13.091-3.934-.526 0-.11-.313 1.488-1.12.94-.473 1.794-.865 1.898-.87.105-.006 2.617.71 5.584 1.588m14.539 1.207c.424.947.77 1.786.77 1.864 0 .196-4.513 2.727-4.884 2.738-.226.007-.485-.42-1.042-1.714-.407-.949-.74-1.815-.74-1.927 0-.244 4.873-2.96 5.02-2.797.058.063.452.89.876 1.836m-53.984-38.778c1.325.382 2.375.75 2.333.817-.042.068-1.127.776-2.411 1.574l-2.335 1.45-2.874-.616c-1.58-.34-3.085-.667-3.342-.728-.412-.098-.078-.297 2.75-1.638 1.77-.84 3.275-1.533 3.344-1.54.069-.006 1.21.3 2.535.681m7.714 1.892c1.306.32 2.487.582 2.625.582s.247.056.244.125-1.327.95-2.942 1.958a342 342 0 0 0-6.286 4.051l-3.35 2.218-1.25-.088c-1.376-.096-6.98-.856-7.085-.961-.063-.063 1.484-.962 7.336-4.263l5.166-2.92c1.507-.853 2.633-1.39 2.834-1.35.183.037 1.402.328 2.708.648m-16.375 2.517c1.925.242 3.556.49 3.624.551s-.27.341-.75.622-2.545 1.522-4.587 2.76l-3.713 2.249-1.287-.227c-.708-.124-2.598-.417-4.2-.651-1.601-.234-2.933-.446-2.959-.472s1.997-1.084 4.496-2.352c2.498-1.267 4.768-2.436 5.043-2.598s.575-.3.666-.308 1.742.184 3.667.426m-9.614 6.551c2.688.448 4.907.84 4.932.872.183.234 2.265 4.307 2.265 4.43 0 .087-.656.254-1.458.371s-2.77.426-4.373.687c-1.604.26-2.962.42-3.02.356-.058-.066-.792-1.615-1.632-3.444-1.391-3.029-1.824-4.097-1.66-4.088.033.001 2.259.369 4.946.816m11.693.28c1.694.231 3.092.435 3.106.452s.3.577.633 1.244c.436.87.547 1.234.394 1.29-.307.111-6.088 1.415-6.278 1.415-.125 0-1.277-1.893-2.982-4.9-.1-.176.904-.078 5.127.499m6.824 7.472c1.383 1.78 2.514 3.274 2.514 3.318s-.92.779-2.042 1.633a221 221 0 0 0-3.731 2.911c-.93.747-1.777 1.41-1.883 1.476s-1.572-.351-3.257-.926l-3.065-1.046 1.754-1.677 1.754-1.677-.75-2q-1.251-3.348-1.099-3.477c.127-.108 6.566-1.74 6.93-1.756.28-.013.928.713 2.875 3.22m-10.921 1.508c.44 1.16.767 2.145.725 2.187s-1.119-.11-2.392-.34c-1.273-.229-3.1-.553-4.059-.72l-1.744-.302-.215-1.062c-.118-.585-.176-1.1-.13-1.147.047-.047 1.566-.324 3.376-.617 2.627-.424 3.325-.49 3.464-.32.095.115.534 1.16.975 2.32m-3.514 2.423c1.998.367 3.68.666 3.737.666s-.598.525-1.455 1.167-1.605 1.167-1.663 1.167c-.122 0-2.588.457-5.837 1.082-1.237.238-3.471.662-4.964.942l-2.714.51-3.938-1.633c-3.231-1.34-3.866-1.656-3.536-1.758.221-.068 1.94-.39 3.819-.716s5.254-.923 7.5-1.327 4.383-.741 4.75-.75c.366-.009 2.302.284 4.3.65m17.116 1.718v1.385l-2.458 2.169c-3.665 3.233-5.017 4.394-5.118 4.394-.05 0-.09-.778-.09-1.728v-1.728l3.47-2.6c1.907-1.43 3.607-2.752 3.775-2.939.169-.186.332-.338.364-.338s.057.623.057 1.385m-35.87 2.72c2.042.884 3.692 1.625 3.666 1.644-.025.02-2.96 2.222-6.524 4.894l-6.479 4.859-2.855-1.06a629 629 0 0 0-4.854-1.78c-1.1-.396-2.054-.765-2.12-.819-.105-.087 1.67-1.2 12.37-7.757 1.42-.871 2.696-1.585 2.833-1.587.138-.002 1.92.72 3.963 1.605m22.665 1.33 3.58 1.267c.453.163.459.182.459 1.635v1.47l-.459.093c-2.901.583-14.475 2.6-14.92 2.6-.243 0-2.451-.609-4.907-1.354-2.455-.744-4.633-1.39-4.84-1.436-.205-.045-.374-.138-.374-.208 0-.14 2.193-1.826 2.785-2.142.202-.108.99-.312 1.75-.453 1.867-.346 11.548-2.22 12.381-2.396 1.15-.243 1.35-.203 4.545.925m-19.733 6.413a432 432 0 0 0 4.355 1.351c.917.277 1.765.557 1.886.623.156.086.014.302-.5.757-.396.35-1.856 1.714-3.246 3.03s-2.594 2.39-2.676 2.39c-.166 0-8.677-3.132-9.01-3.316-.139-.077.928-1.08 3.084-2.9 1.812-1.53 3.323-2.783 3.357-2.783s1.272.382 2.75.848m-67.598-34.87-.047 2.498-2.083-.916a370 370 0 0 0-2.64-1.153l-.558-.236.486-.627c.267-.345 1.455-2.05 2.64-3.788l2.155-3.16.046 2.442a161 161 0 0 1 0 4.94m3.539-3.543c1.368 2.004 2.433 3.694 2.368 3.757-.128.121-4.823 2.308-4.957 2.308-.043 0-.08-2.225-.08-4.945 0-2.719.042-4.903.091-4.853.05.05 1.21 1.73 2.578 3.733m-5.983 5.984 2.398 1.078.038 5.377.038 5.376-.636-1.5c-4.479-10.575-4.89-11.616-4.542-11.506.168.053 1.385.582 2.704 1.175m8.648-1.163c0 .082-4.806 11.721-5.158 12.494-.096.21-.157-1.613-.164-4.93l-.011-5.261 2.541-1.187c2.535-1.182 2.792-1.285 2.792-1.116m-10.31 4.577c.552 1.33 1.711 4.079 2.577 6.11l1.573 3.693-.045 3.465-.045 3.464-1.317-2.158c-.724-1.186-1.55-2.55-1.833-3.029-.29-.49-.638-.873-.794-.875-.153-.002-.628.147-1.056.33s-.809.334-.847.334-.065-3.507-.06-7.792l.01-7.792.417.917c.23.504.87 2.004 1.42 3.333m10.848 1.99-.046 6.155-.917-.406c-.505-.223-1.01-.401-1.121-.396-.112.005-.991.998-1.954 2.208l-1.75 2.2-.05-.942c-.046-.886.12-1.35 2.834-7.955 1.585-3.858 2.92-7.015 2.966-7.017s.063 2.767.038 6.152m13.857-.322c.972.687 1.765 1.287 1.763 1.333-.004.105-4.06 2-4.28 2-.09 0-.213-.694-.274-1.541-.06-.848-.157-2.098-.216-2.777l-.105-1.235.672.485c.37.267 1.468 1.047 2.44 1.735m-3.61.625c.1 1.444.166 2.643.145 2.665-.02.021-.894-.343-1.942-.81-1.047-.467-2.114-.94-2.37-1.053l-.464-.202 2.045-1.613c1.124-.887 2.125-1.612 2.224-1.612.112 0 .247.976.362 2.625m-34.468 3.43.016 3.303-2.503-1.298-2.503-1.3 2.378-2.383c2.145-2.15 2.39-2.346 2.487-2.005.06.208.116 1.865.125 3.682m4.424-.571c.637.646 1.124 1.202 1.083 1.237-.254.214-4.487 2.447-4.638 2.447-.13 0-.186-1.065-.186-3.601v-3.601l1.292 1.171c.71.645 1.812 1.7 2.449 2.347m27.717-.286 2.375 1.032v12.421l-.541-.249a11 11 0 0 0-.834-.344c-.255-.084-.291-.336-.291-2.048v-1.952l-1.667-1.732-1.667-1.732v-3.213c0-1.767.057-3.214.125-3.214.07 0 1.194.463 2.5 1.031m8.203 4.595c-.004 5.134-.028 5.595-.266 5.291-.406-.52-4.414-8.61-4.354-8.79.057-.17 4.063-2.084 4.417-2.11.163-.013.208 1.209.203 5.609m-13.508-3.185 1.347.607v1.476c0 .812-.03 1.477-.067 1.477-.036 0-.711-.297-1.5-.66l-1.433-.658v-1.425c0-.783.069-1.424.153-1.424s.759.273 1.5.607m-16.153 1.07c0 1.351.107 1.32-1.708.496l-1.028-.466 1.243-.59c.684-.323 1.3-.595 1.368-.603s.125.516.125 1.164m27.083 4.154c1.238 2.474 2.25 4.536 2.25 4.582s-1.05.61-2.333 1.253l-2.333 1.168v-5.75c0-3.164.037-5.752.082-5.752s1.096 2.025 2.334 4.5m-32.083-1.004v3.162l-.534.277c-.294.152-1.344 1.065-2.334 2.03l-1.799 1.755v-7.857l2.292-1.259c1.26-.692 2.31-1.261 2.333-1.265.023-.003.042 1.418.042 3.157m-8.065-1.733 2.398 1.262v6.104c0 3.6-.06 6.04-.149 5.946-.163-.173-4.85-14.071-4.85-14.382 0-.106.045-.193.1-.193s1.181.568 2.5 1.263m11.28-.074c.753.288 1.466.6 1.585.693.146.116.2.515.166 1.24l-.048 1.068-1.584.654c-.87.36-1.602.655-1.625.655s-.041-1.086-.041-2.415c0-1.33.04-2.417.088-2.417.05 0 .706.235 1.459.522m18.445 1.822c1.104.474 2.008.89 2.008.924s-.469 1.004-1.042 2.155c-.756 1.52-1.11 2.072-1.292 2.015-.282-.089-6.665-2.782-7.381-3.115-.256-.119-.43-.307-.387-.418.043-.112.73-1.027 1.527-2.035l1.448-1.832 1.556.722c.856.397 2.46 1.11 3.563 1.584m-29.554 7.479 1.95 5.739-.59.51c-.326.281-1.8 1.468-3.278 2.637l-2.687 2.126v-4.936c0-4.446.026-4.925.266-4.833.146.056.446.147.666.203l.401.1.013-5.56.013-5.56.648 1.918c.356 1.054 1.525 4.499 2.598 7.656m16.312-5.127c.366.654 1.173 2.009 1.791 3.011.62 1.003 1.125 1.872 1.125 1.933-.001.108-7.906 3.86-8.133 3.86-.064 0-.487-.806-.94-1.792a224 224 0 0 0-1.542-3.274c-.395-.815-.717-1.565-.716-1.666 0-.164 7.163-3.238 7.581-3.254.092-.003.467.528.834 1.182m15.95 1.633c-.89.437-1.64.775-1.667.752s.31-.81.75-1.748l.8-1.705.866.953.867.954zm-6.825.452 3.791 1.635v8.235l-1.041-.464c-1.036-.462-1.042-.468-1.091-1.21l-.05-.747-2.909-1.31-2.909-1.31v-3.323c0-2.596.046-3.303.209-3.232.114.05 1.914.827 4 1.726m8.653 4.074-.037 4.344-.84 2.442a494 494 0 0 0-1.93 5.776c-.599 1.833-1.167 3.408-1.261 3.5-.118.113-.14.034-.069-.25.058-.23.105-4.448.106-9.374l.003-8.957 1.958-.984c1.077-.541 1.992-.952 2.033-.913.041.04.058 2.026.037 4.416m-25.604-.813c1.398 2.858 1.6 3.402 1.2 3.245-1.862-.735-5.744-2.372-5.855-2.47-.115-.1 2.988-3.64 3.199-3.648.028-.001.683 1.291 1.456 2.873m35.396-.975.737.385-.737.423a945 945 0 0 1-3.546 2.005l-2.81 1.583-1.19-.55-1.19-.552-.05-.93c-.034-.61.014-.931.137-.931.104 0 .654.186 1.223.414l1.035.414 2.577-1.324c1.417-.728 2.69-1.323 2.827-1.323.138 0 .582.174.987.386m1.18 6.556v5.29l-2.459-2.426a472 472 0 0 0-3.458-3.384c-.816-.782-.954-.988-.75-1.12.629-.408 6.43-3.64 6.542-3.644.069-.003.125 2.375.125 5.284m-25.78-4.121c-.076.07-.738.391-1.471.713-.734.323-2.065.929-2.959 1.347l-1.625.76v.714c0 .692-.027.728-.878 1.172-.482.252-.932.459-1 .459s-.122-.53-.122-1.177v-1.177l2.125-.994c1.17-.547 2.988-1.39 4.042-1.872l1.917-.878.054.403c.03.22-.007.46-.083.53m-11.43 1.84c1.123.48 2.042.926 2.042.99 0 .102-1.354 1.317-2.196 1.971-.248.193-.479-.047-2.042-2.12-.969-1.286-1.762-2.373-1.762-2.415 0-.087 1.021.319 3.958 1.574m-2.706 1.16 1.914 2.554-.357.597c-.196.328-1.096 1.906-2 3.506l-1.642 2.91v-6.146c0-3.38.038-6.107.085-6.06s.947 1.234 2 2.64m17.728-1.283c1.41.658 2.556 1.26 2.548 1.337-.011.12-2.356 1.272-4.611 2.264l-.667.293-1.917-.89c-1.054-.49-2.28-1.063-2.722-1.272l-.807-.38 2.723-1.27c1.498-.697 2.76-1.27 2.806-1.273s1.237.533 2.647 1.191m13.24.552.895.438.11 4.006c.06 2.202.108 4.704.108 5.559v1.553l-.995.503c-.547.276-1.035.502-1.083.502s-.088-2.925-.088-6.5.036-6.5.08-6.5c.043 0 .481.198.973.439m6.61 5.674c1.145 1.118 2.045 2.066 2 2.108-.044.041-1.599.834-3.455 1.761l-3.375 1.687v-10.227l1.375 1.32c.756.726 2.311 2.234 3.455 3.351m-32.43 6.554c-.116.908-.129.873-1.251-3.583-.624-2.475-1.137-4.69-1.141-4.922-.006-.32.286-.68 1.2-1.485l1.209-1.064.05 5.069c.027 2.787-.003 5.48-.068 5.985m16.101-8.739v2.095l.375-.117c.206-.064.814-.336 1.35-.605.537-.27 1.006-.458 1.044-.42s.05 2.399.025 5.247l-.044 5.179-1.627-1.779a279 279 0 0 0-4.292-4.528l-2.664-2.75.042-.893.041-.893 2.75-1.298c1.513-.715 2.806-1.307 2.875-1.316s.125.926.125 2.078m-9.4-.705 2.65 1.224.05.854.05.854-3.3 3.546a834 834 0 0 1-4.255 4.548l-.955 1.001-.003-5.2-.004-5.2.625.26c.344.144.904.403 1.244.576s.696.314.791.314c.11 0 .174-.726.174-2 0-1.1.064-2 .142-2s1.334.55 2.791 1.223m-14.824 8.223c-.035.035-1.531-.706-3.326-1.646s-3.249-1.72-3.231-1.735l3.281-2.556 3.25-2.53.045 4.202c.024 2.311.016 4.23-.019 4.265m11.057-7.365v.748l-.84-.331c-.46-.182-.892-.337-.957-.345-.133-.015 1.475-.793 1.672-.81.07-.005.125.327.125.738m15.44-.112c.257.145.181.19-1.398.817-.148.06-.208-.136-.208-.677v-.76l.67.236c.37.13.79.303.935.384m5.389 4.823-.006 4.958-1.953.935c-1.073.514-1.972.919-1.998.899-.05-.04 3.856-11.75 3.921-11.75.023 0 .04 2.23.036 4.958m-25.376 1.25c.73 2.956 1.28 5.394 1.224 5.418-.138.059-6.731-3.348-6.747-3.486-.019-.173 3.976-7.303 4.093-7.305.057-.001.7 2.417 1.43 5.373m11.048 3.795v6.67l-4.208-2.11c-2.315-1.159-4.235-2.13-4.267-2.159-.033-.027 1.548-1.761 3.512-3.852a515 515 0 0 0 4.204-4.51c.347-.39.66-.71.695-.71.036 0 .064 3.002.064 6.67m7.206-.002c1.158 1.237 2.052 2.304 1.987 2.37-.135.14-8.14 4.296-8.273 4.296-.047 0-.086-3.013-.086-6.695v-6.696l2.133 2.237c1.173 1.23 3.08 3.25 4.239 4.488m-64.863-40.325c-.326.757-1.575 3.752-2.777 6.657-1.201 2.905-2.247 5.242-2.324 5.194-.274-.169-4.815-9.438-4.68-9.554.074-.066 1.486-.593 3.136-1.173s3.9-1.375 5-1.767 2.053-.717 2.118-.722c.066-.005-.147.61-.473 1.366m6.276 8.232c2.736 5.024 4.958 9.152 4.937 9.173s-.635-.148-1.365-.376a1734 1734 0 0 0-13.285-3.987c-.527-.15-.958-.333-.958-.405 0-.127 2.007-5.052 4.25-10.429.611-1.467 1.152-2.8 1.202-2.965.05-.164.124-.264.166-.222s2.316 4.187 5.053 9.211m-14.371-.824c1.31 2.615 2.356 4.783 2.322 4.817s-3.62-1.137-7.967-2.602c-4.348-1.465-8.055-2.667-8.239-2.67-.294-.008-.285-.034.084-.234.229-.123 2.629-1.023 5.333-1.998s5.067-1.841 5.25-1.924.446-.149.583-.147c.16.002 1.111 1.72 2.634 4.758m-14.72 1.046.606.996-1.718 2.13a364 364 0 0 0-3.218 4.054c-2.473 3.176-2.227 2.96-3.687 3.24-.71.135-1.312.224-1.339.197s1.322-1.852 2.996-4.057a1000 1000 0 0 0 4.365-5.782c.725-.976 1.335-1.774 1.355-1.774s.308.448.64.996m8.753 1.755c4.17 1.403 7.816 2.637 8.101 2.742l.518.19-2.658 6.367c-1.463 3.501-2.676 6.385-2.698 6.407-.045.048-.598-.827-4.188-6.624A1512 1512 0 0 0-196.9-54.9c-2.993-4.757-2.93-4.64-2.379-4.419.16.065 3.704 1.266 7.875 2.67m-3.33 7.249a970 970 0 0 0 4.158 6.667c.154.229.45.697.656 1.041l.376.625-.722-.311a773 773 0 0 1-4.471-1.986 890 890 0 0 0-7.084-3.121c-1.833-.796-3.387-1.498-3.453-1.56-.128-.12.665-1.186 4.084-5.489 1.935-2.435 2.18-2.686 2.368-2.417.115.166 1.954 3.113 4.088 6.551m18.997-2.256c2.979.888 6.274 1.878 7.321 2.2l1.905.586-3.238 1.212a804 804 0 0 0-8.655 3.332l-7.075 2.767c-.912.357-1.688.618-1.726.58-.037-.037.269-.878.68-1.87.412-.99 1.477-3.564 2.367-5.718s1.72-4.156 1.841-4.45c.201-.483.267-.52.693-.394zm6.126 5.298c-.53.811-8.92 14.091-9.39 14.863-.275.452-.576.847-.668.878-.092.03-1.871-2.01-3.952-4.535-3.092-3.751-3.73-4.612-3.492-4.703.16-.06 4.192-1.63 8.959-3.487a1548 1548 0 0 1 8.727-3.383c.034-.005-.049.16-.184.367m-28.96 2.34c7.85 3.389 9.19 3.984 9.117 4.057-.035.034-1.369.435-2.965.89l-2.902.827-2.202-1.252-2.203-1.251-2.2-2.618a1411 1411 0 0 1-2.463-2.938c-.326-.395-1-.659 5.818 2.284m29.796 5.881-.046 2.763-4.916 2.384c-2.705 1.312-4.94 2.364-4.969 2.339-.048-.043 1.034-1.782 7.313-11.748l2.572-4.083.046 2.791c.025 1.536.025 4.035 0 5.555m-33.819-5.104 2.334 2.743-.095 3.924c-.052 2.158-.112 3.945-.133 3.971s-.568-1.511-1.214-3.416a535 535 0 0 0-2.356-6.763c-.648-1.814-1.18-3.348-1.18-3.408 0-.155.044-.106 2.644 2.95m-1.44 2.257c2.231 6.384 3.106 8.996 3.036 9.066-.04.04-1.159-.485-2.488-1.164l-2.416-1.236.008-5.833.008-5.833.343.833c.189.458.867 2.333 1.508 4.167m15.464 8.267c0 6.296-.017 6.679-.291 6.58-.16-.058-1.627-.722-3.26-1.476l-2.967-1.371.11-4.334c.06-2.383.138-4.363.173-4.4.08-.084 5.748-1.656 6.027-1.672.163-.009.208 1.431.208 6.673m4.668-1.732c3.265 3.94 3.657 4.475 3.41 4.656-.154.112-1.846 1-3.762 1.972l-3.482 1.768v-6.424c0-3.533.032-6.424.072-6.424s1.733 2.003 3.762 4.452M39.792 3.108l.328 1.104 1.648 1.051c1.07.682 1.643 1.151 1.633 1.334-.009.155-.192 1.046-.407 1.98l-.39 1.698.697.993c.383.546.741 1.11.795 1.251.064.166-.456 1.003-1.441 2.323l-1.541 2.063-2.16.203c-1.19.111-2.187.176-2.219.145-.032-.032-.103-.467-.16-.966l-.101-.908 1.54-2.293c.847-1.26 1.509-2.321 1.471-2.357-.038-.035-.78.374-1.652.909-.87.535-1.64.977-1.708.982S36 12.497 36 12.337c0-.268-.543-3.25-1.069-5.875-.12-.596-.256-.97-.305-.833s-.409 2.144-.801 4.459l-.715 4.209-.43-.284c-1.708-1.124-3.03-1.923-3.088-1.866-.037.038.636.93 1.497 1.984 1.272 1.557 1.566 2.019 1.571 2.475l.007.56-.709-.098c-.39-.054-1.533-.147-2.541-.207l-1.834-.108-1.358-2.611-1.359-2.611 1.012-1.66c1.006-1.652 1.011-1.666 1.14-3.326.071-.916.134-1.821.14-2.01.007-.294.317-.441 2.082-.99l2.072-.644 1.338-1.45L33.988 0l2.737 1.002 2.738 1.003zM12.5 2.467c0 .97.086 1.341.5 2.162.677 1.34.654 1.997-.114 3.295-.338.571-.67 1.038-.737 1.038-.068 0-.392-.429-.72-.953-.78-1.249-.805-2.142-.096-3.547.404-.799.5-1.2.5-2.079 0-.977.034-1.088.334-1.088s.333.111.333 1.172m10.833-.59c0 .112-5.782 6.7-5.996 6.833-.113.07-.169-.618-.167-2.03l.004-2.135 1.871-.822A81 81 0 0 0 22 2.356c1.08-.543 1.333-.634 1.333-.479m.834 2.232c0 2.059-.033 2.324-.292 2.403-.16.049-1.53.614-3.042 1.255S18.06 8.909 18.03 8.879c-.057-.056 5.972-7.084 6.077-7.084.033 0 .06 1.042.06 2.314m1.396-1.55.645.733-.119 1.738-.118 1.737-.61-.21-.61-.212-.046-2.275c-.026-1.25.012-2.268.083-2.259s.42.345.775.748m1.53-.076c.94.416 1.033.592.388.733-.463.102-.601.035-1.21-.586-.753-.769-.632-.79.821-.147M8.92 4.808c.062.281.087.948.055 1.48l-.057.97L10 7.985c1.256.843 1.616 1.441 1.773 2.947.132 1.258.072 1.273-1.461.362C8.589 10.27 8.167 9.467 8.167 7.21c0-1.826.159-2.915.426-2.915.117 0 .264.23.326.513M16 6.718c0 2.525-.141 3.217-.769 3.772-.382.338-2.37 1.472-2.58 1.472-.241 0-.174-1.392.105-2.183.314-.892.76-1.38 1.785-1.956l.792-.444V5.837c0-1.43.024-1.542.334-1.542.318 0 .333.111.333 2.422m19.403 6.454.118.793.698-.473c1.071-.725 1.187-.783 1.027-.513-.076.129-.462.65-.857 1.16l-.72.925.402 2.908c.222 1.6.453 3.301.515 3.783l.112.875h-2.016c-1.81 0-2.015-.03-2.01-.292.002-.16.214-1.731.47-3.491l.465-3.2-.595-.616-.595-.617.558.381c.368.251.598.32.67.202.062-.1.29-1.441.506-2.982s.436-2.875.487-2.964c.081-.14.341 1.261.765 4.121m-6.07 11.54-1.412 1.42-5.294-5.292-5.294-5.292V9.88l6.707 6.706 6.706 6.707zM7.149 16.206l.018 3.161-.985.922c-.542.508-2.053 1.935-3.358 3.173C1.201 25.002.492 25.58.581 25.295c.186-.6 3.018-7.473 4.807-11.666l1.529-3.584.107 1.5c.059.825.115 2.923.125 4.661m3.852-3.44c.475.577.832 1.736.832 2.704 0 .27-.052.492-.115.492-.302 0-2.4-1.387-2.778-1.836-.5-.594-.771-1.46-.772-2.465l-.001-.717 1.175.617c.646.34 1.393.882 1.659 1.205m5.113-.722c-.112 1.197-.277 1.607-.926 2.306-.39.42-2.297 1.612-2.579 1.612-.172 0-.125-1.351.07-2.057.099-.353.417-.895.708-1.205.512-.544 2.345-1.738 2.669-1.738.095 0 .118.436.058 1.082m30.12 8.13c1.155 2.912 2.1 5.338 2.1 5.39s-1.538-1.388-3.417-3.2c-2.881-2.776-3.417-3.367-3.417-3.77q0-.475.95-1.762c1.008-1.367 1.582-2.062 1.646-1.994.022.022.984 2.423 2.138 5.336m-36.88-4.687c1.182.63 2.06 1.554 2.3 2.421.172.619.25 2.054.11 2.054-.037 0-.602-.308-1.254-.684-1.241-.716-1.836-1.35-2.154-2.3-.2-.596-.261-2.016-.088-2.016.056 0 .545.236 1.087.525m6.738.51c-.14 1.238-.412 1.927-.947 2.397-.415.366-2.365 1.568-2.543 1.568-.168 0-.116-1.364.078-2.063.23-.83 1.156-1.8 2.319-2.433.504-.274.983-.5 1.063-.501.081-.002.095.458.03 1.031m24.966 2.591c.1.612.068.659-1.555 2.284-.912.913-1.694 1.623-1.739 1.579-.086-.087-.598-3.36-.598-3.825 0-.227.272-.31 1.458-.445 2.46-.28 2.317-.303 2.434.407m-31.466.97c.545.327 1.155.75 1.357.938.516.482.883 1.682.883 2.885 0 1.114.098 1.347.443 1.06.145-.12.225-.573.228-1.29.006-1.86.686-2.835 2.698-3.87.968-.498 1.023-.453.89.724-.153 1.363-.507 2.072-1.297 2.606a39 39 0 0 0-1.47 1.064l-.825.63v1.406c0 1.236-.04 1.428-.333 1.585-.321.172-.334.127-.336-1.202-.002-.762-.095-1.562-.209-1.785s-.762-.786-1.441-1.254c-1.44-.99-1.88-1.685-1.985-3.125-.085-1.177.014-1.203 1.397-.372M46.5 24.591l1.75 1.701-2.186.002-2.186.001-1.024-2.958c-.563-1.627-1.023-3.032-1.022-3.122s.658.476 1.46 1.256c.802.781 2.245 2.185 3.208 3.12M6.01 23.295c-.55 1.584-1.03 2.909-1.066 2.945s-1.022.044-2.192.019l-2.126-.047 3.128-2.962c1.72-1.629 3.156-2.933 3.192-2.898.035.035-.387 1.36-.936 2.943m13.962 3.93-4.096 4.079-2.77-.046-2.77-.046 5.453-5.467 5.454-5.467 1.412 1.435 1.413 1.435zm12.343 1.003-4.6 4.601-1.444-1.476-1.443-1.475 3.211-3.12 3.211-3.119 2.833-.006 2.833-.005zM5.08 27.087c.064.16.557 1.554 1.097 3.096l.981 2.805L4.87 30.85a308 308 0 0 0-3.358-3.096l-1.069-.959h2.26c1.998 0 2.275.034 2.377.292m42.34.586a621 621 0 0 0-2.732 2.414c-1.509 1.341-2.352 1.849-2.356 1.417 0-.07.347-1.157.772-2.417l.773-2.292 2.27.003 2.27.002zm-20.95 7.075-.982 1.202.798.404c1.406.711 3.042 1.137 3.912 1.02l.781-.107.186.722c.102.398.482 1.498.843 2.446.69 1.806.907 3.527.445 3.527-.176 0-10.127-9.897-13.282-13.21l-.912-.959 1.41-1.418 1.411-1.417 3.186 3.293 3.186 3.294zm-21.53-3.15 2.524 2.368-.2.79-.202.79-1.618.047-1.617.048-.346-.798C2.857 33.4.5 27.583.5 27.485c0-.053.431.318.958.825s2.094 1.986 3.482 3.289m42.35-1.329c-.778 1.894-1.103 2.514-1.29 2.458a62 62 0 0 1-1.394-.476l-1.145-.4 2.374-2.118c1.306-1.165 2.402-2.09 2.435-2.057.034.033-.407 1.2-.98 2.593m-8.299.933c1.672.345 1.961.455 2.334.892.348.408.637.536 1.592.702 1.674.292 2.536.718 3.625 1.792.527.52.958.99.958 1.045s-.656.267-1.458.474l-1.459.375-.963-.427c-.53-.235-.988-.427-1.018-.427s-.099.365-.152.811-.435 1.853-.848 3.125c-.414 1.273-.803 2.726-.864 3.23-.094.772-.22 1.031-.8 1.64-1.71 1.793-3.673 1.842-5.375.134-.77-.774-.864-.95-.97-1.818-.065-.528-.487-2.085-.939-3.46s-.82-2.758-.82-3.074v-.573l-1.11.417-1.11.418-1.098-.34c-1.637-.507-1.628-.485-.682-1.547.999-1.12 1.832-1.551 3.5-1.81 1.038-.162 1.32-.276 1.666-.673.345-.396.719-.549 2.167-.883a80 80 0 0 1 1.833-.41c.046-.004.942.17 1.991.387m-22.658 2.842v1.75H8.667v-3.5h7.666zM33.35 36.73c-.193.244-.35.508-.35.586 0 .129 1.523.98 1.754.98.054 0 .075-.303.047-.674-.041-.548-.15-.737-.576-1.006l-.525-.331zm6.692-.083c-.46.295-.542.448-.542.999 0 .358.04.65.089.65.204 0 1.744-.849 1.743-.96 0-.068-.169-.329-.375-.58l-.374-.458zM12 38.378v1.75H4.167v-3.5H12zm8.667 0v1.75h-7.834v-3.5h7.834zm23.5-.994c0 .29-2.243 5.577-2.366 5.577-.246 0 .024-1.158.634-2.722.316-.81.62-1.804.676-2.209.093-.675.14-.736.578-.736.263 0 .478.04.478.09m-36.5 5.327v1.75H0v-3.5h7.667zm8.666 0v1.75H8.5v-3.5h7.833zm8.667 0v1.75h-7.667v-3.5H25zm10.667.087c0 .094.3.496.666.894.367.397.667.808.667.913s.075.19.167.19c.091 0 .166-.086.166-.19s.3-.516.667-.913c.367-.398.667-.8.667-.894 0-.103-.59-.17-1.5-.17-.911 0-1.5.067-1.5.17m-1.684 2.562c.643.656 1.255 1.02 2.262 1.346.25.08-.309.446-2.334 1.527-5.65 3.018-8.448 4.431-8.307 4.2.08-.133 1.56-1.902 3.287-3.93 1.893-2.225 3.283-3.718 3.5-3.76.756-.148.893-.095 1.592.617m-5.759 3.202a1450 1450 0 0 1-3.18 3.72l-.373.429.04-2.383.039-2.383 3.083-1.387c1.696-.764 3.11-1.366 3.141-1.338s-1.206 1.532-2.75 3.342m-7.035-1.88 2.894 1.222.038 2.403.038 2.404-.593-.667c-1.739-1.955-5.55-6.583-5.42-6.583.082 0 1.451.55 3.043 1.221m-1.088 2.07a509 509 0 0 0 2.968 3.52c.342.39.334.389-.569-.064-1.275-.64-12.234-6.436-12.32-6.516-.038-.035 1.59-.064 3.615-.064h3.685zM-41.207.257c-2.918 1.58-6.05 3.087-6.157 2.962-.066-.077-.259-.615-.428-1.194-.251-.86-.268-1.08-.089-1.191.121-.075.903-.226 1.739-.336.835-.11 2.306-.334 3.269-.498 2.762-.47 2.953-.44 1.666.257m.474 4.007a1519 1519 0 0 1-1.216 4.18c-.007.016-.748-.127-1.647-.318l-1.633-.347-.906-1.805c-.498-.993-.905-1.866-.905-1.939s.956-.632 2.125-1.242 2.835-1.485 3.704-1.944c.868-.459 1.602-.811 1.63-.783s-.49 1.917-1.152 4.199m-7.902-2.145c.27.662.451 1.242.404 1.29-.08.08-1.925-.116-3.614-.383l-.72-.115 1.47-1.03c.81-.568 1.584-1.017 1.721-.999.14.02.465.563.74 1.237m12.324.61c.423.497.77.94.77.986s-.825-.189-1.833-.522c-1.324-.437-1.834-.68-1.834-.874 0-.424.16-.49 1.174-.49.946 0 .957.005 1.723.9m-1.376.917c2.12.658 2.581.848 2.381.983-.093.064-.815.81-1.604 1.658-1.395 1.5-1.44 1.574-1.64 2.695-.168.937-.272 1.171-.557 1.247-.74.199-.917.103-1.266-.686-.191-.433-.448-.901-.572-1.042-.19-.216-.161-.477.18-1.673.916-3.222 1.073-3.667 1.292-3.667.123 0 .927.218 1.786.485m-12.038.197 1.733.21.809 1.728c.445.95.809 1.77.809 1.822s-.117.05-.26-.005c-.142-.055-.76-.178-1.374-.274s-1.242-.213-1.396-.26c-.153-.046-.833-.774-1.51-1.618-1.627-2.031-1.624-2.025-1.028-1.907.266.052 1.264.19 2.217.304m3.267 4.813c4.349.815 4.417.83 4.417 1.03 0 .17-3.153 4.118-3.555 4.452-.159.132-.66.188-1.388.156l-1.14-.05-1.62-3.083c-.89-1.695-1.622-3.149-1.625-3.23-.007-.182.353-.129 4.911.725m-5.196.047c.22.39 1.004 1.88 1.74 3.313l1.337 2.605-1.083 1.725c-1.01 1.611-3.524 5.494-3.64 5.624-.028.031-1.275.343-2.771.692s-2.91.682-3.141.742l-.421.108-.813-4.102c-.697-3.516-.78-4.134-.58-4.33.488-.475 8.74-7.076 8.853-7.08.065-.003.298.314.52.703m11.944 5.493c.826 2.166 1.496 4.038 1.49 4.16s-.274.44-.593.704c-.532.443-.63.468-1.196.303-.339-.098-1.047-.302-1.574-.452-.903-.257-1-.337-1.675-1.386a54 54 0 0 1-1.266-2.076l-.548-.963 1.802-2.242c.99-1.233 1.86-2.184 1.93-2.113.071.07.805 1.9 1.63 4.065m4.236-2.932c.884.42 1.293.71 1.349.958.42 1.862.427 1.76-.17 2.42-.505.56-.7.644-2.087.91-.842.162-1.55.271-1.575.243-.069-.08-1.585-4.112-1.585-4.216 0-.142 2.083-.845 2.69-.907.06-.006.68.26 1.378.592m-9.916 4.66c.407.69.34.905-.287.902-.328-.001-.55-.158-.823-.58-.451-.697-.452-.707-.084-.803.653-.17.858-.088 1.194.481m-19.7 6.404c-1.589 3.53-3.294 7.373-3.79 8.542s-.96 2.125-1.032 2.125-.133-.769-.137-1.708c-.003-.94-.075-4.071-.159-6.959s-.107-5.908-.051-6.711c.09-1.307.138-1.47.45-1.54.89-.196 7.52-.488 7.561-.332.024.092-1.255 3.054-2.843 6.583m17.032-3.106.017 1.477-1.187 1.773a92 92 0 0 1-1.254 1.846c-.118.13-1.892-1.718-1.892-1.97 0-.132.918-1.609 2.041-3.281l2.042-3.041.108.86c.06.472.116 1.524.125 2.336m-13.07.356c.74 3.81.804 4.656.635 8.394l-.131 2.894-.834.307c-1.298.477-8.163 2.793-8.194 2.764-.024-.022 2.703-6.172 6.684-15.072.627-1.4 1.159-2.526 1.183-2.5.023.025.32 1.471.658 3.213m27.801-2.241c.593.865.625.97.479 1.62-.086.382-.349 1.023-.584 1.424l-.428.73-1.716.107c-.944.059-3.473.191-5.62.295l-3.903.188-.715-.812c-.393-.446-.717-.923-.718-1.06-.005-.439.617-1.635.934-1.798.936-.48 1.161-.413 1.788.531.562.848.666.92 1.807 1.26.666.199 1.603.482 2.082.63.865.266.873.265 1.25-.136.208-.223.67-.643 1.027-.934l.648-.529-.187-.741c-.102-.407-.23-.855-.284-.995-.078-.203.165-.305 1.205-.508 2.02-.394 2.195-.35 2.935.728m-13.32 4.301c.265.292.256.38-.14 1.479-.445 1.232-.532 1.957-.255 2.128.092.057.167.174.167.262 0 .138-6.587 5.488-6.757 5.488-.036 0 .26-.469.657-1.042 1.441-2.078 4.49-6.566 5.15-7.583.373-.573.727-1.042.788-1.042.06 0 .236.14.39.31m12.602 1.35c.185.363.336.985.336 1.381 0 .642-.087.806-.791 1.488l-.792.767-4.857-.19-4.856-.19-.342-.416c-.754-.918-.794-1.118-.427-2.139l.339-.944 3.905-.182c2.147-.1 4.634-.193 5.526-.208l1.622-.027zm-17.998.852 1.047 1.178-2.282 3.363a357 357 0 0 1-2.49 3.643c-.19.254-.379.21-2.2-.519-1.214-.487-1.99-.888-1.987-1.029.002-.127.066-1.593.143-3.258l.14-3.027 2.94-.694a160 160 0 0 0 3.107-.752c.411-.142.596-.014 1.582 1.095m6.197 3.072c.18.229.467.416.636.416.769 0 .84.14.505.99-.31.787-.31.8.03 1.36.772 1.277 1.29 1.786 1.93 1.894.345.058.716.161.826.23.207.127 4.282 12.51 4.158 12.634-.04.04-2.125-.265-4.635-.676s-5.857-.957-7.438-1.214-2.875-.526-2.875-.598 1.045-2.664 2.323-5.76a1380 1380 0 0 0 2.818-6.87c.806-2.016 1.174-2.823 1.288-2.823.058 0 .254.187.434.416m-3.315 4.626c-1.053 2.59-2.397 5.9-2.986 7.357s-1.113 2.716-1.163 2.797c-.097.156-.872-.252-3.777-1.984l-1.794-1.07.89-1.28c.49-.703 1.404-2.024 2.033-2.935.628-.911 1.403-1.886 1.721-2.167.924-.814 6.767-5.416 6.885-5.422.058-.003-.755 2.114-1.809 4.704m11.33-3.934 1.763.107.441.812.442.812-.334.538a6 6 0 0 1-.803.982l-.47.442-1.75-.225c-4.276-.55-4.31-.559-4.759-1.22-.482-.709-.49-.81-.14-1.686l.268-.67h1.79c.984 0 2.582.048 3.552.108m-.357 4.613 1.272.195 1.799 2.334c.99 1.283 1.91 2.523 2.045 2.756.238.41.184.512-1.88 3.551-1.17 1.721-2.148 3.106-2.176 3.078-.027-.029-.773-2.34-1.656-5.135-.884-2.796-1.748-5.515-1.921-6.042l-.315-.958.78.012c.43.007 1.353.101 2.052.209m5.87 10.654c.052 1.719.051 3.125-.003 3.125-.392 0-4.221-1.246-4.221-1.374 0-.089.494-.885 1.098-1.769.603-.884 1.485-2.182 1.958-2.885l.86-1.279.106.529c.058.29.149 1.934.201 3.653m-24.073-2.066c1.23.74 2.317 1.376 2.417 1.411.252.089-.153.524-2.385 2.569-1.352 1.238-1.936 1.677-2.02 1.518-.065-.123-.207-1.536-.315-3.14-.107-1.605-.23-3.131-.27-3.393-.094-.594-.19-.632 2.573 1.035m11.168 3.11c3.63.597 6.773 1.125 6.986 1.173.344.077-.076.561-3.666 4.234l-4.055 4.147-.308-.359c-.17-.197-.839-1.26-1.487-2.361a250 250 0 0 0-2.983-4.878c-.993-1.581-1.805-2.913-1.805-2.958 0-.177.923-.05 7.318 1.002m-8.542-.294c-.044.16-.328 1.81-.63 3.667-.304 1.856-.6 3.375-.66 3.375-.112 0-3.033-3.119-3.115-3.325-.025-.063.688-.76 1.583-1.547.896-.788 1.85-1.664 2.119-1.947.546-.575.823-.663.703-.223m2.327 2.173c2.82 4.552 4.608 7.546 4.544 7.61-.035.035-1.076-.254-2.314-.642-4.997-1.567-5.166-1.631-5.166-1.954 0-.168.262-1.841.583-3.717s.583-3.49.583-3.587c0-.45.36.016 1.77 2.29m16.776.137c1.12.33 2.055.616 2.076.635s-.818 1.063-1.864 2.32l-1.903 2.284-.094-.712c-.11-.841-.426-4.417-.427-4.837 0-.16.039-.292.087-.292s1.004.27 2.125.601m-2.394 2.835c.24 2.006.232 2.893-.027 2.97-.888.263-7.881 1.727-7.945 1.663-.045-.045 1.64-1.805 3.745-3.911l3.825-3.83.11.794c.061.437.192 1.478.292 2.314m-82.52-34.528c0 12.203-.007 12.447-.314 12.125-.664-.695-7.02-8.958-7.02-9.126 0-.097 1.341-2.995 2.98-6.44a1007 1007 0 0 0 3.606-7.638c.345-.756.655-1.375.688-1.375s.06 5.604.06 12.454m1.155-11.746c.17.39 1.15 2.434 2.176 4.542 4.645 9.541 4.9 10.121 4.65 10.534-.232.38-6.664 8.587-7.088 9.043-.191.206-.227-1.71-.227-12.291 0-6.895.04-12.536.09-12.536s.228.319.399.708m13.761 16.038c2.934.408 6.452.894 7.819 1.08 2.463.336 2.862.43 2.414.574-1.397.446-3.234.99-7.9 2.337-3.024.874-6.287 1.823-7.25 2.108-3.406 1.011-8.573 2.47-8.611 2.432-.021-.021 1.465-1.948 3.303-4.283 1.838-2.334 3.488-4.437 3.667-4.672.237-.311.45-.413.776-.373.247.03 2.85.389 5.782.797m-20.959 1.546c3.208 4.049 5.4 6.906 5.342 6.964-.06.06-.765-.14-10.3-2.933-3.437-1.007-7.3-2.136-8.583-2.51-4.028-1.17-5.112-1.506-5.055-1.563.03-.03 1.518-.253 3.305-.495 4.202-.568 9.975-1.37 11.25-1.563 2.257-.342 2.001-.475 4.041 2.1m-15.04 1.713c3.492 1 12.164 3.536 15.416 4.51 4.173 1.249 5.02 1.52 4.952 1.59-.038.037-1.486.658-3.219 1.38s-4.338 1.811-5.79 2.42c-1.465.615-2.763 1.065-2.916 1.012-.152-.053-3.014-2.793-6.36-6.088-4.365-4.298-5.942-5.947-5.584-5.837.275.085 1.85.54 3.5 1.013m41.017 4.693c-3.191 3.134-5.99 5.846-6.218 6.026-.415.326-.42.326-1.274-.035-.472-.2-3.128-1.31-5.902-2.469-2.774-1.157-5.002-2.146-4.952-2.196.085-.085 2.138-.696 15.746-4.683a804 804 0 0 0 6.5-1.926c.688-.213 1.397-.394 1.576-.401.207-.009-1.788 2.063-5.476 5.684m-27.949 13.287c-4.148 6.149-7.566 11.156-7.596 11.126s.092-.836.27-1.79c.179-.956.631-3.388 1.006-5.404 1.112-5.985 1.838-9.645 1.982-9.997.097-.239 1.737-1.001 5.952-2.766 3.2-1.34 5.843-2.417 5.873-2.393.03.023-3.339 5.074-7.487 11.224m16.1-8.49c2.657 1.112 4.889 2.078 4.957 2.147.124.123.438 1.64 1.54 7.441.314 1.65.874 4.57 1.244 6.487.37 1.918.643 3.518.606 3.555s-1.489-2.058-3.226-4.654-5.09-7.57-7.45-11.054-4.328-6.425-4.373-6.537c-.09-.228-.135-.245 6.701 2.615m-8.086 4.63-.003 6.958-7.455 4.274c-4.1 2.35-7.485 4.247-7.52 4.214-.036-.034 1.515-2.407 3.446-5.274 1.93-2.868 5.297-7.889 7.481-11.159s3.99-5.95 4.012-5.958c.023-.007.04 3.118.04 6.945m3.38-3.167c6.753 9.98 12.483 18.57 12.426 18.627-.06.059-2.313-1.22-11.513-6.533l-3.625-2.094v-6.896c0-3.792.033-6.895.073-6.895s1.227 1.706 2.638 3.791m-75.496-31.227c-2.527 3.662-3.468 4.937-3.645 4.944-.157.006-1.63-2.824-1.524-2.929.15-.149 6.23-3.88 6.336-3.887.073-.006-.452.837-1.167 1.872m1.89 1.7c-.054.143-2.557 1.71-4.351 2.725-.089.05.253-.505.76-1.233.506-.728 1.516-2.18 2.244-3.224l1.324-1.9.048 1.722c.026.947.016 1.807-.024 1.91m5.68-1.005 2.198 1.327-.772 1.465c-.425.805-.824 1.464-.887 1.464-.101 0-4.656-6.359-4.797-6.696-.059-.14.796.35 4.258 2.44m-2.771.508c1.137 1.606 2.09 2.986 2.118 3.068.027.082-.966-.454-2.209-1.19l-2.258-1.34V1.528c0-.95.063-1.728.14-1.728s1.072 1.313 2.209 2.918m-9.672 2.501c.36.781.656 1.456.656 1.5 0 .103-5.26.066-9.583-.067l-3.334-.102 3.334-.814a875 875 0 0 0 5.5-1.36c1.191-.3 2.302-.553 2.469-.561.222-.011.475.36.958 1.404m18.596-.67c4.336 1.036 7.074 1.742 7.353 1.898.13.073-1.74.181-4.154.242-5.202.13-8.306.141-8.306.03 0-.045.317-.72.704-1.5.462-.932.8-1.42.982-1.42.152 0 1.692.338 3.42.75m-8.106 1.461c2.23 1.32 2.682 1.515 5.834 2.519 1.879.598 4.316 1.375 5.416 1.727l2 .64.044 6.39.044 6.39-.765 2.937c-1.74 6.684-1.695 6.564-3.615 9.478a278 278 0 0 0-2.93 4.542c-.658 1.054-1.366 2.037-1.571 2.184s-1.962 1.441-3.903 2.875-3.572 2.608-3.625 2.608-.095-9.947-.095-22.103V4.094l.375.242c.206.133 1.462.886 2.791 1.673m-3.666 20.31c0 21.927-.002 22.02-.331 21.792-1.16-.802-5.92-4.351-6.738-5.024-.788-.647-1.326-1.351-2.68-3.507a422 422 0 0 0-2.824-4.44c-1.236-1.901-1.325-2.145-2.832-7.758l-.895-3.333-.059-6.572-.058-6.57 5.167-1.635c2.841-.899 5.241-1.636 5.333-1.637s1.404-.75 2.917-1.663 2.806-1.663 2.875-1.667c.068-.003.125 9.903.125 22.014m-8.834-19.04 1.084.103-4.584 1.433-4.583 1.433-1.417-1.21c-.779-.666-1.6-1.407-1.825-1.647l-.41-.436 5.326.111c2.93.061 5.813.157 6.41.214m30-.254c0 .033-.82.782-1.821 1.663l-1.821 1.603-2.638-.843c-5.565-1.78-6.63-2.14-6.387-2.167.291-.031 8.256-.24 10.875-.286.985-.017 1.791-.004 1.791.03m-39.958 2.247 1.625 1.413.001 2.098c.001 1.154.04 3.56.087 5.348.06 2.266.034 3.15-.084 2.917-.134-.262-3.06-10.82-3.6-12.984-.154-.621-.088-.581 1.97 1.208m38.446 5.055a869 869 0 0 1-1.829 6.637c-.07.23-.134-1.983-.141-4.916l-.012-5.334 1.79-1.55c1.183-1.026 1.806-1.467 1.84-1.304.028.135-.713 3.045-1.648 6.467m-39.173.054c2.226 8.219 2.52 9.337 2.52 9.613 0 .19-.404.32-1.623.522-.892.148-1.668.216-1.723.15-.055-.065-.229-2.818-.386-6.118-.376-7.918-.453-10.035-.357-9.834.043.092.75 2.642 1.569 5.667m41.126-2.458c-.187 4.885-.576 12.733-.635 12.792-.03.03-.392-.005-.805-.08a36 36 0 0 0-1.708-.247c-.933-.111-.956-.126-.861-.56.155-.707.962-3.735 2.342-8.78a441 441 0 0 0 1.446-5.375c.094-.39.207-.709.252-.709s.031 1.332-.031 2.959m-37.346 16.935c.417 1.545.732 2.836.7 2.868s-.389-.37-.793-.893a403 403 0 0 0-2.473-3.143c-.957-1.204-1.748-2.253-1.759-2.33-.01-.078.694-.258 1.565-.4l1.583-.259.21.673c.115.37.55 1.938.967 3.484m36.54-3.64c.047.039-3.578 4.641-4.657 5.913-.454.534-.487.548-.4.167a480 480 0 0 1 1.666-6.429c.04-.124.557-.105 1.699.065.903.134 1.664.262 1.692.285m-38.251 4.265c3.072 3.939 2.959 3.754 2.517 4.113-1.269 1.029-2.253 1.736-2.322 1.667-.062-.061-1.667-5.073-2.82-8.8-.175-.567-.161-.55 2.625 3.02m37.792-1.758c-.269.819-.914 2.838-1.435 4.488-.52 1.65-.973 3.03-1.007 3.067-.094.103-2.566-1.831-2.566-2.008 0-.085.244-.514.542-.953.7-1.032 4.833-6.203 4.902-6.134.029.029-.168.722-.436 1.54m-32.2 9.835c1.314 2.068 2.364 3.784 2.333 3.813-.077.069-7.29-5.463-7.3-5.599-.008-.109 2.344-1.973 2.492-1.974.046 0 1.16 1.691 2.474 3.76m28.407-2.618c.524.4.953.751.953.78 0 .028-1.144.932-2.542 2.01a422 422 0 0 0-3.678 2.86c-.625.497-1.16.878-1.188.846-.06-.067 3.898-6.294 4.514-7.102.356-.468.454-.515.701-.333.158.115.716.538 1.24.939m-28.214 5.43c1.512 1.175 2.85 2.229 2.971 2.341.182.169.083.482-.56 1.762-.734 1.46-.797 1.537-1.026 1.23-.403-.536-5.643-8.118-5.985-8.658-.28-.442-.19-.401.767.345.595.464 2.32 1.806 3.833 2.98m28.578-3.284c-.57.89-4.14 5.977-5.218 7.438l-1.091 1.479-.76-1.53-.76-1.529.716-.594c1.012-.84 7.272-5.715 7.346-5.719.033-.002-.072.203-.233.455m-21.63 10.345c3.673 4.656 4.033 5.135 3.719 4.949-.52-.307-8.26-5.639-8.472-5.835-.183-.17-.113-.422.394-1.436.741-1.481.87-1.653 1.157-1.543.122.047 1.563 1.786 3.203 3.865m14.292-2.525c.423.795.71 1.498.639 1.563-.124.112-2.747 1.918-6.838 4.708-1.032.703-1.875 1.235-1.875 1.182 0-.134 6.138-7.877 6.69-8.44.248-.252.488-.458.533-.458s.429.65.851 1.445m-12.438 2.222 2.855 2.083.004 1.744c.004 1.47-.03 1.706-.22 1.5-.19-.207-4.71-6-5.684-7.285-.434-.573-.347-.517 3.045 1.958m8.485-.792c-.675.848-2.073 2.61-3.107 3.917s-1.91 2.375-1.947 2.375-.067-.745-.067-1.655v-1.654l3.041-2.253c1.673-1.238 3.101-2.256 3.174-2.262.073-.005-.42.684-1.094 1.532M24.695 85.218l1.337 4.751-.406 1.999c-.318 1.564-.464 1.994-.67 1.976-.432-.036-10.272-3.635-10.273-3.757-.001-.157 5.997-10.467 7.304-12.553l.417-.666.477 1.75c.263.961 1.079 3.887 1.814 6.5m2.541-5.045c2.018 1.626 3.994 3.257 4.392 3.625l.725.668-2.794 2.355c-1.536 1.295-2.812 2.34-2.835 2.32-.04-.035-2.113-7.37-2.932-10.383-.231-.848-.376-1.542-.322-1.542s1.749 1.33 3.766 2.957m6.612 9.917.85 4.29-2.444 2.666c-1.345 1.466-2.503 2.63-2.573 2.586-.113-.07-3.25-4.364-3.548-4.857-.064-.105.088-1.184.338-2.398l.454-2.208 2.92-2.46c2.34-1.972 2.943-2.406 3.036-2.185.064.152.499 2.206.967 4.566M15.19 96.133c.704 2.475 1.256 4.527 1.227 4.56-.029.034-1.862-.97-4.073-2.232l-4.022-2.295.388-.376c1.987-1.928 5.062-4.552 5.125-4.373.042.119.652 2.241 1.355 4.716m4.187-3.26a3116 3116 0 0 1 4.952 1.803c.368.137.122.378-3.239 3.175-2 1.665-3.666 2.997-3.703 2.96s-.622-2.072-1.3-4.523a571 571 0 0 0-1.33-4.763c-.054-.17-.062-.309-.017-.309s2.132.746 4.637 1.657m17.888 3.05c1.084.538 1.725.95 1.676 1.077-.056.147-3.782 5.211-4.185 5.688-.062.074-.505-.163-2.529-1.348l-1.704-.999.37-.455c.929-1.138 4.351-4.836 4.477-4.836.077 0 .93.392 1.895.872m-9.776 2.211 1.659 2.333-.593 1.084a793 793 0 0 1-3.095 5.5 3100 3100 0 0 0-2.946 5.208l-.445.792-1.89-4.869c-1.04-2.678-2.023-5.219-2.186-5.647l-.295-.777 3.853-3.195c3.144-2.606 3.893-3.154 4.067-2.978.117.119.96 1.266 1.871 2.55m-15.534 1.055c2.095 1.177 3.95 2.217 4.123 2.31.27.148-.191.524-3.303 2.695-1.989 1.387-3.675 2.522-3.747 2.522s-.178-.468-.234-1.041-.254-2.501-.44-4.285c-.333-3.176-.406-4.34-.274-4.34.037 0 1.78.963 3.875 2.14m27.965.892.448 2.116-2.186 3.05c-1.202 1.679-2.242 3.072-2.31 3.096s-.242-1.057-.385-2.404l-.26-2.45 1.361-1.845 2.076-2.817c.392-.534.735-.946.761-.916s.25 1.006.495 2.17m-7.73 2.23c2.126 1.252 2.141 1.265 2.237 1.957.329 2.373.568 5.033.462 5.136-.147.141-11.91 3.998-11.98 3.928-.09-.09 6.855-12.279 6.997-12.281.078-.001 1.106.565 2.284 1.26m-13.085 5.496c1.121 2.929 2.015 5.35 1.987 5.382-.03.032-2.657-1.23-5.839-2.803l-5.786-2.86.566-.398c5.23-3.683 6.756-4.722 6.882-4.687.083.023 1.068 2.438 2.19 5.366M-40.42 86.502c.047.046-.184.849-.512 1.784-.33.934-.598 1.78-.598 1.88s.281-.08.625-.4c.344-.319.788-.715.987-.88s1.834-.704 3.634-1.199l3.272-.898.824.36c.454.198.825.408.825.467 0 .058-1.388.769-3.084 1.579s-3.065 1.49-3.042 1.513c.05.048 4.252-1.048 6.363-1.66.819-.238 1.503-.414 1.522-.392.455.536 1.16 2.084 1.554 3.412.724 2.443.709 2.47-1.866 3.469-3.149 1.22-7.783 3.13-7.728 3.184.026.027 2.055-.468 4.508-1.099l4.46-1.147-.113.527c-.159.738-.36 1.075-.7 1.172-.16.046-3.703 1.148-7.874 2.449-11.621 3.625-16 4.95-16 4.838 0-.056.281-.851.625-1.767l.625-1.664 1.833-.618c1.008-.34 3.22-1.07 4.917-1.623 2.869-.937 3.008-1 2-.914-.596.051-2.841.387-4.99.746s-3.944.614-3.992.566c-.12-.12-.87-3.277-.796-3.351.033-.033 1.965-.845 4.294-1.803s4.159-1.744 4.067-1.746-2.117.37-4.5.826c-2.383.457-4.49.832-4.68.832-.278.001-1.715-.724-3.205-1.618-.13-.078 2.05-.73 5.417-1.619 3.099-.818 5.722-1.53 5.828-1.583s.922-.948 1.813-1.991l1.619-1.897.992.09c.546.05 1.03.128 1.077.175m3.28 7.047-3.693.57-3.181 1.442c-1.75.794-3.16 1.464-3.134 1.49.171.172 9.548-2.37 13.2-3.576 1.965-.65 1.415-.637-3.192.074m-17.875 2.108c.513.397 1.108 1.945 1.817 4.728l.346 1.356-.832 2.055c-.634 1.566-.923 2.089-1.214 2.2-.359.137-3.692-.13-4-.32-.072-.045-.77-1.056-1.549-2.247l-1.417-2.166v-5.41l1.541-1.102 1.542-1.101 1.75.9c.963.496 1.87.994 2.016 1.107m-4.748.638-1.101 1.348v3.697l1.019 1.722c.56.947 1.08 1.76 1.155 1.806.18.11 3.186-.378 3.337-.543.064-.07.313-.503.553-.96.408-.779.436-.978.436-3.096 0-2.137-.021-2.283-.375-2.602-.427-.383-3.73-2.72-3.847-2.72-.041 0-.571.606-1.177 1.348m2.671.501c.775.559 1.509 1.178 1.632 1.375s.312 1.174.42 2.171l.195 1.812-.46.88-.461.88-1.228.115c-.676.063-1.254.09-1.285.058s-.512-.753-1.07-1.603l-1.015-1.547v-2.925l.857-1.116c.471-.614.89-1.116.932-1.116s.709.457 1.483 1.016m-.167 2.079c.455.591.497.748.434 1.614-.062.844-.118.97-.468 1.059-.308.077-.495-.017-.836-.422-1.16-1.377-1.108-1.353-.719-.346.195.504.43 1.129.524 1.389.134.376.24.45.523.368.194-.057.589-.146.877-.2.58-.105.6-.166.82-2.493l.112-1.186-.615-.116a7 7 0 0 1-.884-.219c-.172-.066-.087.135.232.552m15.197-.148c.12.048.264.042.32-.013s-.044-.095-.22-.088c-.194.008-.233.048-.1.101m15.24 1.02c.745.49.77.613.166.838-1.172.438-4.597 2.022-4.375 2.023.138.001 1.581-.324 3.209-.721 2.098-.514 3-.67 3.105-.54.08.1.378.645.661 1.209.438.874.479 1.055.276 1.223-.132.11-1.17.45-2.307.76-1.622.44-2.37.746-3.464 1.418-.768.47-1.247.822-1.063.78.183-.042 1.817-.47 3.63-.95 1.814-.479 3.4-.832 3.525-.785.302.116.522 1.714.276 2.01-.101.122-2.135 1-4.519 1.952s-4.277 1.747-4.207 1.768 1.74-.36 3.711-.845 3.608-.865 3.638-.844-.066.27-.213.554c-.158.307-.517.62-.887.776-.341.143-4.408 1.639-9.038 3.324a7080 7080 0 0 0-11.166 4.072c-1.513.555-2.807 1.01-2.877 1.01s.23-.533.663-1.186l.789-1.186 4.337-2.162c2.386-1.19 4.075-2.108 3.754-2.042-.32.066-2.264.598-4.318 1.182-2.055.585-3.752 1.044-3.772 1.02-.02-.023-.233-.98-.473-2.125a98 98 0 0 0-.528-2.417c-.08-.294.162-.43 2.042-1.147 4.172-1.593 6.648-2.673 7.76-3.383.62-.396 1.155-.72 1.191-.72s.22.262.409.582c.292.495 1.056 1.12 1.587 1.3.081.028-.069.356-.333.73-.355.503-.7.758-1.315.974-.458.16-1.883.702-3.166 1.203-2.27.885-3.218 1.36-2.068 1.036.312-.088 1.987-.46 3.721-.827 1.735-.366 3.167-.684 3.182-.707l.8-1.207c.423-.642 1.01-1.447 1.303-1.79.525-.614.53-.633.303-1.333-.347-1.072-.9-1.534-2.118-1.773-.574-.113-1.123-.156-1.22-.096-.098.06-1.154.812-2.346 1.67-2.02 1.455-2.301 1.603-4.113 2.162-1.07.33-2.86.894-3.979 1.255s-2.116.655-2.215.655c-.1 0-.61-.315-1.132-.699l-1.51-1.105-.56-.407 1.476-.464c.812-.256 3.163-.992 5.226-1.636 2.062-.644 5.812-1.82 8.333-2.613 2.52-.794 5.52-1.728 6.667-2.077 2.307-.702 1.971-.73 3.541.3m-34.901 3.534c.438.592.264.628-.689.142-.618-.316-.662-.374-.368-.488.55-.215.671-.176 1.057.346m-.68 1.064c.985.494 1.921 1.045 2.083 1.223.478.531 1.463 3.526 1.646 5.004l.17 1.374-.67 1.459a48 48 0 0 0-.836 1.902c-.134.357-.331.477-1.023.626-.824.176-.914.158-2.425-.508-.864-.38-1.636-.774-1.716-.876s-.674-1.297-1.32-2.656l-1.172-2.471.416-1.52c.653-2.382.73-2.525 1.887-3.517.596-.51 1.103-.93 1.128-.933.024-.002.849.4 1.833.893m27.573-.656c.644.109 1.299.737 1.299 1.245 0 .151-.213.4-.474.555-.789.466-2.067-.1-2.405-1.064-.132-.375.342-1.009.685-.915.153.041.555.122.895.18m-28.57 1.682c-.05.05-.562.219-1.139.375l-1.048.284-.573 1.72-.573 1.72.893 1.93.892 1.929 1.725.82c.949.451 1.747.797 1.774.767.027-.029.432-.771.9-1.65.821-1.54.851-1.645.851-2.94 0-1.271-.04-1.416-.752-2.757-.553-1.039-.929-1.531-1.414-1.852-.61-.404-1.318-.564-1.536-.346m1.228 1.005c.593.307 1.541 2.185 1.831 3.627.162.808.141.96-.233 1.707a15 15 0 0 0-.699 1.699l-.287.879-.944-.535c-1.494-.845-1.527-.871-1.527-1.176 0-.16.19-.414.422-.566.367-.24.392-.311.192-.545-.126-.148-.325-.624-.442-1.057-.206-.764-.199-.804.266-1.363.263-.316.525-.58.583-.587s.413.323.791.734c.379.41.688.708.688.662 0-.127-1.016-2.13-1.191-2.349-.107-.132-.438.109-1.091.793l-.938.984.212 1.424c.117.784.16 1.476.099 1.538-.173.172-.7-.6-1.17-1.715l-.421-1 .384-1.583.383-1.584 1.075-.096c.591-.053 1.172-.11 1.291-.125.12-.016.446.09.726.234m4.783.572c.564.146.704.249.633.468-.57 1.742-.817 2.488-.898 2.697-.052.138-.156-.125-.23-.583a13 13 0 0 0-.474-1.818c-.41-1.188-.408-1.141-.048-1.037.16.047.618.17 1.017.273m6.187 1.01c1.55 1.14 1.856 1.44 1.995 1.959.303 1.135 1.176 5.372 1.176 5.707 0 .183-.406.925-.902 1.649-.495.724-.975 1.448-1.065 1.608-.155.279-.249.279-1.973 0-.995-.16-1.96-.322-2.143-.36-.366-.074-1.7-2.027-2.218-3.245-.177-.414-.452-1.36-.612-2.1l-.291-1.348.44-1.566c.241-.86.51-1.732.596-1.935.146-.347 2.47-1.686 2.959-1.705.114-.005 1.031.597 2.038 1.336m-3.163.67c-.504.275-.998.59-1.098.7-.1.111-.386.846-.635 1.633l-.455 1.43.894 2.233.894 2.233 1.63.319 1.631.319 1.213-1.205 1.212-1.204-.132-.705a57 57 0 0 0-.398-1.862c-.57-2.465-.482-2.316-1.848-3.145a90 90 0 0 1-1.622-1.003c-.338-.222-.45-.2-1.286.257m2.14 1.138 1.298.653.472 1.805c.7 2.683.707 2.509-.149 3.64-.416.55-.758 1.047-.758 1.106-.002.091-2.482-.795-2.64-.942-.03-.028.458-.331 1.083-.673 2.017-1.103 1.85-.88 1.669-2.219-.15-1.111-.194-1.198-.803-1.601-.736-.487-.834-.387-.234.239.292.304.442.698.52 1.36l.11.933-.545.19c-.878.306-1.055.235-1.496-.598l-.416-.787-.084 1.495-.083 1.496-.934-1.833c-.514-1.008-.898-1.946-.852-2.083.582-1.768.733-2.01 1.508-2.413.428-.223.836-.409.907-.413.07-.004.713.286 1.427.645m-5.398 4.274c.061.328.149.694.195.813q.082.217-.697.412c-.429.108-.806.17-.838.138-.1-.1 1.002-2.1 1.118-2.028.06.037.16.337.222.665m-49.715-39.023.795 2.002-.47.983c-.258.541-.629 1.183-.824 1.427l-.354.444-.705-1.262c-.389-.694-.706-1.387-.706-1.54 0-.236 1.356-4.056 1.44-4.056.016 0 .386.901.824 2.002m-2.734 3.969c.704.584 1.322 1.173 1.375 1.31.124.325.123 3.053-.002 3.053-.053 0-.755-.559-1.56-1.242-1.618-1.373-1.671-1.486-1.675-3.57-.002-1.22-.21-1.27 1.862.449m5.722.471-.115 1.388-1.5 1.252c-.826.688-1.57 1.252-1.653 1.252-.25 0-.178-2.466.087-2.977.131-.254.9-1.012 1.708-1.686 1.681-1.4 1.655-1.414 1.473.771m12.982.6c-.028.206-.14 1.125-.249 2.042s-.28 1.773-.383 1.903c-.177.226-2.329 1.68-2.485 1.68-.04 0-.126-.596-.19-1.324-.135-1.547-.04-1.799 1.037-2.75.624-.552 2.243-1.9 2.304-1.92.01-.003-.005.163-.034.37m-30.026 1.375 1.292 1.277v1.306c0 1.968 0 1.968-1.428.98-.675-.466-1.266-.971-1.314-1.122-.088-.279-.417-3.192-.422-3.74-.005-.443.377-.178 1.872 1.3m4.792 3.736c0 .156-.372 1.099-.827 2.096l-.826 1.814-.671-1.46-.672-1.462.32-.946c.175-.52.553-1.47.84-2.11l.523-1.163.656 1.474c.361.811.657 1.602.657 1.757m12.254-1.53c-.105 1.444-.168 1.678-.561 2.097-.53.563-2.602 2.278-2.754 2.278-.058 0-.106-.67-.106-1.49 0-1.31.045-1.542.375-1.912.354-.398 2.972-2.585 3.103-2.594.034-.002.008.728-.057 1.621m8.207-.25c1.003 2.796.987 2.454.182 3.945-.393.727-.759 1.296-.813 1.262-.053-.033-.425-.86-.824-1.836l-.727-1.775.728-1.485c.4-.817.78-1.486.844-1.486.065 0 .34.62.61 1.375m-14.034.073 1.573 1.28V86.4c0 1.298-.046 1.622-.209 1.5-1.382-1.042-2.858-2.373-2.977-2.683-.16-.424-.207-3.035-.053-3.035.051 0 .801.576 1.666 1.28m-11.316 2.757 1.132.38.635 1.313c.35.722.608 1.339.576 1.371-.109.11-3.623-.895-3.88-1.108-.243-.202-1.272-1.94-1.495-2.523-.098-.259-.03-.262.897-.046.552.129 1.513.405 2.135.613m31.389-.626c0 .043-.383.681-.851 1.418-.535.842-.984 1.369-1.209 1.417-.914.197-3.246.587-3.504.587-.241 0-.188-.19.333-1.181.341-.65.777-1.283.967-1.406.494-.32 4.264-1.058 4.264-.835m-8.01 2.532.716 1.86-.719 1.348c-.395.742-.764 1.35-.819 1.35-.157 0-1.502-3.287-1.502-3.672 0-.42 1.377-3.028 1.511-2.863.053.064.419.954.813 1.977m-17.091-.442c.33.826.6 1.624.6 1.774 0 .317-1.506 3.558-1.654 3.558-.055 0-.38-.632-.723-1.404-.53-1.194-.598-1.475-.451-1.875.19-.519 1.556-3.554 1.6-3.554.015 0 .297.676.628 1.501m5.899 1.213.715.729-.048 1.52-.049 1.521-1.416-1.173c-.78-.646-1.507-1.373-1.618-1.617-.11-.244-.204-1.068-.208-1.83l-.008-1.386.959.753c.527.415 1.28 1.082 1.673 1.483m4.98-.623c-.057.875-.162 1.692-.233 1.815-.167.29-2.918 2.587-3.103 2.59-.078.003-.115-.716-.084-1.596l.058-1.6.667-.578c1.744-1.51 2.61-2.222 2.7-2.222.055 0 .053.716-.004 1.591m-16.117 1.747c1.052.277 1.965.558 2.03.624.263.273 1.276 2.705 1.126 2.705-.574 0-3.744-.937-3.939-1.165-.478-.558-1.532-2.669-1.332-2.668.111.001 1.063.228 2.115.504m27.317.87a49 49 0 0 1-.921 1.448c-.105.118-3.942.85-4.023.768-.093-.092 1.071-2.248 1.399-2.59.22-.23 3.15-.947 4.025-.984.349-.015.314.083-.48 1.358m-7.34 1.03c.381.956.694 1.858.694 2.004 0 .29-1.318 2.996-1.412 2.9-.16-.163-1.421-3.483-1.421-3.743 0-.355 1.168-2.899 1.331-2.899.062 0 .425.782.807 1.738m-12.815-.25c.55 1.315.438 2.543-.387 4.267l-.636 1.328-.658-1.415c-.414-.89-.624-1.551-.566-1.781.2-.799 1.606-3.603 1.734-3.458.074.085.305.562.513 1.06m3.218 1.136 1.459 1.231v3.334l-1.215-1.004c-1.973-1.633-1.924-1.551-2.056-3.425-.135-1.92-.288-1.908 1.812-.136m5.69.167c-.076 1.133-.19 1.719-.378 1.936-.348.4-2.788 2.439-2.92 2.439-.055 0-.1-.674-.1-1.498 0-1.4.03-1.53.458-1.999.568-.62 2.745-2.48 2.92-2.494.071-.005.08.722.02 1.616m9.763.666c-.004.07-.363.725-.8 1.459l-.792 1.333-1.326.281c-.73.155-1.68.33-2.114.39l-.788.11.765-1.35c.42-.744.835-1.394.92-1.447.128-.08 3.588-.844 4.016-.888a.105.105 0 0 1 .119.112m-24.086.46c.865.23 1.732.478 1.927.55.406.15 1.729 2.758 1.431 2.82-.1.021-1.003-.166-2.005-.416l-1.823-.455-.789-1.459c-.541-1-.714-1.458-.551-1.458.13 0 .944.188 1.81.419m16.448 2.797.39 1.132-.721 1.41c-.397.774-.771 1.409-.832 1.409-.16 0-1.36-3.217-1.36-3.645 0-.2.312-.98.693-1.734l.694-1.371.373.833c.205.458.548 1.343.763 1.966m-9.212-.307.86.91-.316.798c-.646 1.635-1.274 3.047-1.355 3.045-.14-.004-1.333-2.681-1.333-2.994 0-.161.175-.696.389-1.189s.437-1.027.495-1.187c.162-.448.332-.365 1.26.617m-5.478 1.538c2.531.675 2.446.618 3.183 2.086.37.734.63 1.377.578 1.428-.05.051-.97-.163-2.043-.475l-1.951-.57-.8-1.388c-.44-.764-.8-1.422-.8-1.462 0-.08.463.016 1.833.381m19.992-.322c-.005.069-.333.688-.73 1.375l-.72 1.25-2.042.466c-1.122.256-2.076.43-2.12.387-.043-.044.287-.703.734-1.466l.812-1.387 1.745-.362c1.937-.402 2.333-.447 2.321-.263m-10.49 5.333.002 4.792.386-.674c.211-.37.971-1.805 1.688-3.188l1.302-2.516.565.333.564.333-.395.69c-.218.379-.905 1.675-1.527 2.88l-1.132 2.193-.984.336c-.748.256-1.111.3-1.518.183a4.6 4.6 0 0 0-1.047-.153c-.5 0-.548-.073-1.879-2.859-.751-1.572-1.346-2.865-1.321-2.875.024-.009.282-.14.572-.292l.528-.276 1.256 2.7c.691 1.484 1.33 2.883 1.42 3.109.113.282.167-1.128.174-4.549l.01-4.958h1.334zm2.23 5.64c.198.515.094.751-.482 1.09-.652.385-.752.645-.25.645.411 0 .426.2.042.54-.41.363-2.718.96-3.71.96-.709 0-.832-.047-.832-.32 0-.691.178-.846.976-.849 1.253-.004 1.353-.253.204-.508-.838-.186-1.013-.284-1.01-.565.005-.689.201-.78 1.091-.51 1.156.35 1.52.318 2.656-.235 1.197-.583 1.188-.581 1.315-.249m.386 7.49c.852 2.19 1.546 4.06 1.543 4.156-.008.224-.79 1.185-.883 1.084-.039-.042-.773-1.949-1.632-4.237l-1.562-4.16-.044 5.788-.044 5.787-.662-.338-.662-.338-.044-5.254-.044-5.255-1.659 4.184c-.912 2.302-1.707 4.214-1.766 4.251-.06.037-.315-.15-.569-.415l-.46-.48 1.67-4.055 1.672-4.055.89-.122c.488-.067 1.226-.23 1.638-.363.413-.133.822-.223.91-.2s.856 1.833 1.708 4.023m-69.693-26.743c3.136 1.312 3.506 1.506 3.139 1.645-1.489.56-14.635 4.865-14.836 4.857-.472-.017-7.251-3.446-6.998-3.54.138-.05 2.163-.668 4.5-1.373a637 637 0 0 0 6-1.836c3.01-.953 3.905-1.21 4.278-1.226.198-.009 1.961.654 3.917 1.473m3.934 5.636-.045 3.292-5.084 1.784-7.485 2.626c-1.32.463-2.42.823-2.444.8-.023-.024-.096-1.523-.163-3.331-.115-3.13-.106-3.294.194-3.417.68-.278 14.661-5.006 14.86-5.025.167-.016.202.688.167 3.271m-19.724-.057 3.582 1.735.048 3.307c.027 1.819.026 3.343-.003 3.386s-1.678-.744-3.666-1.75l-3.616-1.83-.045-3.29c-.025-1.811-.008-3.293.037-3.293s1.694.781 3.663 1.735m21.464 4.7c.943.149 1.815.324 1.937.39.155.085-.344.62-1.628 1.749l-1.85 1.628-2.039-.28c-2.67-.368-2.622-.351-2.622-.927 0-.324-.118-.546-.36-.675-.456-.245-.423-.263 2.027-1.146a75 75 0 0 0 2.25-.837c.451-.2.355-.203 2.285.099m-22.39 2.71 3.562 1.793-2.772.628-2.772.628-3.065-1.889c-1.685-1.039-3.044-1.91-3.02-1.936.036-.039 4.125-.97 4.422-1.008.046-.006 1.686.797 3.645 1.784m25.188 1.29c0 2.693-.01 2.768-.335 2.682-.184-.048-1.047-.259-1.917-.468l-1.581-.382v-.684c0-.66.065-.743 1.791-2.291.986-.884 1.848-1.611 1.917-1.616s.125 1.236.125 2.76m-30.27.82 2.603 1.608v3.318c0 1.825-.045 3.318-.1 3.318s-1.405-.86-3-1.912l-2.9-1.911V102.5l.397.26c.219.143 1.569.984 3 1.868m20.232 1.363-.045 3.286-2.667.63c-1.467.346-5.193 1.23-8.282 1.964-3.088.734-5.657 1.334-5.708 1.334s-.093-1.532-.093-3.404v-3.404l1.875-.435c5.985-1.387 14.262-3.226 14.587-3.24l.378-.017zm3.121-1.956c2.489.36 2.251.223 2.246 1.302l-.005.951-2.022 1.084a99 99 0 0 1-2.162 1.138c-.077.031-.14-1.044-.14-2.388v-2.444l.458.094c.253.052.984.17 1.625.263m7.811 3.83c2.143.554 3.963 1.008 4.043 1.01.196.005-1.109.833-5.687 3.61a803 803 0 0 0-4.25 2.588c-.396.25-.641.2-4.875-1.008-2.452-.7-4.458-1.31-4.457-1.358 0-.047.544-.371 1.208-.721 4.181-2.202 5.771-3.056 7.624-4.093 1.146-.642 2.176-1.137 2.29-1.1s1.96.52 4.104 1.073m-30.372 5.17c.437.316.603.523.457.569-.126.04-.771.23-1.434.423l-1.205.351-3.628-1.773c-1.996-.975-3.554-1.801-3.462-1.837.092-.035 1.03-.31 2.083-.613l1.917-.549 2.293 1.466c1.261.805 2.602 1.689 2.98 1.962m35.014-.122c-.047 2.101-.137 3.274-.262 3.399-.293.292-9.782 6.226-9.956 6.226-.085 0-.153-1.048-.154-2.375 0-1.306-.047-2.755-.103-3.22l-.101-.845.811-.506c.446-.279 1.674-1.03 2.728-1.671 1.054-.64 3.042-1.851 4.417-2.69s2.543-1.525 2.595-1.526c.053 0 .064 1.444.025 3.208m-20.662-.996-1.042.526v4.567l-7.375 2.456c-4.056 1.35-7.468 2.489-7.583 2.531-.162.06-.208-.678-.208-3.345v-3.421l1.695-.527c1.254-.39 1.786-.485 2.042-.368.26.118 1.854-.206 6.347-1.29 3.3-.796 6.112-1.492 6.25-1.547.137-.056.4-.103.582-.104.184-.002-.135.233-.708.522m-20.208 1.668 3.083 1.59.045 3.411.045 3.412-2.462-1.295a808 808 0 0 0-3.545-1.855l-1.083-.56-.108-.916c-.06-.505-.116-2.024-.125-3.378l-.017-2.46.542.23c.298.128 1.929.947 3.625 1.821m24.908 1.2c2.374.684 4.37 1.303 4.434 1.374s.169 1.617.231 3.435c.109 3.144.1 3.302-.188 3.216l-3.885-1.173a436 436 0 0 0-4.417-1.316l-.833-.234-.045-3.274c-.036-2.592 0-3.275.17-3.275.119 0 2.159.56 4.533 1.246m-66.035-19.806c2.584 1.167 2.64 1.203 2.704 1.751l.065.56-3.124 1.001-3.125 1.002-2.967-1.488c-2.363-1.186-2.9-1.515-2.634-1.618.184-.071 1.571-.635 3.084-1.253 1.512-.617 2.887-1.128 3.054-1.134.168-.007 1.492.524 2.943 1.18m6.335 2.834c.001.127-1.406.974-1.62.974-.144 0-1.046-1.713-1.046-1.988 0-.081.6.09 1.333.379.732.289 1.332.575 1.333.635m-13.755.195c1.753.883 1.953 1.025 1.59 1.128-.23.065-.702.125-1.05.134-.565.015-.762.154-1.846 1.309-2.396 2.551-2.654 2.866-2.416 2.95.126.044 1.039.264 2.03.488l1.8.41.866-.393c.476-.216.961-.416 1.078-.445.136-.033.504.718 1.02 2.082l.806 2.134-.209 5.5c-.115 3.025-.238 5.529-.273 5.564-.054.054-6.121-10.717-8.672-15.397l-.783-1.435 1.319-2.083 1.664-2.634c.42-.666.358-.68 3.076.688m11.382 1.487c3.47 5.335 3.559 5.486 3.348 5.74-.113.136-.528.469-.922.74l-.717.493-2.376-1.872a3503 3503 0 0 1-4.265-3.367l-1.889-1.494.64-.21c2.926-.958 4.835-1.555 4.991-1.563.103-.004.638.685 1.19 1.533m-8.286.917c-.567 1.9-.692 2.068-1.913 2.585-1.1.465-1.202.48-2.102.288-1.51-.32-1.518-.346-.42-1.53 1.746-1.88 1.606-1.801 3.176-1.801h1.396zm5.465 3.268 4.028 3.144v.981c0 .54-.019.98-.041.98-.023-.002-1.836-.364-4.028-.805l-3.986-.801-.722-1.904c-.397-1.048-.722-2.013-.722-2.145s.2-.858.446-1.613c.393-1.207.48-1.35.722-1.177.15.109 2.087 1.611 4.303 3.34m-18.848-1.418 3.207.108-3.1 3.917c-4.742 5.99-5.948 7.5-5.991 7.5-.08 0-2.406-11.209-2.406-11.59 0-.197.753-.19 8.29.065m-9.74.42c-.234.398-6.696 9.5-7.112 10.017l-.4.495.324-1.662c.177-.914.506-2.631.731-3.816s.427-2.169.45-2.187c.166-.136 5.902-3.07 6.007-3.072.073-.002.073.099 0 .224m2.5 7.94.734 3.583-5.267.083c-2.897.046-5.289.038-5.314-.016-.026-.055 1.485-2.242 3.358-4.86 1.872-2.617 3.728-5.234 4.122-5.816l.718-1.057.457 2.25c.251 1.237.788 3.861 1.192 5.832m10.783 2.79v10.291l-4.58-4.577c-3.995-3.994-4.553-4.613-4.374-4.859.175-.242 2.362-3.012 7.581-9.603.672-.848 1.255-1.542 1.297-1.542s.076 4.63.076 10.29m4.836-2.623c2.222 3.987 4.3 7.718 4.617 8.29l.576 1.04-.39.151c-1.373.531-3.267 1.316-5.841 2.42-1.624.696-3.03 1.266-3.125 1.266-.113 0-.173-1-.173-2.875 0-3.546.207-17.642.258-17.584.02.023 1.855 3.304 4.078 7.292m16.466-4.062c-.041.478-.2.728-.76 1.188l-.709.584v-.676c0-.578.09-.75.622-1.189.341-.281.683-.512.76-.512s.115.272.087.605m-42.135 3.405c-.87 4.506-.752 4.126-1.248 4.032-.23-.045-.422-.09-.425-.103-.141-.582-.432-3.74-.354-3.864.437-.697 2.58-3.577 2.627-3.53.032.032-.238 1.592-.6 3.465m34.062-1.645 1.646.366-.103 1.093a31 31 0 0 0-.104 2.367l-.001 1.275-1.849 2.809c-1.017 1.545-1.888 2.846-1.937 2.892s-.043-1.154.014-2.667l.21-5.625c.073-1.932.169-2.875.293-2.876.102 0 .926.164 1.831.366m-23.479 6.802c-.058.183-.612 1.493-1.232 2.91l-1.126 2.578-2.57 1.99c-1.415 1.094-2.62 1.94-2.68 1.88-.122-.122-2.975-9.253-2.975-9.52q.002-.171 5.344-.171c5.267 0 5.343.004 5.24.333m5.156 4.292c2.352 2.314 4.196 4.208 4.098 4.208-.506 0-10.498-2.79-10.72-2.993-.145-.132 2.066-5.528 2.24-5.464.058.022 2.03 1.934 4.382 4.249m14.355 3.083c-.054.664-.177 2.705-.271 4.535s-.21 3.364-.254 3.408-.397-.034-.784-.174l-.703-.255-.701-3.137c-1.01-4.52-1.093-4.01.784-4.85.871-.389 1.684-.713 1.806-.721.175-.011.201.244.123 1.194m-20.386-.613c.61.208.787.355.855.708.18.941.66 7.029.56 7.127-.057.058-.42-.001-.806-.13l-.703-.234-1.29-3.242-1.29-3.241.69-.62c.786-.705.922-.73 1.984-.368m15.896 1.696c-.048.252-.328 2.371-.622 4.709s-.58 4.303-.636 4.368c-.174.204-1.403-.313-1.523-.64-.062-.172-.352-1.737-.644-3.478s-.566-3.287-.609-3.434c-.06-.206.374-.46 1.884-1.109 1.078-.462 2.023-.849 2.1-.858s.098.19.05.442m-19.272.917c0 .664.05 2.615.11 4.334l.11 3.126-.569-.107c-.312-.059-.67-.16-.794-.226-.124-.065-.711-1.383-1.304-2.928l-1.079-2.81.388-.283c.213-.155.95-.735 1.638-1.288.687-.552 1.306-1.01 1.375-1.015.069-.006.125.532.125 1.197"/></svg>