<svg xmlns="http://www.w3.org/2000/svg" width="45" height="33" viewBox="0 0 45 33"><path d="M89.057-155.256c.515 1.095.735 1.74.63 1.846-.29.289-4.572 2.637-4.81 2.637-.255 0-1.995-3.547-1.779-3.626.074-.028 1.185-.607 2.468-1.287s2.416-1.24 2.516-1.245.54.749.975 1.675m2.329-1.1c1.058.32 2.693.8 3.635 1.067 1.927.546 9.926 2.854 11.712 3.379l1.166.343-1.833.87c-1.563.742-1.907.849-2.333.723-.275-.082-3.163-.897-6.417-1.813s-6.05-1.705-6.213-1.755c-.32-.096-2.066-3.397-1.798-3.397.087 0 1.024.262 2.081.582m-8.804 10.584c-.787 2.43-2.592 8.088-4.011 12.575-1.541 4.871-2.7 8.268-2.876 8.431-.317.293-3.046 2.024-3.046 1.932 0-.14 6.803-21.17 9.038-27.938l.854-2.583.736 1.583.736 1.584zm10.759-6.34c1.224.362 3.987 1.154 6.142 1.76 2.154.605 4.07 1.2 4.258 1.323.19.123.912 1.444 1.623 2.97l1.281 2.748-2.428 7.478a4423 4423 0 0 1-4.123 12.63l-1.695 5.152-2.72 1.473c-1.495.81-2.87 1.473-3.055 1.473-.25 0-8.492-2.34-12.69-3.604-.185-.056-.844-1.182-1.728-2.952l-1.428-2.863 1.864-5.832c1.026-3.208 2.528-7.895 3.339-10.416.81-2.52 1.75-5.483 2.088-6.583.337-1.1.72-2.113.85-2.25.386-.405 5.448-3.14 5.838-3.154.197-.007 1.36.284 2.584.646m16.645 3.55c.64 1.353 1.162 2.515 1.16 2.583s-.819.555-1.816 1.08c-1.966 1.036-1.898 1.038-2.404-.067-.154-.337-.587-1.275-.961-2.084-1.137-2.456-1.231-2.094.813-3.126.983-.496 1.846-.888 1.916-.872s.652 1.135 1.292 2.487m-21.193 5.009L86.52-141.7l1.345 1.471 1.345 1.471 1.265-1.257c.72-.717 1.407-1.258 1.595-1.258.182 0 .855.15 1.496.334.64.183 1.182.333 1.202.333s-.73-1.083-1.666-2.405c-.937-1.323-1.778-2.404-1.87-2.401-.091.002-1.189.838-2.439 1.858m3.356-1.791c0 .134 3.178 4.481 3.309 4.526.116.04 2.413-3.123 2.326-3.204-.058-.054-5.384-1.416-5.537-1.416a.096.096 0 0 0-.098.094m17.342 5.5c-.909 2.744-2.224 6.751-2.923 8.906-1.96 6.041-5.45 16.576-5.513 16.645-.07.076-1.384-2.75-1.509-3.249-.055-.22.503-2.17 1.409-4.922 1.8-5.468 3.091-9.444 4.7-14.474.66-2.063 1.37-4.266 1.58-4.896l.382-1.146 1.725-.965c.948-.531 1.741-.948 1.763-.927.02.021-.705 2.284-1.614 5.028M97.19-142.05c-.566.764-1.071 1.498-1.122 1.631-.074.193.275.3 1.713.528.994.157 1.926.285 2.071.285.209 0 .085-.409-.577-1.917-.464-1.054-.89-1.916-.95-1.916-.058 0-.57.625-1.135 1.389m-1.422 2.395c-.042.073-.13.574-.195 1.114-.096.787-.075.965.104.898a91 91 0 0 1 2.02-.635c.989-.303 1.739-.601 1.667-.662s-.768-.24-1.547-.398a43 43 0 0 1-1.694-.368c-.153-.044-.312-.021-.355.051m1.924 1.955-2.041.685 1.479 1.472c.831.827 1.526 1.396 1.586 1.298.06-.096.362-.872.673-1.726.31-.853.645-1.758.742-2.01.231-.597.149-.588-2.439.28m-5.623 2.353c-1.282.687-2.42 1.342-2.53 1.454-.244.253-1.463 4.27-1.334 4.398.052.052 1.044-.271 2.207-.717l2.113-.81.96-2.791c.53-1.536.951-2.79.939-2.788s-1.073.567-2.355 1.254m3.007-1.081c-.048.132-.49 1.327-.984 2.656-.493 1.33-.876 2.441-.85 2.472.064.076 4.907-2.202 4.908-2.309 0-.047-.672-.755-1.493-1.573-1.03-1.025-1.52-1.411-1.58-1.246m-6.843 9.349c-.949.49-1.584 1.135-1.584 1.607 0 .38 1.356 2.758 1.69 2.964.162.1 2.19-.95 2.685-1.39.543-.482.403-1.043-.665-2.665-.66-1.004-1.016-1.09-2.126-.516m-10.842 5.849c.67 1.398 1.187 2.595 1.148 2.66-.095.165-3.562 2.016-3.633 1.941-.09-.093-2.261-4.815-2.303-5.008-.04-.184 2.98-2.095 3.35-2.12.125-.008.743 1.076 1.438 2.527m7.615 4.89 6.483 1.922 1.09.324.877 1.764c.482.97.844 1.796.805 1.836-.04.04-2.35-.64-5.134-1.51-6.814-2.129-12.822-3.934-13.091-3.934-.526 0-.11-.314 1.488-1.12.94-.473 1.794-.865 1.898-.87.105-.006 2.617.709 5.584 1.588m14.539 1.207c.424.947.77 1.786.77 1.863 0 .197-4.513 2.728-4.884 2.739-.226.007-.485-.42-1.041-1.715-.408-.948-.74-1.815-.74-1.926 0-.245 4.872-2.96 5.02-2.797.057.063.45.889.875 1.836M45.56-153.913c1.325.381 2.375.749 2.333.817s-1.127.776-2.411 1.574l-2.335 1.45-2.874-.617c-1.58-.339-3.084-.667-3.342-.728-.412-.097-.078-.296 2.75-1.637 1.77-.84 3.275-1.533 3.344-1.54s1.21.3 2.535.681m7.714 1.892c1.306.32 2.488.582 2.625.582.138 0 .248.056.244.125-.003.068-1.327.95-2.942 1.958a342 342 0 0 0-6.286 4.05l-3.35 2.218-1.25-.087c-1.376-.097-6.98-.857-7.085-.961-.063-.063 1.484-.963 7.336-4.264 1.467-.827 3.792-2.141 5.167-2.92 1.507-.853 2.632-1.389 2.833-1.349.183.036 1.402.328 2.708.648M36.9-149.504c1.925.242 3.556.49 3.624.551s-.27.34-.75.621-2.545 1.523-4.587 2.76l-3.713 2.25-1.287-.227c-.708-.125-2.597-.418-4.2-.651-1.601-.234-2.933-.447-2.959-.472-.026-.026 1.998-1.084 4.496-2.352s4.768-2.436 5.043-2.598.575-.3.667-.308c.091-.008 1.741.184 3.666.426m-9.614 6.55c2.688.448 4.907.84 4.932.873.183.234 2.266 4.306 2.266 4.43 0 .087-.657.254-1.459.37-.802.118-2.77.427-4.373.688s-2.962.42-3.02.355-.792-1.615-1.632-3.443c-1.391-3.03-1.824-4.097-1.66-4.089.033.002 2.259.37 4.946.817m11.694.28c1.693.23 3.09.434 3.105.452.014.017.3.577.633 1.244.436.87.547 1.233.395 1.289-.307.112-6.09 1.415-6.278 1.415-.125 0-1.278-1.892-2.983-4.9-.1-.175.904-.078 5.128.5m6.823 7.472c1.383 1.78 2.514 3.273 2.514 3.317s-.919.78-2.042 1.634a221 221 0 0 0-3.731 2.91c-.93.747-1.777 1.412-1.883 1.477s-1.572-.351-3.257-.926l-3.065-1.046 1.754-1.677 1.754-1.677-.749-2q-1.254-3.348-1.1-3.477c.128-.108 6.566-1.74 6.93-1.757.28-.013.929.714 2.875 3.222m-10.921 1.506c.44 1.161.767 2.146.725 2.188s-1.119-.111-2.392-.34-3.1-.553-4.059-.72l-1.743-.302-.215-1.063c-.119-.584-.177-1.1-.13-1.147s1.565-.324 3.375-.616c2.628-.425 3.325-.49 3.464-.321.095.116.534 1.16.975 2.321m-3.514 2.423c1.998.366 3.68.666 3.737.666s-.598.525-1.455 1.167c-.857.641-1.605 1.166-1.663 1.166-.122 0-2.588.458-5.837 1.083-1.237.238-3.471.662-4.964.942l-2.714.51-3.938-1.634c-3.231-1.34-3.866-1.655-3.536-1.757.221-.068 1.94-.39 3.819-.716s5.254-.923 7.5-1.327 4.383-.742 4.75-.75 2.302.284 4.3.65m17.117 1.718v1.385L46.024-126c-3.664 3.232-5.017 4.394-5.118 4.394-.05 0-.09-.778-.09-1.728v-1.729l3.47-2.6c1.908-1.43 3.607-2.752 3.775-2.938.169-.186.332-.338.364-.338s.058.623.058 1.385m-35.871 2.719c2.042.885 3.692 1.625 3.667 1.645l-6.525 4.894-6.479 4.858-2.854-1.06a629 629 0 0 0-4.855-1.78c-1.1-.396-2.054-.764-2.12-.818-.105-.088 1.67-1.201 12.37-7.758 1.42-.87 2.696-1.584 2.833-1.586.138-.003 1.92.72 3.963 1.605m22.665 1.33c1.717.606 3.328 1.176 3.58 1.267.454.163.459.182.459 1.635v1.47l-.458.093c-2.902.583-14.476 2.6-14.92 2.6-.244 0-2.452-.609-4.907-1.354s-4.634-1.391-4.84-1.436-.375-.139-.375-.209c0-.139 2.193-1.825 2.785-2.141.202-.109.99-.312 1.75-.453 1.867-.346 11.548-2.22 12.382-2.396 1.149-.244 1.348-.203 4.544.925m-19.733 6.413c1.479.467 3.439 1.075 4.355 1.351s1.765.557 1.886.622c.157.086.014.302-.5.758-.396.35-1.856 1.713-3.246 3.029s-2.594 2.392-2.675 2.392c-.167 0-8.678-3.134-9.01-3.318-.14-.076.927-1.08 3.083-2.9 1.812-1.53 3.323-2.782 3.357-2.782s1.272.381 2.75.848m-67.599-34.871-.046 2.499-2.083-.916a370 370 0 0 0-2.64-1.153l-.558-.237.486-.627c.267-.345 1.455-2.049 2.64-3.787l2.155-3.16.046 2.441a161 161 0 0 1 0 4.94m3.539-3.542c1.368 2.004 2.433 3.694 2.368 3.756-.128.122-4.823 2.309-4.956 2.309-.044 0-.08-2.225-.08-4.945s.04-4.904.09-4.854 1.21 1.73 2.578 3.734m-5.983 5.984 2.398 1.078.038 5.376.038 5.377-.635-1.5c-4.48-10.576-4.89-11.617-4.542-11.506.167.053 1.384.582 2.703 1.175m8.648-1.163c0 .082-4.806 11.721-5.158 12.494-.096.21-.157-1.613-.164-4.93l-.011-5.262 2.542-1.186c2.534-1.183 2.791-1.286 2.791-1.116m-10.31 4.577a933 933 0 0 0 2.577 6.11l1.573 3.693-.045 3.464-.045 3.465-1.317-2.158c-.724-1.187-1.55-2.55-1.833-3.03-.29-.49-.638-.872-.794-.874-.153-.002-.628.146-1.056.33-.427.183-.809.333-.847.333s-.065-3.506-.06-7.792l.01-7.791.417.916c.23.505.87 2.005 1.42 3.334m10.848 1.989-.046 6.156-.917-.406c-.505-.223-1.01-.402-1.121-.397-.112.005-.991.999-1.954 2.208l-1.75 2.2-.05-.941c-.046-.887.12-1.351 2.834-7.956 1.586-3.857 2.92-7.015 2.966-7.017s.063 2.767.038 6.153m13.857-.322c.972.687 1.765 1.287 1.764 1.333-.005.105-4.06 2-4.281 2-.09 0-.213-.694-.273-1.542s-.158-2.097-.216-2.777l-.106-1.235.673.485c.37.267 1.468 1.048 2.44 1.736m-3.611.625c.1 1.443.166 2.642.146 2.664s-.895-.342-1.943-.81c-1.047-.467-2.114-.94-2.37-1.052l-.464-.203 2.045-1.612c1.124-.887 2.125-1.612 2.224-1.612.112 0 .247.976.362 2.625m-34.468 3.429.017 3.304-2.504-1.299-2.503-1.299 2.378-2.383c2.145-2.15 2.39-2.346 2.487-2.005.06.208.116 1.864.125 3.682m4.424-.572c.637.646 1.124 1.203 1.083 1.237-.254.214-4.487 2.447-4.638 2.447-.13 0-.186-1.065-.186-3.6v-3.602l1.292 1.172c.71.644 1.812 1.7 2.449 2.346m27.718-.285 2.375 1.032v12.421l-.542-.249a11 11 0 0 0-.833-.345c-.256-.084-.292-.336-.292-2.047v-1.953l-1.667-1.732-1.666-1.732v-3.213c0-1.767.056-3.213.125-3.214.068 0 1.193.464 2.5 1.032m8.203 4.594c-.005 5.134-.028 5.596-.266 5.292-.407-.52-4.414-8.611-4.354-8.791.056-.17 4.062-2.084 4.417-2.11.163-.012.207 1.21.203 5.61m-13.51-3.185 1.348.607v1.476c0 .812-.03 1.476-.066 1.476s-.712-.296-1.5-.659l-1.434-.659v-1.424c0-.783.069-1.424.153-1.424s.759.273 1.5.607m-16.153 1.07c0 1.35.107 1.32-1.708.496l-1.028-.467 1.243-.589c.684-.323 1.3-.595 1.368-.603.07-.008.125.516.125 1.163m27.083 4.155c1.238 2.474 2.25 4.536 2.25 4.582s-1.05.61-2.333 1.252l-2.333 1.169v-5.751c0-3.163.037-5.751.083-5.751.045 0 1.095 2.024 2.333 4.499m-32.083-1.003v3.162l-.534.276c-.294.152-1.344 1.066-2.333 2.03l-1.8 1.755v-7.856l2.292-1.26c1.26-.692 2.31-1.26 2.334-1.264.023-.003.041 1.417.041 3.157m-8.065-1.734 2.399 1.262v6.105c0 3.599-.062 6.04-.15 5.946-.163-.174-4.85-14.072-4.85-14.383 0-.106.045-.192.1-.192.057 0 1.182.568 2.5 1.262m11.28-.073c.753.287 1.466.6 1.585.693.146.116.2.514.167 1.24l-.05 1.068-1.582.654a54 54 0 0 1-1.625.655c-.023 0-.042-1.087-.042-2.416s.04-2.417.089-2.417.705.236 1.458.523m18.446 1.821c1.104.474 2.007.89 2.007.924s-.469 1.004-1.042 2.156c-.756 1.519-1.11 2.071-1.291 2.014-.283-.088-6.666-2.781-7.382-3.114-.255-.119-.43-.307-.387-.419s.73-1.027 1.527-2.034l1.449-1.833 1.555.723c.856.397 2.46 1.11 3.564 1.583m-29.555 7.48 1.95 5.739-.59.51c-.326.281-1.8 1.467-3.278 2.637l-2.687 2.125v-4.935c0-4.446.027-4.925.266-4.833.146.056.446.147.666.202l.402.101.013-5.56.013-5.56.647 1.917c.356 1.054 1.525 4.5 2.598 7.656m16.312-5.126c.367.654 1.173 2.008 1.792 3.01.618 1.003 1.124 1.873 1.124 1.934-.001.108-7.905 3.86-8.133 3.86-.064 0-.487-.807-.94-1.792a224 224 0 0 0-1.542-3.274c-.395-.815-.717-1.565-.716-1.667 0-.163 7.164-3.237 7.582-3.253.091-.004.466.528.833 1.182m15.95 1.633c-.89.437-1.64.775-1.667.752s.31-.81.75-1.748l.8-1.706.867.954.866.954zm-6.825.452 3.792 1.635v8.235l-1.042-.464c-1.036-.462-1.042-.469-1.091-1.211l-.05-.747-2.909-1.31-2.908-1.309v-3.323c0-2.596.045-3.303.208-3.232.115.05 1.914.827 4 1.726m8.654 4.073-.038 4.345-.84 2.442a494 494 0 0 0-1.93 5.775c-.599 1.834-1.167 3.408-1.261 3.5-.118.114-.14.035-.068-.25.057-.229.104-4.447.106-9.374l.002-8.957 1.958-.984c1.077-.54 1.992-.952 2.033-.912s.058 2.026.038 4.415m-25.604-.813c1.397 2.859 1.598 3.403 1.2 3.245-1.863-.735-5.745-2.371-5.856-2.469-.115-.1 2.988-3.64 3.199-3.649.028 0 .683 1.292 1.457 2.873m35.395-.974.737.385-.737.423a945 945 0 0 1-3.546 2.005l-2.81 1.582-1.19-.55-1.19-.551-.05-.93c-.033-.61.014-.931.138-.931.103 0 .653.186 1.222.413l1.035.414 2.577-1.323c1.418-.728 2.69-1.324 2.827-1.323.138 0 .582.174.987.386m1.18 6.555v5.29l-2.458-2.426a472 472 0 0 0-3.459-3.384c-.816-.781-.954-.988-.75-1.12.629-.407 6.43-3.64 6.542-3.644.069-.003.125 2.375.125 5.284m-25.779-4.12c-.076.07-.738.39-1.471.713s-2.065.928-2.958 1.347l-1.625.76v.714c-.001.692-.028.728-.878 1.172-.483.252-.933.458-1 .458s-.122-.53-.122-1.176v-1.177l2.125-.994a599 599 0 0 1 4.041-1.873l1.917-.877.055.402c.03.222-.008.46-.084.53m-11.43 1.841c1.123.48 2.042.926 2.042.99 0 .102-1.354 1.317-2.196 1.971-.248.193-.479-.047-2.042-2.12-.969-1.286-1.762-2.373-1.762-2.415 0-.087 1.021.319 3.959 1.574m-2.707 1.16 1.915 2.554-.357.597c-.197.328-1.097 1.906-2 3.506l-1.643 2.909v-6.145c0-3.38.038-6.107.085-6.06.047.046.947 1.234 2 2.639m17.728-1.282c1.41.658 2.556 1.26 2.549 1.337-.012.12-2.357 1.271-4.612 2.264l-.667.293-1.916-.891a693 693 0 0 1-2.723-1.271l-.806-.38 2.722-1.27c1.498-.697 2.76-1.27 2.807-1.274.045-.003 1.236.534 2.646 1.192m13.24.552.895.438.11 4.005c.06 2.203.109 4.705.109 5.56v1.553l-.996.503c-.547.276-1.035.502-1.083.502s-.088-2.925-.088-6.5.036-6.5.08-6.5c.043 0 .482.197.973.439m6.61 5.674c1.145 1.117 2.045 2.066 2 2.107s-1.598.835-3.455 1.762l-3.375 1.686v-10.226l1.375 1.32c.757.725 2.311 2.234 3.456 3.351m-32.431 6.554c-.116.907-.128.872-1.251-3.584-.623-2.475-1.137-4.69-1.141-4.922-.006-.319.286-.68 1.2-1.485l1.209-1.063.05 5.068c.027 2.788-.003 5.481-.067 5.986m16.1-8.74v2.095l.375-.116c.206-.064.814-.336 1.35-.605.537-.27 1.007-.459 1.045-.42.037.037.049 2.399.024 5.247l-.044 5.178-1.627-1.778a279 279 0 0 0-4.291-4.528l-2.664-2.75.04-.893.042-.893 2.75-1.299c1.513-.714 2.806-1.306 2.875-1.315.07-.01.125.926.125 2.078m-9.4-.705 2.65 1.223.05.854.05.854-3.3 3.547a834 834 0 0 1-4.255 4.548l-.955 1-.003-5.199-.003-5.2.625.26c.343.144.903.402 1.243.575s.696.315.792.315c.11 0 .173-.727.173-2 0-1.1.064-2 .142-2s1.334.55 2.791 1.223m-14.824 8.223c-.034.035-1.531-.706-3.326-1.646-1.794-.94-3.249-1.721-3.231-1.735.017-.015 1.494-1.165 3.281-2.557l3.25-2.53.045 4.203c.024 2.31.016 4.23-.019 4.265m11.058-7.365v.747l-.84-.33c-.462-.183-.893-.338-.958-.345-.133-.016 1.475-.793 1.673-.81.068-.005.125.327.125.738m15.438-.112c.258.144.183.189-1.397.817-.148.059-.208-.136-.208-.678v-.76l.67.237c.37.13.79.303.935.384m5.389 4.823-.006 4.958-1.952.935c-1.074.514-1.973.919-1.998.899-.052-.041 3.855-11.75 3.92-11.75.023 0 .04 2.23.036 4.958m-25.376 1.25c.73 2.956 1.28 5.394 1.224 5.418-.138.059-6.731-3.348-6.747-3.487-.019-.173 3.976-7.303 4.093-7.305.057 0 .701 2.417 1.43 5.374m11.049 3.794v6.67l-4.209-2.109c-2.314-1.16-4.235-2.131-4.267-2.159s1.548-1.762 3.512-3.853a515 515 0 0 0 4.204-4.51c.347-.39.66-.708.696-.708s.064 3 .064 6.67m7.205-.004c1.158 1.238 2.052 2.305 1.987 2.371-.135.139-8.14 4.296-8.272 4.296-.048 0-.087-3.013-.087-6.696v-6.695l2.133 2.237c1.173 1.23 3.08 3.25 4.239 4.487m-64.864-40.324c-.326.757-1.575 3.752-2.777 6.656-1.2 2.905-2.247 5.243-2.324 5.195-.274-.17-4.815-9.438-4.68-9.555.074-.065 1.486-.593 3.136-1.173s3.9-1.375 5-1.766c1.1-.392 2.053-.717 2.118-.722.066-.005-.147.609-.473 1.365m6.276 8.233c2.736 5.024 4.958 9.152 4.937 9.173-.02.02-.635-.149-1.365-.377a1734 1734 0 0 0-13.285-3.986c-.527-.151-.958-.333-.958-.405 0-.127 2.007-5.052 4.25-10.43.611-1.466 1.152-2.8 1.202-2.964s.124-.264.166-.222 2.316 4.187 5.053 9.21m-14.371-.823c1.31 2.615 2.356 4.783 2.322 4.817s-3.62-1.137-7.967-2.602c-4.348-1.465-8.055-2.667-8.239-2.671-.294-.007-.285-.034.084-.233.229-.124 2.629-1.023 5.333-1.999 2.704-.975 5.067-1.84 5.25-1.923s.446-.149.583-.147c.16.001 1.111 1.72 2.634 4.758m-14.72 1.046.606.996-1.718 2.129a364 364 0 0 0-3.218 4.055c-2.473 3.176-2.227 2.96-3.687 3.239-.71.136-1.312.225-1.339.198s1.322-1.852 2.996-4.057a1000 1000 0 0 0 4.365-5.782c.726-.976 1.335-1.774 1.355-1.774s.308.448.64.996m8.753 1.754c4.17 1.404 7.816 2.638 8.101 2.742l.518.19-2.658 6.367c-1.462 3.502-2.676 6.386-2.698 6.408-.045.047-.598-.827-4.188-6.624a1512 1512 0 0 0-4.571-7.333c-2.992-4.757-2.93-4.64-2.379-4.419.16.065 3.704 1.266 7.875 2.67m-3.33 7.249a970 970 0 0 0 4.158 6.666c.154.23.45.698.656 1.042l.376.625-.721-.311c-.397-.172-2.41-1.065-4.472-1.986a890 890 0 0 0-7.084-3.122c-1.833-.795-3.387-1.497-3.453-1.559-.128-.12.665-1.187 4.084-5.49 1.935-2.435 2.18-2.685 2.368-2.416.115.165 1.954 3.113 4.088 6.55m18.997-2.255c2.979.888 6.274 1.878 7.321 2.2l1.905.586-3.238 1.212a823 823 0 0 0-8.655 3.331c-2.98 1.166-6.163 2.41-7.075 2.768-.912.356-1.688.618-1.726.58-.037-.037.27-.879.68-1.87.412-.99 1.477-3.564 2.368-5.718l1.84-4.45c.201-.483.267-.52.693-.394zm6.126 5.297c-.53.812-8.92 14.092-9.39 14.864-.275.452-.576.847-.668.877s-1.87-2.01-3.952-4.535c-3.092-3.75-3.73-4.611-3.492-4.702.16-.061 4.192-1.63 8.96-3.487 4.766-1.857 8.693-3.38 8.727-3.384.033-.004-.05.16-.185.367m-28.96 2.34c7.851 3.39 9.19 3.985 9.117 4.057-.035.035-1.369.436-2.965.89l-2.902.827-2.202-1.251-2.203-1.252-2.2-2.618a1411 1411 0 0 1-2.463-2.938c-.326-.394-1-.658 5.818 2.285m29.796 5.881-.046 2.763-4.916 2.384c-2.704 1.311-4.94 2.364-4.969 2.338-.048-.043 1.034-1.781 7.313-11.747l2.572-4.084.046 2.792c.025 1.535.025 4.035 0 5.554m-33.819-5.103 2.334 2.743-.095 3.924c-.052 2.158-.112 3.945-.133 3.97-.021.027-.567-1.51-1.214-3.416a535 535 0 0 0-2.356-6.762c-.648-1.814-1.18-3.348-1.18-3.408 0-.155.044-.107 2.644 2.95m-1.44 2.256c2.231 6.385 3.106 8.997 3.036 9.067-.04.039-1.159-.485-2.488-1.165l-2.416-1.235.008-5.833.008-5.834.343.834c.189.458.867 2.333 1.508 4.166m15.464 8.268c0 6.295-.017 6.678-.291 6.58-.16-.058-1.627-.723-3.26-1.477l-2.967-1.37.11-4.334c.06-2.383.138-4.363.173-4.4.08-.084 5.748-1.657 6.027-1.672.163-.009.208 1.43.208 6.673m4.668-1.733c3.265 3.94 3.658 4.476 3.41 4.657-.154.112-1.846 1-3.762 1.972l-3.482 1.768v-6.424c0-3.533.032-6.424.072-6.424s1.733 2.003 3.762 4.451m223.695 37.558.328 1.104 1.649 1.051c1.068.682 1.642 1.15 1.632 1.333-.009.155-.192 1.046-.406 1.98l-.39 1.699.696.993c.383.546.741 1.11.796 1.251.063.165-.457 1.003-1.442 2.322l-1.541 2.064-2.16.202c-1.189.112-2.187.177-2.219.145s-.103-.466-.16-.966l-.1-.908 1.539-2.292c.847-1.261 1.51-2.322 1.471-2.357-.037-.035-.78.373-1.652.909-.87.535-1.64.976-1.708.981s-.125-.122-.125-.282c0-.268-.543-3.25-1.069-5.875-.119-.596-.256-.971-.304-.834-.049.138-.41 2.144-.802 4.46l-.715 4.208-.43-.283c-1.707-1.125-3.03-1.924-3.088-1.866-.037.038.636.93 1.497 1.983 1.272 1.557 1.566 2.02 1.571 2.476l.007.56-.709-.098c-.39-.054-1.533-.147-2.541-.207l-1.834-.109-1.358-2.61-1.359-2.611 1.012-1.66c1.006-1.652 1.011-1.667 1.14-3.326a82 82 0 0 0 .14-2.011c.007-.293.317-.44 2.082-.99l2.072-.644 1.338-1.45 1.338-1.45 2.737 1.002 2.738 1.003zm-27.292-.642c0 .97.086 1.342.5 2.162.677 1.34.654 1.997-.114 3.296-.338.57-.67 1.038-.737 1.038-.068 0-.392-.43-.72-.954-.78-1.248-.805-2.142-.096-3.546.404-.8.5-1.201.5-2.079 0-.977.034-1.088.334-1.088s.333.111.333 1.171M91-84.36c0 .112-5.782 6.701-5.996 6.833-.113.07-.169-.617-.166-2.03l.004-2.134 1.87-.823a81 81 0 0 0 2.955-1.366c1.08-.543 1.333-.634 1.333-.48m.834 2.233c0 2.059-.032 2.324-.292 2.403-.16.049-1.53.613-3.042 1.254-1.512.642-2.774 1.142-2.804 1.113-.057-.056 5.972-7.084 6.077-7.084.034 0 .06 1.041.06 2.314m1.396-1.55.645.732-.119 1.738-.118 1.738-.61-.21-.61-.212-.046-2.275c-.026-1.251.012-2.268.083-2.26.071.01.42.346.775.749m1.53-.077c.94.416 1.033.592.388.734-.463.102-.601.034-1.21-.586-.752-.769-.632-.79.821-.148M76.585-81.43c.062.282.087.949.055 1.481l-.057.97 1.083.726c1.256.843 1.616 1.442 1.773 2.948.132 1.257.072 1.272-1.461.362-1.723-1.024-2.145-1.827-2.145-4.084 0-1.826.159-2.915.426-2.915.118 0 .265.23.326.512m7.081 1.91c0 2.526-.14 3.218-.769 3.773-.382.338-2.37 1.472-2.58 1.472-.241 0-.174-1.392.105-2.183.314-.892.76-1.38 1.786-1.956l.791-.445V-80.4c0-1.43.024-1.542.334-1.542.318 0 .333.111.333 2.422m19.403 6.454.118.792.698-.472c1.072-.726 1.187-.783 1.028-.514-.076.13-.462.651-.858 1.16l-.72.926.403 2.908c.22 1.599.452 3.301.514 3.782l.112.875h-2.016c-1.81 0-2.015-.03-2.01-.291.002-.16.214-1.732.47-3.491l.465-3.2-.595-.617-.595-.617.559.382c.367.25.597.32.67.201.061-.099.289-1.44.505-2.982.217-1.54.436-2.874.487-2.963.081-.14.341 1.26.765 4.12M97-61.525l-1.412 1.42-5.294-5.292L85-70.69v-5.668l6.707 6.706 6.706 6.706zM74.815-70.03l.018 3.16-.985.923c-.542.507-2.053 1.935-3.358 3.173-1.623 1.539-2.332 2.118-2.243 1.833.186-.6 3.018-7.474 4.807-11.667l1.529-3.583.107 1.5c.06.825.115 2.922.125 4.66m3.852-3.44c.476.577.832 1.737.832 2.705 0 .27-.051.492-.115.492-.302 0-2.4-1.387-2.778-1.836-.5-.594-.771-1.46-.772-2.465l-.001-.718 1.175.618c.646.34 1.393.882 1.66 1.204m5.112-.721c-.112 1.197-.276 1.606-.926 2.306-.39.42-2.297 1.612-2.579 1.612-.172 0-.125-1.352.07-2.058.099-.352.417-.894.708-1.204.512-.545 2.345-1.738 2.67-1.738.094 0 .117.436.057 1.082m30.12 8.13c1.155 2.912 2.1 5.337 2.1 5.389s-1.538-1.388-3.417-3.199c-2.88-2.776-3.417-3.368-3.417-3.77q0-.476.95-1.763c1.008-1.366 1.582-2.06 1.646-1.994.022.023.984 2.424 2.139 5.337m-36.88-4.688c1.18.63 2.059 1.554 2.3 2.422.171.618.248 2.054.11 2.054-.038 0-.603-.308-1.255-.684-1.241-.716-1.836-1.35-2.154-2.3-.2-.596-.261-2.016-.088-2.016.056 0 .545.236 1.087.524m6.738.51c-.14 1.239-.412 1.928-.946 2.398-.416.366-2.366 1.568-2.544 1.568-.167 0-.116-1.364.078-2.063.23-.83 1.156-1.8 2.32-2.433.503-.274.982-.5 1.062-.501s.095.458.03 1.031m24.966 2.59c.1.613.068.66-1.555 2.285-.912.912-1.694 1.623-1.738 1.578-.087-.086-.6-3.36-.6-3.825 0-.226.273-.31 1.46-.444 2.46-.28 2.317-.303 2.433.407m-31.466.97c.545.327 1.155.749 1.357.937.516.483.883 1.683.883 2.886 0 1.114.098 1.347.443 1.06.146-.12.225-.574.228-1.29.006-1.86.686-2.835 2.698-3.87.968-.498 1.023-.454.89.723-.153 1.363-.506 2.073-1.297 2.606a39 39 0 0 0-1.47 1.065l-.825.629v1.407c0 1.236-.04 1.428-.333 1.585-.321.172-.334.126-.336-1.203-.001-.761-.095-1.561-.208-1.784-.114-.222-.762-.786-1.442-1.254-1.44-.99-1.88-1.685-1.984-3.125-.085-1.177.013-1.203 1.396-.372m36.907 5.034 1.75 1.7-2.186.002-2.186.002-1.024-2.958c-.563-1.627-1.023-3.032-1.022-3.122s.658.476 1.46 1.256zm-40.49-1.296c-.55 1.583-1.03 2.909-1.066 2.945s-1.022.044-2.192.018l-2.126-.046 3.128-2.962c1.72-1.63 3.157-2.934 3.192-2.898.035.035-.386 1.36-.936 2.943m13.962 3.93-4.096 4.078-2.77-.046-2.77-.045 5.453-5.467 5.454-5.467 1.412 1.435 1.413 1.434zm12.343 1.004-4.6 4.6-1.444-1.475-1.443-1.476 3.211-3.12 3.211-3.118 2.833-.006 2.833-.006zM72.745-59.15c.064.16.558 1.553 1.097 3.096l.982 2.805-2.29-2.138a308 308 0 0 0-3.357-3.097l-1.069-.958h2.26c1.999 0 2.275.034 2.377.292m42.34.585a621 621 0 0 0-2.731 2.415c-1.51 1.34-2.353 1.848-2.357 1.416 0-.069.347-1.156.772-2.416l.773-2.292 2.27.002 2.27.003zm-20.95 7.075-.982 1.203.798.403c1.406.712 3.042 1.138 3.912 1.02l.782-.107.185.723c.102.397.482 1.498.844 2.446.69 1.806.906 3.527.445 3.527-.177 0-10.128-9.898-13.283-13.211l-.912-.958 1.41-1.418 1.411-1.418 3.186 3.294 3.186 3.294zm-21.53-3.149 2.524 2.368-.2.79-.202.789-1.617.048-1.618.047-.345-.797c-.625-1.443-2.982-7.26-2.982-7.359 0-.052.431.32.958.825.527.507 2.094 1.987 3.483 3.29m42.35-1.33c-.778 1.894-1.104 2.514-1.29 2.458a62 62 0 0 1-1.395-.475l-1.145-.4 2.374-2.119c1.306-1.165 2.402-2.09 2.435-2.057.034.034-.407 1.201-.98 2.594m-8.299.933c1.672.345 1.961.455 2.334.892.348.408.637.535 1.592.702 1.674.292 2.536.718 3.625 1.792.527.52.958.99.958 1.044s-.656.268-1.458.474l-1.459.375-.963-.427c-.53-.235-.988-.427-1.018-.427s-.099.366-.152.812-.434 1.853-.848 3.125-.803 2.726-.864 3.23c-.093.771-.22 1.031-.8 1.639-1.71 1.794-3.673 1.843-5.375.134-.77-.773-.864-.95-.97-1.817-.065-.528-.487-2.086-.939-3.46-.451-1.376-.82-2.759-.82-3.074v-.574l-1.11.418-1.11.417-1.098-.34c-1.637-.506-1.628-.484-.682-1.546.999-1.12 1.832-1.552 3.5-1.81 1.038-.162 1.32-.276 1.666-.674.345-.396.72-.548 2.167-.882a80 80 0 0 1 1.833-.41c.046-.004.942.17 1.991.387M84-52.192v1.75h-7.666v-3.5H84zm17.017 2.683c-.192.245-.35.509-.35.587 0 .128 1.524.98 1.754.98.054 0 .076-.304.047-.675-.041-.548-.15-.737-.576-1.006l-.525-.33zm6.692-.082c-.46.295-.542.448-.542.999 0 .357.04.65.089.65.204 0 1.744-.85 1.744-.961 0-.067-.17-.328-.375-.58l-.375-.457zM79.666-47.86v1.75h-7.833v-3.5h7.833zm8.667 0v1.75h-7.834v-3.5h7.834zm23.5-.993c0 .29-2.243 5.577-2.366 5.577-.246 0 .024-1.159.634-2.723.317-.81.62-1.803.676-2.208.093-.676.14-.736.578-.736.263 0 .478.04.478.09m-36.5 5.327v1.75h-7.667v-3.5h7.667zm8.666 0v1.75h-7.833v-3.5H84zm8.667 0v1.75H85v-3.5h7.667zm10.667.087c0 .093.3.495.666.893s.667.809.667.913c0 .105.075.19.167.19.091 0 .166-.085.166-.19 0-.104.3-.515.667-.913s.667-.8.667-.893c0-.104-.59-.17-1.5-.17s-1.5.066-1.5.17m-1.684 2.562c.644.656 1.255 1.02 2.262 1.345.25.081-.309.447-2.333 1.528-5.652 3.017-8.449 4.431-8.308 4.2.08-.134 1.56-1.902 3.287-3.931 1.894-2.224 3.284-3.717 3.5-3.76.757-.147.893-.094 1.592.618m-5.759 3.201a1282 1282 0 0 1-3.18 3.72l-.373.43.04-2.383.04-2.383 3.082-1.388c1.696-.763 3.11-1.365 3.141-1.337s-1.205 1.531-2.75 3.341m-7.035-1.88 2.894 1.222.038 2.404.038 2.404-.593-.667c-1.738-1.955-5.55-6.583-5.42-6.583.082 0 1.452.55 3.043 1.22m-1.088 2.071a509 509 0 0 0 2.968 3.52c.343.39.334.388-.569-.065-1.275-.64-12.234-6.435-12.32-6.515-.038-.036 1.59-.065 3.616-.065h3.684zM26.46-85.98c-2.919 1.58-6.05 3.087-6.158 2.962-.066-.077-.258-.615-.428-1.195-.251-.859-.268-1.08-.089-1.19.121-.075.903-.227 1.739-.337.835-.11 2.306-.334 3.269-.497 2.762-.47 2.953-.44 1.666.256m.474 4.008c-.661 2.281-1.209 4.162-1.216 4.179s-.748-.126-1.647-.317l-1.633-.348-.905-1.805c-.498-.993-.906-1.865-.906-1.938s.956-.632 2.125-1.243c1.169-.61 2.836-1.484 3.704-1.943s1.602-.812 1.63-.784-.49 1.918-1.152 4.2m-7.902-2.145c.27.661.451 1.241.404 1.289-.08.08-1.925-.116-3.613-.383l-.721-.114 1.47-1.031c.81-.568 1.584-1.017 1.721-.998.14.019.465.563.74 1.237m12.324.61c.423.496.77.94.77.986s-.825-.19-1.833-.522c-1.324-.438-1.834-.68-1.834-.875 0-.424.16-.49 1.175-.49.946 0 .956.005 1.722.901m-1.375.917c2.12.657 2.58.847 2.38.983-.093.063-.815.81-1.604 1.658-1.395 1.5-1.44 1.574-1.64 2.695-.168.937-.272 1.17-.557 1.247-.74.199-.917.103-1.266-.687-.191-.432-.448-.9-.572-1.041-.189-.217-.161-.477.18-1.673.916-3.222 1.073-3.667 1.292-3.667.123 0 .927.218 1.787.485m-12.039.197 1.733.209.809 1.728c.445.95.809 1.77.809 1.822s-.117.05-.26-.005c-.142-.054-.76-.178-1.374-.274s-1.242-.212-1.396-.259c-.153-.046-.833-.775-1.51-1.619-1.627-2.03-1.624-2.025-1.028-1.907.267.053 1.264.19 2.217.305m3.267 4.813c4.349.815 4.417.83 4.417 1.03 0 .17-3.153 4.118-3.555 4.452-.159.131-.66.188-1.388.156l-1.14-.05-1.62-3.083c-.89-1.696-1.622-3.15-1.625-3.23-.007-.182.353-.13 4.911.725m-5.196.047c.221.39 1.004 1.88 1.74 3.313l1.337 2.604-1.083 1.726c-1.01 1.61-3.524 5.494-3.64 5.623-.028.032-1.275.343-2.771.692s-2.91.683-3.141.743l-.421.108-.813-4.102c-.697-3.517-.78-4.135-.58-4.33.488-.475 8.74-7.076 8.853-7.08.065-.003.299.313.52.703m11.944 5.493c.826 2.165 1.496 4.037 1.49 4.16-.007.122-.274.439-.592.704-.533.443-.63.467-1.197.303a309 309 0 0 0-1.574-.452c-.903-.258-1-.337-1.675-1.387a54 54 0 0 1-1.265-2.076l-.548-.962 1.801-2.242c.991-1.234 1.86-2.185 1.93-2.114.071.071.805 1.9 1.63 4.066m4.236-2.932c.884.42 1.293.71 1.349.958.42 1.862.427 1.76-.17 2.42-.504.559-.7.644-2.087.91-.842.161-1.55.27-1.575.243-.069-.08-1.585-4.112-1.585-4.216 0-.143 2.083-.845 2.691-.907.06-.006.679.26 1.377.592m-9.916 4.66c.407.69.34.905-.287.902-.327-.002-.55-.158-.823-.581-.451-.696-.452-.706-.084-.802.654-.171.858-.089 1.194.48m-19.7 6.405C.99-60.38-.717-56.535-1.213-55.367c-.496 1.17-.96 2.125-1.032 2.125s-.133-.768-.136-1.708-.076-4.07-.16-6.958c-.083-2.888-.107-5.908-.051-6.712.09-1.307.138-1.47.45-1.539.89-.197 7.52-.489 7.561-.333.024.092-1.255 3.055-2.843 6.584m17.033-3.106.016 1.477-1.187 1.773a92 92 0 0 1-1.254 1.846c-.118.129-1.892-1.719-1.892-1.97 0-.133.919-1.61 2.041-3.282l2.042-3.04.109.859c.06.473.116 1.524.125 2.337m-13.07.356c.74 3.81.803 4.656.634 8.394l-.131 2.894-.834.306c-1.298.478-8.163 2.794-8.194 2.765-.024-.023 2.703-6.172 6.684-15.072.627-1.401 1.159-2.526 1.183-2.5s.32 1.471.658 3.213M34.34-68.9c.594.866.625.971.479 1.62-.086.382-.349 1.023-.584 1.425l-.428.73-1.716.107c-.944.058-3.472.19-5.62.294l-3.903.188-.715-.81c-.393-.447-.716-.925-.718-1.062-.005-.438.617-1.634.934-1.797.936-.48 1.161-.414 1.788.53.563.848.666.92 1.807 1.26.666.2 1.603.483 2.082.63.865.267.873.266 1.25-.136.208-.222.67-.642 1.027-.933l.648-.53-.187-.74c-.102-.408-.23-.856-.284-.995-.078-.203.165-.306 1.206-.509 2.018-.394 2.194-.35 2.934.728m-13.32 4.302c.265.292.256.379-.14 1.478-.445 1.233-.531 1.957-.255 2.128.092.057.167.175.167.262 0 .139-6.587 5.488-6.757 5.488-.036 0 .26-.468.657-1.041 1.441-2.078 4.49-6.566 5.15-7.584.373-.572.727-1.041.788-1.041.06 0 .236.14.39.31m12.602 1.35c.185.363.336.984.336 1.381 0 .642-.087.806-.791 1.488l-.792.766-4.856-.19-4.857-.189-.342-.416c-.754-.918-.794-1.118-.427-2.14l.339-.944 3.905-.181c2.147-.1 4.634-.194 5.526-.208l1.622-.027zm-17.998.851 1.047 1.179-2.282 3.363a357 357 0 0 1-2.49 3.642c-.19.255-.379.21-2.2-.518-1.214-.487-1.99-.888-1.987-1.03.002-.126.066-1.593.143-3.257l.14-3.027 2.94-.694a160 160 0 0 0 3.107-.752c.412-.142.596-.015 1.582 1.094m6.198 3.072c.18.23.466.417.635.417.769 0 .84.14.505.99-.31.786-.31.8.03 1.36.772 1.277 1.29 1.786 1.93 1.894.345.058.716.16.826.229.208.128 4.282 12.51 4.158 12.635-.04.039-2.125-.265-4.635-.676s-5.857-.958-7.438-1.215c-1.58-.256-2.875-.525-2.875-.597s1.045-2.664 2.323-5.76c1.277-3.097 2.545-6.189 2.818-6.87.806-2.017 1.174-2.824 1.288-2.824.059 0 .254.188.435.417M18.507-54.7c-1.053 2.59-2.397 5.9-2.986 7.358s-1.113 2.715-1.163 2.796c-.096.156-.872-.251-3.776-1.983L8.787-47.6l.89-1.28c.49-.704 1.404-2.025 2.033-2.936.629-.91 1.403-1.886 1.722-2.166.923-.815 6.767-5.417 6.884-5.422.058-.003-.755 2.113-1.809 4.703m11.33-3.934 1.763.108.442.812.441.811-.333.54a6 6 0 0 1-.804.98l-.47.443-1.75-.225c-4.276-.55-4.31-.56-4.759-1.22-.481-.71-.49-.81-.14-1.687l.269-.67h1.789c.984 0 2.582.049 3.552.108m-.356 4.613 1.27.196 1.8 2.333c.99 1.284 1.91 2.524 2.045 2.756.238.411.184.513-1.88 3.552-1.17 1.72-2.148 3.106-2.176 3.077-.027-.028-.772-2.339-1.656-5.135s-1.748-5.514-1.921-6.041l-.315-.959.78.013c.43.007 1.353.1 2.053.208m5.869 10.654c.052 1.72.051 3.125-.003 3.125-.392 0-4.221-1.246-4.221-1.373 0-.09.494-.885 1.098-1.77.604-.883 1.485-2.182 1.958-2.885l.86-1.278.106.528c.058.29.149 1.935.202 3.653m-24.073-2.066c1.228.741 2.316 1.376 2.416 1.412.252.088-.153.524-2.385 2.569-1.351 1.237-1.936 1.676-2.02 1.517-.065-.123-.206-1.536-.314-3.14s-.23-3.13-.272-3.392c-.093-.594-.19-.632 2.575 1.034m11.167 3.11c3.63.598 6.773 1.126 6.986 1.174.344.077-.075.56-3.666 4.234l-4.055 4.146-.308-.358c-.17-.198-.839-1.26-1.487-2.362a250 250 0 0 0-2.983-4.877c-.993-1.582-1.805-2.913-1.805-2.959 0-.176.923-.05 7.318 1.003m-8.542-.295c-.044.16-.328 1.81-.63 3.667-.304 1.856-.6 3.375-.66 3.375-.112 0-3.033-3.118-3.115-3.324-.025-.064.688-.76 1.584-1.548.895-.787 1.849-1.664 2.118-1.947.547-.574.823-.662.703-.223m2.327 2.173c2.82 4.553 4.609 7.547 4.544 7.61-.035.036-1.076-.253-2.314-.641-4.996-1.567-5.166-1.632-5.166-1.955 0-.168.262-1.84.583-3.717.32-1.876.583-3.49.583-3.586 0-.45.36.016 1.77 2.29m16.776.136c1.12.33 2.055.617 2.076.636.022.019-.818 1.062-1.864 2.319l-1.903 2.284-.094-.712c-.11-.84-.426-4.416-.427-4.837 0-.16.039-.291.087-.291s1.004.27 2.125.601m-2.394 2.834c.24 2.007.232 2.894-.027 2.97-.888.263-7.881 1.727-7.945 1.664-.044-.045 1.64-1.805 3.745-3.912l3.825-3.83.11.795c.061.437.192 1.478.292 2.313M-51.91-72c0 12.203-.005 12.447-.313 12.124-.664-.694-7.02-8.957-7.02-9.125 0-.098 1.341-2.996 2.98-6.44a1007 1007 0 0 0 3.607-7.638c.344-.757.654-1.375.687-1.375s.06 5.604.06 12.453m1.155-11.745c.17.39 1.15 2.433 2.176 4.542 4.645 9.54 4.901 10.12 4.65 10.534-.232.38-6.664 8.587-7.088 9.043-.191.206-.226-1.71-.226-12.292 0-6.894.04-12.535.089-12.535s.228.319.399.708m13.762 16.037c2.933.408 6.451.894 7.818 1.08 2.463.336 2.862.431 2.414.574-1.397.447-3.233.99-7.9 2.338-3.024.874-6.287 1.822-7.25 2.108-3.406 1.01-8.573 2.47-8.611 2.432-.021-.021 1.465-1.949 3.303-4.283s3.488-4.437 3.667-4.672c.237-.312.45-.413.776-.373.247.03 2.85.389 5.783.796m-20.96 1.546c3.208 4.05 5.4 6.907 5.342 6.965-.06.06-.765-.14-10.3-2.933-3.437-1.007-7.3-2.136-8.582-2.51-4.029-1.171-5.113-1.507-5.056-1.564.03-.03 1.518-.252 3.306-.494 4.2-.568 9.974-1.37 11.25-1.564 2.256-.341 2-.474 4.04 2.1m-15.04 1.713c3.492 1 12.164 3.537 15.416 4.51 4.173 1.25 5.02 1.521 4.952 1.59-.038.037-1.486.659-3.218 1.38-1.733.723-4.338 1.812-5.79 2.42-1.466.616-2.764 1.066-2.917 1.012-.152-.053-3.014-2.792-6.36-6.087-4.365-4.298-5.942-5.947-5.583-5.837.275.084 1.85.54 3.5 1.012m41.016 4.694c-3.191 3.134-5.99 5.846-6.218 6.026-.415.326-.42.326-1.274-.036-.472-.2-3.127-1.31-5.901-2.468s-5.003-2.146-4.953-2.196c.086-.086 2.138-.696 15.746-4.684a804 804 0 0 0 6.5-1.925c.688-.213 1.397-.394 1.576-.401.207-.01-1.788 2.062-5.476 5.684M-59.925-46.47c-4.148 6.15-7.566 11.156-7.595 11.127-.03-.03.091-.836.27-1.791l1.005-5.404c1.113-5.984 1.838-9.645 1.982-9.996.097-.24 1.738-1.001 5.953-2.767 3.2-1.34 5.842-2.417 5.872-2.393s-3.339 5.075-7.487 11.224m16.1-8.49c2.658 1.113 4.889 2.08 4.957 2.148.124.123.438 1.64 1.54 7.441.315 1.65.874 4.57 1.244 6.487.37 1.918.643 3.517.606 3.554s-1.489-2.057-3.226-4.653c-1.737-2.597-5.09-7.571-7.45-11.055s-4.328-6.424-4.373-6.536c-.09-.228-.135-.246 6.701 2.615m-8.086 4.63-.002 6.958-7.456 4.274c-4.1 2.35-7.485 4.246-7.52 4.213s1.515-2.406 3.446-5.273a4142 4142 0 0 0 7.481-11.16c2.184-3.269 3.99-5.95 4.012-5.957.023-.008.04 3.118.04 6.945m3.38-3.167c6.753 9.98 12.483 18.57 12.426 18.627-.059.059-2.313-1.22-11.512-6.534l-3.625-2.093v-6.896c0-3.793.032-6.896.072-6.896s1.227 1.707 2.638 3.792m-75.496-31.227c-2.527 3.661-3.468 4.937-3.645 4.944-.157.006-1.629-2.824-1.524-2.93.15-.148 6.23-3.88 6.336-3.887.073-.005-.452.838-1.167 1.873m1.891 1.7c-.055.142-2.558 1.71-4.352 2.724-.089.05.253-.504.76-1.232.506-.729 1.516-2.18 2.244-3.225l1.324-1.9.048 1.722c.026.948.016 1.807-.024 1.91m5.68-1.004 2.198 1.327-.772 1.464c-.425.806-.824 1.465-.887 1.465-.101 0-4.656-6.359-4.797-6.696-.059-.14.796.35 4.258 2.44m-2.77.508c1.136 1.605 2.089 2.986 2.117 3.068.027.082-.966-.454-2.209-1.19l-2.258-1.34v-1.728c0-.95.063-1.729.14-1.729s1.072 1.314 2.21 2.92m-9.673 2.5c.36.78.656 1.456.656 1.5 0 .102-5.26.066-9.583-.067l-3.334-.103 3.334-.813c1.833-.448 4.308-1.06 5.5-1.36 1.191-.3 2.302-.553 2.469-.562.222-.01.475.36.958 1.405m18.596-.67c4.336 1.035 7.074 1.742 7.353 1.898.13.072-1.74.18-4.154.241-5.202.13-8.306.142-8.306.03 0-.044.317-.72.704-1.5.462-.931.8-1.419.982-1.419.152 0 1.692.338 3.42.75m-8.106 1.46c2.23 1.32 2.682 1.516 5.834 2.52 1.879.598 4.316 1.375 5.416 1.727l2 .639.044 6.39.044 6.391-.765 2.937c-1.74 6.683-1.695 6.564-3.615 9.477a278 278 0 0 0-2.93 4.543c-.658 1.054-1.366 2.037-1.57 2.184-.206.147-1.963 1.441-3.904 2.875s-3.572 2.607-3.625 2.607-.095-9.946-.095-22.102v-22.103l.375.243c.206.133 1.462.886 2.791 1.673m-3.666 20.31c0 21.926-.002 22.019-.331 21.791-1.16-.802-5.92-4.35-6.738-5.023-.788-.648-1.326-1.351-2.68-3.508a422 422 0 0 0-2.824-4.439c-1.236-1.901-1.325-2.146-2.832-7.758l-.895-3.334-.059-6.57-.058-6.572 5.167-1.634c2.841-.9 5.241-1.636 5.333-1.638.092-.001 1.404-.75 2.917-1.663s2.806-1.663 2.875-1.666c.068-.004.125 9.902.125 22.014m-8.834-19.04 1.084.103-4.584 1.433-4.583 1.433-1.417-1.21c-.779-.667-1.6-1.408-1.825-1.647l-.409-.436 5.325.11c2.93.062 5.813.158 6.41.214m30-.254c0 .034-.82.782-1.821 1.664l-1.821 1.603-2.638-.844c-5.565-1.78-6.63-2.14-6.387-2.166.291-.032 8.256-.241 10.875-.286.985-.017 1.791-.004 1.791.03m-39.958 2.247 1.625 1.412.001 2.098c.001 1.154.04 3.561.087 5.349.06 2.266.034 3.149-.084 2.916-.134-.262-3.06-10.819-3.599-12.983-.155-.622-.09-.582 1.97 1.208m38.445 5.054a869 869 0 0 1-1.829 6.638c-.07.23-.134-1.983-.14-4.917l-.013-5.333 1.79-1.55c1.183-1.026 1.806-1.467 1.84-1.304.028.135-.713 3.045-1.648 6.466m-39.173.055c2.226 8.219 2.52 9.337 2.52 9.613 0 .19-.404.32-1.623.522-.892.148-1.668.216-1.723.15-.055-.065-.229-2.819-.386-6.119-.376-7.918-.453-10.034-.357-9.833.043.092.75 2.642 1.57 5.667m41.125-2.459c-.187 4.886-.576 12.734-.635 12.793-.03.03-.392-.006-.805-.08a36 36 0 0 0-1.708-.248c-.933-.11-.956-.126-.861-.56.155-.707.962-3.735 2.342-8.78a441 441 0 0 0 1.446-5.375c.094-.39.208-.708.252-.708s.031 1.331-.031 2.958m-37.346 16.935c.417 1.546.732 2.837.7 2.869s-.389-.37-.793-.894a403 403 0 0 0-2.473-3.142c-.957-1.205-1.748-2.254-1.759-2.331s.694-.257 1.565-.4l1.583-.258.21.673c.115.37.55 1.938.967 3.483m36.54-3.639c.047.038-3.578 4.641-4.657 5.913-.454.534-.487.548-.4.166a480 480 0 0 1 1.666-6.428c.04-.125.557-.105 1.699.065.903.134 1.664.262 1.692.284m-38.251 4.266c3.072 3.938 2.96 3.754 2.517 4.112-1.269 1.03-2.253 1.736-2.322 1.668-.062-.062-1.667-5.073-2.82-8.8-.175-.567-.16-.55 2.625 3.02m37.792-1.758c-.269.818-.914 2.838-1.435 4.488-.52 1.65-.973 3.03-1.007 3.067-.094.103-2.566-1.832-2.566-2.008 0-.086.244-.515.542-.953.7-1.032 4.833-6.204 4.902-6.135.029.03-.168.723-.436 1.54m-32.2 9.835c1.314 2.069 2.364 3.785 2.333 3.813-.077.07-7.289-5.462-7.3-5.598-.008-.11 2.344-1.973 2.492-1.975.046 0 1.16 1.692 2.474 3.76m28.407-2.618c.524.4.953.752.953.78s-1.144.933-2.542 2.01a422 422 0 0 0-3.678 2.861c-.625.497-1.16.878-1.188.846-.059-.068 3.898-6.294 4.514-7.102.356-.469.454-.515.701-.334.158.116.716.539 1.24.94m-28.214 5.43c1.512 1.175 2.85 2.228 2.971 2.34.182.17.083.482-.56 1.762-.734 1.461-.797 1.537-1.026 1.231-.403-.536-5.643-8.119-5.985-8.659-.28-.441-.19-.4.767.345.595.465 2.32 1.806 3.833 2.981m28.578-3.284c-.57.89-4.14 5.977-5.218 7.437l-1.091 1.48-.76-1.53-.759-1.53.715-.593c1.012-.841 7.272-5.715 7.346-5.72.033 0-.072.204-.233.456m-21.629 10.345c3.672 4.655 4.032 5.135 3.718 4.949-.519-.307-8.26-5.64-8.472-5.836-.183-.169-.113-.422.394-1.436.741-1.48.87-1.652 1.157-1.542.122.046 1.563 1.786 3.203 3.865m14.292-2.525c.423.795.71 1.498.639 1.563-.124.112-2.747 1.918-6.838 4.708-1.032.703-1.875 1.235-1.875 1.182 0-.134 6.138-7.877 6.69-8.44.248-.252.488-.458.533-.458s.429.65.851 1.445m-12.438 2.222 2.855 2.083.004 1.744c.004 1.47-.03 1.706-.22 1.5-.19-.208-4.71-6-5.684-7.286-.434-.572-.347-.516 3.045 1.959m8.485-.792c-.675.848-2.073 2.61-3.107 3.917s-1.91 2.375-1.947 2.375-.067-.745-.067-1.655v-1.655l3.041-2.252c1.673-1.239 3.101-2.256 3.174-2.262.073-.005-.42.684-1.094 1.532M92.361-1.02l1.337 4.752-.406 1.998c-.318 1.565-.464 1.994-.67 1.977C92.19 7.67 82.35 4.072 82.35 3.95c-.001-.158 5.997-10.467 7.304-12.553l.418-.666.476 1.749c.263.962 1.079 3.887 1.814 6.5m2.541-5.044c2.018 1.626 3.994 3.257 4.392 3.625l.725.668L97.225.584c-1.536 1.295-2.812 2.339-2.835 2.32-.04-.035-2.113-7.37-2.932-10.383-.231-.848-.376-1.542-.322-1.542s1.749 1.33 3.766 2.957m6.612 9.916.85 4.29-2.444 2.666c-1.345 1.466-2.503 2.63-2.573 2.587-.113-.07-3.25-4.364-3.548-4.857-.064-.105.088-1.185.338-2.399l.454-2.207 2.92-2.46c2.34-1.972 2.943-2.406 3.036-2.185.064.151.499 2.206.967 4.565M82.857 9.896c.704 2.475 1.256 4.527 1.227 4.56-.029.034-1.862-.971-4.073-2.233L75.989 9.93l.388-.376c1.987-1.93 5.062-4.554 5.125-4.375.042.12.652 2.242 1.355 4.717m4.187-3.26a3116 3116 0 0 1 4.952 1.803c.368.137.122.377-3.239 3.175-2 1.665-3.666 2.996-3.703 2.96s-.622-2.073-1.3-4.523a571 571 0 0 0-1.33-4.764c-.054-.17-.062-.308-.017-.308s2.132.745 4.637 1.656m17.888 3.05c1.084.539 1.725.951 1.676 1.077-.056.148-3.782 5.212-4.185 5.689-.062.073-.505-.163-2.529-1.349l-1.704-.998.37-.455c.929-1.138 4.351-4.837 4.477-4.837.077 0 .93.393 1.895.873m-9.776 2.21 1.659 2.334-.593 1.083a793 793 0 0 1-3.095 5.5c-1.376 2.43-2.702 4.773-2.946 5.209l-.445.792-1.89-4.87c-1.04-2.677-2.023-5.218-2.186-5.646l-.295-.778 3.853-3.194c3.144-2.606 3.893-3.154 4.067-2.978.117.118.96 1.265 1.871 2.549m-15.534 1.056c2.095 1.177 3.95 2.217 4.123 2.31.27.148-.191.524-3.303 2.694-1.989 1.388-3.675 2.523-3.747 2.523s-.178-.469-.234-1.042c-.056-.572-.254-2.5-.44-4.284-.333-3.176-.406-4.34-.274-4.34.037 0 1.78.962 3.875 2.139m27.965.893.448 2.115-2.186 3.051c-1.202 1.678-2.242 3.071-2.31 3.096s-.242-1.058-.385-2.405l-.26-2.449 1.361-1.845 2.076-2.817c.392-.534.735-.947.761-.917s.25 1.007.495 2.17m-7.73 2.23c2.126 1.252 2.141 1.266 2.237 1.958.329 2.373.568 5.033.462 5.135-.147.142-11.91 3.999-11.98 3.928-.09-.09 6.855-12.278 6.997-12.28.078-.002 1.106.565 2.284 1.259M86.772 21.57c1.121 2.929 2.015 5.35 1.987 5.382-.03.031-2.657-1.23-5.839-2.803l-5.786-2.86.566-.398c5.231-3.684 6.756-4.722 6.882-4.687.083.022 1.068 2.437 2.19 5.366M27.247.264c.046.046-.185.85-.513 1.784-.329.935-.598 1.781-.598 1.881s.281-.08.625-.4.788-.716.987-.88c.199-.166 1.834-.705 3.634-1.199l3.272-.898.824.36c.454.198.825.407.825.466s-1.388.77-3.084 1.58-3.065 1.49-3.042 1.512c.05.049 4.252-1.048 6.363-1.66.819-.237 1.503-.413 1.522-.391.455.536 1.16 2.084 1.554 3.412.724 2.442.709 2.47-1.866 3.468-3.149 1.221-7.783 3.13-7.728 3.184.026.027 2.055-.467 4.508-1.098l4.46-1.148-.113.528c-.159.738-.36 1.075-.699 1.171-.16.046-3.704 1.148-7.875 2.45-11.621 3.625-16 4.949-16 4.837 0-.056.281-.85.625-1.766l.625-1.665 1.833-.617c1.008-.34 3.221-1.07 4.917-1.624 2.87-.937 3.008-1 2-.913-.596.05-2.841.386-4.99.745-2.148.36-3.944.614-3.992.567-.12-.12-.87-3.278-.796-3.352.033-.033 1.965-.844 4.294-1.802s4.159-1.744 4.067-1.747c-.092-.002-2.117.37-4.5.827s-4.49.831-4.68.832c-.278.001-1.715-.724-3.205-1.618-.13-.078 2.05-.73 5.417-1.62 3.1-.818 5.722-1.53 5.828-1.583s.922-.948 1.813-1.99L25.179 0l.991.09c.546.05 1.03.128 1.077.174m3.28 7.047-3.693.57-3.181 1.443c-1.75.793-3.16 1.464-3.134 1.49.171.171 9.548-2.37 13.2-3.577 1.965-.65 1.415-.636-3.192.074M12.652 9.42c.513.397 1.108 1.945 1.817 4.728l.346 1.356-.832 2.054c-.634 1.567-.922 2.09-1.214 2.2-.359.137-3.692-.13-4-.32-.072-.044-.769-1.056-1.549-2.247l-1.417-2.166V9.616l1.541-1.102 1.542-1.102 1.75.901c.963.495 1.87.993 2.016 1.107m-4.748.637-1.101 1.349v3.697l1.019 1.722c.56.946 1.08 1.76 1.155 1.805.18.111 3.186-.378 3.337-.543.064-.07.313-.502.553-.96.408-.778.436-.978.436-3.096 0-2.137-.021-2.283-.375-2.601-.427-.384-3.73-2.72-3.847-2.72-.041 0-.571.606-1.177 1.347m2.671.502c.775.559 1.509 1.177 1.632 1.375s.312 1.174.42 2.17l.195 1.813-.46.88-.461.88-1.228.114c-.676.064-1.254.09-1.285.058a64 64 0 0 1-1.07-1.603L7.303 14.7v-2.925l.857-1.116c.471-.614.891-1.117.932-1.117s.71.458 1.483 1.017m-.167 2.078c.455.592.497.749.434 1.614-.062.845-.118.971-.468 1.06-.308.077-.495-.017-.836-.422-1.159-1.378-1.108-1.353-.719-.347.195.505.43 1.13.524 1.39.134.376.24.45.523.368.194-.057.589-.147.877-.2.58-.106.6-.167.82-2.494l.112-1.186-.615-.115a7 7 0 0 1-.884-.219c-.172-.066-.087.135.232.551m15.197-.147c.12.048.264.042.32-.014.055-.055-.044-.094-.22-.087-.194.008-.233.047-.1.1m15.24 1.02c.745.49.77.613.166.839-1.172.438-4.597 2.022-4.375 2.023.138.001 1.581-.324 3.209-.722 2.098-.513 3.001-.67 3.105-.54.081.101.379.645.661 1.21.438.873.479 1.054.276 1.223-.132.109-1.17.45-2.307.76-1.622.44-2.37.745-3.464 1.417-.768.471-1.247.822-1.063.78.183-.042 1.817-.469 3.63-.949 1.815-.48 3.4-.833 3.525-.785.302.116.522 1.714.276 2.01-.101.122-2.135 1-4.519 1.952-2.384.951-4.277 1.747-4.207 1.768s1.74-.36 3.711-.845c1.971-.486 3.608-.866 3.638-.844.03.021-.066.27-.212.554-.159.306-.518.62-.888.775-.341.144-4.408 1.64-9.038 3.324a7080 7080 0 0 0-11.166 4.073c-1.513.555-2.807 1.009-2.877 1.01-.069 0 .23-.534.663-1.186l.79-1.187 4.336-2.162c2.386-1.189 4.075-2.108 3.754-2.042-.32.067-2.264.599-4.318 1.183-2.055.584-3.752 1.043-3.772 1.02s-.233-.98-.473-2.126a98 98 0 0 0-.528-2.416c-.08-.294.162-.43 2.042-1.148 4.172-1.593 6.648-2.672 7.76-3.382.62-.396 1.156-.72 1.191-.72s.22.262.409.582c.292.494 1.056 1.12 1.587 1.3.082.027-.069.356-.333.73-.355.503-.7.758-1.314.973-.459.161-1.884.702-3.167 1.203-2.269.885-3.218 1.36-2.067 1.036.312-.088 1.986-.46 3.72-.826s3.167-.685 3.182-.707l.8-1.208c.423-.642 1.01-1.447 1.303-1.79.525-.613.53-.633.303-1.333-.347-1.071-.9-1.534-2.118-1.773-.574-.113-1.123-.155-1.22-.095-.098.06-1.153.812-2.346 1.67-2.019 1.454-2.301 1.602-4.113 2.161-1.069.33-2.86.895-3.979 1.255s-2.116.655-2.215.655c-.1 0-.61-.314-1.132-.698l-1.51-1.106L15.6 20l1.476-.465c.812-.255 3.163-.991 5.226-1.635 2.062-.644 5.812-1.82 8.333-2.614s5.521-1.728 6.667-2.076c2.307-.703 1.971-.731 3.541.3m-34.9 3.533c.437.593.263.628-.69.142-.618-.315-.662-.373-.368-.488.55-.215.671-.175 1.057.346m-.679 1.065c.984.494 1.92 1.044 2.082 1.223.478.53 1.463 3.526 1.646 5.003l.17 1.374-.67 1.46a48 48 0 0 0-.836 1.901c-.134.357-.33.478-1.023.626-.824.177-.914.158-2.425-.507-.863-.38-1.636-.775-1.716-.876-.08-.102-.674-1.297-1.32-2.657L0 23.184l.416-1.52c.653-2.382.73-2.525 1.887-3.517.596-.51 1.103-.93 1.128-.933s.849.4 1.833.893m27.573-.656c.644.108 1.3.736 1.3 1.245 0 .15-.214.4-.475.554-.789.466-2.067-.099-2.405-1.063-.132-.376.342-1.01.685-.916.153.042.555.122.895.18m-28.57 1.682c-.05.05-.562.22-1.139.375l-1.048.284-.573 1.72-.573 1.72.893 1.93.892 1.93 1.725.82c.949.45 1.747.796 1.774.767s.432-.772.9-1.65c.821-1.541.851-1.645.851-2.94 0-1.272-.04-1.417-.752-2.758-.553-1.038-.929-1.53-1.414-1.852-.61-.403-1.318-.563-1.535-.346m1.227 1.006c.593.307 1.541 2.185 1.831 3.627.162.807.141.96-.233 1.706a15 15 0 0 0-.699 1.7l-.287.878-.944-.534c-1.494-.846-1.527-.872-1.527-1.176 0-.16.19-.414.422-.566.367-.241.392-.312.192-.546-.126-.148-.325-.623-.442-1.056-.206-.764-.199-.804.266-1.363.263-.317.525-.581.583-.588s.413.324.791.734.688.709.688.662c0-.127-1.016-2.13-1.191-2.348-.107-.133-.438.108-1.09.793l-.939.983.212 1.425c.117.783.161 1.475.099 1.537-.173.173-.7-.6-1.17-1.715l-.42-1 .383-1.583.383-1.583 1.075-.096c.591-.053 1.172-.11 1.291-.125.12-.016.446.09.726.234m4.783.571c.564.146.704.25.633.468-.57 1.743-.817 2.488-.898 2.698-.052.137-.156-.125-.23-.584a13 13 0 0 0-.474-1.817c-.41-1.189-.408-1.141-.048-1.037.16.046.618.169 1.017.272m6.187 1.01c1.55 1.14 1.856 1.44 1.995 1.96.303 1.135 1.176 5.371 1.176 5.706 0 .183-.406.925-.902 1.65-.495.723-.975 1.447-1.065 1.608-.155.278-.248.278-1.973 0-.995-.16-1.96-.322-2.143-.36-.365-.075-1.7-2.027-2.218-3.245-.177-.415-.452-1.36-.612-2.101l-.291-1.347.44-1.566c.241-.861.51-1.732.596-1.936.146-.347 2.47-1.685 2.959-1.705.114-.005 1.031.597 2.038 1.337m-3.163.67c-.504.274-.998.59-1.098.7-.1.111-.386.845-.635 1.632l-.454 1.431.893 2.233.894 2.232 1.63.32 1.631.318 1.213-1.204 1.212-1.204-.132-.706a57 57 0 0 0-.398-1.861c-.57-2.466-.482-2.317-1.848-3.146a90 90 0 0 1-1.622-1.002c-.338-.222-.45-.2-1.286.257m2.14 1.138 1.298.652.472 1.806c.7 2.683.707 2.508-.149 3.639-.416.55-.758 1.048-.758 1.107-.002.09-2.482-.795-2.64-.943-.03-.028.458-.33 1.083-.673 2.017-1.102 1.85-.88 1.669-2.218-.15-1.112-.194-1.199-.803-1.602-.736-.487-.834-.387-.234.24.292.304.442.697.52 1.36l.11.932-.545.19c-.878.306-1.055.235-1.496-.597l-.416-.788-.084 1.496-.083 1.496-.934-1.834c-.514-1.008-.898-1.945-.852-2.083.582-1.767.733-2.009 1.508-2.412.428-.223.836-.41.907-.413.07-.005.713.286 1.427.645m-5.398 4.273a7 7 0 0 0 .195.813q.082.216-.697.413c-.429.108-.806.17-.838.137-.1-.1 1.002-2.099 1.118-2.027.06.037.16.336.222.664M-39.67-11.22l.794 2.001-.47.984c-.258.54-.629 1.183-.823 1.427l-.354.444-.706-1.262c-.389-.695-.706-1.388-.706-1.54 0-.236 1.356-4.056 1.44-4.056.016 0 .387.9.824 2.002m-2.734 3.968c.704.585 1.323 1.174 1.375 1.31.125.325.123 3.053-.002 3.053-.053 0-.755-.558-1.56-1.241-1.618-1.373-1.671-1.486-1.675-3.57-.002-1.22-.21-1.27 1.862.448m5.722.472-.115 1.388-1.5 1.252c-.826.688-1.57 1.251-1.652 1.251-.25 0-.178-2.465.086-2.977.131-.253.9-1.012 1.709-1.686 1.68-1.4 1.654-1.414 1.472.772m12.983.6c-.03.206-.141 1.125-.25 2.041-.108.917-.28 1.774-.382 1.904-.177.225-2.33 1.68-2.486 1.68-.04 0-.126-.596-.19-1.325-.135-1.547-.04-1.798 1.037-2.75.624-.551 2.243-1.9 2.304-1.92.01-.003-.005.163-.033.37m-30.027 1.376 1.292 1.277v1.305c0 1.969 0 1.969-1.428.982-.675-.467-1.266-.972-1.314-1.124-.088-.278-.417-3.192-.422-3.739-.004-.443.377-.179 1.872 1.299m4.792 3.737c0 .155-.372 1.098-.826 2.096l-.827 1.814-.671-1.461-.672-1.461.32-.946c.175-.521.553-1.47.84-2.11l.523-1.163.656 1.474c.361.81.657 1.602.657 1.757m12.254-1.53c-.105 1.444-.167 1.678-.561 2.097-.53.563-2.602 2.278-2.753 2.278-.06 0-.107-.67-.107-1.49 0-1.31.046-1.542.375-1.912.355-.398 2.972-2.586 3.103-2.594.034-.002.008.727-.057 1.621m8.207-.25c1.003 2.796.988 2.453.182 3.944-.393.728-.758 1.296-.812 1.263s-.425-.86-.825-1.836l-.727-1.776.728-1.485c.4-.817.78-1.485.845-1.485s.338.619.61 1.375m-14.035.072 1.573 1.28V.163c0 1.298-.045 1.623-.209 1.5C-42.526.62-44.002-.71-44.12-1.02c-.162-.424-.208-3.035-.054-3.035.052 0 .802.576 1.666 1.28M-53.824-.018l1.132.38.635 1.312c.35.722.608 1.34.576 1.372-.109.109-3.623-.895-3.88-1.108-.243-.202-1.272-1.94-1.494-2.523-.099-.26-.03-.263.896-.046.552.128 1.513.404 2.135.613m31.389-.626c0 .043-.383.68-.851 1.418-.535.842-.984 1.368-1.208 1.417-.915.196-3.247.587-3.505.587-.241 0-.187-.191.333-1.181.342-.65.777-1.283.967-1.406.494-.32 4.264-1.059 4.264-.835m-8.01 2.532.716 1.86-.718 1.348c-.396.742-.764 1.349-.82 1.349-.157 0-1.502-3.287-1.502-3.671 0-.42 1.377-3.028 1.511-2.864.053.065.419.955.813 1.978m-17.091-.442c.33.826.6 1.624.6 1.774 0 .317-1.506 3.558-1.654 3.558-.055 0-.38-.632-.723-1.404-.53-1.195-.597-1.475-.451-1.875.19-.52 1.556-3.554 1.6-3.554.015 0 .297.675.628 1.5m5.9 1.213.714.73-.048 1.52-.049 1.52-1.416-1.172c-.78-.646-1.507-1.374-1.618-1.618-.11-.244-.204-1.067-.208-1.83L-44.27.424l.959.753c.527.414 1.28 1.081 1.673 1.482m4.98-.622c-.057.875-.162 1.692-.233 1.815-.167.29-2.918 2.586-3.103 2.59-.078.002-.115-.716-.083-1.597l.057-1.6.667-.577c1.744-1.51 2.61-2.222 2.7-2.222.055 0 .053.716-.004 1.59m-16.117 1.748c1.052.277 1.965.557 2.03.624.263.273 1.277 2.704 1.127 2.704-.575 0-3.745-.937-3.94-1.164-.478-.559-1.532-2.669-1.332-2.668.112 0 1.063.227 2.115.504m27.317.87a49 49 0 0 1-.921 1.448c-.105.117-3.941.85-4.023.768-.092-.093 1.072-2.248 1.399-2.591.22-.23 3.15-.946 4.025-.984.35-.015.314.084-.48 1.359m-7.34 1.03c.381.956.694 1.858.694 2.004 0 .29-1.318 2.996-1.412 2.9-.16-.163-1.421-3.484-1.421-3.743 0-.356 1.168-2.9 1.331-2.9.062 0 .425.783.807 1.739m-12.815-.25c.55 1.314.438 2.542-.387 4.266l-.635 1.329-.659-1.416c-.414-.89-.624-1.55-.566-1.78.2-.799 1.607-3.603 1.734-3.458.074.085.305.561.513 1.059m3.218 1.137 1.459 1.23v3.335l-1.214-1.005c-1.974-1.633-1.925-1.55-2.057-3.424-.135-1.92-.287-1.909 1.812-.136m5.69.166c-.076 1.134-.19 1.72-.378 1.936-.348.401-2.787 2.44-2.92 2.44-.055 0-.1-.674-.1-1.498 0-1.4.03-1.53.458-1.999.568-.621 2.746-2.481 2.92-2.494.071-.005.08.722.02 1.615m9.763.667c-.004.069-.363.725-.799 1.458l-.793 1.334-1.326.281c-.73.155-1.68.33-2.114.39l-.788.109.765-1.35c.42-.743.835-1.394.92-1.447.128-.079 3.588-.843 4.016-.887a.105.105 0 0 1 .119.112m-24.086.46c.865.23 1.732.478 1.927.55.406.15 1.73 2.758 1.431 2.82-.1.021-1.003-.166-2.005-.417l-1.823-.455-.788-1.458c-.542-1.001-.715-1.458-.552-1.458.13 0 .945.188 1.81.418m16.448 2.797.39 1.132-.72 1.41c-.398.775-.772 1.41-.833 1.41-.16-.001-1.36-3.217-1.36-3.646 0-.199.312-.98.693-1.733l.694-1.372.373.834c.205.458.549 1.343.763 1.965m-9.212-.306.86.909-.316.799c-.646 1.635-1.274 3.047-1.355 3.045-.14-.004-1.333-2.682-1.333-2.994 0-.161.175-.697.39-1.19a33 33 0 0 0 .494-1.187c.162-.447.332-.364 1.26.618m-5.478 1.538c2.531.674 2.446.618 3.183 2.085.37.735.63 1.378.579 1.429s-.971-.163-2.044-.476l-1.95-.569-.8-1.389c-.44-.764-.8-1.421-.8-1.461 0-.08.462.016 1.832.38m19.992-.321c-.005.069-.333.687-.73 1.375l-.72 1.25-2.041.465c-1.123.256-2.077.43-2.12.387s.286-.703.733-1.465l.812-1.387 1.746-.362c1.937-.402 2.332-.447 2.32-.263m-10.49 5.333.002 4.792.386-.674c.212-.37.971-1.805 1.688-3.189l1.302-2.515.565.333.565.333-.396.69c-.218.378-.905 1.675-1.527 2.88l-1.131 2.193-.984.336c-.75.255-1.112.3-1.519.183a4.6 4.6 0 0 0-1.047-.154c-.5 0-.548-.072-1.879-2.858-.75-1.572-1.345-2.866-1.321-2.875.024-.01.282-.14.572-.293l.528-.276 1.256 2.7c.691 1.485 1.33 2.884 1.42 3.11.113.282.167-1.128.175-4.55l.01-4.958h1.333zm2.23 5.639c.199.516.094.752-.482 1.092-.651.384-.752.644-.25.644.411 0 .427.2.042.54-.41.363-2.718.96-3.71.96-.709 0-.832-.047-.832-.32 0-.692.178-.847.977-.85 1.253-.003 1.352-.252.203-.507-.837-.186-1.012-.284-1.01-.566.005-.688.202-.78 1.091-.51 1.156.35 1.52.319 2.656-.235 1.197-.582 1.188-.58 1.316-.248m.385 7.49c.852 2.19 1.546 4.06 1.543 4.156-.008.224-.79 1.185-.883 1.084-.038-.043-.773-1.95-1.632-4.237l-1.562-4.16-.044 5.787-.044 5.787-.662-.337-.662-.338-.044-5.255-.044-5.254-1.659 4.184c-.912 2.301-1.707 4.214-1.766 4.25-.06.037-.315-.15-.568-.414l-.461-.481 1.67-4.055 1.672-4.054.89-.122c.488-.067 1.226-.23 1.638-.363.413-.133.822-.223.91-.2s.856 1.833 1.708 4.022M-106.844 3.29c3.136 1.312 3.506 1.506 3.139 1.644-1.488.56-14.635 4.865-14.836 4.858-.472-.017-7.251-3.446-6.997-3.54.137-.05 2.162-.669 4.5-1.373a637 637 0 0 0 6-1.836c3.01-.954 3.905-1.21 4.277-1.227.199-.008 1.961.654 3.917 1.473m3.934 5.637-.045 3.291-5.083 1.784-7.485 2.627c-1.321.463-2.421.822-2.444.799-.024-.024-.097-1.522-.164-3.33-.115-3.13-.106-3.295.194-3.417.68-.279 14.662-5.006 14.86-5.025.167-.017.203.687.167 3.27m-19.723-.056 3.58 1.735.05 3.307c.026 1.818.025 3.342-.003 3.386-.029.043-1.679-.744-3.667-1.75l-3.615-1.83-.046-3.291c-.024-1.81-.008-3.292.037-3.292s1.694.78 3.664 1.735m21.463 4.7c.943.148 1.815.324 1.938.39.154.084-.345.62-1.629 1.749l-1.85 1.627-2.039-.28c-2.67-.367-2.622-.35-2.622-.926 0-.325-.118-.546-.36-.676-.456-.244-.423-.263 2.027-1.145a75 75 0 0 0 2.25-.838c.451-.199.355-.203 2.285.1m-22.39 2.71 3.563 1.793-2.773.628-2.772.628-3.065-1.89c-1.685-1.038-3.044-1.91-3.02-1.936.036-.038 4.125-.97 4.422-1.007.046-.006 1.686.796 3.645 1.783m25.188 1.291c0 2.692-.01 2.767-.335 2.682-.184-.048-1.047-.26-1.917-.469l-1.581-.381v-.685c0-.66.065-.743 1.792-2.29.985-.884 1.847-1.612 1.916-1.617.07-.005.125 1.237.125 2.76m-30.27.82 2.604 1.608v3.318c0 1.825-.045 3.318-.1 3.318s-1.406-.86-3-1.911l-2.9-1.912v-6.549l.397.26c.218.144 1.568.984 3 1.868m20.231 1.363-.045 3.286-2.667.63c-1.466.347-5.193 1.23-8.281 1.964s-5.657 1.334-5.709 1.334-.093-1.531-.093-3.403V20.16l1.875-.435c5.985-1.388 14.262-3.227 14.587-3.24l.378-.018zm3.122-1.956c2.488.361 2.25.224 2.245 1.303l-.005.95-2.022 1.084a99 99 0 0 1-2.162 1.139c-.077.03-.14-1.044-.14-2.388V17.44l.459.094c.252.051.983.17 1.625.262m7.81 3.831c2.144.553 3.963 1.008 4.043 1.01.196.004-1.109.832-5.687 3.61a803 803 0 0 0-4.25 2.588c-.395.25-.641.199-4.875-1.009-2.452-.7-4.458-1.31-4.457-1.357 0-.047.545-.372 1.208-.722 4.181-2.201 5.772-3.055 7.624-4.093 1.146-.642 2.177-1.137 2.29-1.1.114.037 1.96.52 4.104 1.073m-30.372 5.17c.437.316.604.523.458.57-.127.04-.772.23-1.435.423l-1.205.35-3.628-1.772c-1.996-.975-3.553-1.802-3.462-1.837.092-.035 1.03-.311 2.084-.613l1.916-.549 2.293 1.465c1.261.806 2.602 1.69 2.98 1.963m35.014-.122c-.047 2.101-.137 3.274-.262 3.399-.293.291-9.782 6.226-9.955 6.226-.086 0-.154-1.049-.155-2.375 0-1.306-.047-2.756-.103-3.22l-.101-.845.811-.507a381 381 0 0 1 2.728-1.67l4.417-2.69c1.375-.84 2.543-1.526 2.596-1.526s.063 1.443.024 3.208m-20.662-.996-1.041.525v4.568l-7.375 2.455c-4.057 1.35-7.47 2.49-7.584 2.532-.162.06-.208-.678-.208-3.345v-3.422l1.695-.526c1.254-.39 1.786-.486 2.043-.369.26.119 1.853-.205 6.346-1.289 3.3-.796 6.112-1.493 6.25-1.548s.4-.102.583-.104c.183-.001-.136.234-.709.523m-20.208 1.668 3.083 1.589.045 3.412.045 3.412-2.461-1.295a808 808 0 0 0-3.545-1.855l-1.084-.56-.108-.917c-.06-.504-.116-2.024-.125-3.377l-.017-2.46.542.23c.298.127 1.93.946 3.625 1.82m24.908 1.2c2.374.685 4.37 1.304 4.434 1.375s.169 1.617.232 3.435c.108 3.144.099 3.302-.189 3.216l-3.885-1.173a436 436 0 0 0-4.417-1.317l-.833-.234-.045-3.274c-.036-2.592 0-3.274.17-3.274.119 0 2.159.56 4.533 1.246M-174.831 8.74c2.583 1.168 2.639 1.204 2.703 1.752l.065.56-3.124 1.001-3.124 1.002-2.968-1.489c-2.363-1.185-2.9-1.514-2.634-1.617.184-.071 1.571-.635 3.084-1.253 1.512-.618 2.887-1.128 3.055-1.135.167-.006 1.492.525 2.943 1.18m6.334 2.834c.001.128-1.406.975-1.619.975-.145 0-1.047-1.713-1.047-1.988 0-.081.6.089 1.333.378.732.29 1.332.575 1.333.635m-13.755.196c1.753.882 1.954 1.024 1.59 1.127-.23.065-.702.126-1.05.135-.565.015-.761.154-1.845 1.308-2.397 2.552-2.655 2.867-2.416 2.95.125.045 1.038.264 2.029.489l1.801.409.865-.393c.476-.215.961-.416 1.078-.444.136-.034.504.717 1.02 2.082l.807 2.134-.21 5.5c-.114 3.024-.237 5.528-.273 5.564-.054.054-6.121-10.718-8.672-15.398l-.783-1.435 1.319-2.083 1.665-2.634c.418-.665.357-.68 3.075.689m11.382 1.487c3.471 5.335 3.559 5.486 3.348 5.74-.113.135-.527.468-.922.74l-.717.493-2.376-1.873-4.265-3.366-1.888-1.495.638-.209c2.927-.958 4.836-1.556 4.992-1.563.103-.005.638.685 1.19 1.533m-8.286.917c-.567 1.899-.692 2.067-1.912 2.584-1.1.466-1.202.48-2.103.289-1.51-.32-1.517-.346-.42-1.53 1.746-1.881 1.606-1.802 3.176-1.802h1.396zm5.465 3.268 4.028 3.144v.981c0 .54-.018.98-.041.979s-1.836-.364-4.028-.804l-3.985-.801-.722-1.905c-.398-1.047-.723-2.012-.723-2.144s.2-.858.447-1.613c.393-1.207.48-1.35.72-1.177.152.108 2.088 1.611 4.304 3.34m-18.848-1.419 3.207.109-3.1 3.917c-4.742 5.99-5.948 7.5-5.991 7.5-.08 0-2.406-11.21-2.406-11.59 0-.197.754-.191 8.29.064m-9.74.42c-.234.399-6.696 9.502-7.112 10.017l-.399.496.323-1.662c.177-.914.507-2.631.731-3.816.225-1.185.427-2.17.45-2.187.167-.136 5.903-3.07 6.007-3.072.073-.002.073.099 0 .224m2.5 7.939.735 3.583-5.268.084c-2.897.045-5.288.038-5.314-.017-.026-.054 1.485-2.241 3.358-4.859s3.728-5.235 4.122-5.816l.718-1.057.457 2.25c.252 1.236.788 3.861 1.192 5.832m10.783 2.79v10.29l-4.58-4.576c-3.995-3.994-4.553-4.613-4.374-4.86.175-.242 2.362-3.011 7.581-9.602.672-.848 1.255-1.542 1.297-1.542s.076 4.63.076 10.29m4.836-2.623c2.222 3.987 4.3 7.718 4.617 8.29l.576 1.04-.39.15c-1.373.532-3.267 1.317-5.841 2.42-1.623.697-3.03 1.266-3.125 1.266-.113 0-.173-.999-.173-2.875 0-3.545.207-17.642.258-17.584.02.024 1.855 3.305 4.078 7.293m16.466-4.062c-.041.478-.2.727-.76 1.188l-.709.583v-.676c0-.578.09-.75.622-1.188.341-.282.683-.512.76-.512s.115.272.087.605m-42.134 3.405c-.87 4.506-.753 4.126-1.249 4.031-.23-.044-.421-.09-.424-.102-.142-.583-.432-3.74-.355-3.864.437-.698 2.58-3.577 2.627-3.53.032.032-.237 1.591-.6 3.465m34.063-1.645 1.646.366-.104 1.093a31 31 0 0 0-.104 2.367l-.001 1.274-1.849 2.81c-1.016 1.544-1.888 2.846-1.937 2.891-.049.046-.043-1.154.014-2.666l.21-5.625c.073-1.932.169-2.876.293-2.876.102 0 .926.164 1.832.365m-23.48 6.802c-.058.183-.612 1.493-1.232 2.911l-1.126 2.578-2.57 1.99c-1.415 1.094-2.62 1.94-2.68 1.88-.121-.122-2.975-9.253-2.975-9.52q.002-.172 5.344-.172c5.267 0 5.343.005 5.24.333m5.157 4.292c2.351 2.315 4.195 4.209 4.097 4.209-.506 0-10.498-2.79-10.72-2.993-.145-.133 2.066-5.528 2.24-5.464.058.022 2.03 1.934 4.383 4.248m14.355 3.084c-.055.664-.177 2.705-.272 4.535s-.209 3.363-.253 3.408-.398-.035-.784-.175l-.704-.255-.701-3.136c-1.01-4.521-1.093-4.01.784-4.85.871-.389 1.684-.714 1.806-.722.175-.01.202.245.124 1.195m-20.387-.613c.61.207.787.355.855.708.18.941.66 7.028.56 7.127-.057.057-.42-.001-.806-.13l-.703-.234-1.29-3.242-1.29-3.241.69-.62c.786-.705.922-.73 1.984-.368m15.896 1.696c-.048.252-.328 2.37-.622 4.708s-.58 4.304-.636 4.369c-.174.204-1.403-.314-1.523-.641-.062-.171-.352-1.736-.644-3.478-.292-1.741-.566-3.287-.609-3.433-.06-.206.374-.461 1.884-1.109 1.079-.463 2.024-.849 2.1-.858s.098.19.05.442m-19.271.917c0 .664.05 2.615.11 4.334l.109 3.126-.569-.107c-.312-.06-.67-.161-.794-.226s-.711-1.383-1.304-2.928l-1.079-2.81.388-.283c.214-.156.95-.735 1.638-1.288s1.306-1.01 1.375-1.016.125.533.126 1.198"/></svg>