<svg xmlns="http://www.w3.org/2000/svg" width="32" height="36" viewBox="0 0 32 36"><path d="M13.372-145.987c.515 1.095.735 1.74.63 1.846-.29.289-4.573 2.637-4.81 2.637-.255 0-1.995-3.547-1.78-3.626.075-.028 1.185-.606 2.469-1.287s2.415-1.24 2.516-1.245.54.75.975 1.675m2.329-1.1c1.057.32 2.693.8 3.635 1.067 1.926.546 9.925 2.854 11.711 3.379l1.167.343-1.833.87c-1.563.742-1.907.849-2.334.723-.275-.082-3.162-.897-6.416-1.813s-6.05-1.705-6.214-1.755c-.319-.096-2.065-3.397-1.798-3.397.088 0 1.024.262 2.082.583m-8.804 10.583a2474 2474 0 0 0-4.012 12.575c-1.54 4.871-2.7 8.269-2.876 8.431-.316.293-3.045 2.024-3.045 1.933 0-.141 6.803-21.17 9.038-27.939l.853-2.583.737 1.583.736 1.584zm10.758-6.34c1.224.362 3.988 1.154 6.142 1.76 2.154.605 4.07 1.2 4.259 1.323s.912 1.444 1.623 2.97l1.28 2.748-2.428 7.478a4423 4423 0 0 1-4.123 12.63l-1.694 5.152-2.72 1.473c-1.495.81-2.87 1.473-3.056 1.473-.25 0-8.491-2.34-12.69-3.604-.185-.056-.844-1.182-1.727-2.952l-1.429-2.863 1.865-5.832c1.025-3.208 2.528-7.895 3.338-10.416.811-2.52 1.75-5.483 2.088-6.583s.72-2.112.852-2.25c.385-.405 5.446-3.14 5.837-3.154.197-.007 1.36.284 2.583.647m16.645 3.55c.64 1.352 1.163 2.514 1.16 2.582-.001.069-.818.555-1.815 1.08-1.967 1.036-1.899 1.038-2.404-.067-.154-.337-.587-1.274-.961-2.084-1.137-2.456-1.231-2.094.813-3.126.983-.496 1.845-.888 1.916-.872s.652 1.135 1.291 2.487m-21.192 5.009-2.273 1.854 1.345 1.471 1.345 1.471 1.265-1.257c.72-.717 1.407-1.258 1.595-1.258.181 0 .855.15 1.496.334.64.183 1.182.333 1.202.333s-.73-1.082-1.667-2.405c-.936-1.323-1.777-2.403-1.869-2.401-.091.002-1.19.838-2.44 1.858m3.357-1.791c0 .134 3.178 4.481 3.309 4.526.116.04 2.413-3.123 2.326-3.204-.058-.054-5.384-1.416-5.537-1.416a.096.096 0 0 0-.098.094m17.342 5.5c-.909 2.744-2.224 6.751-2.923 8.906-1.96 6.041-5.45 16.576-5.513 16.645-.071.076-1.384-2.75-1.51-3.249-.055-.22.504-2.17 1.41-4.922 1.8-5.468 3.091-9.444 4.7-14.474.66-2.063 1.37-4.266 1.58-4.896l.382-1.146 1.724-.965c.949-.53 1.742-.948 1.763-.927.022.021-.704 2.284-1.613 5.028m-12.303-2.205c-.566.764-1.07 1.498-1.121 1.631-.074.193.275.3 1.713.528.994.157 1.926.285 2.071.285.208 0 .085-.409-.578-1.917-.463-1.054-.89-1.916-.949-1.916s-.57.625-1.136 1.39m-1.421 2.394c-.042.073-.13.574-.196 1.114-.095.787-.074.965.105.898a91 91 0 0 1 2.02-.635c.988-.303 1.738-.6 1.667-.662-.072-.061-.768-.24-1.547-.398a43 43 0 0 1-1.695-.368c-.152-.044-.312-.021-.354.051m1.924 1.955-2.041.685 1.479 1.472c.83.827 1.526 1.396 1.586 1.298.059-.095.362-.872.672-1.726.311-.853.645-1.758.743-2.01.231-.597.148-.588-2.44.28m-5.622 2.353c-1.282.687-2.42 1.342-2.53 1.454-.245.253-1.463 4.27-1.334 4.398.051.052 1.044-.27 2.206-.717l2.114-.81.96-2.791c.529-1.536.951-2.79.938-2.788s-1.072.567-2.354 1.254m3.007-1.081-.984 2.656c-.494 1.33-.877 2.442-.851 2.472.065.076 4.908-2.202 4.908-2.309 0-.047-.671-.755-1.492-1.573-1.03-1.025-1.52-1.411-1.581-1.246m-6.843 9.35c-.948.49-1.583 1.134-1.583 1.606 0 .38 1.355 2.758 1.69 2.964.161.1 2.19-.95 2.685-1.39.543-.482.403-1.043-.665-2.665-.66-1.004-1.017-1.09-2.127-.516m-10.842 5.849c.67 1.398 1.187 2.595 1.149 2.661-.095.164-3.562 2.015-3.634 1.94-.09-.093-2.26-4.815-2.302-5.008-.04-.183 2.98-2.095 3.35-2.12.125-.008.742 1.077 1.437 2.527m7.615 4.89 6.484 1.922 1.09.324.877 1.764c.482.97.844 1.796.804 1.836s-2.35-.64-5.133-1.51C6.628-104.863.62-106.67.35-106.67c-.526 0-.11-.314 1.488-1.12.94-.473 1.794-.865 1.898-.87s2.617.709 5.583 1.588m14.54 1.207c.424.947.77 1.786.77 1.863 0 .197-4.513 2.728-4.884 2.74-.227.006-.486-.42-1.042-1.716-.407-.948-.74-1.815-.74-1.926 0-.244 4.873-2.96 5.02-2.797.058.063.451.889.875 1.836m-53.983-38.779c1.325.381 2.375.749 2.333.817s-1.127.776-2.411 1.574l-2.335 1.45-2.874-.617a350 350 0 0 1-3.342-.728c-.412-.097-.078-.296 2.75-1.637 1.77-.84 3.274-1.533 3.343-1.54.07-.006 1.21.3 2.536.681m7.714 1.892c1.306.32 2.487.582 2.625.582s.247.056.244.125c-.003.068-1.327.95-2.942 1.958a342 342 0 0 0-6.286 4.05l-3.35 2.218-1.25-.087c-1.376-.096-6.98-.857-7.085-.961-.063-.063 1.484-.962 7.336-4.264 1.466-.827 3.791-2.14 5.166-2.92 1.507-.852 2.633-1.388 2.834-1.349.183.036 1.402.328 2.708.648m-16.375 2.517c1.925.242 3.556.49 3.624.551s-.27.341-.75.621c-.481.281-2.545 1.523-4.587 2.76l-3.713 2.25-1.287-.227c-.708-.125-2.598-.418-4.2-.651-1.601-.234-2.933-.447-2.96-.472-.025-.026 1.998-1.084 4.497-2.352s4.768-2.436 5.043-2.598.575-.3.666-.308 1.742.184 3.667.426m-9.614 6.551c2.687.447 4.907.84 4.932.872.183.234 2.265 4.306 2.265 4.43 0 .087-.656.254-1.458.371s-2.77.426-4.373.687c-1.604.26-2.963.42-3.02.355-.058-.065-.792-1.614-1.632-3.443-1.391-3.029-1.825-4.097-1.66-4.089.033.002 2.259.37 4.946.817m11.693.28c1.694.231 3.091.434 3.106.452.014.017.299.577.633 1.244.436.87.547 1.233.394 1.29-.307.111-6.088 1.414-6.278 1.414-.125 0-1.277-1.892-2.982-4.899-.1-.176.904-.078 5.127.498m6.824 7.473c1.382 1.78 2.514 3.273 2.514 3.317s-.92.78-2.042 1.634a221 221 0 0 0-3.732 2.911c-.929.746-1.776 1.41-1.882 1.476s-1.572-.351-3.257-.926l-3.065-1.046 1.754-1.677 1.753-1.677-.748-2q-1.254-3.348-1.1-3.477c.127-.108 6.566-1.74 6.93-1.757.28-.013.928.714 2.875 3.222m-10.921 1.506c.44 1.161.767 2.146.725 2.188s-1.119-.11-2.392-.34-3.1-.553-4.059-.72l-1.744-.302-.215-1.063c-.118-.584-.177-1.1-.13-1.147s1.565-.324 3.375-.616c2.628-.425 3.326-.49 3.464-.321.096.116.535 1.16.976 2.321m-3.515 2.423c1.999.366 3.68.666 3.738.666.056 0-.598.525-1.455 1.167-.857.641-1.605 1.166-1.663 1.166-.122 0-2.588.458-5.837 1.083-1.238.238-3.471.662-4.964.942l-2.714.51-3.938-1.634c-3.231-1.34-3.866-1.655-3.536-1.757.22-.068 1.94-.39 3.819-.716s5.254-.923 7.5-1.327c2.245-.404 4.383-.742 4.75-.75.366-.009 2.302.284 4.3.65m17.116 1.718v1.385l-2.458 2.169c-3.665 3.232-5.018 4.394-5.118 4.394-.05 0-.09-.778-.09-1.728v-1.729l3.469-2.6c1.908-1.43 3.607-2.752 3.776-2.938s.332-.338.364-.338.057.623.057 1.385m-35.87 2.719c2.042.885 3.692 1.625 3.666 1.645l-6.524 4.894-6.48 4.858-2.854-1.06a629 629 0 0 0-4.854-1.78c-1.1-.396-2.054-.764-2.12-.818-.106-.088 1.67-1.201 12.37-7.758 1.42-.87 2.695-1.584 2.833-1.586.137-.003 1.92.72 3.963 1.605m22.665 1.33c1.717.606 3.328 1.176 3.58 1.267.453.163.459.182.459 1.635v1.47l-.459.093c-2.901.583-14.475 2.6-14.92 2.6-.243 0-2.451-.609-4.907-1.354s-4.633-1.391-4.84-1.436-.374-.139-.374-.209c0-.139 2.192-1.825 2.784-2.141.203-.109.99-.312 1.75-.453 1.868-.346 11.548-2.22 12.382-2.396 1.15-.244 1.349-.203 4.545.925m-19.733 6.413c1.479.467 3.438 1.075 4.355 1.351s1.765.557 1.886.622c.156.086.014.302-.5.758-.396.35-1.856 1.713-3.246 3.029s-2.594 2.392-2.676 2.392c-.167 0-8.677-3.134-9.01-3.318-.139-.076.928-1.08 3.083-2.9 1.813-1.53 3.324-2.782 3.358-2.782s1.271.381 2.75.848m-67.599-34.871-.046 2.5-2.083-.917a370 370 0 0 0-2.641-1.153l-.557-.237.485-.627c.268-.344 1.456-2.049 2.641-3.787l2.155-3.16.046 2.441a161 161 0 0 1 0 4.94m3.539-3.542c1.367 2.004 2.433 3.694 2.367 3.756-.127.122-4.823 2.309-4.956 2.309-.044 0-.08-2.225-.08-4.945s.041-4.904.091-4.854 1.21 1.73 2.578 3.734m-5.983 5.984 2.398 1.078.038 5.376.038 5.377-.636-1.5c-4.479-10.576-4.89-11.617-4.542-11.506.168.053 1.384.582 2.704 1.175m8.648-1.163c0 .082-4.806 11.721-5.159 12.494-.096.21-.156-1.613-.163-4.93l-.011-5.262 2.541-1.186c2.535-1.183 2.792-1.286 2.792-1.116m-10.31 4.577c.552 1.33 1.711 4.079 2.577 6.11l1.573 3.693-.045 3.464-.045 3.465-1.317-2.158c-.724-1.187-1.55-2.55-1.833-3.029-.29-.49-.638-.873-.795-.875-.152-.002-.627.147-1.055.33s-.81.333-.847.333c-.038 0-.065-3.506-.06-7.791l.01-7.792.417.917c.23.504.869 2.004 1.42 3.333m10.848 1.989-.046 6.156-.917-.406c-.505-.223-1.01-.402-1.122-.397-.111.005-.99 1-1.953 2.209l-1.75 2.199-.05-.941c-.046-.887.12-1.35 2.834-7.955 1.585-3.858 2.92-7.016 2.966-7.018s.063 2.767.038 6.153m13.857-.322c.972.687 1.765 1.287 1.763 1.333-.004.105-4.06 2-4.28 2-.09 0-.213-.694-.274-1.542a232 232 0 0 0-.216-2.776l-.106-1.236.673.486c.37.266 1.468 1.047 2.44 1.735m-3.61.625c.1 1.443.166 2.642.145 2.664-.02.022-.894-.342-1.942-.81-1.048-.467-2.114-.94-2.37-1.052l-.464-.203 2.044-1.612c1.125-.887 2.126-1.612 2.224-1.612.113 0 .248.976.363 2.625m-34.468 3.429.016 3.304-2.503-1.299-2.503-1.298 2.378-2.384c2.145-2.15 2.389-2.346 2.487-2.005.06.208.115 1.865.125 3.682m4.424-.572c.636.646 1.124 1.203 1.083 1.237-.254.214-4.487 2.447-4.638 2.447-.131 0-.186-1.065-.186-3.6v-3.602l1.292 1.172c.71.644 1.812 1.7 2.449 2.346m27.717-.285 2.375 1.032v12.421l-.541-.249a11 11 0 0 0-.834-.345c-.255-.084-.291-.336-.291-2.047v-1.952l-1.667-1.732-1.667-1.732v-3.214c0-1.767.056-3.213.125-3.214s1.194.464 2.5 1.032m8.203 4.594c-.005 5.135-.028 5.596-.266 5.292-.407-.52-4.414-8.61-4.354-8.79.057-.17 4.063-2.085 4.417-2.111.163-.012.207 1.21.203 5.61m-13.508-3.185 1.347.607v1.476c0 .812-.03 1.476-.067 1.476s-.712-.296-1.5-.659l-1.433-.659v-1.424c0-.783.069-1.424.153-1.424s.758.273 1.5.607m-16.153 1.07c0 1.35.107 1.32-1.708.496l-1.028-.467 1.243-.589c.684-.323 1.299-.595 1.368-.603s.125.516.125 1.163m27.083 4.155c1.237 2.474 2.25 4.536 2.25 4.582s-1.05.61-2.333 1.252l-2.333 1.17v-5.752c0-3.163.037-5.751.082-5.751s1.096 2.024 2.334 4.499m-32.083-1.003v3.162l-.534.276c-.294.152-1.344 1.066-2.334 2.031l-1.799 1.755v-7.857l2.292-1.259c1.26-.693 2.31-1.262 2.333-1.265s.042 1.417.042 3.157m-8.065-1.734 2.398 1.263v6.104c0 3.6-.061 6.04-.149 5.946-.163-.173-4.85-14.072-4.85-14.383 0-.106.045-.192.1-.192s1.181.568 2.5 1.262m11.28-.073c.753.287 1.466.6 1.585.693.146.116.2.514.166 1.24l-.048 1.068-1.584.654c-.87.36-1.602.654-1.625.655-.023 0-.041-1.087-.041-2.416s.04-2.416.088-2.416c.049 0 .705.235 1.459.522m18.445 1.821c1.104.474 2.008.89 2.008.924s-.47 1.004-1.042 2.156c-.756 1.52-1.11 2.071-1.292 2.015-.282-.089-6.665-2.782-7.381-3.115-.256-.119-.43-.307-.387-.419.042-.11.73-1.026 1.526-2.034l1.45-1.832 1.555.722c.856.397 2.459 1.11 3.563 1.583m-29.554 7.48 1.95 5.739-.59.51c-.326.281-1.801 1.468-3.279 2.637l-2.686 2.125v-4.935c0-4.446.026-4.925.265-4.833.146.056.446.147.667.202l.401.101.013-5.56.013-5.56.648 1.917c.356 1.055 1.525 4.5 2.598 7.656m16.312-5.126c.366.654 1.173 2.009 1.791 3.011.619 1.002 1.125 1.872 1.124 1.933 0 .108-7.905 3.86-8.132 3.86-.064 0-.488-.807-.941-1.792a224 224 0 0 0-1.542-3.274c-.394-.815-.716-1.565-.716-1.667.002-.163 7.164-3.237 7.582-3.253.092-.004.467.528.834 1.182m15.95 1.633c-.89.437-1.64.775-1.667.752s.31-.81.75-1.748l.8-1.706.866.954.867.954zm-6.824.452 3.791 1.635v8.235l-1.041-.464c-1.036-.462-1.042-.469-1.092-1.211l-.05-.747-2.908-1.31-2.909-1.308v-3.324c0-2.596.046-3.303.209-3.232.114.05 1.914.827 4 1.726m8.653 4.073-.037 4.345-.84 2.442a494 494 0 0 0-1.93 5.775c-.6 1.834-1.167 3.409-1.261 3.5-.118.114-.14.035-.069-.25.057-.229.105-4.447.106-9.373l.003-8.957 1.958-.984c1.077-.542 1.992-.952 2.033-.913s.058 2.026.037 4.415m-25.604-.813c1.398 2.859 1.599 3.403 1.2 3.246-1.863-.735-5.744-2.372-5.855-2.47-.115-.1 2.988-3.64 3.198-3.649.028 0 .684 1.292 1.457 2.873m35.396-.974.737.385-.737.423a945 945 0 0 1-3.546 2.005l-2.81 1.582-1.19-.55-1.191-.55-.05-.932c-.033-.61.015-.93.138-.93.104 0 .654.186 1.223.413l1.035.414 2.577-1.323c1.417-.728 2.69-1.324 2.827-1.323.137 0 .581.174.987.386m1.18 6.555v5.29l-2.459-2.426a472 472 0 0 0-3.458-3.384c-.816-.781-.954-.988-.75-1.12.629-.407 6.43-3.639 6.542-3.644.068-.003.125 2.375.125 5.285m-25.78-4.122c-.075.07-.737.392-1.47.714-.734.323-2.065.928-2.959 1.347l-1.625.76v.714c0 .692-.027.728-.878 1.172-.482.252-.932.458-1 .458s-.122-.53-.122-1.176v-1.177l2.125-.994c1.169-.548 2.988-1.39 4.042-1.873l1.917-.877.054.402c.03.222-.007.46-.083.53m-11.43 1.841c1.123.48 2.042.926 2.042.99 0 .102-1.354 1.317-2.196 1.971-.248.193-.479-.047-2.042-2.12-.97-1.286-1.762-2.373-1.762-2.415 0-.087 1.021.319 3.958 1.574m-2.706 1.16 1.914 2.554-.357.597c-.196.328-1.096 1.906-2 3.506l-1.642 2.909v-6.145c0-3.38.038-6.107.085-6.06.047.046.946 1.234 2 2.639m17.727-1.282c1.41.658 2.557 1.26 2.55 1.337-.013.12-2.358 1.272-4.612 2.264l-.667.293-1.917-.89c-1.054-.49-2.28-1.063-2.723-1.272l-.806-.38 2.723-1.27c1.498-.697 2.76-1.27 2.806-1.273s1.237.533 2.646 1.19m13.241.553.894.438.11 4.005c.06 2.203.11 4.705.11 5.56v1.553l-.996.503c-.547.276-1.035.502-1.083.502s-.088-2.925-.088-6.5.035-6.5.08-6.5c.043 0 .481.197.973.439m6.61 5.674c1.144 1.117 2.044 2.066 2 2.107s-1.599.835-3.455 1.762l-3.375 1.686v-10.226l1.375 1.32c.756.726 2.311 2.234 3.455 3.351m-32.43 6.554c-.117.907-.129.872-1.251-3.584-.624-2.475-1.137-4.69-1.141-4.921-.006-.32.286-.68 1.2-1.486l1.209-1.063.05 5.069c.027 2.787-.003 5.48-.068 5.985m16.1-8.74v2.096l.376-.117c.206-.064.814-.336 1.35-.605.536-.27 1.006-.458 1.044-.42.038.037.05 2.399.025 5.247l-.044 5.178-1.627-1.778a279 279 0 0 0-4.292-4.528l-2.664-2.75.042-.893.04-.893 2.75-1.298c1.513-.715 2.807-1.307 2.876-1.316s.125.926.125 2.078m-9.4-.705 2.65 1.223.05.854.05.854-3.3 3.547a834 834 0 0 1-4.255 4.548l-.955 1.001-.004-5.2-.003-5.2.625.26c.344.144.904.403 1.244.575.34.174.696.315.791.315.11 0 .174-.727.174-2 0-1.1.063-2 .141-2s1.335.55 2.792 1.223m-14.824 8.223c-.035.035-1.531-.706-3.326-1.646s-3.249-1.721-3.232-1.735l3.282-2.557 3.25-2.53.044 4.203c.025 2.311.017 4.23-.018 4.265m11.057-7.365v.748l-.84-.331c-.461-.182-.892-.337-.958-.345-.132-.016 1.476-.793 1.673-.81.069-.005.125.327.125.738m15.439-.112c.258.144.182.189-1.397.817-.148.06-.208-.136-.208-.678v-.76l.67.237c.37.13.79.303.935.384m5.389 4.823-.007 4.958-1.952.935c-1.074.514-1.973.919-1.998.899-.051-.04 3.856-11.75 3.92-11.75.024 0 .04 2.23.037 4.958m-25.376 1.25c.729 2.956 1.28 5.394 1.224 5.418-.139.059-6.732-3.348-6.747-3.487-.02-.172 3.975-7.303 4.092-7.305.058 0 .702 2.417 1.43 5.374m11.05 3.794v6.67l-4.21-2.108c-2.314-1.16-4.234-2.132-4.266-2.16s1.548-1.762 3.512-3.853a515 515 0 0 0 4.203-4.51c.348-.39.661-.708.696-.708s.064 3.001.064 6.67m7.205-.004c1.159 1.238 2.053 2.305 1.988 2.372-.136.138-8.141 4.295-8.273 4.295-.047 0-.086-3.013-.086-6.695v-6.696l2.133 2.237c1.173 1.23 3.08 3.25 4.238 4.487m-64.864-40.324c-.326.757-1.576 3.752-2.777 6.657-1.201 2.904-2.247 5.242-2.324 5.194-.275-.17-4.815-9.438-4.681-9.555.075-.065 1.486-.593 3.136-1.173s3.9-1.374 5-1.766 2.054-.717 2.12-.722c.064-.005-.149.61-.474 1.365m6.275 8.233c2.737 5.024 4.959 9.152 4.938 9.173-.021.02-.635-.148-1.365-.377a1734 1734 0 0 0-13.285-3.986c-.527-.151-.959-.333-.959-.405 0-.127 2.007-5.052 4.25-10.43.612-1.466 1.153-2.8 1.203-2.964s.124-.264.166-.222 2.315 4.187 5.052 9.21m-14.37-.823c1.31 2.615 2.355 4.783 2.321 4.817s-3.619-1.137-7.966-2.602c-4.348-1.465-8.056-2.667-8.239-2.67-.295-.008-.285-.035.083-.234.23-.123 2.63-1.023 5.334-1.998s5.066-1.841 5.25-1.924c.183-.083.446-.149.583-.147.16.001 1.111 1.72 2.634 4.758m-14.72 1.046.606.996-1.718 2.129a364 364 0 0 0-3.218 4.055c-2.473 3.176-2.227 2.96-3.687 3.24-.71.135-1.312.224-1.339.197s1.321-1.852 2.996-4.057a1000 1000 0 0 0 4.364-5.782c.726-.976 1.336-1.774 1.356-1.774s.308.448.64.996m8.753 1.754c4.17 1.404 7.816 2.638 8.101 2.742l.518.19-2.659 6.367c-1.462 3.502-2.676 6.386-2.697 6.408-.046.048-.598-.827-4.188-6.624a1512 1512 0 0 0-4.572-7.333c-2.992-4.757-2.929-4.64-2.378-4.419.16.065 3.704 1.266 7.875 2.67m-3.33 7.249a970 970 0 0 0 4.158 6.666c.154.23.45.698.656 1.042l.376.625-.722-.311a761 761 0 0 1-4.472-1.986 890 890 0 0 0-7.083-3.122c-1.833-.795-3.387-1.497-3.453-1.559-.129-.12.665-1.186 4.084-5.49 1.935-2.434 2.18-2.685 2.367-2.416.115.165 1.955 3.113 4.088 6.55m18.997-2.255c2.98.888 6.274 1.878 7.322 2.2l1.905.586-3.239 1.212c-1.78.667-5.675 2.166-8.654 3.332l-7.075 2.767c-.912.356-1.689.618-1.726.58-.037-.037.269-.878.68-1.87.412-.99 1.477-3.564 2.367-5.718s1.72-4.157 1.841-4.45c.201-.483.267-.52.692-.394zm6.127 5.297c-.53.812-8.92 14.092-9.39 14.864-.275.452-.576.847-.668.878-.093.03-1.871-2.01-3.952-4.535-3.092-3.751-3.731-4.612-3.492-4.703.16-.061 4.192-1.63 8.959-3.487s8.694-3.38 8.727-3.384c.034-.004-.05.161-.184.367m-28.96 2.34c7.85 3.39 9.19 3.985 9.117 4.057-.035.035-1.37.436-2.965.89l-2.902.827-2.203-1.25-2.202-1.252-2.2-2.618a1411 1411 0 0 1-2.464-2.939c-.326-.394-.999-.658 5.82 2.285m29.795 5.881-.046 2.763-4.917 2.384c-2.704 1.311-4.94 2.364-4.968 2.339-.049-.043 1.034-1.782 7.313-11.748l2.572-4.084.046 2.792c.025 1.535.025 4.035 0 5.554m-33.82-5.103 2.335 2.743-.095 3.924c-.052 2.158-.112 3.945-.133 3.971s-.568-1.511-1.214-3.417a535 535 0 0 0-2.356-6.762c-.649-1.814-1.18-3.348-1.18-3.408 0-.155.044-.106 2.644 2.95m-1.44 2.256c2.23 6.385 3.106 8.997 3.035 9.067-.039.039-1.158-.485-2.487-1.165l-2.417-1.235.009-5.833.008-5.834.343.834c.188.458.867 2.333 1.508 4.166m15.464 8.268c0 6.295-.017 6.679-.292 6.58-.16-.058-1.627-.723-3.259-1.477l-2.968-1.37.11-4.334c.061-2.383.139-4.363.173-4.4.08-.084 5.749-1.657 6.028-1.672.163-.009.208 1.43.208 6.673m4.668-1.732c3.265 3.939 3.657 4.475 3.41 4.656-.154.112-1.847 1-3.762 1.972l-3.483 1.768v-6.424c0-3.533.033-6.424.073-6.424s1.733 2.003 3.762 4.452M31.773-73.86l.328 1.104 1.648 1.051c1.069.682 1.643 1.15 1.633 1.334-.01.155-.192 1.046-.407 1.98l-.39 1.698.697.993c.383.546.74 1.11.795 1.251.064.165-.457 1.003-1.442 2.322l-1.54 2.064-2.161.203c-1.188.11-2.186.176-2.218.144-.032-.031-.104-.466-.16-.965l-.101-.909 1.54-2.292c.847-1.261 1.509-2.322 1.47-2.357-.037-.035-.78.374-1.65.909-.872.535-1.64.977-1.71.981-.068.005-.124-.122-.124-.282 0-.268-.543-3.25-1.07-5.875-.118-.596-.256-.971-.304-.834-.048.138-.409 2.144-.802 4.46l-.714 4.208-.43-.283c-1.708-1.124-3.03-1.924-3.088-1.866-.038.038.636.93 1.496 1.983 1.273 1.558 1.566 2.02 1.572 2.476l.006.56-.708-.098c-.39-.054-1.533-.147-2.542-.207l-1.833-.108-1.358-2.611-1.359-2.611 1.011-1.66c1.007-1.652 1.012-1.666 1.141-3.326.071-.917.134-1.822.14-2.01.007-.294.317-.441 2.081-.99l2.073-.645 1.338-1.45 1.337-1.45 2.738 1.002 2.738 1.003zM4.48-74.5c0 .97.086 1.34.5 2.161.677 1.341.654 1.998-.114 3.296-.338.57-.67 1.038-.737 1.038-.068 0-.392-.43-.72-.953-.78-1.249-.805-2.143-.096-3.547.403-.8.5-1.201.5-2.079 0-.977.034-1.088.333-1.088.302 0 .334.111.334 1.172m10.833-.59c0 .111-5.782 6.7-5.996 6.833-.113.07-.17-.618-.167-2.03l.004-2.135 1.871-.822a81 81 0 0 0 2.955-1.367c1.08-.543 1.333-.634 1.333-.48m.833 2.233c0 2.059-.032 2.324-.291 2.403-.16.049-1.53.613-3.042 1.255-1.512.64-2.774 1.141-2.804 1.112-.057-.056 5.972-7.084 6.077-7.084.033 0 .06 1.041.06 2.314m1.395-1.55.645.733-.118 1.737-.118 1.738-.61-.21-.61-.212-.047-2.275c-.025-1.251.012-2.268.084-2.26.071.01.42.346.774.75m1.53-.078c.94.416 1.034.592.389.734-.463.102-.602.034-1.21-.586-.753-.769-.632-.79.821-.148M.9-72.16c.062.282.087.949.055 1.482l-.058.968 1.084.728c1.256.843 1.616 1.44 1.773 2.947.131 1.258.071 1.272-1.461.362C.569-66.698.147-67.501.147-69.758c0-1.826.16-2.915.426-2.915.118 0 .265.23.327.512m7.08 1.91c0 2.526-.14 3.218-.768 3.773-.382.338-2.37 1.472-2.58 1.472-.242 0-.175-1.392.104-2.183.315-.892.76-1.38 1.786-1.956l.792-.445v-1.541c0-1.43.024-1.542.333-1.542.318 0 .334.111.334 2.422m19.403 6.454.117.793.698-.473c1.072-.726 1.188-.783 1.028-.513-.076.128-.462.65-.858 1.16l-.72.925.403 2.908c.222 1.599.453 3.301.515 3.782l.112.875h-2.016c-1.81 0-2.015-.03-2.01-.291.002-.16.214-1.732.47-3.491l.465-3.2-.596-.617-.595-.616.56.381c.366.25.596.32.67.201.06-.099.288-1.44.505-2.981s.436-2.875.487-2.964c.08-.14.34 1.261.765 4.12m-6.07 11.541-1.412 1.42-5.294-5.292-5.294-5.292v-5.668l6.706 6.706 6.707 6.707zM-.87-60.763l.017 3.16-.984.923c-.542.508-2.053 1.935-3.358 3.173-1.623 1.54-2.332 2.118-2.243 1.833.186-.6 3.018-7.474 4.807-11.667l1.528-3.583.108 1.5c.059.825.115 2.922.125 4.66m3.852-3.44c.475.578.832 1.737.832 2.705 0 .27-.052.492-.115.492-.302 0-2.4-1.387-2.778-1.836-.5-.594-.771-1.46-.773-2.465v-.717l1.175.617c.646.34 1.393.882 1.659 1.205m5.113-.722c-.112 1.197-.277 1.606-.926 2.306-.39.42-2.297 1.612-2.58 1.612-.171 0-.125-1.351.072-2.058.097-.352.416-.894.707-1.204.512-.544 2.344-1.738 2.669-1.738.095 0 .118.436.058 1.082m30.12 8.13c1.155 2.912 2.1 5.337 2.1 5.39 0 .05-1.538-1.389-3.418-3.2-2.88-2.776-3.416-3.367-3.416-3.77q-.001-.476.95-1.763c1.007-1.366 1.581-2.06 1.646-1.994.022.023.984 2.424 2.138 5.337m-36.88-4.687c1.182.63 2.06 1.553 2.3 2.421.172.619.249 2.054.11 2.054-.037 0-.602-.308-1.254-.684-1.242-.716-1.836-1.35-2.154-2.3-.2-.596-.262-2.016-.088-2.016.056 0 .545.236 1.086.525m6.738.51c-.14 1.238-.412 1.927-.946 2.397-.415.366-2.365 1.568-2.543 1.568-.168 0-.116-1.364.078-2.063.23-.83 1.156-1.8 2.319-2.433.504-.274.982-.5 1.063-.501s.094.458.03 1.031m24.965 2.59c.1.613.069.66-1.555 2.285-.911.913-1.693 1.623-1.738 1.579-.086-.087-.599-3.36-.599-3.826 0-.226.273-.31 1.459-.444 2.46-.28 2.317-.303 2.433.407m-31.465.97c.544.327 1.155.75 1.357.938.516.482.883 1.682.883 2.885 0 1.114.098 1.347.443 1.06.145-.12.225-.573.227-1.29.007-1.86.687-2.835 2.698-3.87.969-.498 1.024-.453.891.723-.154 1.364-.507 2.073-1.297 2.607a39 39 0 0 0-1.47 1.064l-.825.629v1.407c0 1.236-.04 1.428-.334 1.585-.32.172-.333.127-.335-1.202-.002-.762-.095-1.562-.209-1.785s-.762-.786-1.441-1.254C.722-54.904.282-55.6.177-57.04c-.085-1.177.014-1.203 1.397-.372m36.907 5.034 1.75 1.7-2.186.002-2.186.002-1.024-2.958c-.563-1.627-1.023-3.032-1.022-3.122s.657.476 1.46 1.256 2.245 2.185 3.208 3.12m-40.49-1.296c-.55 1.583-1.03 2.909-1.066 2.945s-1.022.044-2.192.019l-2.126-.047 3.128-2.962c1.72-1.63 3.156-2.933 3.191-2.898s-.386 1.36-.936 2.943m13.963 3.93-4.096 4.078-2.77-.045-2.771-.046 5.454-5.467 5.454-5.467 1.412 1.435 1.412 1.435zm12.343 1.004-4.6 4.601-1.444-1.476-1.443-1.476 3.21-3.119 3.212-3.12 2.833-.005 2.833-.006zM-2.94-49.88c.064.16.557 1.554 1.097 3.096l.981 2.805-2.288-2.138a308 308 0 0 0-3.358-3.097l-1.07-.958h2.262c1.997 0 2.274.034 2.376.292m42.34.585a621 621 0 0 0-2.732 2.415c-1.509 1.34-2.353 1.848-2.356 1.416 0-.068.347-1.156.772-2.416l.773-2.292 2.27.002 2.27.003zM18.45-42.22l-.982 1.202.797.404c1.406.71 3.043 1.137 3.913 1.019l.781-.106.186.722c.102.398.481 1.498.843 2.446.69 1.806.907 3.527.445 3.527-.176 0-10.127-9.898-13.282-13.211l-.912-.958 1.41-1.418 1.41-1.417 3.187 3.293 3.186 3.294zm-21.53-3.15 2.524 2.368-.2.79-.202.79-1.618.047-1.618.048-.345-.798c-.624-1.443-2.981-7.26-2.981-7.358 0-.053.431.318.958.825s2.094 1.986 3.482 3.288m42.35-1.328c-.778 1.894-1.103 2.514-1.29 2.457a62 62 0 0 1-1.395-.475l-1.144-.4 2.374-2.119c1.306-1.164 2.401-2.09 2.435-2.056s-.407 1.2-.98 2.593m-8.299.933c1.671.345 1.96.455 2.333.892.349.408.637.536 1.592.702 1.675.292 2.537.718 3.625 1.792.527.52.959.99.959 1.045s-.656.267-1.459.474l-1.458.375-.963-.428c-.53-.234-.988-.427-1.018-.427s-.1.366-.152.812c-.053.447-.435 1.853-.849 3.125-.413 1.273-.802 2.726-.863 3.23-.094.771-.22 1.031-.8 1.639-1.71 1.794-3.673 1.843-5.375.134-.77-.773-.865-.95-.97-1.817-.065-.528-.487-2.085-.939-3.46s-.82-2.759-.82-3.074v-.574l-1.11.418-1.11.417-1.099-.34c-1.637-.506-1.627-.484-.68-1.546.998-1.12 1.83-1.551 3.498-1.81 1.039-.162 1.32-.276 1.667-.674.344-.395.719-.548 2.166-.882a80 80 0 0 1 1.834-.41c.046-.004.942.17 1.991.387M8.314-42.923v1.75H.647v-3.5h7.667zm17.017 2.683c-.193.245-.35.509-.35.587 0 .129 1.523.98 1.754.98.054 0 .075-.304.047-.675-.042-.547-.15-.736-.576-1.005l-.525-.332zm6.691-.082c-.459.295-.541.448-.541.999 0 .357.04.65.089.65.204 0 1.744-.849 1.743-.961 0-.067-.169-.328-.375-.58l-.374-.457zM3.981-38.59v1.75h-7.834v-3.5h7.834zm8.666 0v1.75H4.814v-3.5h7.833zm23.5-.993c0 .29-2.243 5.577-2.365 5.577-.247 0 .023-1.159.634-2.722.316-.81.62-1.804.676-2.209.092-.675.14-.736.578-.736.263 0 .477.04.477.09m-36.5 5.327v1.75h-7.666v-3.5h7.666zm8.667 0v1.75H.481v-3.5h7.833zm8.667 0v1.75H9.314v-3.5h7.667zm10.666.087c0 .094.3.496.667.893.367.398.667.81.667.913 0 .105.075.19.166.19s.167-.085.167-.19c0-.104.3-.515.667-.913.366-.397.666-.8.666-.893 0-.104-.589-.17-1.5-.17-.91 0-1.5.066-1.5.17m-1.683 2.562c.643.656 1.255 1.02 2.262 1.345.25.081-.31.447-2.334 1.528-5.65 3.017-8.448 4.431-8.307 4.2.08-.134 1.56-1.902 3.287-3.931 1.893-2.224 3.283-3.717 3.5-3.76.756-.147.893-.094 1.592.618m-5.759 3.202a1450 1450 0 0 1-3.18 3.72l-.373.429.04-2.383.039-2.383 3.083-1.388c1.696-.763 3.11-1.365 3.141-1.337s-1.206 1.531-2.75 3.342m-7.035-1.88 2.894 1.222.038 2.403.038 2.404-.593-.667c-1.739-1.955-5.55-6.583-5.42-6.583.082 0 1.451.55 3.043 1.221m-1.089 2.07a509 509 0 0 0 2.969 3.52c.342.39.334.389-.57-.065-1.274-.64-12.234-6.435-12.319-6.515-.038-.035 1.589-.065 3.615-.065h3.685zm-61.307-48.496c-2.918 1.58-6.05 3.087-6.157 2.962-.066-.077-.259-.615-.428-1.195-.252-.859-.268-1.08-.09-1.19.122-.075.904-.226 1.74-.336.835-.11 2.306-.335 3.268-.498 2.762-.47 2.954-.44 1.667.257m.474 4.007c-.662 2.282-1.209 4.162-1.216 4.179-.008.017-.749-.126-1.647-.317l-1.634-.347-.905-1.806c-.498-.993-.905-1.865-.905-1.938s.956-.632 2.125-1.242c1.168-.61 2.835-1.485 3.704-1.944.868-.459 1.602-.811 1.63-.784s-.491 1.918-1.152 4.2m-7.902-2.145c.27.661.45 1.242.403 1.29-.08.08-1.924-.116-3.613-.384l-.72-.114 1.47-1.031c.81-.567 1.584-1.016 1.72-.998.14.019.466.563.74 1.237m12.325.61c.423.496.77.94.77.986s-.825-.19-1.834-.522c-1.324-.438-1.833-.68-1.833-.874 0-.424.16-.491 1.174-.491.946 0 .957.006 1.723.901m-1.376.917c2.12.657 2.58.847 2.381.983-.094.064-.815.81-1.604 1.658-1.396 1.5-1.44 1.574-1.64 2.695-.168.937-.272 1.17-.557 1.247-.74.199-.917.103-1.266-.687-.191-.432-.449-.9-.572-1.041-.19-.217-.161-.477.179-1.673.917-3.222 1.073-3.667 1.292-3.667.124 0 .928.218 1.787.485m-12.038.197 1.732.21.81 1.727c.444.95.808 1.77.808 1.823 0 .051-.116.05-.259-.006-.142-.054-.761-.177-1.375-.273-.613-.096-1.241-.213-1.395-.26-.154-.046-.833-.775-1.51-1.618-1.627-2.031-1.624-2.026-1.028-1.908.266.053 1.264.19 2.217.305m3.267 4.813c4.349.815 4.417.83 4.417 1.03 0 .17-3.153 4.118-3.556 4.452-.158.131-.66.188-1.388.156l-1.14-.05-1.62-3.083c-.89-1.696-1.621-3.15-1.624-3.23-.007-.182.352-.129 4.911.725m-5.196.047c.22.39 1.003 1.88 1.739 3.313l1.338 2.605-1.083 1.725c-1.01 1.61-3.524 5.494-3.64 5.623-.028.032-1.276.344-2.771.692-1.496.35-2.91.683-3.141.743l-.421.108-.813-4.102c-.697-3.517-.78-4.135-.58-4.33.487-.475 8.74-7.076 8.853-7.08.065-.003.298.313.519.703m11.945 5.493c.825 2.166 1.496 4.037 1.489 4.16-.007.122-.273.439-.592.704-.532.443-.63.468-1.196.303-.34-.099-1.048-.302-1.574-.452-.903-.257-1-.337-1.675-1.386a54 54 0 0 1-1.266-2.076l-.548-.963 1.802-2.242c.99-1.233 1.86-2.184 1.93-2.114.071.071.805 1.9 1.63 4.066m4.235-2.932c.885.42 1.294.71 1.35.958.42 1.862.427 1.76-.17 2.42-.505.56-.7.644-2.088.91-.842.162-1.55.27-1.574.243-.07-.08-1.585-4.112-1.585-4.216 0-.143 2.083-.845 2.69-.907.06-.006.68.26 1.377.592m-9.915 4.66c.407.69.339.905-.287.902-.328-.002-.55-.158-.824-.581-.45-.696-.451-.706-.083-.802.653-.17.858-.088 1.194.481m-19.701 6.404c-1.588 3.53-3.293 7.373-3.79 8.542s-.96 2.125-1.032 2.125c-.071 0-.132-.77-.136-1.709-.003-.94-.075-4.07-.159-6.958s-.107-5.908-.052-6.712c.09-1.306.138-1.47.451-1.539.89-.197 7.52-.489 7.56-.332.025.091-1.254 3.054-2.842 6.583m17.032-3.106.017 1.477-1.187 1.773a92 92 0 0 1-1.255 1.846c-.117.13-1.892-1.719-1.892-1.97 0-.132.92-1.61 2.042-3.282l2.042-3.04.108.859c.06.473.116 1.524.125 2.337m-13.07.356c.74 3.81.804 4.656.634 8.394l-.13 2.894-.834.306c-1.298.478-8.163 2.794-8.195 2.765-.024-.022 2.704-6.172 6.685-15.072.627-1.4 1.158-2.526 1.182-2.5s.32 1.471.658 3.213m27.802-2.241c.593.865.624.97.479 1.62-.086.381-.35 1.022-.584 1.424l-.428.73-1.716.107c-.944.058-3.473.191-5.62.295l-3.903.188-.715-.812c-.394-.446-.717-.924-.718-1.061-.005-.438.617-1.634.934-1.797.936-.48 1.16-.413 1.788.53.562.848.666.92 1.807 1.261a277 277 0 0 1 2.081.63c.865.266.873.265 1.25-.137.209-.222.671-.642 1.028-.933l.647-.53-.186-.74c-.103-.408-.23-.856-.284-.995-.078-.203.165-.306 1.205-.509 2.019-.394 2.195-.35 2.935.729m-13.32 4.301c.264.292.256.38-.14 1.479-.445 1.232-.532 1.957-.255 2.128.091.056.166.174.166.261 0 .139-6.586 5.489-6.757 5.489-.035 0 .26-.47.658-1.042 1.44-2.078 4.49-6.566 5.15-7.583.373-.573.727-1.042.788-1.042.06 0 .236.14.39.31m12.601 1.35c.185.363.337.985.337 1.381 0 .642-.087.806-.792 1.488l-.791.766-4.857-.189-4.857-.19-.342-.416c-.753-.918-.793-1.118-.427-2.14l.34-.943 3.904-.182c2.148-.1 4.635-.193 5.527-.208l1.621-.027zm-17.998.852 1.047 1.178-2.281 3.363a357 357 0 0 1-2.49 3.642c-.191.255-.379.211-2.2-.518-1.215-.487-1.99-.888-1.988-1.03.002-.126.067-1.592.144-3.257l.14-3.027 2.94-.694a160 160 0 0 0 3.106-.752c.412-.142.597-.014 1.582 1.095m6.198 3.071c.18.23.466.417.636.417.769 0 .84.14.505.99-.31.786-.31.8.03 1.36.771 1.277 1.29 1.786 1.93 1.894.345.058.716.161.825.229.208.128 4.283 12.51 4.158 12.635-.039.04-2.124-.265-4.634-.676s-5.857-.958-7.438-1.214c-1.581-.257-2.875-.526-2.875-.598s1.045-2.664 2.323-5.76c1.277-3.097 2.545-6.189 2.818-6.87.806-2.016 1.174-2.823 1.287-2.823.06 0 .255.187.435.416m-3.315 4.625c-1.053 2.59-2.397 5.9-2.987 7.358-.589 1.457-1.112 2.715-1.162 2.796-.097.156-.872-.251-3.777-1.983l-1.794-1.07.89-1.28c.489-.703 1.404-2.025 2.033-2.936.628-.91 1.403-1.886 1.721-2.166.924-.815 6.767-5.417 6.885-5.422.058-.003-.756 2.114-1.809 4.703m11.33-3.934 1.762.108.442.812.442.811-.334.54a6 6 0 0 1-.803.98l-.47.443-1.75-.225c-4.276-.55-4.31-.56-4.76-1.22-.48-.71-.49-.81-.139-1.686l.268-.67h1.79c.984 0 2.582.048 3.552.107m-.357 4.613 1.271.196 1.8 2.334c.989 1.283 1.91 2.523 2.044 2.756.239.41.185.512-1.88 3.551-1.169 1.721-2.148 3.106-2.175 3.077s-.773-2.339-1.656-5.134c-.884-2.796-1.749-5.515-1.922-6.042l-.314-.958.78.012c.43.007 1.353.1 2.052.208m5.87 10.655c.052 1.718.05 3.125-.003 3.125-.393 0-4.221-1.246-4.221-1.374 0-.09.494-.885 1.097-1.77.604-.883 1.485-2.182 1.959-2.885l.86-1.278.106.528c.058.29.148 1.935.201 3.654m-24.073-2.067c1.229.741 2.316 1.376 2.417 1.412.252.088-.153.524-2.385 2.569-1.352 1.238-1.936 1.677-2.02 1.518-.065-.123-.207-1.537-.315-3.14-.108-1.605-.23-3.132-.271-3.393-.093-.594-.19-.632 2.574 1.034m11.168 3.11c3.629.598 6.773 1.126 6.986 1.174.343.077-.076.561-3.667 4.234l-4.054 4.147-.308-.36c-.17-.197-.839-1.26-1.487-2.36a250 250 0 0 0-2.983-4.878c-.993-1.582-1.805-2.913-1.805-2.959 0-.176.922-.05 7.318 1.003m-8.542-.294c-.044.16-.328 1.81-.631 3.666-.303 1.857-.6 3.375-.66 3.375-.111 0-3.032-3.118-3.114-3.324-.025-.063.687-.76 1.583-1.547.896-.788 1.85-1.664 2.119-1.947.546-.575.823-.663.703-.223m2.327 2.172c2.82 4.553 4.608 7.547 4.544 7.61-.035.036-1.076-.253-2.314-.641-4.997-1.567-5.167-1.631-5.167-1.954 0-.169.263-1.841.584-3.717s.583-3.49.583-3.587c0-.45.36.016 1.77 2.29m16.776.136c1.12.33 2.055.617 2.076.636s-.818 1.063-1.864 2.32l-1.903 2.284-.094-.712c-.11-.841-.426-4.417-.427-4.837 0-.16.038-.292.087-.292s1.004.27 2.125.601m-2.394 2.834c.24 2.007.232 2.894-.027 2.97-.888.264-7.881 1.728-7.945 1.664-.045-.045 1.64-1.805 3.744-3.911l3.826-3.83.11.794c.06.437.192 1.478.292 2.313m-82.52-34.527c0 12.203-.007 12.447-.314 12.125-.664-.695-7.02-8.958-7.02-9.126 0-.098 1.34-2.996 2.98-6.44a1007 1007 0 0 0 3.606-7.638c.345-.756.654-1.375.687-1.375s.06 5.604.06 12.454m1.155-11.746c.17.39 1.15 2.434 2.176 4.542 4.646 9.54 4.902 10.121 4.65 10.534-.232.38-6.663 8.587-7.087 9.043-.191.206-.227-1.71-.227-12.291 0-6.895.04-12.536.09-12.536s.228.319.398.708m13.762 16.038c2.934.407 6.452.894 7.818 1.08 2.464.335 2.863.43 2.414.574-1.396.446-3.233.99-7.899 2.337-3.024.874-6.287 1.823-7.25 2.108-3.406 1.01-8.574 2.47-8.611 2.432-.021-.021 1.465-1.948 3.302-4.283 1.838-2.334 3.489-4.437 3.668-4.672.237-.311.449-.413.775-.373.248.03 2.85.389 5.783.797m-20.959 1.546c3.208 4.049 5.4 6.906 5.342 6.964-.06.06-.765-.14-10.3-2.933-3.437-1.007-7.3-2.136-8.583-2.51-4.028-1.171-5.112-1.506-5.055-1.563.03-.03 1.518-.253 3.305-.495 4.202-.568 9.974-1.37 11.25-1.563 2.257-.342 2.001-.475 4.041 2.1m-15.04 1.712c3.492 1 12.164 3.537 15.416 4.51 4.173 1.25 5.02 1.521 4.951 1.59-.037.037-1.485.659-3.218 1.38-1.732.723-4.338 1.812-5.79 2.421-1.465.615-2.763 1.065-2.917 1.011-.152-.053-3.014-2.792-6.36-6.087-4.364-4.298-5.941-5.947-5.583-5.837.275.085 1.85.54 3.5 1.012m41.017 4.694c-3.191 3.134-5.99 5.846-6.219 6.026-.414.326-.419.326-1.273-.036-.472-.2-3.128-1.31-5.902-2.468s-5.003-2.146-4.952-2.196c.085-.086 2.138-.696 15.746-4.684a804 804 0 0 0 6.5-1.925c.687-.213 1.397-.394 1.576-.401.207-.01-1.789 2.063-5.476 5.684M-135.61-37.2c-4.148 6.15-7.566 11.157-7.596 11.127s.092-.836.27-1.791l1.006-5.403c1.112-5.985 1.838-9.646 1.981-9.997.098-.24 1.738-1.001 5.953-2.766 3.2-1.34 5.843-2.417 5.873-2.394.03.024-3.34 5.075-7.487 11.224m16.099-8.49c2.658 1.113 4.89 2.08 4.958 2.148.124.123.438 1.64 1.54 7.441.314 1.65.874 4.57 1.244 6.487.37 1.918.643 3.517.606 3.554s-1.49-2.057-3.226-4.653c-1.738-2.597-5.09-7.571-7.45-11.054s-4.329-6.425-4.373-6.537c-.09-.228-.135-.246 6.7 2.615m-8.085 4.63-.003 6.958-7.456 4.274c-4.1 2.35-7.484 4.246-7.52 4.213s1.516-2.406 3.447-5.273c1.93-2.868 5.297-7.89 7.48-11.159 2.185-3.27 3.99-5.951 4.013-5.958s.04 3.118.039 6.945m3.38-3.167c6.753 9.98 12.484 18.57 12.427 18.627-.06.059-2.313-1.22-11.513-6.534l-3.625-2.093v-6.896c0-3.792.033-6.895.073-6.895s1.227 1.706 2.638 3.791m-75.496-31.228c-2.528 3.662-3.468 4.937-3.646 4.944-.157.006-1.628-2.824-1.523-2.93.149-.148 6.23-3.879 6.336-3.887.073-.005-.452.838-1.167 1.873m1.89 1.7c-.054.143-2.557 1.71-4.351 2.725-.09.05.252-.505.76-1.233l2.244-3.225 1.324-1.9.048 1.723c.026.947.015 1.806-.024 1.91m5.68-1.005 2.198 1.327-.772 1.465c-.425.805-.824 1.464-.887 1.464-.101 0-4.657-6.359-4.798-6.696-.058-.14.796.35 4.259 2.44m-2.771.508c1.137 1.605 2.09 2.986 2.117 3.068s-.966-.454-2.208-1.19l-2.259-1.34v-1.728c0-.95.064-1.729.141-1.729.078 0 1.072 1.314 2.209 2.92m-9.672 2.5c.36.78.656 1.456.656 1.5 0 .103-5.26.066-9.584-.067l-3.333-.103 3.333-.813c1.834-.447 4.309-1.06 5.5-1.36 1.192-.3 2.303-.553 2.47-.561.222-.012.475.36.958 1.404m18.595-.67c4.337 1.035 7.075 1.742 7.354 1.898.13.072-1.74.181-4.154.242-5.203.13-8.306.141-8.306.03 0-.045.317-.72.704-1.5.462-.932.799-1.42.981-1.42.153 0 1.692.338 3.421.75m-8.106 1.46c2.229 1.32 2.682 1.516 5.833 2.52 1.88.598 4.317 1.375 5.417 1.727l2 .639.044 6.39.043 6.391-.764 2.937c-1.74 6.683-1.695 6.564-3.616 9.478a278 278 0 0 0-2.929 4.542c-.659 1.054-1.366 2.037-1.571 2.184-.206.148-1.962 1.441-3.903 2.875s-3.573 2.607-3.625 2.607-.096-9.946-.096-22.102v-22.103l.375.243c.207.133 1.463.886 2.792 1.673m-3.667 20.31c0 21.927-.001 22.02-.33 21.791-1.16-.801-5.92-4.35-6.739-5.023-.788-.647-1.325-1.351-2.679-3.508a422 422 0 0 0-2.824-4.438c-1.236-1.902-1.325-2.147-2.832-7.76l-.896-3.333-.058-6.57-.058-6.572 5.166-1.634c2.842-.899 5.242-1.636 5.334-1.637s1.404-.75 2.916-1.664c1.513-.912 2.806-1.662 2.875-1.666.07-.004.125 9.903.125 22.014m-8.833-19.04 1.083.103-4.583 1.433-4.583 1.433-1.417-1.21c-.78-.667-1.6-1.408-1.826-1.647l-.408-.436 5.325.111c2.93.061 5.813.157 6.409.213m30-.253c0 .033-.82.781-1.82 1.663l-1.821 1.603-2.638-.843c-5.566-1.78-6.63-2.141-6.388-2.167.292-.031 8.257-.24 10.875-.286.986-.017 1.792-.004 1.792.03m-39.958 2.247 1.625 1.413.001 2.098c.001 1.154.04 3.56.087 5.348.06 2.266.034 3.149-.085 2.916-.133-.261-3.06-10.818-3.598-12.983-.155-.622-.09-.581 1.97 1.208m38.445 5.055a869 869 0 0 1-1.829 6.637c-.071.23-.135-1.983-.141-4.917l-.012-5.333 1.79-1.55c1.183-1.026 1.806-1.467 1.84-1.304.028.135-.713 3.045-1.648 6.467m-39.173.054c2.226 8.219 2.52 9.337 2.52 9.613 0 .19-.405.32-1.623.522-.893.148-1.668.216-1.723.15-.055-.065-.229-2.819-.386-6.119-.377-7.917-.454-10.034-.358-9.833.044.092.75 2.642 1.57 5.667m41.126-2.459c-.187 4.886-.576 12.734-.635 12.793-.03.03-.393-.006-.805-.08a36 36 0 0 0-1.709-.248c-.933-.11-.955-.125-.86-.56.154-.707.962-3.734 2.341-8.78a441 441 0 0 0 1.447-5.375c.094-.39.207-.708.252-.708s.03 1.331-.031 2.958m-37.346 16.936c.417 1.545.732 2.836.7 2.868s-.389-.37-.793-.893a403 403 0 0 0-2.473-3.143c-.957-1.204-1.748-2.253-1.759-2.33-.01-.078.693-.258 1.564-.4l1.584-.26.21.674c.115.37.55 1.938.967 3.484m36.54-3.64c.047.039-3.579 4.641-4.658 5.913-.453.534-.487.548-.4.166a480 480 0 0 1 1.666-6.428c.04-.125.558-.105 1.7.065.903.134 1.664.262 1.692.284m-38.252 4.266c3.073 3.938 2.96 3.754 2.517 4.112-1.268 1.03-2.253 1.737-2.321 1.668-.062-.061-1.668-5.073-2.82-8.8-.175-.567-.161-.55 2.624 3.02m37.793-1.758c-.269.818-.914 2.838-1.435 4.488-.52 1.65-.974 3.03-1.007 3.067-.094.103-2.566-1.831-2.566-2.008 0-.085.243-.514.541-.953.701-1.032 4.833-6.203 4.902-6.134.03.028-.167.722-.435 1.54m-32.2 9.835c1.314 2.068 2.364 3.784 2.332 3.812-.076.07-7.288-5.462-7.299-5.598-.008-.109 2.344-1.973 2.492-1.974.046-.001 1.16 1.691 2.474 3.76m28.407-2.619c.524.401.952.752.952.78s-1.144.933-2.541 2.01a422 422 0 0 0-3.678 2.861c-.625.497-1.16.878-1.188.846-.06-.068 3.897-6.294 4.513-7.102.357-.469.455-.515.702-.334.158.116.716.539 1.24.94m-28.214 5.43c1.512 1.175 2.85 2.228 2.971 2.341.182.168.082.482-.56 1.762-.734 1.46-.798 1.536-1.027 1.23-.402-.536-5.642-8.118-5.984-8.659-.28-.44-.19-.4.766.345.596.465 2.321 1.806 3.834 2.981m28.577-3.284c-.57.89-4.139 5.977-5.217 7.438l-1.092 1.479-.759-1.53-.76-1.53.715-.593c1.013-.841 7.273-5.715 7.346-5.719.034-.002-.071.203-.233.455m-21.628 10.345c3.672 4.655 4.032 5.135 3.717 4.949-.518-.307-8.26-5.64-8.471-5.835-.183-.17-.114-.422.394-1.437.741-1.48.87-1.652 1.156-1.542.122.047 1.564 1.786 3.204 3.865m14.292-2.525c.423.795.71 1.498.639 1.563-.124.112-2.747 1.918-6.839 4.708-1.03.703-1.875 1.235-1.875 1.182 0-.134 6.139-7.877 6.691-8.44.248-.252.487-.458.533-.458.045 0 .428.65.851 1.445m-12.439 2.222 2.855 2.083.005 1.744c.004 1.47-.03 1.706-.22 1.5-.19-.207-4.71-6-5.684-7.286-.434-.572-.347-.516 3.044 1.959m8.486-.792c-.675.848-2.073 2.61-3.107 3.917s-1.91 2.375-1.947 2.375-.068-.745-.068-1.655v-1.655l3.042-2.252c1.673-1.238 3.101-2.256 3.174-2.262.073-.005-.42.684-1.094 1.532M16.676 8.25 18.013 13l-.406 2c-.319 1.564-.464 1.993-.67 1.976-.432-.036-10.272-3.635-10.273-3.757C6.662 13.06 12.66 2.752 13.968.666L14.385 0l.477 1.75c.262.961 1.079 3.886 1.814 6.5m2.54-5.045c2.018 1.626 3.995 3.257 4.393 3.625l.724.668-2.793 2.355c-1.537 1.295-2.813 2.339-2.835 2.32-.041-.035-2.113-7.37-2.933-10.383-.23-.848-.375-1.542-.321-1.542s1.748 1.33 3.766 2.957m6.611 9.917.851 4.29-2.445 2.665c-1.344 1.467-2.502 2.63-2.573 2.587-.113-.07-3.25-4.364-3.548-4.857-.063-.105.089-1.185.339-2.399l.454-2.207 2.92-2.46c2.34-1.972 2.943-2.406 3.036-2.185.063.151.498 2.206.966 4.565M7.172 19.165c.703 2.475 1.255 4.527 1.227 4.56-.029.034-1.862-.97-4.074-2.233L.304 19.198l.388-.376c1.987-1.929 5.062-4.553 5.125-4.374.042.12.652 2.242 1.355 4.717m4.186-3.26a3116 3116 0 0 1 4.953 1.803c.367.137.122.377-3.239 3.175-2 1.665-3.667 2.997-3.704 2.96s-.622-2.073-1.3-4.523a571 571 0 0 0-1.33-4.764c-.054-.17-.06-.308-.016-.308.045 0 2.131.745 4.636 1.656m17.889 3.05c1.084.54 1.725.951 1.676 1.077-.057.148-3.782 5.212-4.185 5.689-.062.073-.506-.163-2.53-1.349l-1.703-.998.37-.455c.928-1.138 4.351-4.837 4.477-4.837.077 0 .93.393 1.895.873m-9.776 2.21 1.658 2.334-.593 1.083a793 793 0 0 1-3.094 5.5c-1.376 2.43-2.702 4.773-2.947 5.21l-.444.791-1.89-4.869c-1.04-2.678-2.024-5.22-2.186-5.647l-.296-.778 3.854-3.194c3.144-2.606 3.892-3.154 4.066-2.978.118.118.96 1.265 1.872 2.549M3.937 22.22c2.095 1.177 3.95 2.217 4.123 2.31.27.148-.192.524-3.303 2.694-1.989 1.388-3.675 2.523-3.748 2.523-.072 0-.177-.469-.233-1.042-.056-.572-.255-2.5-.441-4.284-.332-3.176-.405-4.34-.273-4.34.036 0 1.78.962 3.875 2.14m27.965.892.448 2.115-2.186 3.051c-1.202 1.679-2.242 3.072-2.31 3.096-.07.025-.242-1.057-.385-2.404l-.26-2.45 1.361-1.845 2.075-2.817c.393-.534.736-.946.762-.916s.25 1.006.495 2.17m-7.73 2.229c2.126 1.253 2.141 1.266 2.237 1.958.328 2.373.567 5.033.461 5.135-.146.142-11.91 3.999-11.98 3.928-.09-.09 6.856-12.278 6.998-12.28.078-.002 1.106.565 2.283 1.259M11.087 30.84c1.121 2.929 2.015 5.35 1.986 5.382s-2.656-1.23-5.838-2.803l-5.786-2.86.565-.398c5.232-3.683 6.757-4.722 6.883-4.687.083.023 1.068 2.438 2.19 5.366M-48.439 9.533c.047.047-.184.85-.513 1.784-.328.935-.597 1.781-.597 1.881s.281-.08.625-.4.787-.716.986-.88c.2-.166 1.834-.705 3.634-1.199l3.272-.898.825.36c.453.198.824.408.824.466s-1.387.77-3.084 1.58c-1.696.81-3.065 1.49-3.041 1.513.05.048 4.252-1.048 6.363-1.66.818-.238 1.503-.414 1.522-.392.455.536 1.16 2.084 1.553 3.412.724 2.442.71 2.47-1.865 3.469-3.15 1.22-7.783 3.13-7.729 3.184.027.026 2.056-.468 4.509-1.099l4.46-1.148-.114.528c-.158.738-.359 1.075-.698 1.172-.16.045-3.705 1.148-7.876 2.449-11.62 3.625-16 4.95-16 4.837 0-.056.282-.85.625-1.766l.625-1.664 1.834-.618c1.008-.34 3.22-1.07 4.916-1.624 2.87-.936 3.009-1 2-.913-.595.05-2.84.386-4.989.745-2.148.36-3.945.615-3.992.567-.12-.12-.87-3.277-.797-3.352.034-.033 1.966-.844 4.295-1.802s4.158-1.744 4.067-1.747c-.092-.002-2.117.37-4.5.827s-4.49.831-4.68.832c-.278.001-1.715-.724-3.205-1.618-.13-.078 2.05-.73 5.417-1.62 3.099-.818 5.721-1.53 5.828-1.583.106-.052.922-.948 1.812-1.99l1.62-1.897.992.09c.546.05 1.03.128 1.076.174m3.28 7.048-3.692.57-3.182 1.442c-1.75.793-3.16 1.464-3.133 1.49.17.171 9.547-2.37 13.2-3.577 1.965-.649 1.414-.636-3.193.075m-17.874 2.108c.512.397 1.107 1.945 1.817 4.728l.346 1.356-.832 2.054c-.635 1.567-.923 2.09-1.215 2.2-.358.137-3.691-.13-3.999-.32-.072-.044-.77-1.055-1.549-2.247l-1.418-2.166v-5.409l1.542-1.102 1.542-1.101 1.75.9c.962.495 1.87.993 2.016 1.107m-4.748.638-1.102 1.348v3.697l1.02 1.722c.56.947 1.08 1.76 1.154 1.805.18.112 3.186-.378 3.337-.543.065-.07.314-.502.554-.96.407-.778.435-.977.435-3.096 0-2.136-.02-2.283-.375-2.6-.426-.384-3.73-2.722-3.846-2.722-.042 0-.571.607-1.177 1.349m2.671.5c.774.56 1.508 1.179 1.631 1.376s.312 1.174.42 2.17l.196 1.813-.46.88-.461.88-1.229.115c-.675.063-1.253.09-1.284.058-.03-.032-.513-.753-1.07-1.604l-1.016-1.546v-2.925l.858-1.116c.471-.614.89-1.116.932-1.116.041 0 .709.457 1.483 1.016m-.167 2.078c.454.592.496.749.433 1.615-.061.844-.117.97-.467 1.058-.309.078-.496-.016-.836-.421-1.16-1.378-1.108-1.353-.719-.346.195.504.43 1.129.523 1.388.135.377.241.452.523.37.195-.058.59-.148.877-.2.58-.106.6-.168.82-2.495l.112-1.186-.614-.115a7 7 0 0 1-.885-.219c-.172-.066-.087.135.233.551m15.197-.147c.12.048.264.042.319-.013.055-.056-.043-.095-.219-.088-.194.008-.233.048-.1.1m15.24 1.02c.745.49.77.613.166.839-1.172.438-4.598 2.022-4.375 2.023.137.001 1.581-.324 3.208-.722 2.099-.513 3.002-.67 3.106-.54.08.101.378.645.66 1.21.439.874.48 1.055.276 1.223-.13.109-1.169.45-2.306.76-1.623.44-2.37.745-3.465 1.417-.768.471-1.246.823-1.062.78.183-.041 1.817-.468 3.63-.948 1.814-.48 3.4-.834 3.525-.786.302.116.522 1.714.276 2.01-.101.122-2.135 1-4.52 1.952-2.383.952-4.277 1.747-4.206 1.768s1.74-.36 3.711-.845c1.971-.486 3.608-.865 3.637-.844.03.021-.065.27-.212.554-.158.306-.518.62-.887.776-.342.143-4.409 1.639-9.038 3.324A7080 7080 0 0 0-53.883 40.8c-1.512.555-2.806 1.01-2.876 1.01s.229-.533.663-1.186l.789-1.187 4.337-2.162c2.386-1.189 4.075-2.108 3.754-2.041-.32.066-2.264.598-4.319 1.182-2.054.584-3.751 1.043-3.771 1.02s-.233-.98-.473-2.125a98 98 0 0 0-.528-2.417c-.08-.294.162-.43 2.042-1.148 4.172-1.593 6.648-2.672 7.76-3.382.619-.396 1.155-.72 1.191-.72s.22.262.408.582c.292.494 1.057 1.12 1.588 1.3.081.027-.069.356-.334.73-.354.503-.699.758-1.314.974-.458.16-1.883.701-3.166 1.202-2.27.885-3.218 1.36-2.068 1.036.312-.088 1.986-.46 3.721-.826 1.734-.366 3.166-.685 3.182-.707l.8-1.208c.423-.641 1.01-1.447 1.303-1.79.525-.613.53-.633.303-1.333-.348-1.07-.9-1.533-2.118-1.773-.574-.112-1.123-.155-1.221-.095s-1.153.812-2.345 1.67c-2.02 1.454-2.301 1.602-4.113 2.161-1.07.33-2.86.895-3.979 1.255s-2.116.655-2.216.655c-.099 0-.609-.314-1.132-.698l-1.51-1.105-.56-.407 1.477-.465c.811-.255 3.163-.991 5.225-1.635 2.063-.644 5.813-1.82 8.334-2.614s5.52-1.727 6.666-2.076c2.308-.703 1.972-.731 3.542.3m-34.901 3.534c.438.592.264.628-.689.141-.619-.315-.662-.373-.368-.488.55-.215.671-.175 1.057.347m-.68 1.064c.984.494 1.921 1.044 2.082 1.223.479.53 1.464 3.526 1.646 5.003l.17 1.374-.67 1.46a48 48 0 0 0-.836 1.901c-.134.357-.33.478-1.022.626-.825.177-.914.158-2.426-.507-.863-.38-1.635-.774-1.715-.876s-.675-1.297-1.32-2.656l-1.172-2.472.416-1.519c.653-2.382.73-2.525 1.887-3.517.595-.51 1.103-.93 1.127-.933s.85.4 1.834.893m27.573-.656c.643.108 1.299.737 1.299 1.245 0 .15-.213.4-.474.554-.789.467-2.067-.099-2.406-1.063-.131-.376.343-1.01.686-.916.152.042.555.123.895.18m-28.57 1.683c-.05.05-.563.218-1.14.375l-1.047.284-.573 1.72-.573 1.72.892 1.929.893 1.93 1.725.82c.948.45 1.747.796 1.774.767s.432-.772.9-1.65c.821-1.54.851-1.645.851-2.94 0-1.271-.04-1.417-.753-2.757-.552-1.04-.928-1.532-1.413-1.852-.61-.404-1.319-.564-1.536-.346m1.227 1.005c.594.307 1.542 2.185 1.832 3.627.162.807.141.96-.233 1.706a15 15 0 0 0-.699 1.7l-.288.878-.943-.534c-1.494-.846-1.527-.871-1.527-1.176 0-.16.19-.414.422-.566.367-.24.392-.312.192-.546-.127-.148-.326-.623-.443-1.056-.206-.764-.198-.804.267-1.363.263-.317.525-.581.582-.588.057-.006.414.324.792.735.378.41.688.708.688.661 0-.127-1.016-2.13-1.192-2.348-.106-.133-.437.108-1.09.793l-.938.983.212 1.425c.116.783.16 1.475.098 1.538-.172.172-.7-.601-1.169-1.715l-.421-1 .383-1.584.384-1.583 1.075-.096c.59-.053 1.172-.11 1.291-.125.12-.016.445.09.725.234m4.783.571c.565.146.705.25.634.468-.57 1.743-.818 2.488-.898 2.698-.053.137-.156-.125-.23-.583a13 13 0 0 0-.474-1.818c-.41-1.188-.408-1.141-.048-1.037.16.047.618.17 1.016.272m6.188 1.01c1.55 1.14 1.856 1.44 1.995 1.96.303 1.135 1.176 5.371 1.176 5.706 0 .183-.406.925-.902 1.65-.496.723-.975 1.447-1.065 1.608-.156.278-.249.278-1.973 0-.996-.16-1.96-.322-2.144-.36-.365-.075-1.699-2.027-2.218-3.245-.176-.415-.452-1.36-.612-2.1l-.29-1.348.44-1.566c.241-.861.51-1.732.595-1.936.147-.346 2.47-1.685 2.96-1.705.114-.004 1.03.597 2.038 1.337m-3.164.67c-.503.275-.997.59-1.097.7-.1.111-.386.846-.636 1.633l-.454 1.43.894 2.233.893 2.232 1.631.32 1.63.318 1.213-1.204 1.213-1.204-.132-.706a57 57 0 0 0-.399-1.861c-.569-2.466-.481-2.316-1.847-3.145a90 90 0 0 1-1.622-1.003c-.339-.222-.45-.2-1.287.257m2.14 1.138 1.299.653.471 1.805c.7 2.683.708 2.509-.148 3.639-.416.55-.758 1.048-.759 1.107-.001.09-2.481-.795-2.64-.943-.029-.028.458-.33 1.084-.672 2.017-1.103 1.85-.88 1.669-2.219-.15-1.111-.195-1.198-.804-1.602-.736-.487-.833-.387-.233.24.292.304.442.697.52 1.36l.11.932-.546.19c-.878.306-1.055.236-1.495-.597l-.417-.788-.083 1.496-.083 1.496-.935-1.833c-.514-1.009-.897-1.946-.852-2.084.582-1.767.734-2.009 1.508-2.412.429-.223.837-.41.907-.413.071-.005.713.286 1.428.645m-5.399 4.274c.062.328.15.694.195.813q.083.216-.697.412c-.428.108-.806.17-.838.138-.1-.1 1.003-2.1 1.119-2.028.06.037.16.336.221.665m-49.714-39.022.795 2.002-.47.983c-.258.54-.63 1.183-.824 1.427l-.354.444-.706-1.262c-.388-.694-.706-1.388-.706-1.54 0-.236 1.357-4.056 1.44-4.056.016 0 .387.9.825 2.002m-2.735 3.968c.705.585 1.323 1.174 1.375 1.31.125.325.124 3.054-.001 3.054-.053 0-.755-.56-1.56-1.242-1.619-1.373-1.671-1.486-1.675-3.57-.002-1.22-.21-1.27 1.861.448m5.723.472-.116 1.388-1.5 1.252c-.825.688-1.569 1.252-1.652 1.252-.25 0-.178-2.466.087-2.978.13-.253.9-1.012 1.708-1.685 1.68-1.401 1.655-1.415 1.473.771m12.982.6c-.029.206-.14 1.125-.249 2.042s-.28 1.773-.383 1.903c-.177.225-2.329 1.68-2.485 1.68-.041 0-.127-.596-.19-1.324-.135-1.548-.04-1.799 1.036-2.75.625-.552 2.244-1.9 2.305-1.92.01-.003-.005.163-.034.369m-30.026 1.376 1.291 1.277v1.306c0 1.968 0 1.968-1.427.98-.675-.466-1.266-.971-1.314-1.122-.088-.28-.417-3.193-.422-3.74-.005-.443.377-.179 1.872 1.3m4.791 3.736c0 .155-.371 1.099-.826 2.096l-.826 1.814-.672-1.461-.671-1.46.319-.947c.175-.52.554-1.47.841-2.11l.522-1.163.657 1.474c.361.811.656 1.602.656 1.757m12.255-1.53c-.105 1.444-.168 1.678-.562 2.097-.528.563-2.601 2.278-2.753 2.278-.058 0-.106-.67-.106-1.49 0-1.31.045-1.542.375-1.912.354-.398 2.972-2.586 3.103-2.594.034-.002.008.727-.057 1.621m8.207-.25c1.003 2.796.987 2.453.182 3.945-.393.727-.759 1.295-.813 1.262s-.425-.86-.824-1.836l-.727-1.775.728-1.486c.4-.816.78-1.485.844-1.485s.339.619.61 1.375m-14.034.072 1.572 1.281v1.657c0 1.297-.045 1.622-.208 1.499-1.382-1.042-2.859-2.372-2.977-2.682-.16-.424-.207-3.035-.054-3.035.052 0 .802.576 1.667 1.28m-11.316 2.757 1.132.38.635 1.312c.349.722.608 1.34.576 1.372-.11.109-3.623-.895-3.88-1.108-.243-.202-1.273-1.94-1.495-2.523-.098-.259-.03-.262.897-.046.552.129 1.512.405 2.135.613m31.388-.626c0 .043-.382.68-.85 1.418-.535.842-.984 1.369-1.209 1.417-.914.196-3.247.587-3.504.587-.242 0-.188-.19.333-1.181.341-.65.777-1.283.967-1.406.494-.32 4.263-1.058 4.263-.835m-8.01 2.532.717 1.86-.719 1.348c-.395.742-.764 1.349-.82 1.349-.157 0-1.501-3.287-1.501-3.671 0-.42 1.377-3.028 1.511-2.863.053.064.418.954.812 1.977m-17.09-.442c.33.826.6 1.624.6 1.774 0 .317-1.507 3.558-1.654 3.558-.055 0-.38-.632-.723-1.404-.53-1.195-.598-1.475-.451-1.875.19-.519 1.556-3.554 1.6-3.554.014 0 .297.675.628 1.501m5.899 1.213.715.729-.049 1.52-.048 1.521-1.417-1.173c-.779-.646-1.507-1.373-1.617-1.617s-.204-1.068-.208-1.83l-.008-1.386.958.753c.528.415 1.28 1.082 1.674 1.483m4.98-.623c-.057.875-.162 1.692-.233 1.815-.167.29-2.918 2.587-3.103 2.59-.078.002-.115-.716-.084-1.597l.058-1.6.667-.577c1.744-1.51 2.609-2.222 2.7-2.222.055 0 .053.716-.004 1.59m-16.117 1.748c1.051.277 1.965.558 2.029.624.264.273 1.277 2.705 1.127 2.705-.574 0-3.744-.937-3.939-1.165-.478-.559-1.532-2.669-1.332-2.668.111 0 1.063.228 2.115.504m27.317.87a49 49 0 0 1-.921 1.448c-.105.118-3.942.85-4.024.768-.092-.092 1.072-2.248 1.4-2.59.219-.23 3.15-.947 4.025-.985.349-.015.314.084-.48 1.36m-7.34 1.03c.381.955.694 1.857.694 2.003 0 .29-1.318 2.996-1.413 2.9-.16-.163-1.42-3.484-1.42-3.743 0-.356 1.168-2.9 1.331-2.9.062 0 .425.783.807 1.74m-12.815-.25c.55 1.313.438 2.542-.387 4.265l-.636 1.33-.658-1.416c-.414-.89-.624-1.552-.567-1.781.2-.799 1.607-3.603 1.734-3.458.075.085.306.561.514 1.06m3.218 1.136 1.458 1.23v3.335l-1.214-1.005c-1.974-1.632-1.924-1.55-2.056-3.424-.135-1.92-.288-1.908 1.812-.136m5.69.167c-.076 1.133-.19 1.719-.379 1.935-.348.402-2.787 2.44-2.919 2.44-.055 0-.1-.674-.1-1.498 0-1.4.03-1.53.458-1.999.568-.621 2.745-2.481 2.92-2.494.07-.005.08.722.02 1.616m9.762.666c-.003.069-.362.725-.798 1.459l-.793 1.333-1.326.281c-.73.155-1.681.33-2.114.39l-.788.109.765-1.35c.42-.743.835-1.394.92-1.447.128-.078 3.587-.843 4.015-.887a.105.105 0 0 1 .12.112m-24.086.46c.865.23 1.732.478 1.927.55.406.15 1.729 2.758 1.43 2.82-.1.021-1.002-.166-2.005-.416l-1.822-.455-.789-1.459c-.541-1.001-.714-1.458-.552-1.458.13 0 .945.188 1.81.419m16.45 2.796.39 1.133-.722 1.409c-.397.775-.771 1.41-.832 1.41-.16-.001-1.36-3.217-1.36-3.646 0-.199.312-.979.693-1.733l.693-1.371.373.833c.206.458.55 1.343.764 1.965m-9.212-.306.86.909-.316.8c-.646 1.634-1.274 3.046-1.355 3.044-.14-.004-1.334-2.681-1.334-2.994 0-.161.176-.696.39-1.19.214-.492.437-1.026.495-1.186.161-.448.331-.365 1.26.617m-5.478 1.538c2.531.674 2.445.618 3.183 2.086.37.734.63 1.377.578 1.428-.051.051-.97-.163-2.044-.476l-1.95-.568-.8-1.39c-.44-.764-.8-1.421-.8-1.461 0-.08.463.016 1.833.381m19.992-.322c-.005.069-.333.687-.73 1.375l-.72 1.25-2.042.466c-1.122.256-2.076.43-2.12.386-.043-.043.287-.702.734-1.465l.812-1.387 1.745-.362c1.937-.402 2.333-.447 2.32-.263m-10.489 5.333.002 4.792.385-.674c.212-.37.972-1.805 1.688-3.189l1.303-2.515.565.333.564.333-.395.69c-.218.378-.905 1.675-1.527 2.88L-114 31.016l-.984.336c-.749.256-1.111.3-1.518.183a4.6 4.6 0 0 0-1.047-.153c-.5 0-.548-.073-1.88-2.859-.75-1.572-1.345-2.866-1.32-2.875s.282-.14.572-.292l.528-.276 1.256 2.699c.691 1.485 1.33 2.884 1.42 3.11.113.282.167-1.128.174-4.55l.01-4.957h1.334zm2.23 5.639c.198.516.094.752-.482 1.092-.652.384-.753.644-.25.644.41 0 .426.2.042.54-.411.363-2.718.96-3.71.96-.709 0-.832-.047-.832-.32 0-.691.178-.846.976-.849 1.253-.004 1.353-.253.204-.508-.838-.186-1.013-.284-1.01-.565.004-.689.201-.78 1.09-.511 1.157.35 1.52.319 2.657-.234 1.197-.583 1.188-.581 1.315-.25m.386 7.492c.852 2.19 1.546 4.06 1.543 4.155-.008.224-.79 1.185-.883 1.084-.039-.043-.773-1.949-1.632-4.237l-1.563-4.16-.043 5.787-.044 5.787-.662-.337-.663-.338-.044-5.255-.044-5.254-1.658 4.184c-.912 2.302-1.707 4.214-1.766 4.25-.06.037-.315-.15-.569-.414l-.46-.48 1.67-4.055 1.672-4.055.889-.122c.489-.067 1.227-.23 1.64-.363s.82-.223.909-.2c.087.023.856 1.833 1.708 4.023m-69.694-26.744c3.137 1.313 3.507 1.507 3.14 1.645-1.489.56-14.635 4.865-14.836 4.858-.472-.017-7.251-3.446-6.998-3.54.138-.05 2.163-.668 4.5-1.373a637 637 0 0 0 6-1.836c3.01-.954 3.905-1.21 4.278-1.226.198-.01 1.96.654 3.916 1.472m3.935 5.637-.045 3.292-5.084 1.784-7.485 2.626c-1.32.463-2.42.823-2.444.8-.023-.024-.097-1.523-.163-3.332-.115-3.13-.106-3.294.194-3.416.68-.278 14.661-5.006 14.86-5.025.166-.016.202.687.167 3.27m-19.724-.056 3.581 1.735.049 3.307c.027 1.819.025 3.342-.003 3.386-.028.043-1.678-.744-3.666-1.75l-3.616-1.83-.045-3.291c-.025-1.81-.008-3.292.037-3.292s1.694.78 3.663 1.735m21.464 4.7c.943.148 1.815.324 1.937.39.155.084-.344.62-1.628 1.749l-1.85 1.627-2.04-.28c-2.669-.367-2.621-.35-2.621-.926 0-.324-.118-.546-.36-.676-.456-.244-.423-.263 2.027-1.145a75 75 0 0 0 2.25-.838c.451-.199.355-.203 2.285.1m-22.39 2.71 3.562 1.793-2.772.628-2.773.628-3.064-1.89c-1.685-1.038-3.044-1.91-3.02-1.936.036-.038 4.124-.97 4.422-1.007.045-.006 1.686.797 3.645 1.783m25.188 1.291c0 2.693-.01 2.767-.335 2.682-.184-.048-1.047-.26-1.917-.469l-1.581-.381v-.685c0-.659.065-.743 1.791-2.29.986-.884 1.848-1.611 1.917-1.617.069-.005.125 1.237.125 2.76m-30.27.82 2.603 1.608v3.318c0 1.825-.045 3.318-.1 3.318s-1.405-.86-3-1.911l-2.9-1.911v-6.549l.397.26c.219.143 1.569.983 3 1.868m20.232 1.362-.045 3.286-2.667.63c-1.467.347-5.194 1.23-8.282 1.965-3.088.733-5.657 1.334-5.708 1.334s-.093-1.532-.093-3.404v-3.404l1.875-.435c5.985-1.388 14.262-3.227 14.586-3.24l.379-.017zm3.121-1.955c2.488.36 2.25.223 2.246 1.302l-.005.95-2.022 1.084a99 99 0 0 1-2.163 1.14c-.076.03-.14-1.045-.14-2.39V26.71l.46.094c.251.051.983.17 1.624.263m7.81 3.83c2.144.554 3.964 1.008 4.044 1.01.196.004-1.11.833-5.687 3.61a803 803 0 0 0-4.25 2.588c-.396.25-.641.199-4.875-1.009-2.452-.7-4.458-1.31-4.457-1.357 0-.047.544-.372 1.208-.721 4.18-2.202 5.771-3.056 7.624-4.094 1.146-.642 2.176-1.136 2.29-1.1.113.037 1.96.52 4.104 1.073m-30.372 5.17c.437.316.603.523.457.57-.126.04-.771.23-1.434.423l-1.205.35-3.628-1.772c-1.996-.975-3.554-1.802-3.462-1.837s1.03-.311 2.083-.613l1.917-.549 2.293 1.465c1.26.806 2.602 1.69 2.98 1.963m35.014-.122c-.047 2.101-.137 3.274-.263 3.399-.292.292-9.78 6.226-9.955 6.226-.085 0-.153-1.049-.154-2.375 0-1.306-.047-2.755-.103-3.22l-.101-.845.81-.507c.447-.278 1.675-1.03 2.729-1.67s3.042-1.851 4.417-2.69c1.375-.84 2.543-1.526 2.595-1.526s.064 1.443.025 3.208m-20.662-.996-1.042.525v4.568l-7.375 2.455c-4.056 1.35-7.468 2.49-7.583 2.532-.162.06-.208-.678-.208-3.345v-3.422l1.695-.526c1.253-.39 1.786-.486 2.042-.369.26.119 1.854-.205 6.347-1.289 3.3-.796 6.111-1.492 6.249-1.548.137-.055.4-.102.583-.104.184-.001-.135.234-.708.523m-20.208 1.668 3.083 1.59.045 3.411.045 3.412-2.462-1.295a808 808 0 0 0-3.545-1.855l-1.083-.56-.109-.917c-.06-.504-.116-2.024-.125-3.377l-.016-2.46.542.23c.298.127 1.929.946 3.625 1.82m24.908 1.2c2.374.685 4.37 1.304 4.434 1.375s.168 1.617.231 3.435c.109 3.144.1 3.302-.188 3.216l-3.885-1.173a436 436 0 0 0-4.417-1.317l-.833-.233-.046-3.275c-.035-2.591 0-3.274.17-3.274.12 0 2.16.56 4.534 1.246m-66.035-19.806c2.584 1.167 2.64 1.203 2.704 1.751l.065.56-3.124 1.001-3.125 1.002-2.967-1.489c-2.363-1.185-2.9-1.514-2.634-1.617.183-.071 1.57-.635 3.083-1.253s2.888-1.128 3.055-1.135c.168-.006 1.492.525 2.943 1.18m6.335 2.835c0 .127-1.407.974-1.62.974-.144 0-1.046-1.713-1.046-1.988 0-.081.6.089 1.332.378s1.333.576 1.334.636m-13.755.195c1.753.882 1.953 1.024 1.59 1.127-.23.065-.702.126-1.05.135-.565.015-.762.154-1.846 1.308-2.396 2.552-2.654 2.867-2.416 2.95.125.045 1.038.264 2.03.49l1.8.408.866-.393c.476-.215.96-.416 1.078-.444.136-.034.504.718 1.02 2.082l.806 2.134-.209 5.5c-.115 3.024-.238 5.528-.273 5.564-.054.054-6.122-10.718-8.673-15.397l-.782-1.435 1.319-2.084 1.664-2.634c.419-.665.358-.679 3.076.69m11.381 1.486c3.472 5.335 3.56 5.486 3.349 5.74-.113.135-.528.468-.922.74l-.717.493-2.376-1.873c-1.307-1.03-3.226-2.545-4.265-3.366l-1.889-1.495.64-.209c2.926-.958 4.835-1.556 4.991-1.563.103-.005.638.685 1.19 1.533m-8.286.917c-.567 1.9-.692 2.067-1.913 2.584-1.1.466-1.202.48-2.102.289-1.511-.32-1.518-.346-.42-1.53 1.745-1.881 1.605-1.802 3.176-1.802h1.395zm5.464 3.268 4.03 3.144v.981c0 .54-.02.98-.043.979s-1.835-.363-4.027-.804l-3.986-.801-.722-1.905c-.397-1.047-.722-2.012-.722-2.144s.2-.858.446-1.613c.393-1.207.48-1.35.722-1.177.15.108 2.087 1.611 4.302 3.34m-18.847-1.419 3.206.109-3.1 3.917c-4.741 5.99-5.947 7.5-5.99 7.5-.08 0-2.407-11.209-2.407-11.59 0-.197.754-.191 8.29.064m-9.74.42c-.233.399-6.695 9.502-7.111 10.018l-.4.495.323-1.662c.178-.914.507-2.631.732-3.816s.427-2.169.45-2.187c.166-.136 5.902-3.07 6.006-3.072.074-.002.074.099 0 .224m2.5 7.939.735 3.583-5.267.084c-2.897.045-5.289.038-5.315-.017-.026-.054 1.486-2.24 3.358-4.859 1.873-2.617 3.728-5.235 4.123-5.816l.718-1.057.457 2.25c.251 1.236.787 3.861 1.192 5.832m10.783 2.79v10.291l-4.58-4.577c-3.996-3.994-4.553-4.613-4.375-4.86.176-.241 2.363-3.011 7.582-9.602.672-.848 1.255-1.542 1.297-1.542s.076 4.63.076 10.29m4.835-2.623a7647 7647 0 0 1 4.617 8.29l.577 1.04-.39.15c-1.374.532-3.267 1.317-5.841 2.42-1.624.697-3.03 1.266-3.125 1.266-.113 0-.173-.999-.173-2.875 0-3.545.207-17.642.258-17.584.02.024 1.855 3.305 4.077 7.293m16.466-4.062c-.04.478-.2.728-.76 1.188l-.708.583v-.676c0-.577.09-.75.621-1.188.342-.282.684-.512.76-.512.077 0 .116.272.087.605m-42.134 3.405c-.87 4.506-.752 4.126-1.248 4.031-.23-.044-.422-.09-.425-.102-.142-.582-.432-3.74-.355-3.864.438-.698 2.58-3.577 2.628-3.53.032.032-.238 1.591-.6 3.465m34.062-1.645 1.646.366-.103 1.093a31 31 0 0 0-.104 2.367l-.002 1.274-1.848 2.81c-1.017 1.544-1.889 2.846-1.937 2.892-.05.045-.043-1.155.014-2.667l.21-5.625c.072-1.932.168-2.875.293-2.876.102 0 .926.164 1.831.366m-23.48 6.801c-.057.183-.612 1.493-1.231 2.911l-1.126 2.578-2.571 1.99c-1.414 1.094-2.62 1.94-2.68 1.88-.12-.122-2.975-9.253-2.975-9.52 0-.114 1.785-.172 5.345-.172 5.267 0 5.343.005 5.239.333m5.157 4.292c2.352 2.315 4.196 4.209 4.098 4.209-.506 0-10.498-2.79-10.72-2.993-.145-.133 2.066-5.528 2.239-5.464.059.022 2.032 1.934 4.383 4.248m14.355 3.084c-.054.664-.177 2.705-.272 4.535-.094 1.83-.208 3.363-.253 3.408-.044.044-.397-.035-.784-.175l-.703-.255-.701-3.136c-1.01-4.521-1.093-4.01.784-4.85.87-.389 1.684-.714 1.806-.722.175-.01.201.245.123 1.195m-20.386-.613c.61.207.787.355.855.708.18.941.659 7.028.56 7.127-.057.057-.42-.001-.806-.13l-.703-.234-1.29-3.242-1.29-3.241.69-.62c.785-.705.922-.73 1.984-.368m15.896 1.696c-.049.252-.329 2.37-.622 4.708-.294 2.338-.58 4.304-.636 4.37-.175.203-1.403-.315-1.523-.642-.063-.171-.352-1.736-.644-3.478-.292-1.741-.566-3.286-.61-3.433-.06-.206.375-.461 1.884-1.109 1.08-.463 2.024-.849 2.1-.858s.099.19.05.442m-19.27.917c0 .664.049 2.615.109 4.334l.11 3.126-.569-.107c-.312-.06-.67-.16-.794-.226-.124-.065-.711-1.383-1.304-2.928l-1.08-2.81.389-.283c.213-.156.95-.735 1.638-1.288s1.306-1.01 1.375-1.016.125.533.125 1.198"/></svg>