<svg xmlns="http://www.w3.org/2000/svg" width="43" height="42" viewBox="0 0 43 42"><path d="M230.904-.794c.515 1.095.735 1.74.63 1.846-.29.289-4.573 2.637-4.81 2.637-.255 0-1.995-3.547-1.779-3.626.074-.027 1.184-.606 2.468-1.287 1.283-.68 2.416-1.24 2.516-1.245s.54.75.975 1.675m2.329-1.1c1.058.32 2.693.8 3.635 1.067 1.926.546 9.926 2.854 11.711 3.38l1.167.342-1.833.87c-1.563.742-1.907.849-2.334.723-.275-.082-3.162-.897-6.416-1.813S233.113.97 232.95.921c-.32-.097-2.066-3.398-1.798-3.398.087 0 1.023.262 2.081.583m-8.804 10.583a2580 2580 0 0 0-4.012 12.575c-1.54 4.871-2.699 8.269-2.875 8.431-.317.293-3.046 2.024-3.046 1.933 0-.141 6.803-21.17 9.038-27.939l.853-2.583.737 1.583.736 1.584zm10.758-6.34c1.224.362 3.988 1.154 6.142 1.76 2.155.605 4.071 1.2 4.26 1.323s.911 1.444 1.622 2.97l1.281 2.748-2.428 7.478a4423 4423 0 0 1-4.123 12.63l-1.695 5.152-2.72 1.473c-1.495.81-2.87 1.473-3.055 1.473-.25 0-8.492-2.34-12.69-3.604-.186-.055-.845-1.182-1.728-2.952l-1.429-2.863 1.865-5.832c1.026-3.208 2.528-7.895 3.339-10.416.81-2.52 1.75-5.483 2.087-6.583s.721-2.112.852-2.25c.385-.405 5.446-3.14 5.837-3.154.197-.007 1.36.284 2.583.647m16.646 3.55c.64 1.352 1.162 2.514 1.16 2.582s-.819.555-1.816 1.08c-1.966 1.036-1.899 1.038-2.404-.067-.154-.337-.587-1.274-.961-2.083-1.137-2.457-1.231-2.095.813-3.126.983-.497 1.845-.89 1.916-.873.07.016.652 1.135 1.292 2.487m-21.193 5.009-2.273 1.854 1.345 1.471 1.345 1.472 1.265-1.258c.72-.717 1.407-1.258 1.595-1.258.182 0 .855.15 1.496.334.64.183 1.182.333 1.202.333s-.73-1.082-1.666-2.405c-.937-1.323-1.778-2.403-1.87-2.401-.091.002-1.189.838-2.439 1.858m3.356-1.79c0 .133 3.178 4.48 3.309 4.525.116.04 2.413-3.123 2.326-3.204-.058-.054-5.384-1.416-5.537-1.416a.096.096 0 0 0-.098.094m17.342 5.5c-.909 2.744-2.224 6.752-2.923 8.906-1.96 6.041-5.45 16.576-5.513 16.645-.07.076-1.384-2.75-1.509-3.248-.055-.22.503-2.172 1.409-4.923 1.8-5.468 3.091-9.444 4.7-14.474.66-2.063 1.37-4.266 1.58-4.896l.382-1.146 1.724-.965c.949-.53 1.742-.948 1.763-.927.022.022-.704 2.284-1.613 5.028m-12.302-2.205c-.566.764-1.071 1.498-1.122 1.632-.074.192.275.3 1.713.527.994.157 1.926.285 2.071.285.208 0 .085-.409-.578-1.917-.463-1.054-.89-1.916-.949-1.916s-.57.625-1.135 1.39m-1.422 2.395c-.042.072-.13.573-.195 1.113-.096.787-.075.965.104.898a91 91 0 0 1 2.02-.635c.988-.303 1.738-.6 1.667-.662-.072-.061-.768-.24-1.547-.398a43 43 0 0 1-1.695-.368c-.152-.044-.312-.02-.354.052m1.924 1.954-2.041.685 1.479 1.472c.831.827 1.526 1.396 1.586 1.298.06-.095.362-.872.673-1.726.31-.853.644-1.758.742-2.01.231-.597.148-.588-2.439.281m-5.623 2.352c-1.282.687-2.42 1.342-2.53 1.454-.244.253-1.463 4.27-1.334 4.399.051.05 1.044-.272 2.207-.717l2.113-.81.96-2.792c.53-1.536.951-2.79.938-2.788-.012.003-1.072.567-2.354 1.254m3.007-1.08c-.048.13-.49 1.326-.984 2.655-.494 1.33-.876 2.442-.85 2.472.064.076 4.907-2.201 4.908-2.308 0-.048-.672-.756-1.493-1.573-1.03-1.025-1.52-1.412-1.58-1.247m-6.844 9.35c-.948.49-1.583 1.134-1.583 1.607 0 .38 1.355 2.757 1.69 2.963.162.1 2.19-.95 2.685-1.39.543-.482.403-1.042-.665-2.665-.66-1.004-1.016-1.09-2.127-.516m-10.841 5.85c.67 1.397 1.186 2.594 1.148 2.66-.095.164-3.562 2.015-3.633 1.94-.09-.093-2.261-4.815-2.303-5.008-.04-.183 2.98-2.094 3.35-2.12.125-.008.743 1.077 1.438 2.527m7.615 4.89 6.483 1.922 1.09.324.877 1.764c.482.97.844 1.796.805 1.836-.04.04-2.35-.64-5.134-1.51-6.814-2.128-12.822-3.934-13.091-3.934-.526 0-.11-.314 1.488-1.12.94-.473 1.794-.865 1.898-.87.105-.006 2.617.71 5.584 1.588m14.539 1.207c.424.947.77 1.786.77 1.864 0 .196-4.513 2.727-4.884 2.738-.226.007-.485-.42-1.042-1.715-.407-.948-.74-1.815-.74-1.926 0-.244 4.873-2.96 5.02-2.797.058.063.452.889.876 1.836M187.407.55c1.325.38 2.375.748 2.333.816s-1.127.776-2.411 1.574l-2.335 1.45-2.874-.616c-1.58-.34-3.085-.667-3.342-.728-.412-.098-.078-.297 2.75-1.638 1.77-.84 3.275-1.533 3.344-1.54.069-.006 1.21.3 2.535.681m7.714 1.892c1.306.32 2.487.582 2.625.582s.247.056.244.125-1.327.95-2.942 1.958a342 342 0 0 0-6.286 4.05l-3.35 2.218-1.25-.087c-1.376-.096-6.98-.857-7.085-.961-.063-.063 1.484-.962 7.336-4.263l5.166-2.92c1.507-.853 2.633-1.39 2.834-1.35.183.037 1.402.328 2.708.648m-16.375 2.517c1.925.242 3.556.49 3.624.551s-.27.341-.75.622-2.545 1.522-4.587 2.76l-3.713 2.249-1.287-.227c-.708-.124-2.598-.418-4.2-.651-1.601-.234-2.933-.446-2.959-.472s1.997-1.084 4.496-2.352c2.498-1.267 4.768-2.436 5.043-2.598s.575-.3.666-.308 1.742.184 3.667.426m-9.614 6.551c2.688.448 4.907.84 4.932.872.183.234 2.265 4.307 2.265 4.43 0 .087-.656.254-1.458.371s-2.77.426-4.373.687c-1.604.26-2.962.42-3.02.355s-.792-1.614-1.632-3.443c-1.391-3.029-1.824-4.097-1.66-4.089.033.002 2.259.37 4.946.817m11.693.28c1.694.231 3.092.435 3.106.452s.3.577.633 1.244c.436.87.547 1.234.394 1.29-.307.111-6.088 1.414-6.278 1.414-.125 0-1.277-1.892-2.982-4.899-.1-.176.904-.078 5.127.499m-39.609 3.275c.43 4.074.535 3.823-1.095 2.614a68 68 0 0 0-2.165-1.546c-.434-.29-.756-.618-.715-.73.042-.113.434-.69.873-1.28.636-.855.97-1.143 1.632-1.41.458-.184.912-.34 1.009-.345.104-.007.29 1.077.461 2.697m1.661-2.373c.995.307 1.16.429 2.014 1.486l.93 1.151-1.704 1.583c-.937.87-1.716 1.57-1.731 1.555s-.147-1.077-.293-2.36a171 171 0 0 0-.367-3.042c-.055-.39-.063-.708-.016-.708.046 0 .572.15 1.167.335m3.12 6.753v3.587l-.391.148c-.215.082-.74.201-1.167.265-.724.109-.776.092-.776-.25 0-.2.151-.96.337-1.685l.336-1.32-.348-.682c-.192-.376-.314-.773-.272-.883.1-.26 2.092-2.768 2.199-2.768.044 0 .081 1.614.081 3.588m41.653-.183c1.383 1.78 2.514 3.274 2.514 3.317s-.919.78-2.042 1.634a221 221 0 0 0-3.731 2.911c-.93.747-1.777 1.41-1.883 1.476s-1.572-.351-3.257-.926l-3.065-1.046 1.754-1.677 1.754-1.677-.749-2q-1.254-3.348-1.1-3.477c.127-.108 6.566-1.74 6.93-1.757.28-.013.928.714 2.875 3.222m-48.82-1.511c.963.731 1.802 1.373 1.864 1.426s.236.81.384 1.68.344 1.865.434 2.208c.163.619.174.625 1.01.625h.844l-.49.459c-.36.338-.632.918-1.036 2.208-.3.963-.575 1.78-.61 1.817-.034.037-1.075-.7-2.314-1.636l-2.252-1.705v-4.33c0-3.421.044-4.306.208-4.207.115.068.996.723 1.958 1.455m37.899 3.018c.44 1.16.767 2.145.725 2.187s-1.119-.11-2.392-.34-3.1-.553-4.059-.72l-1.744-.302-.215-1.062c-.118-.585-.176-1.1-.13-1.147.047-.047 1.566-.324 3.376-.617 2.627-.425 3.325-.49 3.464-.32.095.115.534 1.16.975 2.32m-3.514 2.423c1.998.366 3.68.666 3.737.666s-.598.525-1.455 1.167c-.857.641-1.605 1.166-1.663 1.166-.122 0-2.588.458-5.837 1.083-1.237.238-3.471.662-4.964.942l-2.714.51-3.938-1.633c-3.231-1.34-3.866-1.656-3.536-1.758.221-.068 1.94-.39 3.819-.716s5.254-.923 7.5-1.327 4.383-.742 4.75-.75c.366-.009 2.302.284 4.3.65m17.116 1.718v1.385l-2.458 2.169c-3.665 3.233-5.017 4.394-5.118 4.394-.05 0-.09-.778-.09-1.728v-1.729l3.47-2.6c1.907-1.43 3.607-2.752 3.775-2.938.169-.186.332-.338.364-.338s.057.623.057 1.385m-44.333-.816c0 .13.039.338.086.461.053.137-.694.925-1.906 2.014-1.096.984-2.025 1.79-2.066 1.79-.057 0 .868-3.46.97-3.624.013-.022.503-.106 1.089-.186.682-.093 1.127-.244 1.237-.418.211-.335.59-.359.59-.037m8.463 3.535c2.042.885 3.692 1.625 3.666 1.645-.025.02-2.96 2.222-6.524 4.894l-6.479 4.859-2.855-1.06a629 629 0 0 0-4.854-1.78c-1.1-.396-2.054-.765-2.12-.82-.105-.086 1.67-1.2 12.37-7.757 1.42-.87 2.696-1.584 2.833-1.586.138-.002 1.92.72 3.963 1.605m22.665 1.33 3.58 1.267c.453.163.459.182.459 1.635v1.47l-.459.093c-2.901.583-14.475 2.6-14.92 2.6-.243 0-2.451-.609-4.907-1.354s-4.633-1.39-4.84-1.436c-.205-.045-.374-.139-.374-.208 0-.14 2.193-1.826 2.785-2.142.202-.108.99-.312 1.75-.453 1.867-.346 11.548-2.22 12.381-2.396 1.15-.244 1.35-.203 4.545.925m-19.733 6.413a432 432 0 0 0 4.355 1.351c.917.277 1.765.557 1.886.623.156.085.014.301-.5.757-.396.35-1.856 1.714-3.246 3.03-1.39 1.314-2.594 2.39-2.676 2.39-.166 0-8.677-3.132-9.01-3.316-.139-.077.928-1.08 3.084-2.9 1.812-1.53 3.323-2.783 3.357-2.783s1.272.382 2.75.848M89.792.5 89.746 3l-2.083-.917A370 370 0 0 0 85.023.93l-.558-.237.486-.627c.267-.344 1.455-2.049 2.64-3.787l2.155-3.16.046 2.441a161 161 0 0 1 0 4.94m3.539-3.542C94.699-1.038 95.764.652 95.699.715c-.128.121-4.823 2.308-4.957 2.308-.043 0-.08-2.225-.08-4.945s.042-4.903.091-4.854c.05.05 1.21 1.73 2.578 3.734m-5.983 5.984 2.398 1.078.038 5.376.038 5.377-.636-1.5c-4.479-10.575-4.89-11.617-4.542-11.506.168.053 1.385.582 2.704 1.175m8.648-1.163c0 .082-4.806 11.721-5.158 12.494-.096.21-.157-1.613-.164-4.93l-.011-5.261 2.541-1.187c2.535-1.183 2.792-1.285 2.792-1.116m-10.31 4.577c.552 1.33 1.711 4.079 2.577 6.11l1.573 3.693-.045 3.465-.045 3.464-1.317-2.158c-.724-1.186-1.55-2.55-1.833-3.029-.29-.49-.638-.873-.794-.875-.153-.002-.628.147-1.056.33s-.809.333-.847.333-.065-3.506-.06-7.791l.01-7.792.417.917c.23.504.87 2.004 1.42 3.333m10.848 1.99-.046 6.155-.917-.406c-.505-.223-1.01-.401-1.121-.397-.112.005-.991 1-1.954 2.209l-1.75 2.2-.05-.942c-.046-.886.12-1.35 2.834-7.955 1.585-3.858 2.92-7.016 2.966-7.017s.063 2.766.038 6.152m13.857-.322c.972.687 1.765 1.287 1.763 1.333-.004.105-4.059 2-4.28 2-.09 0-.213-.694-.274-1.542-.06-.847-.157-2.097-.216-2.776l-.105-1.235.672.485c.37.266 1.468 1.047 2.44 1.735m-3.61.625c.1 1.444.166 2.643.145 2.664-.02.022-.894-.342-1.942-.81-1.047-.467-2.114-.94-2.37-1.052l-.464-.203 2.045-1.612c1.124-.887 2.125-1.612 2.224-1.612.112 0 .247.976.362 2.625m-34.468 3.429.016 3.304-2.503-1.299-2.503-1.298L69.7 10.4c2.145-2.15 2.39-2.346 2.487-2.005.06.208.116 1.865.125 3.682m4.424-.572c.637.646 1.124 1.203 1.083 1.237-.254.214-4.487 2.447-4.638 2.447-.13 0-.186-1.065-.186-3.6V7.986l1.292 1.172c.71.645 1.812 1.7 2.449 2.346m27.717-.285 2.375 1.032v12.421l-.541-.249a11 11 0 0 0-.834-.344c-.255-.084-.291-.337-.291-2.048V20.08l-1.667-1.732-1.667-1.732v-3.213c0-1.768.057-3.214.125-3.214.07 0 1.194.463 2.5 1.03m8.203 4.595c-.004 5.135-.028 5.596-.266 5.292-.406-.52-4.414-8.61-4.354-8.79.057-.17 4.063-2.085 4.417-2.111.163-.012.208 1.21.203 5.61M99.15 12.63l1.347.607v1.476c0 .812-.03 1.476-.067 1.476-.036 0-.711-.296-1.5-.659l-1.433-.659v-1.424c0-.783.069-1.424.153-1.424s.759.273 1.5.607M82.996 13.7c0 1.35.107 1.32-1.708.496l-1.028-.467 1.243-.588c.684-.324 1.3-.596 1.368-.604s.125.516.125 1.164m27.083 4.154c1.238 2.474 2.25 4.536 2.25 4.582s-1.05.61-2.333 1.252l-2.333 1.17v-5.752c0-3.163.037-5.75.082-5.75s1.096 2.024 2.334 4.498m-32.083-1.003v3.162l-.534.276c-.294.152-1.344 1.066-2.334 2.031l-1.799 1.755v-7.857l2.292-1.259c1.26-.692 2.31-1.262 2.333-1.265s.042 1.417.042 3.157m-8.065-1.734 2.398 1.263v6.104c0 3.6-.06 6.04-.149 5.946-.163-.173-4.85-14.071-4.85-14.383 0-.105.045-.192.1-.192s1.181.568 2.5 1.262m11.28-.073c.753.288 1.466.6 1.585.693.146.116.2.514.166 1.24l-.048 1.068-1.584.654c-.87.36-1.602.654-1.625.655-.023 0-.041-1.086-.041-2.416s.04-2.416.088-2.416c.05 0 .706.235 1.459.522m18.445 1.822c1.104.473 2.008.89 2.008.923 0 .035-.469 1.005-1.042 2.156-.756 1.52-1.11 2.072-1.292 2.015-.282-.089-6.665-2.782-7.381-3.115-.256-.119-.43-.307-.387-.418.043-.112.73-1.027 1.527-2.035l1.448-1.832 1.556.722c.856.397 2.46 1.11 3.563 1.584m-29.554 7.478 1.95 5.74-.59.51c-.326.281-1.8 1.468-3.278 2.637l-2.687 2.125v-4.935c0-4.446.026-4.925.266-4.833.146.056.446.147.666.203l.401.1.013-5.56.013-5.56.648 1.917c.356 1.055 1.525 4.5 2.598 7.656m16.312-5.126c.366.654 1.173 2.009 1.791 3.011.62 1.002 1.125 1.872 1.125 1.933-.001.108-7.906 3.86-8.133 3.86-.064 0-.487-.807-.94-1.792a224 224 0 0 0-1.542-3.274c-.395-.815-.717-1.565-.716-1.666 0-.164 7.163-3.238 7.581-3.254.092-.004.467.528.834 1.182m15.95 1.633c-.89.437-1.64.775-1.667.752s.31-.81.75-1.748l.8-1.705.866.953.867.954zm-6.825.452 3.791 1.635v8.235l-1.041-.464c-1.036-.462-1.042-.469-1.091-1.21l-.05-.748-2.909-1.31-2.909-1.308V22.81c0-2.596.046-3.303.209-3.232.114.05 1.914.827 4 1.726m8.653 4.074-.037 4.344-.84 2.442a494 494 0 0 0-1.93 5.775c-.599 1.834-1.167 3.409-1.261 3.5-.118.114-.14.035-.069-.25.058-.229.105-4.447.106-9.373l.003-8.957 1.958-.984c1.077-.541 1.992-.952 2.033-.913s.058 2.026.037 4.416m-25.604-.814c1.398 2.859 1.6 3.403 1.2 3.246-1.862-.735-5.744-2.372-5.855-2.47-.115-.1 2.988-3.64 3.199-3.649.028 0 .683 1.292 1.456 2.873m35.396-.974.737.385-.737.423a945 945 0 0 1-3.546 2.005l-2.81 1.583-1.19-.551-1.19-.55-.05-.932c-.034-.61.014-.93.137-.93.104 0 .654.186 1.223.414l1.035.414 2.577-1.324c1.417-.728 2.69-1.323 2.827-1.323.138 0 .582.174.987.386m1.18 6.556v5.29l-2.459-2.427a472 472 0 0 0-3.458-3.384c-.816-.781-.954-.988-.75-1.12.629-.407 6.43-3.639 6.542-3.644.069-.003.125 2.375.125 5.285m-25.779-4.122c-.076.07-.738.392-1.471.714-.734.323-2.065.929-2.959 1.347l-1.625.76v.714c0 .692-.027.728-.878 1.172-.482.252-.932.458-1 .458s-.122-.53-.122-1.176v-1.177l2.125-.994c1.17-.547 2.988-1.39 4.042-1.872l1.917-.878.054.402c.03.222-.007.46-.083.53m-11.43 1.841c1.123.48 2.042.926 2.042.99 0 .102-1.354 1.317-2.196 1.971-.248.193-.479-.047-2.042-2.12-.969-1.286-1.762-2.373-1.762-2.415 0-.087 1.021.319 3.958 1.574m-2.706 1.16 1.914 2.554-.357.597c-.196.328-1.096 1.906-2 3.506l-1.642 2.909v-6.145c0-3.38.038-6.107.085-6.06s.947 1.234 2 2.639m17.728-1.282c1.41.658 2.556 1.26 2.548 1.337-.011.12-2.356 1.272-4.611 2.264l-.667.293-1.917-.89a714 714 0 0 1-2.722-1.272l-.807-.38 2.723-1.27c1.498-.697 2.76-1.27 2.806-1.273s1.237.533 2.647 1.19m13.24.553.895.438.11 4.005c.06 2.203.108 4.705.108 5.56v1.553l-.995.503c-.547.276-1.035.502-1.083.502s-.088-2.925-.088-6.5.036-6.5.08-6.5c.043 0 .481.197.973.439m6.61 5.674c1.145 1.118 2.045 2.066 2 2.107s-1.599.835-3.455 1.762l-3.375 1.686V29.298l1.375 1.32c.756.726 2.311 2.234 3.455 3.351m-32.43 6.554c-.116.907-.129.873-1.251-3.584-.624-2.475-1.137-4.69-1.141-4.921-.006-.32.286-.68 1.2-1.486l1.209-1.063.05 5.069c.027 2.787-.003 5.48-.068 5.985m16.101-8.74v2.096l.375-.117c.206-.064.814-.336 1.35-.605.537-.27 1.006-.458 1.044-.42.038.037.05 2.399.025 5.247l-.044 5.178-1.627-1.778a279 279 0 0 0-4.292-4.528l-2.664-2.75.042-.893.041-.893 2.75-1.298c1.513-.715 2.806-1.307 2.875-1.316s.125.926.125 2.078m-9.4-.705 2.65 1.223.05.854.05.854-3.3 3.547a834 834 0 0 1-4.255 4.548l-.955 1.001-.003-5.2-.004-5.2.625.26c.344.144.904.403 1.244.576s.696.314.791.314c.11 0 .174-.727.174-2 0-1.1.064-2 .142-2s1.334.55 2.791 1.223m-14.824 8.223c-.035.035-1.531-.706-3.326-1.646s-3.249-1.72-3.231-1.735c.017-.015 1.494-1.165 3.281-2.556l3.25-2.53.045 4.202c.024 2.311.016 4.23-.019 4.265m11.057-7.365v.748l-.839-.331c-.462-.182-.893-.337-.958-.345-.133-.016 1.475-.793 1.672-.81.07-.005.125.327.125.738m15.44-.112c.257.145.181.189-1.398.817-.148.06-.208-.136-.208-.677v-.76l.67.236c.37.13.79.303.935.384m5.389 4.823-.006 4.958-1.953.935c-1.073.514-1.972.919-1.998.899-.05-.04 3.856-11.75 3.921-11.75.023 0 .04 2.23.036 4.958m-25.376 1.25c.73 2.956 1.28 5.394 1.224 5.418-.138.059-6.731-3.348-6.747-3.487-.019-.172 3.976-7.302 4.093-7.304.057-.001.701 2.417 1.43 5.373m11.048 3.795v6.67l-4.208-2.11c-2.315-1.16-4.235-2.13-4.267-2.159s1.548-1.761 3.512-3.852a515 515 0 0 0 4.204-4.51c.347-.39.66-.71.695-.71.036 0 .064 3.002.064 6.67m7.206-.003c1.158 1.238 2.052 2.305 1.987 2.372-.135.138-8.14 4.295-8.273 4.295-.047 0-.086-3.013-.086-6.695v-6.696l2.133 2.237c1.173 1.23 3.08 3.25 4.239 4.487M32.17 1.366c-.325.756-1.574 3.751-2.776 6.656-1.2 2.905-2.247 5.242-2.324 5.194-.274-.17-4.815-9.438-4.68-9.554.074-.066 1.486-.594 3.136-1.173s3.9-1.375 5-1.767S32.579.005 32.644 0c.066-.005-.147.61-.473 1.366m6.276 8.232c2.736 5.024 4.958 9.152 4.937 9.173s-.635-.148-1.365-.376a1734 1734 0 0 0-13.285-3.987c-.527-.151-.958-.333-.958-.405 0-.127 2.007-5.052 4.25-10.43.611-1.466 1.152-2.8 1.202-2.964s.124-.264.166-.222 2.316 4.187 5.053 9.211m-14.371-.824c1.31 2.615 2.356 4.783 2.322 4.817s-3.62-1.137-7.967-2.602c-4.348-1.465-8.055-2.667-8.239-2.67-.294-.008-.285-.034.084-.234.229-.123 2.629-1.023 5.333-1.998s5.067-1.841 5.25-1.924.446-.149.583-.147c.16.002 1.111 1.72 2.634 4.758M9.356 9.82l.606.996-1.718 2.129A364 364 0 0 0 5.026 17c-2.473 3.176-2.227 2.96-3.687 3.24-.71.135-1.312.224-1.339.197s1.322-1.852 2.996-4.057a1000 1000 0 0 0 4.365-5.782c.726-.976 1.335-1.774 1.355-1.774s.308.448.64.996m8.753 1.755c4.17 1.403 7.816 2.637 8.101 2.742l.518.19-2.658 6.367c-1.462 3.501-2.676 6.385-2.698 6.407-.045.048-.598-.827-4.188-6.624a1512 1512 0 0 0-4.571-7.333c-2.992-4.757-2.93-4.64-2.379-4.419.16.065 3.704 1.266 7.875 2.67m-3.33 7.249a970 970 0 0 0 4.158 6.667c.154.229.45.697.656 1.041l.376.625-.721-.311a761 761 0 0 1-4.472-1.986 890 890 0 0 0-7.084-3.121c-1.833-.796-3.387-1.498-3.453-1.56-.128-.12.665-1.186 4.084-5.489 1.935-2.435 2.18-2.686 2.368-2.417.115.166 1.954 3.113 4.088 6.55m18.997-2.255c2.979.888 6.274 1.878 7.321 2.2l1.905.586-3.238 1.212a804 804 0 0 0-8.655 3.332l-7.075 2.767c-.912.357-1.688.618-1.726.58-.037-.037.269-.878.68-1.87.412-.99 1.477-3.564 2.368-5.718l1.84-4.45c.201-.483.267-.52.693-.394zm6.126 5.298c-.53.811-8.92 14.091-9.39 14.863-.275.452-.576.847-.668.878-.092.03-1.87-2.01-3.952-4.535-3.092-3.751-3.73-4.612-3.492-4.703.16-.061 4.192-1.63 8.96-3.487 4.766-1.856 8.693-3.38 8.727-3.383.033-.005-.05.16-.185.367m-28.96 2.34c7.85 3.389 9.19 3.984 9.117 4.057-.035.034-1.369.435-2.965.89l-2.902.827-2.202-1.252-2.203-1.251-2.2-2.618a1411 1411 0 0 1-2.463-2.938c-.326-.395-1-.659 5.818 2.284m29.796 5.881-.046 2.763-4.916 2.384c-2.704 1.312-4.94 2.364-4.969 2.339-.048-.043 1.034-1.782 7.313-11.748l2.572-4.083.046 2.791c.025 1.536.025 4.035 0 5.554M6.92 24.983l2.334 2.743-.095 3.924c-.052 2.158-.112 3.945-.133 3.971s-.567-1.511-1.214-3.416a535 535 0 0 0-2.356-6.763c-.648-1.814-1.18-3.348-1.18-3.408 0-.155.044-.106 2.644 2.95m-1.44 2.257c2.231 6.384 3.106 8.996 3.036 9.066-.04.039-1.159-.485-2.488-1.164l-2.416-1.236.008-5.833.008-5.833.343.833c.189.458.867 2.333 1.508 4.167m15.464 8.267c0 6.296-.017 6.679-.291 6.58-.16-.058-1.627-.722-3.26-1.476l-2.967-1.371.11-4.334c.06-2.383.138-4.363.173-4.4.08-.084 5.748-1.656 6.027-1.672.163-.009.208 1.43.208 6.673m4.668-1.732c3.265 3.939 3.658 4.475 3.41 4.656-.154.112-1.846 1-3.762 1.972l-3.482 1.768v-6.424c0-3.533.032-6.424.072-6.424s1.733 2.003 3.762 4.452"/></svg>