<svg xmlns="http://www.w3.org/2000/svg" width="44" height="39" viewBox="0 0 44 39"><path d="M300.926-162.817c.515 1.095.735 1.74.63 1.846-.289.288-4.572 2.637-4.81 2.637-.255 0-1.995-3.547-1.779-3.626.074-.028 1.185-.607 2.468-1.287s2.416-1.24 2.516-1.245.54.749.975 1.675m2.33-1.1c1.057.32 2.692.8 3.634 1.067 1.927.546 9.926 2.854 11.712 3.379l1.166.343-1.833.87c-1.563.742-1.907.848-2.333.722-.275-.08-3.163-.896-6.417-1.812-3.254-.915-6.05-1.705-6.213-1.755-.32-.097-2.066-3.398-1.798-3.398.087 0 1.024.263 2.081.583m-8.804 10.584c-.787 2.43-2.592 8.088-4.011 12.575-1.541 4.871-2.7 8.268-2.876 8.431-.317.292-3.046 2.024-3.046 1.932 0-.14 6.803-21.17 9.038-27.938l.854-2.583.736 1.583.736 1.583zm10.758-6.34c1.224.362 3.987 1.154 6.142 1.76 2.154.605 4.07 1.2 4.258 1.323.19.123.912 1.444 1.623 2.97l1.281 2.748-2.428 7.478a4423 4423 0 0 1-4.123 12.63l-1.695 5.152-2.719 1.473c-1.496.81-2.871 1.473-3.056 1.473-.25 0-8.492-2.341-12.69-3.604-.185-.056-.844-1.182-1.728-2.952l-1.428-2.863 1.864-5.832c1.026-3.208 2.528-7.895 3.339-10.416.81-2.52 1.75-5.483 2.088-6.583.337-1.1.72-2.113.851-2.25.385-.406 5.447-3.14 5.837-3.154.197-.007 1.36.284 2.584.646m16.645 3.55c.64 1.352 1.162 2.514 1.16 2.583s-.819.554-1.816 1.08c-1.966 1.036-1.898 1.038-2.404-.067-.154-.337-.587-1.275-.961-2.084-1.137-2.457-1.231-2.094.813-3.126.983-.496 1.846-.889 1.916-.872.07.016.652 1.135 1.292 2.487m-21.193 5.009-2.273 1.853 1.345 1.472 1.345 1.471 1.265-1.257c.721-.717 1.407-1.258 1.595-1.258.182 0 .855.15 1.496.333s1.182.334 1.202.334-.73-1.083-1.666-2.405c-.937-1.323-1.778-2.404-1.87-2.401-.091.002-1.189.838-2.439 1.858m3.356-1.791c0 .134 3.178 4.48 3.309 4.526.116.04 2.413-3.124 2.327-3.204-.059-.054-5.385-1.417-5.538-1.417a.096.096 0 0 0-.098.095m17.342 5.5c-.908 2.744-2.224 6.751-2.923 8.905-1.96 6.042-5.45 16.577-5.513 16.645-.07.077-1.384-2.75-1.509-3.248-.055-.22.503-2.171 1.41-4.922 1.8-5.468 3.09-9.445 4.7-14.475.659-2.062 1.37-4.265 1.58-4.895l.381-1.146 1.725-.965c.948-.531 1.741-.948 1.763-.927s-.705 2.284-1.614 5.028m-12.302-2.205c-.566.764-1.071 1.498-1.122 1.631-.074.193.275.3 1.714.527.993.157 1.925.286 2.07.286.209 0 .085-.409-.577-1.917-.464-1.054-.89-1.917-.95-1.917-.058 0-.57.626-1.135 1.39m-1.422 2.395c-.042.073-.13.574-.195 1.114-.096.787-.075.965.104.897a91 91 0 0 1 2.02-.635c.989-.302 1.739-.6 1.667-.661s-.768-.24-1.547-.399a43 43 0 0 1-1.694-.367c-.153-.044-.312-.021-.355.051m1.924 1.955-2.041.685 1.479 1.472c.831.827 1.526 1.396 1.587 1.298.058-.096.361-.872.672-1.726.31-.854.645-1.758.742-2.01.231-.597.149-.588-2.439.28m-5.623 2.353c-1.282.687-2.42 1.341-2.53 1.454-.244.252-1.463 4.27-1.334 4.398.052.052 1.044-.271 2.207-.717l2.113-.81.961-2.792c.528-1.535.95-2.79.938-2.787-.013.002-1.073.567-2.355 1.254m3.007-1.081c-.048.132-.49 1.327-.984 2.656-.493 1.33-.876 2.441-.85 2.472.064.076 4.907-2.202 4.908-2.309 0-.047-.672-.755-1.493-1.573-1.03-1.025-1.52-1.412-1.58-1.246m-6.843 9.349c-.949.49-1.584 1.135-1.584 1.607 0 .38 1.356 2.758 1.69 2.964.162.1 2.19-.95 2.685-1.39.543-.482.403-1.043-.665-2.666-.66-1.003-1.016-1.09-2.126-.515m-10.842 5.849c.67 1.398 1.187 2.595 1.148 2.66-.095.164-3.562 2.016-3.633 1.941-.09-.093-2.26-4.815-2.303-5.008-.04-.184 2.98-2.095 3.35-2.12.125-.008.743 1.076 1.438 2.527m7.615 4.89 6.483 1.922 1.09.324.877 1.763c.482.97.844 1.797.805 1.837-.04.04-2.35-.64-5.134-1.51-6.814-2.129-12.822-3.935-13.09-3.935-.527 0-.11-.313 1.487-1.119.94-.473 1.794-.866 1.898-.87.105-.006 2.617.709 5.584 1.588m14.539 1.207c.424.947.771 1.785.771 1.863 0 .197-4.514 2.728-4.885 2.739-.226.007-.485-.42-1.041-1.715-.408-.948-.74-1.815-.74-1.926 0-.245 4.872-2.96 5.02-2.797.057.062.45.889.875 1.836m-53.984-38.779c1.325.381 2.375.749 2.333.816-.042.068-1.127.777-2.411 1.574l-2.335 1.451-2.874-.617c-1.58-.34-3.084-.667-3.342-.728-.412-.097-.078-.296 2.75-1.638 1.77-.84 3.275-1.532 3.344-1.539s1.21.3 2.535.68m7.714 1.893c1.306.32 2.488.581 2.625.581.138 0 .248.057.244.125-.003.07-1.327.95-2.942 1.959a342 342 0 0 0-6.286 4.05l-3.349 2.218-1.25-.087c-1.377-.097-6.981-.857-7.086-.962-.063-.062 1.484-.962 7.336-4.263 1.467-.827 3.792-2.141 5.167-2.92 1.507-.853 2.632-1.389 2.833-1.349.183.036 1.402.328 2.708.648m-16.375 2.517c1.925.242 3.556.49 3.624.55.068.062-.27.342-.75.622s-2.545 1.523-4.587 2.76l-3.713 2.25-1.287-.227c-.708-.125-2.597-.418-4.2-.652-1.601-.233-2.933-.446-2.959-.472s1.998-1.084 4.496-2.351 4.768-2.437 5.043-2.598.575-.3.667-.308c.091-.008 1.741.184 3.666.426m-9.614 6.55c2.688.448 4.907.84 4.932.873.183.234 2.266 4.306 2.266 4.43 0 .087-.657.254-1.459.37-.802.118-2.77.427-4.373.688s-2.962.42-3.02.355-.792-1.615-1.632-3.443c-1.39-3.03-1.824-4.097-1.66-4.089.033.002 2.26.369 4.946.817m11.694.28c1.693.23 3.09.434 3.105.452.014.017.3.577.633 1.243.436.871.547 1.234.395 1.29-.307.112-6.089 1.415-6.278 1.415-.125 0-1.278-1.892-2.983-4.9-.1-.175.904-.078 5.128.5m6.823 7.471c1.383 1.781 2.514 3.274 2.514 3.318s-.919.78-2.042 1.634a221 221 0 0 0-3.731 2.91c-.93.747-1.777 1.411-1.883 1.477-.106.065-1.572-.352-3.257-.927l-3.065-1.045 1.754-1.677 1.754-1.678-.749-2q-1.254-3.348-1.1-3.476c.128-.108 6.566-1.74 6.93-1.757.28-.013.929.714 2.875 3.221m-10.921 1.507c.441 1.161.767 2.145.725 2.188-.042.042-1.119-.111-2.392-.34s-3.1-.553-4.059-.72l-1.743-.303-.215-1.062c-.119-.584-.177-1.1-.13-1.147s1.565-.324 3.375-.616c2.628-.425 3.325-.49 3.464-.321.095.116.534 1.16.975 2.321m-3.514 2.423c1.998.366 3.68.666 3.737.666s-.598.525-1.455 1.166c-.857.642-1.605 1.167-1.663 1.167-.122 0-2.588.457-5.837 1.082-1.237.238-3.471.663-4.964.943l-2.714.51-3.938-1.634c-3.23-1.34-3.866-1.655-3.536-1.757.221-.069 1.94-.39 3.819-.716s5.254-.923 7.5-1.327 4.383-.742 4.75-.75c.367-.01 2.302.284 4.3.65m17.117 1.718v1.385l-2.459 2.168c-3.664 3.233-5.017 4.395-5.118 4.395-.05 0-.09-.778-.09-1.729v-1.728l3.47-2.6c1.908-1.43 3.607-2.752 3.775-2.938.169-.186.332-.339.364-.339s.058.624.058 1.386m-35.871 2.719c2.042.885 3.692 1.625 3.667 1.645l-6.525 4.894-6.479 4.858-2.854-1.06a629 629 0 0 0-4.855-1.78c-1.1-.396-2.054-.764-2.12-.818-.105-.088 1.67-1.201 12.37-7.758 1.42-.87 2.696-1.585 2.833-1.587.138-.002 1.921.72 3.963 1.606m22.665 1.33c1.717.606 3.328 1.176 3.58 1.267.454.162.459.182.459 1.635v1.47l-.458.092c-2.902.584-14.476 2.601-14.92 2.601-.244 0-2.452-.61-4.907-1.354s-4.634-1.391-4.84-1.436-.375-.139-.375-.209c0-.139 2.193-1.825 2.785-2.142.202-.108.99-.312 1.75-.452 1.867-.346 11.548-2.22 12.382-2.396 1.15-.244 1.348-.203 4.544.924m-19.733 6.414a411 411 0 0 0 4.355 1.35c.917.277 1.765.557 1.886.623.157.086.014.302-.5.758-.396.35-1.856 1.713-3.246 3.029s-2.594 2.391-2.675 2.391c-.167 0-8.678-3.133-9.01-3.317-.14-.077.927-1.08 3.083-2.9 1.812-1.53 3.323-2.782 3.357-2.782s1.272.381 2.75.848m-67.599-34.871-.046 2.499-2.083-.917a370 370 0 0 0-2.64-1.153l-.558-.236.486-.627c.267-.345 1.455-2.05 2.64-3.787l2.155-3.16.046 2.441a161 161 0 0 1 0 4.94m3.539-3.542c1.368 2.003 2.433 3.694 2.368 3.756-.128.122-4.823 2.308-4.956 2.308-.044 0-.08-2.225-.08-4.944 0-2.72.04-4.904.09-4.854s1.21 1.73 2.578 3.734m-5.983 5.983 2.398 1.079.038 5.376.038 5.376-.635-1.5c-4.48-10.575-4.89-11.616-4.542-11.505.167.053 1.384.582 2.703 1.174m8.648-1.162c0 .081-4.806 11.72-5.158 12.493-.096.21-.157-1.613-.164-4.929l-.011-5.262 2.542-1.186c2.534-1.183 2.791-1.286 2.791-1.116m-10.31 4.577a957 957 0 0 0 2.577 6.11l1.573 3.693-.045 3.464-.045 3.465-1.317-2.158a385 385 0 0 1-1.833-3.03c-.29-.49-.638-.872-.794-.874-.153-.002-.628.146-1.056.33-.427.183-.809.333-.847.333s-.065-3.506-.06-7.792l.01-7.791.417.916c.23.505.87 2.005 1.42 3.334m10.848 1.989-.046 6.156-.917-.406c-.505-.223-1.01-.402-1.121-.397-.112.005-.991.999-1.954 2.208l-1.75 2.2-.05-.941c-.046-.887.12-1.351 2.834-7.956 1.586-3.857 2.92-7.015 2.966-7.017s.063 2.767.038 6.153m13.857-.323c.972.688 1.765 1.288 1.764 1.334-.005.105-4.06 2-4.28 2-.09 0-.214-.694-.274-1.542s-.158-2.097-.216-2.777l-.106-1.235.673.485c.37.267 1.468 1.048 2.44 1.735m-3.61.625c.1 1.444.165 2.643.145 2.665s-.895-.342-1.943-.81c-1.047-.467-2.114-.94-2.369-1.052l-.465-.203 2.045-1.612c1.125-.887 2.125-1.613 2.224-1.613.112 0 .247.976.362 2.625m-34.468 3.43.017 3.304-2.504-1.299-2.503-1.299 2.378-2.383c2.145-2.15 2.39-2.346 2.487-2.005.06.207.116 1.864.125 3.682m4.424-.572c.637.646 1.124 1.203 1.083 1.237-.254.214-4.487 2.447-4.638 2.447-.13 0-.186-1.065-.186-3.6v-3.602l1.292 1.172c.71.644 1.812 1.7 2.45 2.346m27.717-.285 2.375 1.032v12.42l-.542-.248a11 11 0 0 0-.833-.345c-.256-.084-.292-.336-.292-2.047v-1.953l-1.667-1.732-1.666-1.732v-3.213c0-1.767.056-3.213.125-3.214.068 0 1.193.464 2.5 1.032m8.203 4.594c-.005 5.134-.028 5.596-.266 5.292-.407-.52-4.414-8.611-4.354-8.791.056-.17 4.062-2.084 4.417-2.11.163-.013.207 1.21.203 5.61m-13.509-3.185 1.347.607v1.476c0 .812-.03 1.476-.066 1.476s-.712-.296-1.5-.659l-1.434-.659v-1.424c0-.784.069-1.425.153-1.425s.759.274 1.5.608m-16.153 1.07c0 1.35.107 1.32-1.708.496l-1.028-.467 1.243-.589c.684-.324 1.3-.595 1.368-.603.07-.008.125.515.125 1.163m27.083 4.155c1.238 2.474 2.25 4.536 2.25 4.582s-1.05.61-2.333 1.252l-2.333 1.169v-5.751c0-3.163.037-5.751.083-5.751.045 0 1.095 2.024 2.333 4.499m-32.083-1.004v3.163l-.534.276c-.294.152-1.344 1.066-2.333 2.03l-1.8 1.755v-7.856l2.292-1.26c1.26-.692 2.31-1.261 2.334-1.264.023-.003.041 1.417.041 3.156m-8.065-1.733 2.399 1.262v6.105c0 3.599-.062 6.04-.15 5.946-.163-.174-4.85-14.072-4.85-14.383 0-.106.045-.192.101-.192s1.18.568 2.5 1.262m11.279-.073c.753.287 1.466.6 1.585.693.146.115.2.514.167 1.239l-.049 1.069-1.583.654a54 54 0 0 1-1.625.655c-.023 0-.042-1.087-.042-2.416 0-1.33.04-2.417.089-2.417s.705.236 1.458.523m18.446 1.821c1.104.474 2.007.89 2.007.924s-.469 1.004-1.042 2.156c-.756 1.519-1.11 2.071-1.291 2.014-.283-.088-6.666-2.781-7.382-3.114-.255-.12-.43-.307-.387-.419s.73-1.027 1.527-2.034l1.449-1.833 1.555.723c.856.397 2.46 1.11 3.564 1.583m-29.555 7.48 1.951 5.738-.591.511c-.326.28-1.8 1.467-3.278 2.636l-2.687 2.126v-4.935c0-4.446.027-4.925.266-4.833.146.056.446.147.666.202l.402.1.013-5.559.013-5.56.647 1.917c.356 1.054 1.525 4.5 2.598 7.656m16.312-5.126c.367.653 1.173 2.008 1.792 3.01.618 1.003 1.124 1.873 1.124 1.933-.001.109-7.905 3.86-8.133 3.86-.064 0-.487-.806-.94-1.791a224 224 0 0 0-1.542-3.274c-.395-.815-.717-1.565-.716-1.667.001-.163 7.164-3.237 7.582-3.253.091-.004.466.528.833 1.182m15.95 1.633c-.89.437-1.64.775-1.667.751-.028-.023.31-.81.75-1.748l.8-1.705.867.954.866.954zm-6.825.452 3.792 1.634v8.236l-1.042-.465c-1.036-.461-1.042-.468-1.091-1.21l-.05-.747-2.909-1.31-2.908-1.309v-3.323c0-2.596.045-3.303.208-3.232zm8.654 4.073-.038 4.345-.84 2.442a494 494 0 0 0-1.93 5.775c-.599 1.833-1.167 3.408-1.261 3.5-.118.114-.14.035-.068-.25.057-.23.104-4.447.106-9.374l.002-8.957 1.958-.984c1.077-.54 1.992-.952 2.033-.912s.058 2.026.038 4.415m-25.604-.813c1.397 2.858 1.598 3.402 1.2 3.245-1.863-.735-5.745-2.371-5.856-2.469-.115-.1 2.988-3.64 3.199-3.649.028 0 .683 1.292 1.457 2.873m35.395-.974.737.385-.737.422a945 945 0 0 1-3.546 2.006l-2.81 1.582-1.19-.55-1.19-.551-.05-.93c-.033-.61.014-.932.138-.932.103 0 .653.187 1.222.414l1.035.414 2.577-1.323c1.418-.728 2.69-1.324 2.827-1.323.138 0 .582.174.987.386m1.18 6.555v5.29l-2.458-2.426a472 472 0 0 0-3.459-3.384c-.816-.782-.954-.988-.75-1.12.629-.407 6.43-3.64 6.542-3.644.069-.003.125 2.375.125 5.284m-25.779-4.12c-.076.07-.738.39-1.471.713s-2.065.928-2.958 1.346l-1.625.76v.715c-.001.692-.028.727-.878 1.172-.483.252-.933.458-1 .458s-.122-.53-.122-1.176v-1.177l2.125-.995c1.168-.547 2.987-1.39 4.041-1.872l1.917-.877.055.402c.03.221-.008.46-.084.53m-11.43 1.84c1.123.48 2.042.926 2.042.991 0 .101-1.354 1.317-2.196 1.97-.248.193-.479-.046-2.042-2.12-.969-1.285-1.762-2.372-1.762-2.414 0-.088 1.021.318 3.959 1.574m-2.707 1.16 1.915 2.554-.357.597c-.197.328-1.097 1.906-2 3.506l-1.643 2.909v-6.146c0-3.38.038-6.106.085-6.06s.947 1.235 2 2.64m17.728-1.282c1.41.658 2.556 1.26 2.549 1.337-.012.12-2.357 1.271-4.612 2.263l-.667.294-1.916-.891a693 693 0 0 1-2.723-1.271l-.806-.38 2.722-1.27c1.498-.697 2.76-1.27 2.807-1.274.045-.003 1.236.533 2.646 1.192m13.24.551.895.439.11 4.005c.06 2.203.109 4.704.109 5.56v1.553l-.996.502c-.547.277-1.035.503-1.083.503s-.088-2.925-.088-6.5.036-6.5.08-6.5c.043 0 .482.197.973.438m6.61 5.675c1.145 1.117 2.045 2.066 2 2.107s-1.598.835-3.455 1.762l-3.375 1.686v-10.226l1.375 1.32c.757.725 2.311 2.233 3.456 3.35m-32.431 6.554c-.116.908-.128.873-1.25-3.583-.624-2.475-1.138-4.69-1.142-4.922-.006-.32.286-.68 1.2-1.485l1.209-1.063.05 5.068c.027 2.788-.003 5.481-.067 5.985m16.1-8.738v2.094l.375-.116c.206-.064.814-.337 1.35-.606s1.007-.458 1.045-.42c.037.038.049 2.4.024 5.248l-.044 5.178-1.627-1.778a279 279 0 0 0-4.291-4.528l-2.664-2.75.041-.893.041-.893 2.75-1.299c1.513-.714 2.807-1.306 2.875-1.315.07-.01.125.926.125 2.078m-9.4-.705 2.65 1.223.05.854.05.854-3.3 3.547a834 834 0 0 1-4.255 4.548l-.955 1-.003-5.2-.003-5.199.625.26c.343.144.903.402 1.243.575s.696.315.792.315c.11 0 .173-.727.173-2 0-1.1.064-2 .142-2s1.334.55 2.791 1.223m-14.824 8.223c-.034.035-1.531-.706-3.326-1.646-1.794-.94-3.249-1.721-3.231-1.736l3.281-2.556 3.25-2.53.045 4.202c.024 2.312.016 4.231-.019 4.266m11.058-7.365v.747l-.84-.33c-.462-.183-.893-.338-.958-.345-.133-.016 1.475-.794 1.673-.81.068-.005.125.326.125.738m15.438-.112c.258.144.183.189-1.397.817-.148.059-.208-.136-.208-.678v-.76l.671.237c.369.13.79.303.934.384m5.389 4.822-.006 4.959-1.952.935c-1.074.514-1.973.918-1.998.898-.052-.04 3.855-11.749 3.92-11.75.023 0 .04 2.231.036 4.958m-25.376 1.25c.73 2.957 1.28 5.395 1.224 5.419-.138.058-6.731-3.349-6.747-3.487-.019-.173 3.976-7.303 4.093-7.305.057 0 .701 2.417 1.43 5.373m11.049 3.795v6.67l-4.209-2.109c-2.314-1.16-4.235-2.131-4.267-2.16-.033-.027 1.548-1.76 3.512-3.852a515 515 0 0 0 4.204-4.51c.347-.39.66-.709.696-.709s.064 3.002.064 6.67m7.205-.003c1.158 1.238 2.052 2.305 1.987 2.371-.135.139-8.14 4.296-8.272 4.296-.048 0-.087-3.013-.087-6.696v-6.695l2.133 2.237c1.173 1.23 3.08 3.25 4.239 4.487m-64.864-40.324a848 848 0 0 0-2.776 6.656c-1.202 2.905-2.248 5.243-2.325 5.195-.274-.17-4.815-9.438-4.68-9.555.074-.065 1.486-.593 3.136-1.173s3.9-1.375 5-1.767 2.053-.716 2.119-.721c.065-.006-.148.609-.474 1.365m6.276 8.233c2.736 5.024 4.958 9.152 4.937 9.173-.02.02-.635-.149-1.365-.377a1734 1734 0 0 0-13.285-3.987c-.527-.15-.958-.333-.958-.404 0-.127 2.007-5.052 4.25-10.43.612-1.466 1.153-2.8 1.202-2.965.05-.164.125-.263.167-.222s2.315 4.187 5.052 9.212m-14.37-.825c1.31 2.616 2.355 4.783 2.32 4.817-.033.034-3.618-1.136-7.966-2.601s-8.055-2.667-8.238-2.671c-.295-.007-.286-.034.083-.233.23-.124 2.63-1.023 5.333-1.999 2.704-.975 5.067-1.84 5.25-1.923.184-.083.446-.149.584-.148.16.002 1.11 1.721 2.633 4.758m-14.72 1.047.606.996-1.718 2.129a364 364 0 0 0-3.218 4.055c-2.473 3.176-2.227 2.96-3.687 3.239-.71.135-1.312.225-1.338.198s1.32-1.852 2.996-4.057a1000 1000 0 0 0 4.364-5.782c.726-.976 1.336-1.775 1.355-1.775.02 0 .308.449.64.997m8.753 1.754c4.171 1.404 7.817 2.638 8.102 2.742l.517.19-2.658 6.367c-1.462 3.502-2.676 6.385-2.698 6.408-.045.047-.598-.827-4.188-6.624a1512 1512 0 0 0-4.571-7.334c-2.992-4.756-2.93-4.64-2.379-4.418.16.064 3.704 1.266 7.875 2.67m-3.33 7.248a970 970 0 0 0 4.159 6.667c.153.23.449.698.655 1.042l.377.624-.722-.31c-.397-.172-2.41-1.065-4.472-1.986a890 890 0 0 0-7.083-3.122c-1.834-.796-3.388-1.497-3.454-1.559-.128-.12.665-1.187 4.084-5.49 1.935-2.435 2.18-2.686 2.368-2.416.115.165 1.954 3.113 4.088 6.55m18.997-2.256c2.98.889 6.274 1.879 7.321 2.201l1.905.585-3.238 1.213c-1.78.667-5.676 2.166-8.655 3.331l-7.074 2.767c-.912.357-1.69.618-1.726.581-.038-.037.268-.879.68-1.87.411-.99 1.476-3.564 2.367-5.718l1.84-4.45c.202-.483.267-.52.693-.394zm6.126 5.298c-.53.812-8.92 14.092-9.39 14.864-.275.451-.576.846-.668.877s-1.87-2.01-3.952-4.535c-3.092-3.75-3.73-4.611-3.492-4.702.161-.061 4.193-1.63 8.96-3.487 4.766-1.857 8.693-3.38 8.727-3.384.033-.004-.05.16-.185.367m-28.96 2.34c7.851 3.39 9.19 3.985 9.118 4.057-.035.035-1.37.436-2.966.89l-2.901.827-2.203-1.251-2.203-1.252-2.2-2.618a1411 1411 0 0 1-2.463-2.938c-.326-.394-1-.658 5.819 2.285m29.795 5.881-.045 2.763-4.917 2.384c-2.704 1.311-4.94 2.363-4.968 2.338-.05-.043 1.033-1.781 7.312-11.748l2.573-4.083.045 2.792c.025 1.535.025 4.035 0 5.554m-33.819-5.103 2.334 2.743-.095 3.924c-.052 2.158-.111 3.945-.133 3.97-.02.027-.567-1.51-1.214-3.416a535 535 0 0 0-2.355-6.762c-.65-1.814-1.18-3.348-1.18-3.409 0-.154.043-.106 2.643 2.95m-1.44 2.257c2.231 6.385 3.106 8.996 3.036 9.067-.04.039-1.158-.485-2.488-1.165l-2.416-1.235.008-5.834.008-5.833.343.833c.189.459.868 2.334 1.509 4.167m15.464 8.268c0 6.295-.017 6.678-.292 6.58-.16-.059-1.627-.723-3.26-1.477l-2.967-1.37.11-4.334c.06-2.384.138-4.363.173-4.4.08-.084 5.748-1.657 6.027-1.672.164-.009.209 1.43.209 6.673m4.667-1.733c3.265 3.94 3.658 4.476 3.41 4.656-.153.113-1.846 1-3.762 1.973l-3.482 1.768v-6.424c0-3.534.033-6.425.072-6.425.04 0 1.733 2.004 3.762 4.452M319.327-90.69l.329 1.103 1.648 1.052c1.068.682 1.642 1.15 1.632 1.333-.009.155-.191 1.046-.406 1.98l-.39 1.699.696.993c.383.546.741 1.109.796 1.251.063.165-.457 1.003-1.442 2.322l-1.541 2.064-2.16.202c-1.189.112-2.187.177-2.219.145-.031-.032-.103-.466-.16-.966l-.1-.908 1.54-2.292c.846-1.261 1.508-2.322 1.47-2.357-.037-.036-.78.373-1.651.908s-1.64.977-1.709.982c-.068.005-.125-.122-.125-.283 0-.267-.542-3.25-1.069-5.875-.119-.595-.256-.97-.304-.833-.048.138-.41 2.144-.802 4.46l-.715 4.208-.43-.283c-1.707-1.125-3.03-1.924-3.088-1.866-.037.038.636.93 1.497 1.983 1.273 1.557 1.566 2.02 1.571 2.475l.007.561-.708-.098c-.39-.055-1.534-.148-2.542-.207l-1.833-.109-1.359-2.61-1.358-2.612 1.01-1.659c1.007-1.652 1.012-1.667 1.142-3.326.07-.917.133-1.822.139-2.011.008-.294.317-.44 2.082-.99l2.073-.644 1.337-1.45 1.338-1.45 2.738 1.002 2.737 1.002zm-27.293-.642c0 .97.086 1.342.5 2.162.677 1.34.654 1.997-.114 3.296-.337.57-.67 1.037-.737 1.037-.068 0-.391-.428-.72-.953-.78-1.248-.804-2.142-.095-3.547.403-.799.5-1.2.5-2.078 0-.977.034-1.088.333-1.088.302 0 .333.111.333 1.171m10.834-.59c0 .112-5.783 6.701-5.997 6.833-.112.07-.169-.618-.166-2.03l.004-2.134 1.87-.823a81 81 0 0 0 2.955-1.366c1.08-.544 1.334-.634 1.334-.48m.833 2.233c0 2.058-.032 2.323-.292 2.402-.16.05-1.529.614-3.041 1.255s-2.775 1.142-2.805 1.113c-.056-.056 5.973-7.084 6.077-7.084.034 0 .06 1.041.06 2.314m1.396-1.55.645.732-.118 1.738-.119 1.738-.61-.211-.61-.211-.046-2.275c-.026-1.251.012-2.268.083-2.26.072.01.42.346.775.749m1.53-.077c.94.416 1.033.592.388.734-.462.101-.601.034-1.21-.587-.752-.768-.632-.79.822-.147m-18.172 2.325c.062.282.086.948.055 1.481l-.058.97 1.083.726c1.256.843 1.616 1.441 1.773 2.947.132 1.258.072 1.273-1.461.363-1.723-1.024-2.145-1.828-2.145-4.084 0-1.826.16-2.915.426-2.915.118 0 .265.23.327.512m7.08 1.91c0 2.526-.14 3.218-.768 3.773-.382.338-2.37 1.471-2.581 1.471-.241 0-.174-1.391.105-2.182.315-.892.76-1.38 1.786-1.956l.791-.445v-1.542c0-1.43.025-1.541.334-1.541.318 0 .333.111.333 2.422m19.403 6.454.118.792.698-.472c1.072-.726 1.187-.784 1.028-.514-.076.13-.462.651-.858 1.16l-.72.926.403 2.907c.221 1.6.453 3.302.514 3.783l.112.875h-2.015c-1.811 0-2.016-.03-2.011-.292.003-.16.214-1.73.47-3.49l.465-3.2-.595-.617-.595-.617.559.382c.367.25.597.32.67.201.061-.099.289-1.44.505-2.982.217-1.54.436-2.874.488-2.963.08-.14.34 1.26.764 4.12m-6.07 11.541-1.411 1.42-5.294-5.292-5.294-5.292v-5.668l6.706 6.706 6.706 6.706zm-22.185-8.505.018 3.16-.985.923c-.542.507-2.053 1.935-3.358 3.172-1.623 1.54-2.331 2.119-2.243 1.834.186-.6 3.018-7.474 4.807-11.667l1.529-3.583.107 1.5c.06.825.116 2.922.125 4.66m3.852-3.44c.476.577.833 1.736.833 2.705 0 .27-.052.491-.116.491-.302 0-2.4-1.386-2.778-1.835-.5-.595-.77-1.46-.772-2.465l-.001-.718 1.175.618c.647.34 1.393.882 1.66 1.204m5.112-.721c-.112 1.196-.276 1.606-.926 2.306-.389.42-2.297 1.611-2.579 1.611-.172 0-.125-1.35.071-2.057.098-.352.416-.894.707-1.204.512-.545 2.345-1.739 2.67-1.739.094 0 .117.437.057 1.083m30.12 8.13c1.155 2.912 2.1 5.337 2.1 5.389s-1.538-1.388-3.417-3.199c-2.88-2.776-3.417-3.368-3.417-3.77q0-.476.95-1.763c1.008-1.366 1.582-2.061 1.647-1.994.021.023.983 2.424 2.138 5.336m-36.88-4.687c1.181.63 2.059 1.554 2.3 2.422.172.618.248 2.053.11 2.053-.038 0-.602-.307-1.255-.683-1.241-.716-1.836-1.35-2.153-2.3-.2-.596-.262-2.017-.088-2.017.056 0 .544.237 1.086.525m6.738.51c-.14 1.238-.412 1.927-.946 2.398-.416.366-2.365 1.567-2.544 1.567-.167 0-.116-1.363.079-2.062.23-.83 1.155-1.8 2.318-2.433.504-.274.983-.5 1.063-.502.082-.001.095.459.03 1.032m24.966 2.59c.1.613.068.66-1.555 2.285-.912.912-1.694 1.623-1.738 1.578-.087-.086-.6-3.36-.6-3.825 0-.227.273-.31 1.46-.444 2.46-.28 2.317-.304 2.433.406m-31.466.97c.545.328 1.156.75 1.357.938.516.483.884 1.683.884 2.886 0 1.113.097 1.346.443 1.06.145-.12.225-.574.227-1.29.006-1.86.686-2.836 2.698-3.87.968-.498 1.023-.454.89.723-.153 1.363-.506 2.073-1.297 2.606a39 39 0 0 0-1.47 1.065l-.825.629v1.406c0 1.237-.04 1.429-.333 1.586-.32.171-.334.126-.336-1.203-.001-.762-.095-1.561-.208-1.784-.113-.222-.762-.787-1.442-1.254-1.44-.991-1.88-1.686-1.984-3.125-.085-1.177.013-1.204 1.396-.373m36.907 5.035 1.75 1.7-2.186.002-2.186.002-1.024-2.959c-.563-1.627-1.023-3.031-1.022-3.121s.658.475 1.46 1.256zm-40.49-1.296c-.55 1.583-1.03 2.908-1.066 2.944s-1.022.045-2.191.02l-2.127-.048 3.128-2.961c1.72-1.63 3.157-2.934 3.192-2.899s-.386 1.36-.936 2.944m13.962 3.93-4.095 4.078-2.77-.046-2.772-.046 5.454-5.466 5.454-5.467 1.413 1.435 1.412 1.434zm12.343 1.004-4.6 4.6-1.444-1.475-1.443-1.476 3.211-3.12 3.211-3.119 2.833-.005 2.833-.006zm-27.236-1.143c.064.16.558 1.554 1.097 3.097l.982 2.805-2.289-2.138a308 308 0 0 0-3.358-3.097l-1.069-.958h2.261c1.998 0 2.274.034 2.376.291m42.34.586a621 621 0 0 0-2.731 2.414c-1.51 1.342-2.353 1.85-2.356 1.417-.001-.069.346-1.156.772-2.417l.772-2.291 2.27.002 2.27.002zm-20.95 7.075-.982 1.203.798.403c1.406.712 3.042 1.138 3.912 1.02l.782-.107.185.723c.102.397.482 1.498.844 2.446.69 1.806.907 3.526.445 3.526-.177 0-10.127-9.897-13.282-13.21l-.912-.958 1.41-1.418 1.41-1.418 3.186 3.294 3.186 3.294zm-21.53-3.149L287-59.832l-.201.79-.201.789-1.618.047-1.618.048-.345-.798c-.624-1.442-2.982-7.26-2.982-7.358 0-.052.432.319.959.825.527.507 2.094 1.987 3.482 3.29m42.35-1.33c-.778 1.894-1.104 2.514-1.29 2.458a62 62 0 0 1-1.395-.475l-1.145-.4 2.374-2.119c1.306-1.165 2.402-2.09 2.436-2.057.033.034-.408 1.201-.98 2.594m-8.3.932c1.672.345 1.961.456 2.334.893.348.408.637.535 1.592.702 1.674.291 2.536.718 3.625 1.792.527.52.958.99.958 1.044s-.656.268-1.458.474l-1.458.375-.964-.427c-.53-.235-.988-.427-1.018-.427s-.099.365-.151.812c-.053.447-.435 1.853-.85 3.125-.413 1.272-.801 2.726-.863 3.23-.093.771-.22 1.031-.8 1.639-1.71 1.794-3.673 1.843-5.374.134-.77-.773-.865-.95-.971-1.817-.065-.528-.487-2.086-.938-3.46-.452-1.376-.821-2.759-.821-3.074v-.574l-1.11.418-1.11.417-1.098-.34c-1.637-.506-1.628-.485-.681-1.546.998-1.12 1.831-1.552 3.499-1.81 1.038-.162 1.32-.276 1.666-.674.345-.396.72-.548 2.167-.882a80 80 0 0 1 1.833-.41c.046-.004.942.17 1.992.386m-22.658 2.843v1.75h-7.667v-3.5h7.667zm17.016 2.683c-.192.245-.35.509-.35.586 0 .13 1.524.98 1.754.98.054 0 .076-.303.047-.674-.041-.548-.15-.737-.576-1.006l-.525-.33zm6.692-.082c-.46.295-.542.447-.542.998 0 .358.04.65.09.65.203 0 1.744-.848 1.743-.96 0-.068-.17-.328-.375-.58l-.374-.457zm-28.042 1.732v1.75h-7.833v-3.5h7.833zm8.667 0v1.75h-7.833v-3.5h7.833zm23.5-.994c0 .29-2.243 5.577-2.366 5.577-.246 0 .024-1.158.635-2.722.316-.81.62-1.803.675-2.208.093-.676.14-.736.579-.736.262 0 .477.04.477.09m-36.5 5.326v1.75h-7.667v-3.5h7.667zm8.667 0v1.75h-7.834v-3.5h7.834zm8.666 0v1.75h-7.666v-3.5h7.666zm10.667.087c0 .094.3.496.667.894.366.398.666.809.666.913s.075.19.167.19.167-.086.167-.19.3-.515.666-.913.667-.8.667-.894c0-.103-.59-.17-1.5-.17s-1.5.067-1.5.17m-1.684 2.563c.644.656 1.255 1.02 2.262 1.345.25.081-.309.446-2.333 1.527-5.651 3.018-8.449 4.432-8.308 4.2.08-.133 1.56-1.902 3.287-3.93 1.894-2.224 3.284-3.717 3.5-3.76.757-.147.894-.094 1.592.618m-5.758 3.201c-1.545 1.81-2.976 3.485-3.181 3.72l-.373.43.04-2.383.04-2.383 3.083-1.388c1.695-.763 3.109-1.365 3.14-1.337.032.027-1.205 1.531-2.75 3.341m-7.035-1.88 2.895 1.222.037 2.404.038 2.403-.593-.666c-1.738-1.955-5.55-6.584-5.42-6.584.082 0 1.452.55 3.043 1.222m-1.088 2.07a509 509 0 0 0 2.968 3.52c.343.39.334.388-.569-.065-1.275-.64-12.234-6.436-12.32-6.515-.037-.036 1.59-.065 3.616-.065h3.684zm-61.308-48.497c-2.918 1.58-6.05 3.087-6.157 2.962-.066-.077-.258-.614-.428-1.194-.251-.859-.268-1.08-.089-1.19.121-.076.904-.227 1.739-.337s2.306-.334 3.269-.498c2.762-.47 2.954-.44 1.666.257m.474 4.008a1150 1150 0 0 1-1.216 4.179c-.007.016-.748-.126-1.647-.317l-1.633-.348-.905-1.805c-.498-.993-.906-1.865-.906-1.938s.956-.633 2.125-1.243 2.836-1.484 3.704-1.943 1.602-.812 1.63-.784-.49 1.917-1.152 4.199m-7.902-2.145c.27.662.451 1.242.404 1.29-.08.08-1.925-.116-3.613-.383l-.721-.114 1.47-1.031c.81-.568 1.584-1.017 1.721-.998.14.019.465.563.74 1.236m12.324.611c.423.496.77.94.77.985 0 .047-.825-.188-1.833-.521-1.324-.438-1.834-.68-1.834-.875 0-.424.16-.49 1.175-.49.946 0 .956.005 1.722.901m-1.375.916c2.12.658 2.58.848 2.38.984-.093.063-.815.81-1.604 1.658-1.395 1.5-1.44 1.573-1.64 2.695-.168.937-.272 1.17-.557 1.247-.74.198-.917.102-1.266-.687-.19-.432-.448-.9-.572-1.042-.189-.216-.161-.476.18-1.672.916-3.222 1.073-3.667 1.292-3.667.123 0 .927.218 1.787.484m-12.039.198 1.733.209.809 1.728c.445.95.809 1.77.809 1.822s-.117.05-.26-.005c-.142-.055-.76-.178-1.374-.274s-1.242-.212-1.396-.259c-.153-.046-.833-.775-1.509-1.619-1.628-2.03-1.625-2.025-1.029-1.907.267.053 1.264.19 2.217.305m3.267 4.813c4.35.814 4.417.83 4.417 1.03 0 .17-3.153 4.118-3.555 4.452-.159.131-.66.188-1.388.156l-1.14-.05-1.62-3.083c-.89-1.696-1.622-3.15-1.625-3.23-.007-.182.353-.13 4.911.725m-5.196.047c.221.39 1.004 1.88 1.74 3.313l1.337 2.604-1.083 1.726c-1.01 1.61-3.524 5.493-3.64 5.623-.028.032-1.275.343-2.771.692s-2.91.683-3.14.742l-.422.109-.813-4.102c-.697-3.517-.78-4.135-.579-4.33.487-.475 8.74-7.076 8.852-7.08.065-.004.299.313.52.703m11.944 5.493c.826 2.165 1.496 4.037 1.49 4.16-.007.122-.274.439-.592.704-.533.442-.63.467-1.197.303a309 309 0 0 0-1.574-.452c-.903-.258-.999-.337-1.675-1.387a54 54 0 0 1-1.265-2.076l-.548-.962 1.801-2.243c.991-1.233 1.86-2.184 1.93-2.113.071.071.805 1.9 1.63 4.066m4.236-2.932c.884.42 1.293.71 1.35.958.42 1.861.427 1.759-.17 2.42-.505.559-.7.644-2.088.91-.842.161-1.55.27-1.575.243-.069-.08-1.585-4.112-1.585-4.216 0-.143 2.083-.845 2.691-.907.06-.006.679.26 1.377.592m-9.916 4.66c.407.69.34.904-.287.902-.327-.002-.55-.159-.823-.581-.45-.696-.452-.706-.084-.803.654-.17.858-.088 1.194.482m-19.7 6.404c-1.588 3.529-3.294 7.373-3.79 8.541-.496 1.17-.96 2.125-1.032 2.125s-.133-.768-.136-1.708-.076-4.07-.16-6.958c-.083-2.888-.107-5.908-.051-6.712.09-1.307.138-1.47.45-1.539.891-.197 7.52-.489 7.561-.333.025.092-1.255 3.054-2.843 6.584m17.033-3.107.016 1.478-1.187 1.772a92 92 0 0 1-1.254 1.847c-.118.129-1.892-1.719-1.892-1.97 0-.133.919-1.61 2.041-3.282l2.042-3.041.109.86c.06.472.116 1.524.125 2.336m-13.07.357c.74 3.81.803 4.655.634 8.394l-.131 2.894-.834.306c-1.298.478-8.163 2.794-8.194 2.765-.024-.023 2.703-6.173 6.684-15.073.627-1.4 1.159-2.525 1.183-2.5.024.026.32 1.472.658 3.214m27.801-2.242c.594.865.625.971.479 1.62-.086.382-.349 1.023-.584 1.425l-.428.73-1.716.106c-.944.06-3.472.192-5.62.295l-3.903.188-.715-.811c-.393-.446-.716-.924-.718-1.061-.005-.438.617-1.634.934-1.797.936-.48 1.161-.414 1.788.53.563.848.666.92 1.807 1.26.666.2 1.603.483 2.082.63.865.266.873.265 1.25-.136.208-.222.67-.642 1.027-.933l.648-.53-.187-.74c-.102-.408-.23-.856-.284-.996-.078-.203.165-.305 1.206-.508 2.018-.394 2.194-.35 2.934.728m-13.32 4.302c.265.291.256.379-.14 1.478-.445 1.233-.531 1.957-.255 2.128.092.057.167.175.167.262 0 .138-6.587 5.488-6.757 5.488-.036 0 .26-.468.657-1.041 1.441-2.078 4.49-6.567 5.15-7.584.373-.573.727-1.041.788-1.041.06 0 .236.14.39.31m12.602 1.35c.185.363.336.984.336 1.381 0 .642-.087.806-.791 1.488l-.792.766-4.856-.19-4.857-.189-.342-.416c-.754-.918-.794-1.119-.427-2.14l.339-.944 3.905-.181c2.147-.1 4.634-.194 5.526-.209l1.622-.026zm-17.998.851 1.047 1.179-2.282 3.363a357 357 0 0 1-2.49 3.642c-.19.255-.379.21-2.2-.519-1.214-.486-1.99-.887-1.987-1.028.002-.128.066-1.594.143-3.259l.14-3.026 2.94-.694a160 160 0 0 0 3.107-.752c.412-.142.596-.015 1.582 1.094m6.198 3.072c.18.23.466.417.635.417.77 0 .84.14.505.99-.31.786-.31.8.03 1.36.772 1.277 1.29 1.785 1.931 1.894.344.058.715.16.825.229.208.128 4.282 12.51 4.158 12.635-.04.039-2.125-.266-4.634-.677-2.51-.41-5.857-.957-7.439-1.214-1.58-.256-2.875-.525-2.875-.597s1.046-2.665 2.323-5.761 2.546-6.188 2.818-6.87c.806-2.016 1.174-2.823 1.288-2.823.059 0 .254.188.435.417m-3.316 4.625c-1.053 2.59-2.397 5.9-2.986 7.357-.59 1.458-1.113 2.716-1.163 2.797-.096.156-.872-.251-3.776-1.983l-1.795-1.07.89-1.28c.49-.704 1.404-2.025 2.033-2.936s1.403-1.886 1.722-2.167c.923-.814 6.767-5.416 6.884-5.421.058-.003-.755 2.113-1.809 4.703m11.33-3.934 1.763.108.442.812.441.811-.333.539a6 6 0 0 1-.804.981l-.47.443-1.75-.225c-4.276-.551-4.31-.56-4.759-1.22-.481-.71-.49-.81-.14-1.687l.269-.67h1.789c.984 0 2.582.049 3.552.108m-.356 4.613 1.27.196 1.8 2.333c.99 1.284 1.91 2.524 2.045 2.756.238.411.184.513-1.88 3.552-1.17 1.72-2.148 3.105-2.176 3.077-.027-.028-.772-2.339-1.656-5.135s-1.748-5.514-1.921-6.041l-.315-.959.78.013c.43.007 1.353.1 2.053.208m5.869 10.654c.052 1.72.051 3.125-.003 3.125-.392 0-4.22-1.246-4.22-1.374 0-.088.493-.884 1.097-1.768s1.485-2.183 1.958-2.886l.86-1.278.106.528c.058.29.149 1.935.202 3.653m-24.073-2.066c1.228.741 2.316 1.376 2.416 1.412.252.088-.153.524-2.385 2.568-1.351 1.238-1.936 1.677-2.02 1.518-.065-.123-.206-1.536-.314-3.14s-.23-3.13-.272-3.393c-.093-.593-.189-.632 2.575 1.035m11.167 3.11c3.63.598 6.773 1.126 6.986 1.173.344.078-.075.562-3.666 4.234l-4.055 4.147-.308-.359c-.17-.197-.839-1.26-1.487-2.361a250 250 0 0 0-2.983-4.878c-.993-1.58-1.805-2.912-1.805-2.958 0-.176.923-.05 7.318 1.002m-8.542-.294c-.044.16-.328 1.81-.63 3.667-.304 1.856-.6 3.375-.66 3.375-.112 0-3.033-3.119-3.115-3.325-.025-.063.688-.759 1.584-1.547.895-.788 1.849-1.664 2.118-1.947.547-.575.823-.662.703-.223m2.327 2.173c2.82 4.553 4.609 7.546 4.544 7.61-.035.035-1.076-.253-2.314-.642-4.996-1.567-5.166-1.63-5.166-1.954 0-.168.262-1.84.583-3.717.32-1.876.583-3.49.583-3.586 0-.451.36.015 1.77 2.29m16.776.136c1.12.33 2.055.617 2.076.636.022.019-.817 1.062-1.864 2.319l-1.903 2.284-.093-.712c-.11-.84-.427-4.417-.428-4.837 0-.16.039-.291.087-.291s1.004.27 2.125.601m-2.394 2.834c.24 2.006.232 2.894-.027 2.97-.888.263-7.88 1.727-7.945 1.663-.044-.044 1.64-1.804 3.745-3.91l3.825-3.83.11.794c.061.437.192 1.478.292 2.313m-82.52-34.528c0 12.203-.006 12.447-.314 12.125-.664-.695-7.02-8.957-7.02-9.125 0-.098 1.341-2.996 2.98-6.44a1007 1007 0 0 0 3.607-7.638c.344-.757.654-1.375.687-1.375s.06 5.604.06 12.453m1.155-11.745c.17.39 1.15 2.433 2.176 4.542 4.645 9.54 4.901 10.12 4.65 10.534-.232.38-6.664 8.587-7.088 9.043-.191.206-.226-1.71-.226-12.292 0-6.894.04-12.535.089-12.535s.228.318.399.708m13.762 16.037c2.933.408 6.451.894 7.818 1.08 2.463.336 2.862.43 2.414.574-1.397.447-3.233.99-7.899 2.338a1596 1596 0 0 0-7.25 2.108c-3.407 1.01-8.574 2.47-8.612 2.432-.021-.022 1.465-1.949 3.303-4.283s3.488-4.437 3.667-4.673c.237-.31.45-.413.776-.373.247.03 2.85.39 5.783.797m-20.96 1.546c3.208 4.05 5.4 6.907 5.342 6.965-.06.06-.765-.14-10.299-2.933-3.438-1.007-7.3-2.137-8.583-2.51-4.029-1.171-5.113-1.507-5.056-1.564.03-.03 1.518-.253 3.306-.494 4.201-.568 9.974-1.37 11.25-1.564 2.256-.341 2-.474 4.04 2.1m-15.04 1.713c3.492 1 12.164 3.536 15.416 4.51 4.173 1.25 5.02 1.521 4.952 1.59-.038.037-1.486.659-3.218 1.38-1.733.722-4.338 1.812-5.79 2.42-1.466.616-2.764 1.066-2.917 1.012-.152-.053-3.014-2.792-6.36-6.087-4.365-4.298-5.942-5.947-5.583-5.837.275.084 1.85.54 3.5 1.012m41.016 4.694c-3.19 3.134-5.99 5.846-6.218 6.026-.415.326-.42.326-1.274-.036-.472-.2-3.127-1.31-5.901-2.468s-5.003-2.146-4.953-2.197c.086-.085 2.138-.695 15.746-4.683a804 804 0 0 0 6.5-1.926c.688-.213 1.397-.393 1.576-.4.207-.01-1.788 2.062-5.476 5.684m-27.949 13.286c-4.148 6.15-7.566 11.156-7.595 11.127-.03-.03.091-.836.27-1.791l1.005-5.404c1.113-5.984 1.838-9.645 1.982-9.996.097-.24 1.738-1.002 5.953-2.767 3.2-1.34 5.842-2.417 5.872-2.393s-3.339 5.075-7.487 11.224m16.1-8.49c2.658 1.113 4.889 2.079 4.957 2.147.124.124.438 1.64 1.54 7.442.315 1.65.874 4.57 1.244 6.487.37 1.918.643 3.517.606 3.554s-1.489-2.057-3.226-4.654-5.09-7.57-7.45-11.054-4.328-6.424-4.373-6.536c-.09-.229-.135-.246 6.701 2.615m-8.086 4.63-.002 6.958-7.456 4.274c-4.1 2.35-7.485 4.246-7.52 4.213s1.515-2.406 3.446-5.274 5.298-7.888 7.481-11.158c2.184-3.27 3.99-5.951 4.012-5.959.023-.007.04 3.119.04 6.946m3.38-3.167c6.753 9.98 12.483 18.57 12.426 18.626-.059.06-2.313-1.22-11.512-6.533l-3.625-2.094v-6.895c0-3.793.032-6.896.072-6.896s1.227 1.706 2.638 3.792M87.841-92.284c-2.527 3.661-3.468 4.937-3.645 4.944-.157.006-1.629-2.824-1.523-2.93.148-.148 6.229-3.88 6.335-3.887.073-.005-.452.838-1.167 1.873m1.891 1.7c-.055.142-2.558 1.71-4.352 2.724-.089.05.253-.504.76-1.232.506-.729 1.516-2.18 2.245-3.225l1.323-1.9.048 1.722c.027.948.016 1.807-.024 1.91m5.68-1.004 2.198 1.327-.772 1.464c-.425.806-.824 1.465-.887 1.465-.1 0-4.656-6.359-4.797-6.696-.058-.14.796.35 4.258 2.44m-2.77.508c1.136 1.605 2.09 2.986 2.117 3.067.027.082-.966-.453-2.209-1.19l-2.258-1.339v-1.728c0-.951.063-1.729.14-1.729.079 0 1.072 1.314 2.21 2.919m-9.673 2.5c.36.782.656 1.457.656 1.5 0 .103-5.26.066-9.583-.066l-3.334-.103 3.334-.813c1.833-.448 4.308-1.06 5.5-1.36 1.191-.3 2.303-.553 2.469-.562.222-.01.476.36.958 1.405m18.596-.67c4.336 1.035 7.075 1.742 7.353 1.898.13.072-1.74.18-4.154.241-5.202.13-8.306.142-8.306.03 0-.044.317-.72.704-1.5.462-.931.8-1.419.982-1.419.152 0 1.692.338 3.42.75m-8.106 1.46c2.23 1.32 2.682 1.516 5.834 2.52l5.416 1.726 2 .64.044 6.39.044 6.391-.765 2.936c-1.74 6.684-1.695 6.565-3.615 9.478a278 278 0 0 0-2.93 4.542c-.658 1.055-1.365 2.038-1.57 2.185s-1.963 1.441-3.904 2.875S90.44-45.5 90.387-45.5s-.095-9.946-.095-22.102v-22.103l.375.243c.206.133 1.462.886 2.791 1.673m-3.666 20.31c0 21.926-.002 22.019-.33 21.791-1.16-.802-5.921-4.35-6.74-5.023-.787-.648-1.325-1.352-2.678-3.508a422 422 0 0 0-2.825-4.439c-1.236-1.902-1.325-2.146-2.832-7.759l-.895-3.333-.059-6.571-.058-6.571 5.167-1.634c2.841-.9 5.241-1.636 5.333-1.638s1.404-.75 2.917-1.663 2.806-1.663 2.875-1.666c.069-.004.125 9.902.125 22.013m-8.834-19.039 1.084.102-4.584 1.434-4.583 1.433-1.417-1.211c-.779-.666-1.6-1.407-1.825-1.647l-.409-.435 5.326.11c2.929.062 5.813.158 6.408.214m30-.254c0 .033-.819.782-1.82 1.664l-1.82 1.603-2.639-.844c-5.565-1.78-6.63-2.14-6.387-2.166.292-.032 8.256-.241 10.875-.286.985-.017 1.791-.004 1.791.03M71-84.526l1.625 1.412.002 2.098c0 1.154.04 3.561.087 5.348.06 2.267.034 3.15-.085 2.917-.134-.262-3.06-10.819-3.599-12.983-.155-.622-.09-.582 1.97 1.208m38.445 5.054a869 869 0 0 1-1.828 6.638c-.072.229-.135-1.984-.142-4.917l-.012-5.333 1.79-1.55c1.183-1.026 1.806-1.467 1.84-1.305.029.136-.713 3.046-1.648 6.467m-39.173.054c2.227 8.22 2.52 9.338 2.52 9.614 0 .189-.404.319-1.623.522-.892.148-1.667.216-1.723.15-.055-.065-.228-2.819-.385-6.119-.377-7.918-.454-10.034-.358-9.833.044.091.75 2.641 1.57 5.666m41.125-2.458c-.186 4.885-.576 12.734-.635 12.793-.03.03-.392-.006-.805-.08a36 36 0 0 0-1.708-.248c-.933-.11-.956-.126-.86-.56.154-.707.961-3.735 2.34-8.78a441 441 0 0 0 1.447-5.375c.094-.39.208-.708.252-.708s.031 1.331-.03 2.958M74.051-64.94c.417 1.546.732 2.837.7 2.869s-.389-.37-.793-.894a403 403 0 0 0-2.473-3.142c-.956-1.205-1.748-2.254-1.758-2.331-.01-.078.693-.257 1.564-.4l1.583-.259.21.674c.115.37.55 1.938.967 3.483m36.54-3.639c.047.038-3.578 4.64-4.657 5.912-.454.535-.487.549-.4.167a480 480 0 0 1 1.666-6.429c.04-.124.557-.104 1.7.066.902.134 1.663.262 1.691.284M72.34-64.313c3.072 3.938 2.96 3.753 2.517 4.112-1.269 1.03-2.253 1.736-2.322 1.668-.061-.062-1.667-5.073-2.82-8.8-.175-.567-.16-.551 2.625 3.02m37.792-1.758c-.268.818-.914 2.838-1.434 4.488s-.974 3.03-1.008 3.067c-.094.103-2.566-1.832-2.566-2.008 0-.086.244-.515.542-.953.7-1.032 4.833-6.204 4.902-6.135.029.03-.167.722-.436 1.54m-32.2 9.835c1.314 2.069 2.364 3.784 2.333 3.813-.076.07-7.289-5.462-7.3-5.598-.008-.11 2.344-1.973 2.492-1.975.046 0 1.16 1.692 2.475 3.76m28.406-2.618c.524.4.953.752.953.78s-1.144.933-2.542 2.01a422 422 0 0 0-3.678 2.861c-.625.497-1.16.877-1.188.845-.059-.067 3.898-6.293 4.514-7.102.357-.468.454-.514.701-.333.158.116.716.539 1.24.94m-28.214 5.43c1.513 1.175 2.85 2.228 2.971 2.34.182.17.083.482-.56 1.762-.734 1.461-.797 1.537-1.026 1.231-.402-.537-5.643-8.119-5.985-8.659-.28-.441-.19-.4.767.345.596.465 2.32 1.806 3.833 2.98m28.578-3.283c-.57.89-4.14 5.977-5.217 7.437l-1.092 1.48-.76-1.53-.759-1.53.715-.593c1.012-.841 7.273-5.715 7.346-5.72.033-.001-.072.204-.233.456M85.074-46.363c3.672 4.655 4.032 5.134 3.718 4.948-.519-.306-8.26-5.638-8.472-5.835-.183-.17-.113-.422.394-1.436.742-1.48.87-1.652 1.157-1.542.122.046 1.563 1.786 3.203 3.865m14.292-2.525c.423.794.71 1.498.64 1.562-.125.112-2.748 1.918-6.84 4.708-1.03.704-1.874 1.236-1.874 1.183 0-.135 6.138-7.877 6.69-8.44.248-.252.488-.458.533-.458s.429.65.851 1.445m-12.438 2.221 2.855 2.084.004 1.744c.004 1.47-.03 1.706-.22 1.5-.19-.208-4.71-6-5.684-7.286-.434-.572-.347-.516 3.045 1.958m8.485-.791c-.675.848-2.073 2.61-3.106 3.916-1.034 1.307-1.91 2.375-1.948 2.375-.037 0-.067-.744-.067-1.654v-1.655l3.041-2.252c1.673-1.239 3.102-2.257 3.174-2.262s-.42.684-1.094 1.532M304.23-8.58l1.338 4.75-.407 2c-.318 1.564-.464 1.993-.67 1.976-.432-.037-10.272-3.635-10.273-3.757-.001-.158 5.998-10.467 7.304-12.553l.418-.666.476 1.749a1382 1382 0 0 0 1.815 6.5m2.54-5.045c2.018 1.626 3.994 3.258 4.393 3.625l.724.669-2.794 2.355c-1.536 1.295-2.812 2.339-2.835 2.32-.04-.035-2.112-7.37-2.932-10.383-.23-.848-.376-1.542-.322-1.542s1.749 1.33 3.766 2.956m6.612 9.917.85 4.29-2.444 2.666c-1.345 1.466-2.503 2.63-2.573 2.587-.113-.07-3.25-4.364-3.548-4.857-.064-.106.088-1.185.338-2.399l.455-2.207 2.92-2.46c2.339-1.972 2.943-2.407 3.035-2.186.064.152.499 2.207.967 4.566m-18.657 6.044c.704 2.475 1.256 4.527 1.227 4.56-.029.034-1.862-.971-4.073-2.233l-4.022-2.294.388-.377c1.987-1.928 5.062-4.552 5.125-4.373.042.12.652 2.242 1.355 4.717m4.187-3.26a3116 3116 0 0 1 4.952 1.803c.368.136.122.377-3.238 3.175-2 1.664-3.667 2.996-3.704 2.96-.037-.038-.622-2.073-1.3-4.523a571 571 0 0 0-1.33-4.764c-.054-.17-.061-.308-.017-.308.045 0 2.132.745 4.637 1.656m17.888 3.05c1.084.539 1.725.95 1.677 1.077-.057.148-3.783 5.212-4.186 5.689-.062.073-.505-.163-2.529-1.349l-1.704-.998.37-.455c.929-1.138 4.352-4.837 4.477-4.837.077 0 .93.393 1.895.873m-9.775 2.21 1.658 2.334-.593 1.083a793 793 0 0 1-3.095 5.5 3843 3843 0 0 0-2.946 5.209l-.445.792-1.89-4.87c-1.04-2.677-2.023-5.218-2.186-5.646l-.295-.778 3.853-3.194c3.144-2.607 3.893-3.155 4.067-2.979.117.12.96 1.266 1.872 2.55M291.492 5.39c2.095 1.177 3.95 2.216 4.122 2.31.27.147-.191.523-3.303 2.694-1.988 1.388-3.675 2.523-3.747 2.523s-.178-.469-.234-1.042-.254-2.5-.44-4.284c-.332-3.176-.406-4.34-.273-4.34.036 0 1.78.962 3.875 2.139m27.965.892.447 2.116-2.186 3.051c-1.202 1.678-2.242 3.071-2.31 3.096s-.242-1.058-.385-2.405l-.26-2.449 1.362-1.845L318.2 5.03c.392-.534.735-.947.761-.917s.25 1.007.496 2.17m-7.731 2.23c2.126 1.252 2.142 1.266 2.237 1.958.329 2.373.568 5.033.462 5.135-.146.142-11.91 3.999-11.98 3.928-.09-.09 6.855-12.278 6.998-12.28.078-.002 1.105.565 2.283 1.259M298.64 14.01c1.122 2.928 2.016 5.35 1.987 5.382-.03.031-2.656-1.23-5.839-2.803l-5.785-2.86.565-.399c5.231-3.683 6.756-4.721 6.882-4.687.083.023 1.069 2.438 2.19 5.367M239.116-7.297c.046.046-.185.85-.513 1.784-.329.935-.598 1.781-.598 1.88 0 .1.282-.08.625-.399.344-.32.788-.716.987-.88.199-.166 1.834-.705 3.634-1.2l3.272-.897.824.36c.454.198.825.407.825.466s-1.388.77-3.084 1.58c-1.696.809-3.065 1.49-3.042 1.512.05.049 4.252-1.048 6.364-1.66.818-.237 1.502-.413 1.521-.391.455.536 1.16 2.084 1.554 3.412.724 2.442.709 2.47-1.866 3.468-3.149 1.221-7.782 3.13-7.728 3.184.027.027 2.055-.467 4.508-1.098l4.46-1.148-.113.528c-.159.738-.36 1.075-.699 1.171-.16.046-3.704 1.148-7.875 2.45-11.621 3.625-16 4.949-16 4.837 0-.056.281-.85.625-1.766l.625-1.665 1.833-.617c1.009-.34 3.221-1.07 4.917-1.624 2.87-.937 3.008-1 2-.913-.596.05-2.841.386-4.99.745-2.148.36-3.944.614-3.991.567-.12-.12-.871-3.278-.797-3.352.033-.033 1.965-.844 4.294-1.802s4.159-1.744 4.067-1.747c-.091-.002-2.116.37-4.5.827s-4.49.831-4.68.832c-.278 0-1.715-.724-3.205-1.618-.13-.078 2.05-.73 5.417-1.62 3.1-.818 5.722-1.53 5.828-1.583.107-.052.922-.948 1.813-1.99l1.62-1.897.991.09c.546.05 1.03.128 1.077.174m3.28 7.047-3.693.57-3.181 1.443c-1.75.793-3.16 1.464-3.134 1.49.171.171 9.548-2.37 13.2-3.577 1.965-.65 1.415-.636-3.192.074M224.52 1.86c.513.397 1.108 1.945 1.817 4.728l.346 1.356-.832 2.054c-.634 1.567-.922 2.09-1.214 2.2-.359.137-3.692-.13-4-.32-.072-.044-.769-1.056-1.549-2.247l-1.417-2.166v-5.41l1.542-1.102 1.541-1.102 1.75.9c.963.496 1.87.994 2.016 1.108m-4.748.637-1.101 1.349v3.697l1.019 1.722c.56.946 1.08 1.759 1.155 1.805.18.111 3.186-.378 3.337-.543.064-.07.313-.502.553-.96.408-.778.436-.978.436-3.096 0-2.137-.021-2.283-.375-2.601-.427-.384-3.73-2.721-3.846-2.721-.042 0-.572.607-1.178 1.348m2.671.502c.775.559 1.509 1.177 1.632 1.375s.312 1.174.42 2.17l.195 1.813-.46.88-.46.88-1.23.114c-.675.064-1.252.09-1.283.058s-.513-.752-1.071-1.603l-1.015-1.546V4.214l.857-1.116c.471-.614.891-1.117.932-1.117s.71.458 1.483 1.017m-.166 2.078c.454.592.496.749.433 1.614-.062.845-.118.971-.468 1.06-.308.077-.495-.017-.836-.422-1.159-1.378-1.107-1.353-.719-.347.195.505.43 1.13.524 1.39.135.375.24.45.523.368.194-.057.59-.147.877-.2.58-.106.6-.167.82-2.494l.112-1.186-.615-.115a7 7 0 0 1-.884-.22c-.172-.065-.087.136.233.552m15.196-.147c.12.048.264.042.32-.014.055-.055-.044-.094-.22-.087-.193.008-.233.047-.1.1m15.24 1.02c.746.49.77.613.166.839-1.172.438-4.597 2.022-4.375 2.023.138 0 1.582-.324 3.209-.722 2.098-.513 3.001-.67 3.105-.54.081.1.379.645.661 1.21.438.873.479 1.054.276 1.223-.131.109-1.17.45-2.307.759-1.622.44-2.37.746-3.464 1.418-.768.471-1.246.822-1.063.78s1.817-.469 3.631-.949 3.4-.833 3.524-.785c.302.116.522 1.714.277 2.01-.102.122-2.136 1-4.52 1.952-2.384.951-4.277 1.747-4.207 1.768s1.74-.36 3.712-.846c1.97-.485 3.607-.865 3.637-.843.03.021-.066.27-.212.554-.159.306-.518.62-.888.775-.341.144-4.408 1.64-9.037 3.324a7080 7080 0 0 0-11.167 4.073c-1.513.554-2.807 1.009-2.876 1.01-.07 0 .228-.534.662-1.186l.79-1.187 4.337-2.162c2.385-1.189 4.074-2.108 3.754-2.042-.321.067-2.265.599-4.32 1.183-2.054.584-3.75 1.043-3.77 1.02s-.233-.98-.474-2.126a98 98 0 0 0-.528-2.416c-.08-.294.162-.43 2.042-1.148 4.172-1.593 6.648-2.672 7.76-3.382.62-.396 1.156-.72 1.191-.72s.22.261.409.581c.292.495 1.056 1.121 1.587 1.3.082.028-.068.357-.333.731-.355.503-.7.758-1.314.973-.459.161-1.884.702-3.167 1.203-2.269.885-3.218 1.36-2.067 1.036.312-.088 1.986-.46 3.72-.826s3.167-.685 3.182-.707l.8-1.208c.424-.642 1.01-1.447 1.303-1.79.525-.613.53-.633.303-1.333-.347-1.071-.9-1.534-2.118-1.773-.574-.113-1.123-.156-1.22-.095-.098.06-1.153.812-2.346 1.67-2.019 1.454-2.3 1.602-4.112 2.161-1.07.33-2.86.895-3.98 1.255-1.119.36-2.116.655-2.215.655-.1 0-.61-.314-1.132-.699l-1.51-1.105-.56-.406 1.476-.465c.812-.256 3.163-.992 5.226-1.636 2.062-.644 5.812-1.82 8.333-2.613s5.521-1.728 6.667-2.077c2.307-.702 1.971-.73 3.542.301m-34.902 3.533c.438.593.264.628-.688.142-.62-.315-.663-.373-.369-.488.55-.215.671-.175 1.057.346m-.679 1.065c.984.494 1.92 1.044 2.082 1.223.478.53 1.464 3.526 1.646 5.003l.17 1.374-.67 1.46a48 48 0 0 0-.836 1.901c-.134.357-.33.478-1.022.626-.825.177-.915.158-2.426-.507-.863-.38-1.636-.775-1.716-.876-.08-.102-.674-1.297-1.32-2.657l-1.172-2.47.416-1.52c.653-2.382.73-2.525 1.887-3.517.596-.51 1.103-.93 1.128-.933s.85.399 1.833.893m27.573-.656c.644.108 1.3.736 1.3 1.245 0 .15-.214.4-.474.554-.79.466-2.068-.099-2.406-1.063-.132-.376.342-1.01.685-.916.153.042.556.122.895.18m-28.57 1.682c-.05.05-.562.219-1.139.375l-1.048.284-.573 1.72-.573 1.72.893 1.93.893 1.929 1.724.82c.949.452 1.747.797 1.774.768s.433-.772.9-1.65c.821-1.541.852-1.645.852-2.94 0-1.272-.04-1.417-.753-2.758-.553-1.038-.929-1.531-1.413-1.852-.61-.403-1.32-.563-1.536-.346m1.227 1.006c.593.307 1.542 2.185 1.831 3.627.162.807.142.959-.233 1.706a15 15 0 0 0-.698 1.7l-.288.878-.944-.534c-1.493-.846-1.527-.872-1.527-1.176 0-.16.19-.414.422-.567.368-.24.392-.31.192-.545-.126-.148-.325-.623-.442-1.056-.206-.764-.198-.804.266-1.363.263-.317.526-.581.583-.588s.413.324.791.734.688.709.688.662c0-.127-1.016-2.13-1.191-2.348-.107-.133-.438.108-1.09.793l-.939.983.212 1.424c.117.784.161 1.476.099 1.538-.173.173-.7-.6-1.17-1.715l-.42-1 .383-1.583.383-1.583 1.075-.097a61 61 0 0 0 1.292-.125c.119-.015.445.09.725.235m4.783.571c.564.146.704.25.633.468-.57 1.743-.817 2.488-.897 2.698-.053.137-.157-.125-.23-.584a13 13 0 0 0-.475-1.817c-.41-1.189-.408-1.141-.048-1.037.16.046.618.169 1.017.272m6.187 1.01c1.55 1.14 1.856 1.44 1.995 1.959.303 1.136 1.176 5.372 1.176 5.707 0 .183-.405.925-.901 1.649s-.976 1.448-1.066 1.609c-.155.278-.248.278-1.973 0-.995-.16-1.96-.322-2.143-.36-.365-.075-1.7-2.027-2.218-3.246-.177-.414-.452-1.36-.612-2.1l-.291-1.347.44-1.566c.241-.861.51-1.732.596-1.936.147-.347 2.47-1.685 2.959-1.705.114-.005 1.031.597 2.038 1.337m-3.163.67c-.504.274-.998.59-1.097.7-.1.11-.387.845-.636 1.632l-.454 1.431.893 2.233.894 2.232 1.63.32 1.631.318 1.213-1.204 1.212-1.204-.132-.706a57 57 0 0 0-.398-1.861c-.57-2.466-.482-2.317-1.847-3.146a90 90 0 0 1-1.623-1.002c-.338-.222-.45-.2-1.286.257m2.14 1.138 1.298.652.472 1.806c.7 2.683.707 2.508-.149 3.639-.416.55-.757 1.048-.758 1.107-.002.09-2.482-.795-2.64-.943-.03-.028.458-.33 1.084-.673 2.016-1.102 1.85-.88 1.668-2.218-.15-1.112-.194-1.199-.803-1.602-.736-.487-.834-.387-.234.239.292.305.443.698.52 1.36l.11.933-.545.19c-.878.306-1.055.235-1.496-.598l-.416-.787-.083 1.496-.084 1.496-.934-1.834c-.514-1.008-.898-1.946-.852-2.083.582-1.767.733-2.009 1.508-2.413.428-.222.836-.408.907-.413.07-.004.713.286 1.427.645m-5.398 4.274c.061.329.15.695.195.813q.082.216-.697.413c-.429.108-.806.17-.838.137-.1-.1 1.002-2.099 1.118-2.027.06.037.16.336.222.664m-49.714-39.022.796 2.001-.47.984c-.259.54-.63 1.183-.824 1.427l-.354.444-.706-1.263c-.388-.694-.706-1.387-.706-1.54 0-.235 1.357-4.055 1.44-4.055.016 0 .387.9.824 2.002m-2.734 3.968c.704.584 1.323 1.174 1.375 1.31.125.325.123 3.053-.002 3.053-.053 0-.755-.558-1.56-1.241-1.618-1.373-1.671-1.486-1.675-3.57-.002-1.22-.21-1.27 1.862.448m5.723.472-.116 1.387-1.5 1.252c-.826.689-1.57 1.252-1.652 1.252-.25 0-.178-2.465.086-2.977.131-.253.9-1.012 1.709-1.686 1.68-1.4 1.655-1.414 1.473.772m12.982.6c-.03.206-.141 1.125-.25 2.041-.108.917-.28 1.774-.382 1.904-.177.225-2.33 1.68-2.486 1.68-.04 0-.126-.596-.19-1.325-.135-1.547-.04-1.798 1.037-2.75.625-.551 2.243-1.9 2.304-1.92.01-.003-.005.163-.033.37m-30.027 1.376 1.292 1.276v1.306c0 1.969 0 1.968-1.428.981-.675-.466-1.266-.972-1.314-1.123-.088-.278-.417-3.192-.422-3.739-.004-.443.377-.179 1.872 1.299m4.792 3.737c0 .155-.372 1.098-.826 2.096l-.826 1.813-.672-1.46-.672-1.461.32-.947c.175-.52.554-1.47.84-2.11l.523-1.163.656 1.475c.362.81.657 1.601.657 1.757m12.254-1.53c-.105 1.444-.167 1.677-.561 2.097-.529.563-2.602 2.278-2.753 2.278-.059 0-.107-.67-.107-1.49 0-1.31.046-1.542.375-1.912.355-.398 2.972-2.586 3.103-2.594.034-.002.009.727-.057 1.62m8.208-.25c1.003 2.796.987 2.454.181 3.945-.393.728-.758 1.296-.812 1.263s-.425-.86-.825-1.836l-.727-1.776.728-1.485c.4-.817.78-1.485.845-1.485s.338.619.61 1.375m-14.034.072 1.572 1.28v1.657c0 1.298-.045 1.623-.208 1.5-1.383-1.042-2.86-2.372-2.977-2.683-.161-.424-.208-3.034-.054-3.034.052 0 .802.576 1.667 1.28m-11.317 2.757 1.132.38.635 1.312c.35.722.609 1.34.576 1.372-.109.109-3.622-.895-3.88-1.108-.242-.202-1.272-1.94-1.494-2.523-.099-.26-.03-.263.896-.046.552.128 1.513.404 2.135.613m31.389-.626c0 .043-.383.68-.851 1.418-.534.842-.984 1.368-1.208 1.416-.915.197-3.247.588-3.505.588-.241 0-.187-.191.333-1.182.342-.65.777-1.282.968-1.406.493-.32 4.263-1.058 4.263-.834m-8.01 2.532.716 1.86-.718 1.348c-.396.742-.764 1.349-.82 1.349-.157 0-1.501-3.287-1.501-3.671 0-.42 1.376-3.028 1.51-2.864.053.065.419.955.813 1.978m-17.091-.442c.33.825.6 1.623.6 1.773 0 .318-1.506 3.559-1.654 3.559-.055 0-.38-.632-.723-1.405-.53-1.194-.597-1.475-.451-1.875.19-.518 1.556-3.553 1.6-3.553.015 0 .298.675.628 1.5m5.9 1.213.714.73-.048 1.52-.048 1.52-1.417-1.173c-.78-.645-1.507-1.373-1.618-1.617-.11-.244-.204-1.067-.208-1.83l-.007-1.386.958.754c.527.414 1.28 1.081 1.673 1.482m4.981-.622c-.057.875-.163 1.691-.233 1.815-.167.29-2.919 2.586-3.104 2.59-.077.002-.115-.717-.083-1.597l.058-1.6.666-.578c1.744-1.51 2.61-2.221 2.7-2.221.056 0 .053.716-.004 1.59m-16.117 1.748c1.052.276 1.965.557 2.03.624.263.272 1.277 2.704 1.127 2.704-.575 0-3.744-.937-3.94-1.164-.478-.559-1.532-2.67-1.332-2.668.112 0 1.063.227 2.115.504m27.317.87a49 49 0 0 1-.921 1.448c-.105.117-3.941.85-4.023.768-.092-.093 1.072-2.249 1.399-2.591.22-.23 3.15-.946 4.025-.984.35-.015.314.084-.48 1.359m-7.34 1.03c.382.956.694 1.858.694 2.004 0 .29-1.318 2.996-1.412 2.9-.16-.163-1.421-3.484-1.421-3.743 0-.356 1.168-2.9 1.332-2.9.061 0 .425.783.807 1.739m-12.815-.25c.549 1.314.437 2.542-.388 4.266l-.635 1.329-.659-1.416c-.414-.89-.624-1.55-.566-1.78.2-.8 1.607-3.604 1.734-3.458.074.084.306.561.514 1.059m3.218 1.137 1.458 1.23v3.334L169.72 2.57c-1.974-1.633-1.925-1.55-2.057-3.424-.134-1.92-.287-1.909 1.813-.136m5.69.166c-.076 1.134-.191 1.72-.38 1.936-.347.401-2.786 2.44-2.918 2.44-.055 0-.1-.675-.1-1.498 0-1.4.029-1.53.458-2 .567-.62 2.745-2.48 2.92-2.493.07-.005.079.721.02 1.615m9.762.667c-.003.069-.363.725-.799 1.458l-.792 1.334-1.327.28c-.73.156-1.68.331-2.114.39l-.788.11.765-1.35c.42-.743.835-1.394.92-1.447.129-.079 3.588-.843 4.016-.887a.105.105 0 0 1 .119.112m-24.086.46c.866.23 1.733.478 1.927.55.406.15 1.73 2.757 1.431 2.82-.1.02-1.003-.167-2.005-.417l-1.822-.455-.79-1.458c-.54-1.001-.714-1.458-.551-1.458.13 0 .945.188 1.81.418M177.291 3.1l.39 1.132-.722 1.41c-.397.775-.771 1.41-.832 1.41-.16-.001-1.36-3.218-1.36-3.646 0-.2.312-.98.694-1.733L176.154.3l.373.834c.205.458.549 1.342.764 1.965m-9.212-.306.86.909-.316.799c-.647 1.635-1.275 3.047-1.356 3.045-.14-.004-1.333-2.682-1.333-2.994 0-.162.175-.697.39-1.19a33 33 0 0 0 .494-1.187c.162-.448.332-.364 1.26.618m-5.477 1.538c2.53.674 2.445.618 3.183 2.085.369.735.629 1.377.578 1.429-.052.05-.971-.163-2.044-.476l-1.95-.569-.8-1.389c-.44-.764-.8-1.422-.8-1.461 0-.08.462.016 1.833.38m19.991-.321c-.004.068-.333.687-.73 1.375l-.72 1.25-2.041.465c-1.123.256-2.077.43-2.12.387s.286-.703.733-1.466l.812-1.386 1.746-.363c1.937-.401 2.333-.446 2.32-.262m-10.49 5.333.003 4.792.385-.674c.212-.37.971-1.805 1.688-3.189l1.303-2.515.564.333.565.333-.396.69c-.217.378-.905 1.675-1.527 2.88l-1.131 2.193-.984.336c-.75.255-1.112.3-1.518.182a4.6 4.6 0 0 0-1.048-.153c-.5 0-.548-.072-1.879-2.858-.75-1.572-1.345-2.866-1.321-2.875.025-.01.282-.14.572-.293l.528-.276 1.257 2.7c.69 1.484 1.33 2.884 1.42 3.11.112.282.166-1.128.174-4.55l.01-4.958h1.334zm2.23 5.639c.198.515.093.752-.482 1.091-.652.385-.753.645-.25.645.41 0 .426.2.041.54-.41.363-2.718.96-3.71.96-.708 0-.831-.047-.831-.32 0-.692.178-.847.976-.85 1.253-.003 1.353-.252.203-.507-.837-.186-1.012-.284-1.01-.566.005-.688.202-.78 1.091-.51 1.156.35 1.52.318 2.656-.235 1.198-.583 1.188-.58 1.316-.248m.385 7.49c.852 2.19 1.547 4.06 1.543 4.155-.007.225-.79 1.186-.883 1.084-.038-.042-.773-1.948-1.632-4.236l-1.562-4.16-.044 5.787-.044 5.787-.662-.338-.662-.337-.044-5.255-.044-5.254-1.659 4.184c-.912 2.301-1.707 4.214-1.766 4.25-.059.037-.315-.15-.568-.414l-.461-.481 1.671-4.055 1.671-4.054.89-.122c.488-.067 1.226-.23 1.639-.363.412-.133.821-.223.909-.2s.857 1.833 1.708 4.022M105.025-4.272c3.136 1.313 3.507 1.507 3.139 1.645-1.488.56-14.635 4.865-14.835 4.858-.473-.017-7.252-3.446-6.998-3.54.137-.05 2.162-.669 4.5-1.374a637 637 0 0 0 6-1.836c3.01-.953 3.905-1.21 4.277-1.226.199-.008 1.961.654 3.917 1.473m3.934 5.637-.045 3.291-5.083 1.784-7.485 2.627c-1.321.463-2.421.822-2.444.799-.023-.024-.097-1.522-.164-3.33-.115-3.13-.106-3.295.194-3.417.68-.279 14.662-5.006 14.86-5.026.167-.016.203.688.167 3.272m-19.723-.057 3.58 1.735.05 3.306c.026 1.82.025 3.343-.003 3.386-.029.044-1.679-.744-3.667-1.75l-3.615-1.829-.045-3.291c-.025-1.81-.009-3.292.036-3.292.046 0 1.694.78 3.664 1.735m21.463 4.7c.943.148 1.815.323 1.938.39.154.084-.345.62-1.628 1.749l-1.851 1.627-2.039-.28c-2.67-.368-2.622-.35-2.622-.926 0-.325-.118-.546-.36-.676-.456-.244-.423-.263 2.027-1.146a75 75 0 0 0 2.25-.837c.452-.199.355-.203 2.285.1m-22.39 2.709 3.563 1.794-2.773.628-2.772.628-3.065-1.89c-1.685-1.038-3.044-1.91-3.02-1.936.037-.039 4.125-.97 4.422-1.007.046-.006 1.686.796 3.646 1.783m25.187 1.291c0 2.692-.009 2.767-.335 2.682-.184-.048-1.046-.26-1.916-.469l-1.582-.381v-.685c0-.66.066-.743 1.792-2.29.985-.884 1.848-1.612 1.916-1.617.07-.005.125 1.237.125 2.76m-30.27.82 2.604 1.608v3.318c0 1.825-.045 3.318-.1 3.318s-1.405-.86-3-1.911l-2.9-1.912V8.701l.397.26c.218.144 1.568.984 3 1.868m20.231 1.363-.045 3.286-2.667.63c-1.466.347-5.193 1.23-8.281 1.964s-5.657 1.334-5.709 1.334-.093-1.531-.093-3.403v-3.404l1.875-.435c5.986-1.388 14.262-3.227 14.587-3.241l.378-.017zm3.122-1.956c2.488.361 2.25.223 2.245 1.303l-.004.95-2.023 1.084a99 99 0 0 1-2.162 1.139c-.077.03-.14-1.044-.14-2.388V9.88l.459.093c.252.052.983.17 1.625.263m7.81 3.831c2.144.553 3.963 1.008 4.044 1.01.195.004-1.11.832-5.688 3.609a803 803 0 0 0-4.25 2.588c-.395.25-.641.2-4.875-1.008-2.452-.7-4.457-1.31-4.457-1.357 0-.048.545-.372 1.209-.722 4.18-2.201 5.77-3.055 7.623-4.093 1.146-.642 2.177-1.137 2.29-1.1.114.037 1.96.52 4.104 1.073m-30.371 5.17c.437.316.603.523.457.57-.126.039-.772.23-1.435.423l-1.205.35-3.628-1.772c-1.996-.975-3.553-1.802-3.462-1.837.092-.035 1.03-.311 2.084-.613l1.916-.55 2.293 1.466c1.261.806 2.602 1.689 2.98 1.963m35.014-.122c-.046 2.1-.137 3.274-.262 3.398-.293.292-9.781 6.227-9.955 6.227-.085 0-.154-1.049-.154-2.375-.001-1.307-.048-2.756-.103-3.22l-.102-.845.811-.507c.447-.279 1.674-1.03 2.728-1.67 1.055-.641 3.042-1.851 4.417-2.69 1.375-.84 2.543-1.526 2.596-1.526s.063 1.443.024 3.208m-20.662-.996-1.041.525v4.568l-7.375 2.455c-4.056 1.35-7.469 2.49-7.584 2.532-.162.06-.208-.678-.208-3.345v-3.422l1.695-.527c1.254-.389 1.786-.485 2.043-.368.26.118 1.853-.205 6.346-1.289 3.3-.796 6.112-1.493 6.25-1.548s.4-.102.583-.104-.136.233-.709.523m-20.208 1.668 3.083 1.589.045 3.412.045 3.412-2.461-1.295a808 808 0 0 0-3.545-1.855l-1.084-.56-.108-.917c-.06-.504-.116-2.024-.125-3.377l-.017-2.46.542.23c.298.127 1.93.946 3.625 1.82m24.908 1.2c2.375.685 4.37 1.304 4.434 1.375s.169 1.617.232 3.435c.108 3.144.099 3.302-.188 3.216l-3.886-1.173a436 436 0 0 0-4.417-1.317l-.833-.234-.045-3.274c-.036-2.592 0-3.274.17-3.274.119 0 2.159.56 4.533 1.246M37.038 1.18c2.583 1.167 2.64 1.203 2.703 1.75l.065.56-3.124 1.002-3.124 1.002-2.968-1.489c-2.363-1.185-2.899-1.514-2.633-1.617.183-.072 1.57-.635 3.083-1.253C32.552.517 33.927.006 34.095 0c.167-.006 1.492.525 2.943 1.18m6.334 2.834c.001.128-1.406.974-1.619.974-.145 0-1.047-1.713-1.047-1.988 0-.08.6.09 1.333.38.732.288 1.332.574 1.333.634m-13.754.196c1.752.882 1.953 1.024 1.589 1.127-.23.065-.702.126-1.05.135-.565.015-.761.154-1.845 1.308-2.397 2.552-2.655 2.867-2.416 2.95.125.044 1.038.264 2.029.489l1.801.409.865-.393c.476-.216.961-.416 1.078-.444.137-.034.504.717 1.02 2.082l.807 2.134-.21 5.5c-.114 3.024-.237 5.528-.273 5.564-.054.054-6.121-10.718-8.672-15.398l-.782-1.435 1.318-2.083 1.665-2.634c.418-.666.357-.68 3.076.689m11.38 1.487c3.472 5.335 3.56 5.485 3.349 5.74-.112.135-.527.468-.922.74l-.716.493-2.376-1.873a3503 3503 0 0 1-4.265-3.367l-1.89-1.494.64-.21c2.927-.957 4.835-1.555 4.992-1.562.102-.005.637.685 1.189 1.533m-8.286.916c-.567 1.9-.691 2.068-1.912 2.585-1.1.466-1.202.48-2.103.289-1.51-.32-1.517-.346-.42-1.53 1.746-1.881 1.606-1.802 3.176-1.802h1.396zm5.465 3.269 4.029 3.143v.982c0 .54-.02.98-.042.979s-1.835-.364-4.028-.804l-3.985-.802-.722-1.904c-.398-1.047-.723-2.012-.723-2.144s.2-.858.447-1.613c.393-1.207.48-1.35.721-1.177.15.108 2.087 1.61 4.303 3.34M19.33 8.463l3.207.109-3.1 3.916c-4.742 5.991-5.948 7.5-5.99 7.5-.08 0-2.407-11.208-2.407-11.59 0-.196.754-.19 8.29.065m-9.74.42c-.234.398-6.696 9.501-7.112 10.017l-.399.495.323-1.661c.178-.914.507-2.632.732-3.816.224-1.185.427-2.17.449-2.187.167-.136 5.903-3.07 6.007-3.073.073-.001.073.1 0 .225m2.5 7.939.735 3.583-5.268.083c-2.897.046-5.288.039-5.314-.016-.026-.054 1.485-2.241 3.358-4.859s3.728-5.235 4.123-5.816l.717-1.057.457 2.25zm10.783 2.79v10.29l-4.58-4.576c-3.995-3.994-4.552-4.613-4.374-4.86.175-.242 2.362-3.011 7.582-9.603.671-.847 1.255-1.541 1.296-1.541s.076 4.63.076 10.29m4.836-2.624 4.617 8.29.576 1.04-.39.152c-1.373.53-3.267 1.315-5.84 2.42-1.624.695-3.03 1.265-3.126 1.265-.113 0-.173-.999-.173-2.875 0-3.546.207-17.642.258-17.584.02.023 1.855 3.305 4.078 7.292m16.466-4.061c-.041.478-.2.727-.76 1.188l-.708.583v-.676c0-.578.09-.75.62-1.188.343-.282.685-.512.76-.512.077 0 .116.272.088.605M2.04 16.332c-.87 4.505-.753 4.126-1.249 4.031-.23-.044-.421-.09-.424-.102-.142-.583-.432-3.74-.355-3.864.437-.698 2.58-3.578 2.627-3.53.032.032-.237 1.591-.6 3.465m34.063-1.646 1.646.367-.104 1.093a31 31 0 0 0-.104 2.367l-.001 1.274-1.849 2.809c-1.016 1.545-1.888 2.847-1.937 2.892-.049.046-.043-1.154.014-2.666l.21-5.625c.073-1.932.169-2.876.293-2.876.102 0 .926.164 1.832.365m-23.48 6.802c-.058.183-.612 1.493-1.231 2.91l-1.127 2.579-2.57 1.99c-1.415 1.094-2.62 1.94-2.68 1.88-.121-.123-2.975-9.254-2.975-9.52 0-.115 1.784-.172 5.344-.172 5.267 0 5.344.005 5.24.333m5.157 4.292c2.351 2.315 4.195 4.208 4.097 4.208-.506 0-10.498-2.789-10.72-2.992-.145-.133 2.066-5.528 2.24-5.464.058.022 2.031 1.933 4.383 4.248m14.355 3.083c-.055.665-.177 2.706-.272 4.536s-.209 3.363-.253 3.407-.398-.034-.784-.174l-.704-.255-.701-3.137c-1.01-4.52-1.093-4.01.784-4.849.871-.39 1.684-.714 1.806-.722.175-.01.202.244.124 1.194M11.75 28.25c.609.208.787.355.854.709.18.94.66 7.028.56 7.127-.056.057-.42-.002-.806-.13l-.702-.235-1.29-3.241-1.29-3.242.69-.62c.785-.704.921-.73 1.984-.368m15.895 1.697c-.048.252-.328 2.37-.622 4.708s-.58 4.304-.636 4.369c-.174.204-1.403-.314-1.523-.641-.062-.171-.352-1.736-.644-3.478s-.566-3.287-.609-3.434c-.06-.205.374-.46 1.884-1.108 1.079-.463 2.024-.85 2.1-.858.076-.01.098.19.05.442m-19.271.916c0 .665.05 2.616.11 4.335l.109 3.126-.569-.107c-.312-.06-.67-.161-.794-.226-.124-.066-.71-1.383-1.304-2.928l-1.079-2.81.388-.283c.214-.156.95-.735 1.638-1.288s1.306-1.01 1.375-1.016.125.533.126 1.197"/></svg>