<?xml version="1.0" encoding="UTF-8"?>
<svg version="1.1" xmlns="http://www.w3.org/2000/svg" width="512" height="512">
<path d="M0 0 C2.81878924 0.6052425 5.05333422 1.45230596 7.546875 2.890625 C31.85505721 16.54304601 53.27275202 18.55094103 79.875 11.1875 C97.7583287 6.33010829 115.10297265 2.40184451 133.75 2.625 C134.99716797 2.63442627 136.24433594 2.64385254 137.52929688 2.65356445 C160.15976339 3.0247254 180.89261367 10.10101442 197.25390625 26.1328125 C211.29174786 40.789677 224.26080176 65.25924224 225.125 86 C225.08375 86.66 225.0425 87.32 225 88 C226.04414062 88.12568359 226.04414062 88.12568359 227.109375 88.25390625 C237.91980135 91.04416494 248.01903723 101.6625929 253.7421875 110.7734375 C261.18578114 124.58667346 263.55252717 139.67440214 262.75 155.1875 C262.70625244 156.09008545 262.66250488 156.9926709 262.61743164 157.92260742 C262.15835441 165.81356511 260.87456017 173.32491402 259 181 C259.99644531 180.51660156 260.99289062 180.03320312 262.01953125 179.53515625 C269.3061104 176.43273182 278.02132447 176.7463838 285.49609375 179.1015625 C293.63538514 182.90193077 298.54547726 187.49409175 302.375 195.5625 C306.82652149 207.90705538 303.58094382 220.2240237 298.33984375 231.7265625 C293.92983261 240.86349971 288.24340984 247.95324382 281 255 C280.38253906 255.61488281 279.76507813 256.22976563 279.12890625 256.86328125 C268.97711538 266.28472745 254.58059254 271.43746023 241 273 C240.0925 272.94972656 239.185 272.89945312 238.25 272.84765625 C235.08610494 272.73530202 232.97910046 272.88124819 230 274 C226.31200168 277.69330479 223.43563588 281.80209384 220.43554688 286.05712891 C214.41724241 294.20231036 206.89707815 301.69944307 199 308 C198.05898438 308.75539063 197.11796875 309.51078125 196.1484375 310.2890625 C188.07772529 316.67035231 179.62239258 322.39484853 171 328 C174.21120243 334.24490121 177.95243998 339.97148254 182.05249023 345.65698242 C185 349.79371795 185 349.79371795 185 352 C185.65476318 352.08668945 186.30952637 352.17337891 186.98413086 352.26269531 C191.02407687 353.25036122 194.52311783 354.98527052 198.25390625 356.796875 C199.05933868 357.18218384 199.86477112 357.56749268 200.6946106 357.96447754 C203.31967148 359.22131782 205.94104336 360.4856619 208.5625 361.75 C212.19412985 363.4920562 215.82753521 365.23039423 219.4609375 366.96875 C220.81438515 367.61725922 220.81438515 367.61725922 222.19517517 368.27886963 C227.58487629 370.85804254 232.98734158 373.40591613 238.4140625 375.90625 C239.04591965 376.1975177 239.67777679 376.4887854 240.32878113 376.78887939 C243.19306523 378.10725265 246.06001159 379.41952489 248.92993164 380.72558594 C271.9324957 391.28748575 288.6260779 403.52932294 299.4296875 426.7109375 C308.61842189 451.80852546 305 464.48725952 305 496 C188.84 496 72.68 496 -47 496 C-47 437.28447626 -47 437.28447626 -39.1875 422.625 C-38.84420654 421.96000488 -38.50091309 421.29500977 -38.1472168 420.60986328 C-35.31264668 415.26676057 -31.97747632 410.558456 -28 406 C-27.25830566 405.06905518 -26.51661133 404.13811035 -25.75244141 403.17895508 C-17.21026042 392.94791605 -5.26796951 387.19668058 6.5625 381.6875 C8.10394466 380.95575381 9.64478885 380.22274148 11.18505859 379.48852539 C15.78019588 377.30443357 20.38898606 375.15031572 25 373 C26.35835331 372.36418354 27.71659374 371.72812585 29.07470703 371.09179688 C35.00037645 368.31744145 40.93432631 365.56178957 46.87890625 362.828125 C50.73406378 361.05407021 54.57604905 359.25735107 58.40234375 357.421875 C59.2020459 357.039104 60.00174805 356.65633301 60.82568359 356.26196289 C62.25934276 355.5732995 63.69087249 354.88017469 65.11962891 354.18139648 C67.95645097 352.82129168 69.80794158 352 73 352 C73.27183105 351.26628174 73.54366211 350.53256348 73.82373047 349.77661133 C74.94681673 347.12554034 76.21120359 344.95364576 77.8203125 342.57421875 C78.35527344 341.77822266 78.89023438 340.98222656 79.44140625 340.16210938 C79.99699219 339.34548828 80.55257812 338.52886719 81.125 337.6875 C81.68832031 336.85154297 82.25164062 336.01558594 82.83203125 335.15429688 C84.21720789 333.10000948 85.60662219 331.04872962 87 329 C83.73094022 325.41960119 79.99164802 322.90523343 75.9375 320.3125 C69.25501029 315.93654186 63.01878631 311.26643802 57 306 C56.47664063 305.54367187 55.95328125 305.08734375 55.4140625 304.6171875 C47.26862739 297.46603085 38.89636571 289.92457567 33.52734375 280.3828125 C31.57266659 277.11980476 29.98693123 274.54775712 26.15087891 273.49023438 C22.31290422 272.86068343 18.46411143 272.62052924 14.5859375 272.375 C-2.69950662 271.23074222 -17.13495015 261.52062524 -28.87109375 249.4375 C-39.90547817 236.80363601 -46.59883684 221.20546534 -46.3125 204.47265625 C-45.66821351 197.31302258 -42.92460516 190.83646461 -37.9296875 185.60546875 C-29.75269572 178.80234401 -22.01852093 177.34300715 -11.76171875 177.49609375 C-7.59270727 178.05455946 -4.75887255 179.17648486 -1 181 C-1.20496094 180.14921875 -1.40992188 179.2984375 -1.62109375 178.421875 C-6.44671429 156.7181271 -7.79750758 131.21112735 4.046875 111.41796875 C8.17279934 104.99966351 12.88511265 99.58200006 19 95 C18.56429687 94.32195312 18.12859375 93.64390625 17.6796875 92.9453125 C16.42430061 90.98343083 15.17612463 89.01692397 13.93359375 87.046875 C12.78102235 85.23070188 11.61217534 83.42445677 10.41015625 81.640625 C-3.26271558 60.60543757 -6.42462237 32.05597954 -1.92041016 7.76953125 C-1.35908953 5.15655441 -0.72394348 2.57258486 0 0 Z " fill="#FEE2E0" transform="translate(127,8)"/>
<path d="M0 0 C1.45703125 1.49023438 1.45703125 1.49023438 2.8125 3.59375 C3.32425781 4.36847656 3.83601563 5.14320313 4.36328125 5.94140625 C4.90339844 6.78574219 5.44351563 7.63007813 6 8.5 C7.16358714 10.26245366 8.33030947 12.02284106 9.5 13.78125 C10.08652344 14.66554688 10.67304688 15.54984375 11.27734375 16.4609375 C13.72724354 20.07190091 16.34396997 23.53930078 19 27 C25.29219688 35.23995768 31.10166365 43.79334016 36.88354492 52.39624023 C37.90437268 53.96315097 37.90437268 53.96315097 39 55 C39.08617136 56.53925105 39.10409607 58.08239374 39.09423828 59.62402344 C39.09026535 61.10125885 39.09026535 61.10125885 39.08621216 62.6083374 C39.08096527 63.68117981 39.07571838 64.75402222 39.0703125 65.859375 C39.07889825 68.11198689 39.08937473 70.36459222 39.1015625 72.6171875 C39.11826088 76.18376492 39.12500793 79.74888584 39.09960938 83.31542969 C39.07866371 86.74766194 39.10187196 90.17726833 39.1328125 93.609375 C39.10672409 95.20649323 39.10672409 95.20649323 39.08010864 96.83587646 C39.04562088 102.21862909 39.04562088 102.21862909 41.51068115 106.78039551 C46.88847695 110.74711457 52.42050458 111.9341879 59 111 C64.92911291 108.71520864 64.92911291 108.71520864 70 105 C70.05486531 103.52844754 70.04090761 102.05425452 69.99902344 100.58227539 C69.87423915 95.23792889 69.81944597 89.89673345 69.78857422 84.55102539 C69.76319081 82.25543305 69.71656331 79.95996088 69.64697266 77.6652832 C69.17754014 61.27446307 71.25018817 51.2882084 82.31770325 38.95271301 C85.15139779 35.66352387 87.55217804 32.0797483 90 28.5 C94.89568339 21.5186112 99.88006427 14.60315293 104.90039062 7.7109375 C105.6825293 6.63392578 105.6825293 6.63392578 106.48046875 5.53515625 C107.17499146 4.58201538 107.17499146 4.58201538 107.88354492 3.60961914 C109.0663936 1.98579218 109.0663936 1.98579218 110 0 C115.38903604 0.57129091 119.55282759 2.45076851 124.3515625 4.796875 C125.55758873 5.37483826 125.55758873 5.37483826 126.78797913 5.96447754 C129.40365035 7.21952006 132.01425888 8.48473855 134.625 9.75 C137.3397895 11.05590636 140.0558467 12.35914698 142.77207947 13.66204834 C144.58876502 14.53350707 146.40505944 15.40578161 148.22096252 16.27886963 C153.59911693 18.86180408 158.9911122 21.4102494 164.41015625 23.90625 C165.04226013 24.1975177 165.67436401 24.4887854 166.32562256 24.78887939 C169.19109895 26.10711742 172.05928466 27.41918133 174.93017578 28.72558594 C197.93252538 39.28822405 214.62596091 51.52907191 225.4296875 74.7109375 C234.61842189 99.80852546 231 112.48725952 231 144 C114.84 144 -1.32 144 -121 144 C-121 85.28447626 -121 85.28447626 -113.1875 70.625 C-112.84420654 69.96000488 -112.50091309 69.29500977 -112.1472168 68.60986328 C-109.31264668 63.26676057 -105.97747632 58.558456 -102 54 C-101.25830566 53.06905518 -100.51661133 52.13811035 -99.75244141 51.17895508 C-91.21026042 40.94791605 -79.26796951 35.19668058 -67.4375 29.6875 C-65.89605534 28.95575381 -64.35521115 28.22274148 -62.81494141 27.48852539 C-58.21980412 25.30443357 -53.61101394 23.15031572 -49 21 C-47.64164669 20.36418354 -46.28340626 19.72812585 -44.92529297 19.09179688 C-38.9985327 16.31695252 -33.06339155 13.56112475 -27.1171875 10.828125 C-23.27230422 9.05907284 -19.44354797 7.2633235 -15.6328125 5.421875 C-14.83762207 5.039104 -14.04243164 4.65633301 -13.22314453 4.26196289 C-11.80168153 3.57495886 -10.38307097 2.88200078 -8.96826172 2.18139648 C-5.63063441 0.57270433 -3.80299657 0 0 0 Z " fill="#B3E97F" transform="translate(201,360)"/>
<path d="M0 0 C2.81878924 0.6052425 5.05333422 1.45230596 7.546875 2.890625 C31.85505721 16.54304601 53.27275202 18.55094103 79.875 11.1875 C97.7583287 6.33010829 115.10297265 2.40184451 133.75 2.625 C134.99716797 2.63442627 136.24433594 2.64385254 137.52929688 2.65356445 C160.15976339 3.0247254 180.89261367 10.10101442 197.25390625 26.1328125 C211.29174786 40.789677 224.26080176 65.25924224 225.125 86 C225.08375 86.66 225.0425 87.32 225 88 C225.69609375 88.08378906 226.3921875 88.16757813 227.109375 88.25390625 C237.91980135 91.04416494 248.01903723 101.6625929 253.7421875 110.7734375 C261.18494137 124.58511508 263.55515308 139.67556336 262.75 155.1875 C262.70480225 156.09226074 262.65960449 156.99702148 262.61303711 157.92919922 C261.4639723 177.30404154 261.4639723 177.30404154 257 184 C247.60525003 186.11524797 236.82823652 181.81574054 228.75 177.3125 C214.36903987 167.99755992 206.11472 152.99007744 202.44775391 136.51953125 C201.45707084 131.36995083 200.68586538 126.1981376 200 121 C198.92363281 121.51949219 197.84726562 122.03898437 196.73828125 122.57421875 C181.14527073 130.0493112 165.96130823 135.51431395 149 139 C148.09169434 139.19053955 147.18338867 139.3810791 146.24755859 139.57739258 C138.45465113 141.05695001 130.77796355 141.34023001 122.87451172 141.31567383 C120.76606936 141.31252401 118.65905061 141.33603675 116.55078125 141.36132812 C103.56097599 141.42285401 91.04818226 139.50167539 78.75 135.1875 C78.00766113 134.93468262 77.26532227 134.68186523 76.50048828 134.42138672 C70.0410912 132.15466208 63.99474375 129.31474066 58 126 C57.7525 127.19625 57.505 128.3925 57.25 129.625 C53.25530283 147.29598681 47.62617812 165.00040071 31.984375 175.76171875 C22.38538648 181.75163875 12.35473199 184.5677366 1 184 C-7.86315367 165.87082205 -6.5188039 141.2000959 -0.9375 122.3125 C3.02140788 111.28577716 9.57197059 102.06459969 19 95 C18.56429687 94.32195312 18.12859375 93.64390625 17.6796875 92.9453125 C16.42430061 90.98343083 15.17612463 89.01692397 13.93359375 87.046875 C12.78102235 85.23070188 11.61217534 83.42445677 10.41015625 81.640625 C-3.26271558 60.60543757 -6.42462237 32.05597954 -1.92041016 7.76953125 C-1.35908953 5.15655441 -0.72394348 2.57258486 0 0 Z " fill="#756663" transform="translate(127,8)"/>
<path d="M0 0 C0.66569504 -0.00554901 1.33139008 -0.01109802 2.01725769 -0.01681519 C4.20691044 -0.02857861 6.39447797 -0.00437471 8.58398438 0.02148438 C10.11185614 0.02319649 11.63973084 0.02312877 13.16760254 0.0213623 C16.36543997 0.02301365 19.56257476 0.04167599 22.76025391 0.07324219 C26.85265379 0.1129199 30.94413402 0.11728643 35.03668976 0.10977936 C38.19037249 0.1067051 41.3438497 0.11884625 44.4974823 0.13591003 C46.00610565 0.14292529 47.5147523 0.14606636 49.02339172 0.1452179 C51.13450962 0.14702221 53.24453978 0.16845545 55.35546875 0.1953125 C57.15485901 0.20794128 57.15485901 0.20794128 58.99060059 0.2208252 C62.50029385 0.65515125 64.4091763 1.43497302 67.17773438 3.61523438 C67.99023438 6.80273438 67.99023438 6.80273438 68.17773438 9.61523438 C68.83773437 9.28523437 69.49773437 8.95523438 70.17773438 8.61523438 C72.17583947 8.51873498 74.17730617 8.48542565 76.17773438 8.49023438 C77.78648437 8.48636719 77.78648437 8.48636719 79.42773438 8.48242188 C82.17773438 8.61523438 82.17773438 8.61523438 84.17773438 9.61523438 C84.26023437 8.68710938 84.34273438 7.75898438 84.42773438 6.80273438 C85.17773438 3.61523438 85.17773438 3.61523438 86.80531311 1.9402771 C89.96649179 0.17469825 92.27132814 0.23423039 95.88647461 0.22705078 C96.55202362 0.22179382 97.21757263 0.21653687 97.90328979 0.21112061 C100.09787645 0.19794408 102.29173441 0.20665072 104.48632812 0.21679688 C106.0156315 0.21477521 107.54493393 0.211863 109.07423401 0.20809937 C112.27785428 0.20367901 115.4812234 0.21009667 118.68481445 0.22412109 C122.78503932 0.24119859 126.88467443 0.23137948 130.98487759 0.2134037 C134.14281123 0.20254555 137.30060587 0.20602172 140.45854378 0.21378708 C141.96997205 0.21578423 143.48141307 0.21334684 144.99282646 0.20634842 C147.10875576 0.19870179 149.22374039 0.21038218 151.33959961 0.22705078 C153.14351418 0.23063095 153.14351418 0.23063095 154.98387146 0.23428345 C158.48434415 0.65180554 160.37476366 1.51379258 163.17773438 3.61523438 C167.33866345 11.93709252 165.0764515 28.27731964 162.55273438 37.05273438 C158.33357523 48.16121982 151.03922098 56.91366318 140.09179688 61.83789062 C129.41231713 66.17506709 118.92102034 65.59066131 108.11914062 61.87304688 C103.83371497 60.04050098 100.55180181 57.81014779 97.17773438 54.61523438 C96.57445312 54.06351563 95.97117187 53.51179688 95.34960938 52.94335938 C88.30510531 45.7763422 85.21609072 36.00133051 82.17773438 26.61523438 C80.59760221 26.36494626 79.01331131 26.14082492 77.42773438 25.92773438 C76.54601562 25.80011719 75.66429687 25.6725 74.75585938 25.54101562 C72.14290162 25.43343815 72.14290162 25.43343815 69.93554688 26.74804688 C67.66726308 29.15746832 67.38573869 30.9374133 66.80273438 34.17773438 C64.38592783 44.8348228 58.94657795 52.17281869 50.17773438 58.61523438 C40.45480045 64.66505993 29.9394158 66.16229658 18.72851562 63.92773438 C11.83198322 62.005356 6.38252986 59.55576872 1.17773438 54.61523438 C0.56285156 54.0403125 -0.05203125 53.46539062 -0.68554688 52.87304688 C-10.28108418 42.96930173 -12.02426497 30.79473893 -12.19726562 17.61523438 C-12.23464844 16.535 -12.27203125 15.45476562 -12.31054688 14.34179688 C-12.32214844 13.29765625 -12.33375 12.25351563 -12.34570312 11.17773438 C-12.36552246 10.23027344 -12.3853418 9.2828125 -12.40576172 8.30664062 C-10.96616681 1.6664338 -6.20692254 -0.01063008 0 0 Z " fill="#787581" transform="translate(179.822265625,199.384765625)"/>
<path d="M0 0 C3.71472359 1.43028651 6.76752639 3.07112278 10.0625 5.3125 C23.44702922 13.99974864 37.70387257 17.42595524 53.46484375 14.31640625 C61.94600714 11.63051876 69.9053623 7.41694354 77 2.0625 C77.99 1.381875 78.98 0.70125 80 0 C85.17249716 1.72416572 87.36314323 6.85659614 90.3125 11.25 C90.98345703 12.20519531 91.65441406 13.16039062 92.34570312 14.14453125 C92.97025391 15.07136719 93.59480469 15.99820312 94.23828125 16.953125 C94.81618408 17.80036133 95.39408691 18.64759766 95.98950195 19.52050781 C97 22 97 22 96.3203125 24.59204102 C95.17390195 26.68284118 94.02437427 28.63783461 92.63671875 30.57421875 C91.93482422 31.56131836 91.93482422 31.56131836 91.21875 32.56835938 C90.46078125 33.61733398 90.46078125 33.61733398 89.6875 34.6875 C89.15769531 35.42935547 88.62789063 36.17121094 88.08203125 36.93554688 C86.39423256 39.29489927 84.69839409 41.6482654 83 44 C82.45811035 44.75104004 81.9162207 45.50208008 81.35791016 46.27587891 C77.0340742 52.26563659 77.0340742 52.26563659 75.0690918 54.9675293 C74.03328985 56.39447804 73.01573805 57.83476738 72.01196289 59.28442383 C70.3997947 61.46039116 68.75040786 63.42320256 66.95483398 65.44018555 C56.43737298 77.84866066 56.50271478 89.05789579 57.0625 104.8125 C57.14416284 108.22379033 57.20822101 111.63374602 57.24473572 115.04582214 C57.27113117 117.15097131 57.3253783 119.25600657 57.41114807 121.35957336 C57.5529959 128.38809408 57.5529959 128.38809408 54.68530273 131.5612793 C53.79915283 132.03605713 52.91300293 132.51083496 52 133 C50.9275 133.5775 49.855 134.155 48.75 134.75 C43.06919313 136.64360229 38.3749108 136.91342723 32.75 134.75 C31.8425 134.1725 30.935 133.595 30 133 C29.1234375 132.52449707 28.246875 132.04899414 27.34375 131.55908203 C24.19038842 128.11600535 24.50708615 125.92232934 24.61450195 121.38522339 C24.65921631 120.36864655 24.70393066 119.3520697 24.75 118.3046875 C24.78231865 116.12112755 24.81218295 113.93753017 24.83984375 111.75390625 C24.9094766 108.33410565 24.99828715 104.91836072 25.13330078 101.50048828 C25.72484749 85.1168 23.76593489 75.29362009 12.68632507 62.95570374 C9.85003214 59.6663328 7.4478724 56.08190163 5 52.5 C1.84344739 47.99064359 -1.34692123 43.51059633 -4.60546875 39.07421875 C-5.20294922 38.25824219 -5.80042969 37.44226563 -6.41601562 36.6015625 C-7.5721649 35.02603824 -8.73340426 33.45423293 -9.90039062 31.88671875 C-10.42181641 31.17515625 -10.94324219 30.46359375 -11.48046875 29.73046875 C-11.94348389 29.10551514 -12.40649902 28.48056152 -12.88354492 27.83666992 C-14.15129466 25.75110655 -14.83196274 24.44882876 -15 22 C-13.73657227 19.52636719 -13.73657227 19.52636719 -11.81640625 16.796875 C-11.13642578 15.8171875 -10.45644531 14.8375 -9.75585938 13.828125 C-9.03205078 12.81234375 -8.30824219 11.7965625 -7.5625 10.75 C-6.84255859 9.71875 -6.12261719 8.6875 -5.38085938 7.625 C-3.59836369 5.07520484 -1.80451875 2.53423387 0 0 Z " fill="#F3C9C8" transform="translate(215,336)"/>
<path d="M0 0 C8.68692867 0.48260715 16.69872282 3.87875931 23 10 C28.63044854 16.59421902 31.5437451 23.30007842 31 32 C32.2375 32.04125 33.475 32.0825 34.75 32.125 C42.45917578 33.00187307 50.25115857 36.58134211 55.5 42.375 C61.94899377 50.93561119 64.05038017 59.34447674 63 70 C61.10794224 76.48597398 58.47743209 81.91363714 54 87 C51.12255732 88.43872134 48.65434078 88.11937153 45.43896484 88.11352539 C44.76567642 88.11367142 44.092388 88.11381744 43.3986969 88.1139679 C41.16941119 88.11327027 38.94020865 88.10548489 36.7109375 88.09765625 C35.16679937 88.09579154 33.62266066 88.09436789 32.07852173 88.09336853 C28.01129528 88.08954754 23.94410445 88.07972082 19.87689209 88.06866455 C15.7278288 88.05844144 11.57875975 88.05386898 7.4296875 88.04882812 C-0.71355803 88.03809819 -8.85677458 88.02102677 -17 88 C-17.10252838 81.15402212 -17.17193196 74.30824655 -17.21972656 67.46166992 C-17.23967881 65.13900352 -17.26685049 62.81638627 -17.30175781 60.49389648 C-17.54500848 43.87772985 -17.0907592 29.44369039 -9.0625 14.5 C-8.58006836 13.54480469 -8.58006836 13.54480469 -8.08789062 12.5703125 C-5.76310359 8.07664131 -3.0109332 4.06345072 0 0 Z " fill="#F87DA2" transform="translate(97,416)"/>
<path d="M0 0 C3.98175688 1.57591783 6.44890138 4.38270657 9.3125 7.4375 C16.45762985 14.83294054 24.73877625 21.7515694 33.90625 26.5078125 C36 28 36 28 36.62890625 30.20703125 C36.20247728 46.93809726 29.49329159 62.85614474 18 75 C7.67141994 84.32385437 -5.12885809 88.6935571 -19 88 C-28.61913971 68.32448696 -26.23386703 42.41211119 -19.4140625 22.3046875 C-17.19662493 17.12249914 -14.48758784 13.07416835 -10.125 9.5 C-6.5504479 6.49443091 -3.2607989 3.34231887 0 0 Z " fill="#645250" transform="translate(147,104)"/>
<path d="M0 0 C2.82720719 1.02686299 5.42454606 2.37388827 8.0625 3.8125 C9.18023804 4.41819824 9.18023804 4.41819824 10.32055664 5.03613281 C30.43270458 16.32459517 42.96313473 33.69788137 49.4375 55.625 C51.1396937 62.48447842 51.42702982 68.96586995 51 76 C43.50515267 80.46808206 37.83159535 81.83996151 29 81 C21.58856501 79.02836826 15.0680402 74.34491242 10.6484375 68.0859375 C7.96559325 63.24137702 7.25390675 58.48438573 7 53 C6.1646875 52.96132813 6.1646875 52.96132813 5.3125 52.921875 C-3.09599935 52.29691897 -8.48669649 49.91599642 -14.3125 43.75 C-19.87349755 37.04184186 -21.55387678 31.37854147 -21.2890625 22.67578125 C-20.41088369 14.54669358 -16.44258428 7.77533537 -10.125 2.625 C-6.67709954 -0.09702668 -4.37110279 -0.5417853 0 0 Z " fill="#F87EA2" transform="translate(381,391)"/>
<path d="M0 0 C2.7793208 -0.30441001 5.33191111 -0.42000003 8.11328125 -0.3984375 C9.32312935 -0.40274277 9.32312935 -0.40274277 10.55741882 -0.40713501 C12.26639506 -0.40917859 13.97539454 -0.40362823 15.68432617 -0.39111328 C18.29204203 -0.37512543 20.89819325 -0.39091876 23.50585938 -0.41015625 C25.16667008 -0.40817264 26.82747981 -0.40432654 28.48828125 -0.3984375 C29.26553055 -0.40451019 30.04277985 -0.41058289 30.84358215 -0.4168396 C35.3945235 -0.35820238 38.39121493 0.15618885 42 3 C46.16092907 11.32185815 43.89871713 27.66208526 41.375 36.4375 C37.15584085 47.54598545 29.8614866 56.29842881 18.9140625 61.22265625 C8.14460598 65.5963743 -1.99477041 64.76121584 -12.9296875 61.36328125 C-16.73185152 59.67504303 -19.68291805 57.50651681 -23 55 C-22.75467529 54.41959961 -22.50935059 53.83919922 -22.2565918 53.24121094 C-16.49130774 39.57278871 -10.91500383 25.84643993 -5.58081055 12.00488281 C-5.14164307 10.87276367 -4.70247559 9.74064453 -4.25 8.57421875 C-3.86328125 7.56963623 -3.4765625 6.56505371 -3.078125 5.5300293 C-2 3 -2 3 0 0 Z " fill="#787581" transform="translate(301,200)"/>
<path d="M0 0 C1.45703125 1.49023438 1.45703125 1.49023438 2.8125 3.59375 C3.32425781 4.36847656 3.83601563 5.14320313 4.36328125 5.94140625 C4.90339844 6.78574219 5.44351563 7.63007813 6 8.5 C7.16358714 10.26245366 8.33030947 12.02284106 9.5 13.78125 C10.08652344 14.66554688 10.67304688 15.54984375 11.27734375 16.4609375 C13.72728026 20.07195503 16.34465431 23.5387258 19 27 C23.56624163 33.00259638 27.95864436 39.11022341 32.25 45.3125 C32.82363281 46.13169922 33.39726562 46.95089844 33.98828125 47.79492188 C34.51292969 48.55998047 35.03757813 49.32503906 35.578125 50.11328125 C36.04637695 50.79173096 36.51462891 51.47018066 36.99707031 52.16918945 C38 54 38 54 38 57 C37.2879541 57.40613525 36.5759082 57.81227051 35.84228516 58.23071289 C33.06628323 59.81449457 30.29054457 61.39873629 27.51504517 62.98339844 C26.25742563 63.70142318 24.99975574 64.41935973 23.74203491 65.13720703 C16.61276008 69.20695918 9.49012546 73.28757827 2.38671875 77.40234375 C1.78589478 77.75015396 1.1850708 78.09796417 0.56604004 78.45631409 C-2.31943886 80.12700637 -5.20342809 81.80014871 -8.08544922 83.47680664 C-9.11299316 84.07227295 -10.14053711 84.66773926 -11.19921875 85.28125 C-12.10502686 85.80783203 -13.01083496 86.33441406 -13.9440918 86.87695312 C-16 88 -16 88 -17 88 C-17 61.27 -17 34.54 -17 7 C-4 0 -4 0 0 0 Z " fill="#92D169" transform="translate(201,360)"/>
<path d="M0 0 C6 1 6 1 17 7 C17 33.73 17 60.46 17 88 C-1.47993948 77.92003301 -19.94277554 67.82414725 -38 57 C-37.61529128 51.56064612 -34.4063672 48.01283362 -31.25 43.8125 C-30.05973206 42.19673522 -28.8696326 40.58084631 -27.6796875 38.96484375 C-27.06834961 38.14097168 -26.45701172 37.31709961 -25.82714844 36.46826172 C-22.98156193 32.62421046 -20.17607142 28.75155442 -17.375 24.875 C-16.84398682 24.14144287 -16.31297363 23.40788574 -15.76586914 22.65209961 C-10.3815861 15.18978769 -5.17326209 7.60956788 0 0 Z " fill="#92D169" transform="translate(311,360)"/>
<path d="M0 0 C7.28554642 0.35252644 7.28554642 0.35252644 10 2.8125 C11 5 11 5 11 9 C11.66 8.67 12.32 8.34 13 8 C14.9981051 7.90350061 16.9995718 7.87019128 19 7.875 C20.60875 7.87113281 20.60875 7.87113281 22.25 7.8671875 C25 8 25 8 27 9 C27.0825 8.071875 27.165 7.14375 27.25 6.1875 C28 3 28 3 29.58496094 1.3190918 C32.95065084 -0.51924449 35.56937828 -0.33845978 39.390625 -0.29296875 C40.44754547 -0.28660149 40.44754547 -0.28660149 41.52581787 -0.28010559 C43.76760712 -0.26336538 46.00848431 -0.22572404 48.25 -0.1875 C49.77342448 -0.17244704 51.29686311 -0.1587597 52.8203125 -0.14648438 C56.54716941 -0.11347791 60.27349563 -0.06172854 64 0 C63.75467529 0.61069336 63.50935059 1.22138672 63.2565918 1.85058594 C56.42415362 18.86936752 49.68638615 35.92343778 43 53 C39 53 39 53 36.125 50.375 C30.55939697 43.46743685 27.68984203 34.33597271 25 26 C23.41986783 25.74971189 21.83557694 25.52559054 20.25 25.3125 C19.36828125 25.18488281 18.4865625 25.05726563 17.578125 24.92578125 C14.96516724 24.81820378 14.96516724 24.81820378 12.7578125 26.1328125 C10.48952871 28.54223395 10.20800431 30.32217893 9.625 33.5625 C7.01476245 45.07253684 0.71238451 52.81330867 -9.00390625 59.34765625 C-14.14058458 62.24287494 -19.18910736 62.70142739 -25 63 C-22.88011109 55.3420928 -20.14243045 48.03858992 -17.1484375 40.68359375 C-16.68893707 39.54592056 -16.22943665 38.40824738 -15.75601196 37.23609924 C-14.79162159 34.85111643 -13.82506677 32.4670078 -12.85644531 30.08374023 C-11.36761715 26.41932879 -9.88643429 22.75189475 -8.40625 19.08398438 C-7.46659147 16.76284038 -6.52650283 14.44187044 -5.5859375 12.12109375 C-5.14116058 11.02018906 -4.69638367 9.91928436 -4.23812866 8.78501892 C-3.82745148 7.77629227 -3.41677429 6.76756561 -2.99365234 5.72827148 C-2.45096207 4.39118385 -2.45096207 4.39118385 -1.89730835 3.02708435 C-1 1 -1 1 0 0 Z " fill="#555361" transform="translate(237,200)"/>
<path d="M0 0 C2.57952746 1.0509186 3.84064027 2.85001624 5.421875 5.08203125 C9.9376032 10.25480985 18.09555805 14.34480364 24.87890625 15.109375 C36.23122008 15.24764922 44.38239158 12.30908085 52.8984375 4.7734375 C54.1359375 3.319375 54.1359375 3.319375 55.3984375 1.8359375 C58.15635932 -0.439348 58.63709704 -0.54765577 62.0234375 -0.2890625 C64.60026129 0.24676097 65.83213817 0.72321073 67.9609375 2.3359375 C69.43947742 6.18014128 69.45000445 9.02916022 67.8984375 12.7734375 C62.10152995 20.56679039 54.7906143 25.18099807 45.8984375 28.7734375 C45.07601562 29.11246094 44.25359375 29.45148438 43.40625 29.80078125 C32.97350844 33.51210079 21.10970609 32.89609048 10.8984375 28.7734375 C2.64647648 24.84950243 -7.22620884 19.36426873 -11.05078125 10.59765625 C-11.82348026 6.83340694 -11.19455719 4.92042911 -9.1640625 1.7109375 C-5.62786316 -0.52624984 -4.01444916 -0.79095095 0 0 Z " fill="#F9AFAF" transform="translate(227.1015625,280.2265625)"/>
<path d="M0 0 C0.7031987 0.00707474 1.4063974 0.01414948 2.13090515 0.0214386 C4.36312102 0.04928913 6.59276952 0.11199805 8.82421875 0.17578125 C10.34306256 0.20087674 11.86194595 0.22368773 13.38085938 0.24414062 C17.09197123 0.29908118 20.80159416 0.38528386 24.51171875 0.48828125 C24.14373169 1.40432129 24.14373169 1.40432129 23.76831055 2.33886719 C16.93587237 19.35764877 10.1981049 36.41171903 3.51171875 53.48828125 C-0.48828125 53.48828125 -0.48828125 53.48828125 -2.015625 52.37890625 C-10.83320492 42.12022601 -12.69192846 30.54224839 -12.86328125 17.48828125 C-12.90066406 16.40804687 -12.93804687 15.3278125 -12.9765625 14.21484375 C-12.98816406 13.17070312 -12.99976563 12.1265625 -13.01171875 11.05078125 C-13.03153809 10.10332031 -13.05135742 9.15585938 -13.07177734 8.1796875 C-11.5234525 1.03795817 -6.56899389 -0.13085645 0 0 Z " fill="#545260" transform="translate(180.48828125,199.51171875)"/>
<path d="M0 0 C7.4022714 0.35817442 7.4022714 0.35817442 9.59838867 2.71630859 C11.26227135 5.42732734 11.39941136 7.02158134 11.43359375 10.18359375 C11.44503418 11.18769287 11.45647461 12.19179199 11.46826172 13.22631836 C11.45811035 14.2860083 11.44795898 15.34569824 11.4375 16.4375 C11.42992676 17.51974854 11.42235352 18.60199707 11.41455078 19.71704102 C11.14921492 32.6148816 8.25619625 43.42766242 -0.8828125 52.96484375 C-8.33414109 59.87558576 -14.90959401 62.48041408 -25 63 C-22.88011109 55.3420928 -20.14243045 48.03858992 -17.1484375 40.68359375 C-16.68893707 39.54592056 -16.22943665 38.40824738 -15.75601196 37.23609924 C-14.79162159 34.85111643 -13.82506677 32.4670078 -12.85644531 30.08374023 C-11.36761715 26.41932879 -9.88643429 22.75189475 -8.40625 19.08398438 C-7.46659147 16.76284038 -6.52650283 14.44187044 -5.5859375 12.12109375 C-5.14116058 11.02018906 -4.69638367 9.91928436 -4.23812866 8.78501892 C-3.82745148 7.77629227 -3.41677429 6.76756561 -2.99365234 5.72827148 C-2.45096207 4.39118385 -2.45096207 4.39118385 -1.89730835 3.02708435 C-1 1 -1 1 0 0 Z " fill="#555361" transform="translate(333,200)"/>
<path d="M0 0 C2.64 1.65 5.28 3.3 8 5 C13.07588941 6.69196314 17.7075719 6.90456208 22.7421875 4.91796875 C25.20677478 3.67853138 27.61047976 2.37770071 30 1 C30.66 0.67 31.32 0.34 32 0 C32 12.87 32 25.74 32 39 C21.44 39 10.88 39 0 39 C0 26.13 0 13.26 0 0 Z " fill="#92D069" transform="translate(240,465)"/>
<path d="M0 0 C1.48831242 0.00667405 2.97660807 0.01863442 4.46484375 0.03515625 C5.22345703 0.03966797 5.98207031 0.04417969 6.76367188 0.04882812 C8.64326246 0.06064945 10.52281274 0.07858547 12.40234375 0.09765625 C9.37717996 8.05967505 6.3171761 16.0080323 3.23590088 23.94848633 C2.66261844 25.42658702 2.09002521 26.90495515 1.51800537 28.38354492 C-0.34155434 33.1890511 -2.21401032 37.98922022 -4.10223389 42.78353882 C-4.72456407 44.36892342 -5.34293055 45.95586963 -5.95733643 47.54434204 C-6.82555826 49.78649168 -7.70785021 52.02259956 -8.59375 54.2578125 C-8.85279617 54.93579895 -9.11184235 55.6137854 -9.3787384 56.31231689 C-10.03419255 57.94382907 -10.80697628 59.52721767 -11.59765625 61.09765625 C-14.59765625 62.09765625 -14.59765625 62.09765625 -17.0078125 61.20703125 C-17.88308594 60.7584375 -18.75835937 60.30984375 -19.66015625 59.84765625 C-20.53800781 59.409375 -21.41585938 58.97109375 -22.3203125 58.51953125 C-24.59765625 57.09765625 -24.59765625 57.09765625 -26.59765625 54.09765625 C-26.04722656 53.05480469 -25.49679687 52.01195312 -24.9296875 50.9375 C-21.96950235 45.01322616 -19.66731762 38.83347565 -17.28515625 32.66015625 C-16.31468039 30.16451281 -15.34104496 27.67010675 -14.3671875 25.17578125 C-13.89619629 23.96857422 -13.42520508 22.76136719 -12.93994141 21.51757812 C-11.15375855 16.96667791 -9.32994865 12.43245543 -7.47265625 7.91015625 C-7.18994873 7.21672119 -6.90724121 6.52328613 -6.6159668 5.80883789 C-4.26462309 0.11576067 -4.26462309 0.11576067 0 0 Z " fill="#787681" transform="translate(304.59765625,199.90234375)"/>
<path d="M0 0 C1.48831242 0.00667405 2.97660807 0.01863442 4.46484375 0.03515625 C5.22345703 0.03966797 5.98207031 0.04417969 6.76367188 0.04882812 C8.64326246 0.06064945 10.52281274 0.07858547 12.40234375 0.09765625 C9.37717996 8.05967505 6.3171761 16.0080323 3.23590088 23.94848633 C2.66261844 25.42658702 2.09002521 26.90495515 1.51800537 28.38354492 C-0.34155434 33.1890511 -2.21401032 37.98922022 -4.10223389 42.78353882 C-4.72456407 44.36892342 -5.34293055 45.95586963 -5.95733643 47.54434204 C-6.82555826 49.78649168 -7.70785021 52.02259956 -8.59375 54.2578125 C-8.85279617 54.93579895 -9.11184235 55.6137854 -9.3787384 56.31231689 C-10.03419255 57.94382907 -10.80697628 59.52721767 -11.59765625 61.09765625 C-14.59765625 62.09765625 -14.59765625 62.09765625 -17.0078125 61.20703125 C-17.88308594 60.7584375 -18.75835937 60.30984375 -19.66015625 59.84765625 C-20.53800781 59.409375 -21.41585937 58.97109375 -22.3203125 58.51953125 C-24.59765625 57.09765625 -24.59765625 57.09765625 -26.59765625 54.09765625 C-26.04722656 53.05480469 -25.49679688 52.01195312 -24.9296875 50.9375 C-21.96950235 45.01322616 -19.66731762 38.83347565 -17.28515625 32.66015625 C-16.31468039 30.16451281 -15.34104496 27.67010675 -14.3671875 25.17578125 C-13.89619629 23.96857422 -13.42520508 22.76136719 -12.93994141 21.51757812 C-11.15375855 16.96667791 -9.32994865 12.43245543 -7.47265625 7.91015625 C-7.18994873 7.21672119 -6.90724121 6.52328613 -6.6159668 5.80883789 C-4.26462309 0.11576067 -4.26462309 0.11576067 0 0 Z " fill="#787681" transform="translate(208.59765625,199.90234375)"/>
<path d="M0 0 C2.875 2.125 2.875 2.125 5 5 C5.77838502 12.20833215 2.04920423 17.21545742 -1.4375 23.25 C-2.32598633 24.90128906 -2.32598633 24.90128906 -3.23242188 26.5859375 C-7.6694544 34.31159413 -7.6694544 34.31159413 -11.26782227 36.17333984 C-13.5683568 36.72052272 -15.63914537 36.95435337 -18 37 C-19.62615234 37.09667969 -19.62615234 37.09667969 -21.28515625 37.1953125 C-22.65994141 37.16050781 -22.65994141 37.16050781 -24.0625 37.125 C-25.47208984 37.09792969 -25.47208984 37.09792969 -26.91015625 37.0703125 C-27.59980469 37.04710937 -28.28945313 37.02390625 -29 37 C-27.46218794 32.73277281 -25.30048569 28.97431479 -22.9375 25.125 C-22.13115423 23.80099811 -21.32517594 22.47677236 -20.51953125 21.15234375 C-20.10525879 20.47284668 -19.69098633 19.79334961 -19.26416016 19.09326172 C-17.99441256 16.99074802 -16.74970295 14.8752565 -15.51171875 12.75390625 C-14.91145874 11.73176025 -14.91145874 11.73176025 -14.29907227 10.68896484 C-13.53027774 9.3783852 -12.76624873 8.06499561 -12.00756836 6.74853516 C-8.83988583 1.3829134 -6.40123112 -0.89617236 0 0 Z " fill="#F4C9C9" transform="translate(386,244)"/>
<path d="M0 0 C3.76861907 3.27435563 6.22964365 6.7034513 8.6640625 11.03515625 C9.31117188 12.17404297 9.95828125 13.31292969 10.625 14.48632812 C11.29211177 15.67813638 11.95877448 16.8701961 12.625 18.0625 C13.9466675 20.40976366 15.27365754 22.75390399 16.6015625 25.09765625 C17.18244629 26.13414307 17.76333008 27.17062988 18.36181641 28.23852539 C19.91537498 30.9791931 19.91537498 30.9791931 21.71240234 33.24389648 C23 35 23 35 23 37 C21.35457036 37.05536025 19.70855716 37.09338848 18.0625 37.125 C17.14597656 37.14820313 16.22945312 37.17140625 15.28515625 37.1953125 C14.20105469 37.13085938 13.11695313 37.06640625 12 37 C11.29343262 36.97413818 10.58686523 36.94827637 9.85888672 36.92163086 C5.98597925 36.48139695 3.74727624 35.82218425 1.07836914 32.88574219 C-0.78120033 30.09780201 -2.40871778 27.26149915 -4 24.3125 C-4.57105469 23.33087891 -5.14210938 22.34925781 -5.73046875 21.33789062 C-8.61312561 16.23332842 -10.91440133 11.92187196 -11 6 C-8.47081745 0.45988584 -6.0357992 -0.71009402 0 0 Z " fill="#F4C9C9" transform="translate(132,244)"/>
<path d="M0 0 C2.05078125 0.03255208 4.1015625 0.06510417 6.15234375 0.09765625 C-1.83565336 21.23931755 -10.30547338 42.17529974 -18.84765625 63.09765625 C-21.72265625 63.22265625 -21.72265625 63.22265625 -24.84765625 63.09765625 C-25.50765625 62.43765625 -26.16765625 61.77765625 -26.84765625 61.09765625 C-23.73874741 53.29068686 -20.62707605 45.48482689 -17.51183414 37.68038273 C-16.06551874 34.05675365 -14.62017173 30.43274448 -13.17700195 26.80786133 C-11.78522133 23.312157 -10.390944 19.81745835 -8.99490166 16.3234539 C-8.46171753 14.98771393 -7.92944664 13.65160906 -7.39808846 12.31514168 C-6.65588561 10.4488065 -5.91018414 8.58386379 -5.16430664 6.71899414 C-4.74016983 5.6553212 -4.31603302 4.59164825 -3.87904358 3.4957428 C-2.43082517 0.12847913 -2.43082517 0.12847913 0 0 Z " fill="#555361" transform="translate(318.84765625,199.90234375)"/>
<path d="M0 0 C2.05078125 0.03255208 4.1015625 0.06510417 6.15234375 0.09765625 C-1.83565336 21.23931755 -10.30547338 42.17529974 -18.84765625 63.09765625 C-21.72265625 63.22265625 -21.72265625 63.22265625 -24.84765625 63.09765625 C-25.50765625 62.43765625 -26.16765625 61.77765625 -26.84765625 61.09765625 C-23.73874741 53.29068686 -20.62707605 45.48482689 -17.51183414 37.68038273 C-16.06551874 34.05675365 -14.62017173 30.43274448 -13.17700195 26.80786133 C-11.78522133 23.312157 -10.390944 19.81745835 -8.99490166 16.3234539 C-8.46171753 14.98771393 -7.92944664 13.65160906 -7.39808846 12.31514168 C-6.65588561 10.4488065 -5.91018414 8.58386379 -5.16430664 6.71899414 C-4.74016983 5.6553212 -4.31603302 4.59164825 -3.87904358 3.4957428 C-2.43082517 0.12847913 -2.43082517 0.12847913 0 0 Z " fill="#555361" transform="translate(222.84765625,199.90234375)"/>
<path d="M0 0 C0.66 0.33 1.32 0.66 2 1 C-1.96 4.96 -5.92 8.92 -10 13 C-10.66 12.67 -11.32 12.34 -12 12 C-8.32167983 7.47384007 -4.58913637 3.60575001 0 0 Z " fill="#C6E58D" transform="translate(110,403)"/>
</svg>
