<?xml version="1.0" encoding="UTF-8"?>
<svg version="1.1" xmlns="http://www.w3.org/2000/svg" width="512" height="512">
<path d="M0 0 C3.46620196 2.79213891 4.95933676 5.65679909 6.578125 9.75390625 C7.23554687 11.40616211 7.23554687 11.40616211 7.90625 13.09179688 C8.3496875 14.23712891 8.793125 15.38246094 9.25 16.5625 C9.70890625 17.71169922 10.1678125 18.86089844 10.640625 20.04492188 C14 28.57833426 14 28.57833426 14 32 C14.62506817 31.99631283 15.25013634 31.99262566 15.89414597 31.98882675 C31.10046858 31.90050562 46.30671257 31.8343051 61.51322556 31.79275131 C68.86698363 31.77212227 76.22057054 31.74399541 83.57421875 31.69824219 C89.98335548 31.65838455 96.39236826 31.63256966 102.80162549 31.62364602 C106.19563213 31.61842934 109.58928416 31.60616195 112.98317719 31.57707977 C116.77122749 31.54814866 120.55853713 31.54403986 124.34667969 31.54589844 C126.03629318 31.52432678 126.03629318 31.52432678 127.76004028 31.50231934 C129.30807846 31.51056732 129.30807846 31.51056732 130.88739014 31.51898193 C131.78337292 31.51529476 132.6793557 31.51160759 133.60248947 31.50780869 C136.77515203 32.15913302 137.97881186 33.52912003 140 36 C140.53125 38 140.53125 38 140.5 40 C140.51546875 40.99 140.51546875 40.99 140.53125 42 C139.74602769 44.95613104 138.37494875 46.09984561 136 48 C132.97558594 48.45410156 132.97558594 48.45410156 129.484375 48.390625 C128.23398437 48.37773437 126.98359375 48.36484375 125.6953125 48.3515625 C123.74238281 48.30128906 123.74238281 48.30128906 121.75 48.25 C120.43257813 48.23195312 119.11515625 48.21390625 117.7578125 48.1953125 C114.50489844 48.14816882 111.25235783 48.07642616 108 48 C108 53.28 108 58.56 108 64 C109.14370056 63.99111755 110.28740112 63.98223511 111.46575928 63.9730835 C122.23667582 63.89204609 133.00753063 63.83205782 143.77868271 63.79275131 C149.31645143 63.77186414 154.85397433 63.74352557 160.39160156 63.69824219 C165.73434113 63.6548252 171.07684405 63.63087141 176.4197464 63.62049103 C178.4595538 63.61309223 180.49934804 63.59864432 182.53905487 63.57707977 C185.39318473 63.54810113 188.24633297 63.5440417 191.10058594 63.54589844 C192.3694162 63.52432678 192.3694162 63.52432678 193.66387939 63.50231934 C197.39714137 63.52865067 199.38598848 63.57946796 202.52386475 65.72857666 C204.21893615 68.336891 204.50575754 69.70736185 204.51757812 72.796875 C204.53018677 73.7446582 204.54279541 74.69244141 204.55578613 75.66894531 C204.54364075 77.19406738 204.54364075 77.19406738 204.53125 78.75 C204.5350769 79.80026367 204.53890381 80.85052734 204.54284668 81.93261719 C204.54556696 84.15170247 204.53819777 86.37081974 204.52148438 88.58984375 C204.50007745 91.98770595 204.52128325 95.38345361 204.546875 98.78125 C204.54423175 100.93750467 204.53910682 103.09375802 204.53125 105.25 C204.53934692 106.26674805 204.54744385 107.28349609 204.55578613 108.33105469 C204.46316405 115.29339463 204.46316405 115.29339463 202.26464844 118.64746094 C199.66115953 120.20236914 198.24879904 120.46791792 195.234375 120.390625 C194.34492188 120.37773437 193.45546875 120.36484375 192.5390625 120.3515625 C191.61867188 120.31804687 190.69828125 120.28453125 189.75 120.25 C188.81414062 120.23195313 187.87828125 120.21390625 186.9140625 120.1953125 C184.60893562 120.14826909 182.30433646 120.07652778 180 120 C180 125.28 180 130.56 180 136 C195.84 136 211.68 136 228 136 C228.1128004 159.40000844 228.20493362 182.79979729 228.25906086 206.20000839 C228.28485934 217.06475293 228.32004134 227.92931676 228.37719727 238.79394531 C228.42698183 248.26186944 228.45927905 257.72966271 228.47044247 267.19771409 C228.47696961 272.21257869 228.49234437 277.22706888 228.52865028 282.24181366 C228.56253159 286.95978536 228.57306891 291.67722765 228.56553841 296.39530945 C228.56691648 298.12877019 228.57689589 299.86224823 228.59602737 301.59560394 C228.62084389 303.95955242 228.61494876 306.32149257 228.60127258 308.68548584 C228.61583679 309.37420517 228.630401 310.06292449 228.64540654 310.7725141 C228.58793082 314.43848938 228.22723846 315.76897081 225.61497784 318.4248085 C222.78390639 320.13016891 221.27832613 320.5137238 218.0078125 320.53125 C217.06260742 320.53946777 216.11740234 320.54768555 215.14355469 320.55615234 C214.14743164 320.53762207 213.15130859 320.5190918 212.125 320.5 C211.09793945 320.48791504 210.07087891 320.47583008 209.01269531 320.46337891 C196.93402664 320.15090159 186.65060244 317.689562 176.3671875 311.07421875 C173.3440786 309.7023459 172.12910705 309.96962636 169 311 C166.95915963 311.91495394 164.93942018 312.87776095 162.9375 313.875 C145.99149901 321.70781824 126.14514215 322.86968785 108.20703125 317.29296875 C104.00848741 315.60025497 100.17203125 313.52188303 96.3671875 311.07421875 C93.34510654 309.70281237 92.12736627 309.96863453 89 311 C86.98047383 311.91646976 84.98162784 312.87923201 83 313.875 C64.97027924 322.23660963 43.70959432 322.77557518 25 316 C21.73083322 314.47463153 18.57758575 312.87645659 15.453125 311.07421875 C13.14530477 309.83412861 13.14530477 309.83412861 11.04296875 310.15234375 C8.32222171 311.28121967 5.70052687 312.56413869 3.0625 313.875 C-13.4385899 321.4684219 -34.66648844 323.35271016 -52 317 C-55.37620367 315.51895374 -58.70989231 313.95621049 -61.97827148 312.24975586 C-65.34848865 310.48901405 -65.34848865 310.48901405 -69.05859375 310.1171875 C-71.72735314 311.33074811 -74.36978665 312.57923313 -77 313.875 C-93.99540429 321.67002556 -113.75442509 322.86521176 -131.73046875 317.296875 C-136.13801759 315.54859995 -140.2497915 313.4107631 -144.31640625 310.9765625 C-148.67863421 309.3891433 -151.54938436 311.33201134 -155.5703125 313.18359375 C-156.41335937 313.59738281 -157.25640625 314.01117188 -158.125 314.4375 C-174.66424668 321.88126215 -194.36265706 322.6768032 -211.73046875 317.296875 C-216.13801759 315.54859995 -220.2497915 313.4107631 -224.31640625 310.9765625 C-228.67863421 309.3891433 -231.54938436 311.33201134 -235.5703125 313.18359375 C-236.41335937 313.59738281 -237.25640625 314.01117188 -238.125 314.4375 C-248.0973391 318.93170082 -257.04785098 320.29082379 -267.9375 320.4375 C-268.94522461 320.45981689 -269.95294922 320.48213379 -270.99121094 320.50512695 C-271.95188477 320.502146 -272.91255859 320.49916504 -273.90234375 320.49609375 C-274.76335693 320.49794678 -275.62437012 320.4997998 -276.51147461 320.50170898 C-279.98285494 319.80184765 -281.52178083 318.52373929 -284 316 C-284.49392759 313.34802323 -284.65727415 311.33371528 -284.60127258 308.68548584 C-284.60768077 307.57780015 -284.60768077 307.57780015 -284.61421841 306.44773698 C-284.62245779 303.97202883 -284.59495024 301.49801307 -284.56762695 299.02246094 C-284.56621668 297.24849487 -284.56700806 295.47452589 -284.56983948 293.70056152 C-284.57127584 288.88251521 -284.5418505 284.06508951 -284.50696969 279.24718761 C-284.47574282 274.21302106 -284.47277835 269.17884075 -284.46684265 264.14459229 C-284.45129342 254.61060967 -284.41025029 245.07691324 -284.3600952 235.54305673 C-284.30423536 224.68952287 -284.27672368 213.83597545 -284.25161803 202.98233366 C-284.19933535 180.65469382 -284.10763008 158.32744637 -284 136 C-268.16 136 -252.32 136 -236 136 C-236.15685243 128.26734512 -236.15685243 128.26734512 -236.36035156 120.53588867 C-236.4792255 108.78366592 -233.15259449 99.54004453 -225 91 C-215.77286823 82.19149047 -206.14955676 79.37425699 -193.63525391 79.52929688 C-181.80802493 79.99750472 -173.15892893 84.5483695 -165.02734375 93.06640625 C-157.09794405 102.47730738 -155.38653262 112.16010693 -155.75 124.1875 C-155.8325 128.085625 -155.915 131.98375 -156 136 C-145.44 136 -134.88 136 -124 136 C-124.15685243 128.26734512 -124.15685243 128.26734512 -124.36035156 120.53588867 C-124.4792255 108.78366592 -121.15259449 99.54004453 -113 91 C-103.77286823 82.19149047 -94.14955676 79.37425699 -81.63525391 79.52929688 C-69.80802493 79.99750472 -61.15892893 84.5483695 -53.02734375 93.06640625 C-45.09794405 102.47730738 -43.38653262 112.16010693 -43.75 124.1875 C-43.8325 128.085625 -43.915 131.98375 -44 136 C-28.16 136 -12.32 136 4 136 C4 130.72 4 125.44 4 120 C2.60265625 120.04640625 1.2053125 120.0928125 -0.234375 120.140625 C-2.07289529 120.17814582 -3.9114387 120.21454565 -5.75 120.25 C-6.67039062 120.28351563 -7.59078125 120.31703125 -8.5390625 120.3515625 C-9.87324219 120.37089844 -9.87324219 120.37089844 -11.234375 120.390625 C-12.05131836 120.41157227 -12.86826172 120.43251953 -13.70996094 120.45410156 C-16.91579445 119.81840323 -17.91979215 118.50092441 -20 116 C-21.12399292 112.98504639 -21.12399292 112.98504639 -22.01123047 109.40917969 C-22.17774109 108.7546431 -22.34425171 108.10010651 -22.51580811 107.42573547 C-23.06299318 105.26089517 -23.59007353 103.09168171 -24.1171875 100.921875 C-24.49943478 99.39294237 -24.88293164 97.86432166 -25.26760864 96.33599854 C-26.28053902 92.29747155 -27.27654974 88.25495557 -28.26904297 84.21136475 C-29.25924805 80.18920517 -30.26488501 76.17091584 -31.26953125 72.15234375 C-32.63124044 66.70117728 -33.98457171 61.248072 -35.32692337 55.79210663 C-36.81630084 49.73972594 -38.32840943 43.69589303 -39.90722656 37.66601562 C-40.19131378 36.57065491 -40.475401 35.47529419 -40.76809692 34.34674072 C-41.28017209 32.37998405 -41.80040727 30.41532169 -42.33126831 28.45355225 C-43.73637458 23.02300809 -44.95756604 17.61156858 -44 12 C-41.30706268 7.83822582 -37.80732685 7.05977785 -33.14453125 5.859375 C-32.48345871 5.68746643 -31.82238617 5.51555786 -31.14128113 5.33843994 C-29.74523874 4.9789758 -28.34741173 4.62638059 -26.94799805 4.28027344 C-24.83186563 3.75480875 -22.72377565 3.20348542 -20.61523438 2.6484375 C-6.89205246 -0.88745016 -6.89205246 -0.88745016 0 0 Z M21 48 C23.5430902 57.51453334 23.5430902 57.51453334 27 64 C48.45 64 69.9 64 92 64 C92 58.72 92 53.44 92 48 C68.57 48 45.14 48 21 48 Z M-213.875 104.9375 C-221.51360064 114.3295067 -220 123.79910271 -220 136 C-204.16 136 -188.32 136 -172 136 C-171.18322276 119.16672262 -171.18322276 119.16672262 -178 105 C-183.39864762 99.63991415 -188.00084032 96.72738086 -195.8125 96.625 C-203.85709796 96.80245437 -208.45618322 99.051352 -213.875 104.9375 Z M-101.875 104.9375 C-109.51360064 114.3295067 -108 123.79910271 -108 136 C-92.16 136 -76.32 136 -60 136 C-59.18322276 119.16672262 -59.18322276 119.16672262 -66 105 C-71.39864762 99.63991415 -76.00084032 96.72738086 -83.8125 96.625 C-91.85709796 96.80245437 -96.45618322 99.051352 -101.875 104.9375 Z M20 120 C20 125.28 20 130.56 20 136 C67.52 136 115.04 136 164 136 C164 130.72 164 125.44 164 120 C116.48 120 68.96 120 20 120 Z " fill="#E5F6FF" transform="translate(284,192)"/>
<path d="M0 0 C9.05260223 6.52029976 14.8162051 14.68163244 17.58203125 25.4921875 C18.01619897 29.91128734 17.96603236 34.24549599 17.83203125 38.6796875 C17.74953125 42.5778125 17.66703125 46.4759375 17.58203125 50.4921875 C28.14203125 50.4921875 38.70203125 50.4921875 49.58203125 50.4921875 C49.42517882 42.75953262 49.42517882 42.75953262 49.22167969 35.02807617 C49.10280575 23.27585342 52.42943676 14.03223203 60.58203125 5.4921875 C69.80916302 -3.31632203 79.43247449 -6.13355551 91.94677734 -5.97851562 C103.77400632 -5.51030778 112.42310232 -0.959443 120.5546875 7.55859375 C129.97851586 18.74313738 130.15345064 30.37377073 130.03613281 44.27416992 C130.03500285 46.15754166 130.0356411 48.04091517 130.03790283 49.92428589 C130.0390451 55.0083397 130.01561502 60.09201192 129.987607 65.17597747 C129.96251174 70.49972938 129.96024496 75.82349115 129.95550537 81.14729309 C129.94309941 91.21577014 129.91031008 101.28407235 129.87010741 111.3524726 C129.82531551 122.82044126 129.80338402 134.28841849 129.78332567 145.75645292 C129.7415753 169.33512784 129.67126967 192.91364785 129.58203125 216.4921875 C147.47726774 219.1586918 163.00226211 217.39458314 178.58203125 207.4921875 C179.21882813 206.93660156 179.855625 206.38101563 180.51171875 205.80859375 C183.40182429 203.97092287 185.21098201 204.06493158 188.58203125 204.4921875 C191.2578125 205.8828125 191.2578125 205.8828125 193.89453125 207.7421875 C207.15831438 216.63862741 221.39414919 219.8390882 237.15234375 216.8046875 C245.11921089 214.50101507 254.18021286 211.26392453 260.546875 205.80859375 C263.4384997 203.93819543 265.19056146 204.0360496 268.58203125 204.4921875 C271.625 206.1015625 271.625 206.1015625 274.76953125 208.2421875 C287.57267161 216.6209165 301.36402664 219.26787084 316.51171875 217.06640625 C324.62773202 215.10363153 334.22573098 211.17121268 340.6171875 205.7734375 C343.43735309 203.93444284 345.27565693 204.07312865 348.58203125 204.4921875 C351.2578125 205.8828125 351.2578125 205.8828125 353.89453125 207.7421875 C365.62792449 215.61214638 376.20767691 217.80564197 390.15625 217.8828125 C396.95009356 218.05826327 396.95009356 218.05826327 400.1875 220.28125 C401.64082076 222.5853944 402.1498047 223.79218249 402.14453125 226.4921875 C402.16644531 227.1521875 402.18835938 227.8121875 402.2109375 228.4921875 C401.15261786 231.85777542 399.64037473 232.75975939 396.58203125 234.4921875 C392.94754514 235.0845137 389.38229894 235.06055628 385.70703125 234.9921875 C384.6799707 234.98010254 383.65291016 234.96801758 382.59472656 234.95556641 C370.51605789 234.64308909 360.23263369 232.1817495 349.94921875 225.56640625 C346.92610985 224.1945334 345.7111383 224.46181386 342.58203125 225.4921875 C340.54119088 226.40714144 338.52145143 227.36994845 336.51953125 228.3671875 C319.57353026 236.20000574 299.7271734 237.36187535 281.7890625 231.78515625 C277.59051866 230.09244247 273.7540625 228.01407053 269.94921875 225.56640625 C266.92713779 224.19499987 265.70939752 224.46082203 262.58203125 225.4921875 C260.56250508 226.40865726 258.56365909 227.37141951 256.58203125 228.3671875 C238.55231049 236.72879713 217.29162557 237.26776268 198.58203125 230.4921875 C195.31286447 228.96681903 192.159617 227.36864409 189.03515625 225.56640625 C186.72733602 224.32631611 186.72733602 224.32631611 184.625 224.64453125 C181.90425296 225.77340717 179.28255812 227.05632619 176.64453125 228.3671875 C160.14344135 235.9606094 138.91554281 237.84489766 121.58203125 231.4921875 C118.20582758 230.01114124 114.87213894 228.44839799 111.60375977 226.74194336 C108.2335426 224.98120155 108.2335426 224.98120155 104.5234375 224.609375 C101.85467811 225.82293561 99.2122446 227.07142063 96.58203125 228.3671875 C79.58662696 236.16221306 59.82760616 237.35739926 41.8515625 231.7890625 C37.44401366 230.04078745 33.33223975 227.9029506 29.265625 225.46875 C24.90339704 223.8813308 22.03264689 225.82419884 18.01171875 227.67578125 C17.16867188 228.08957031 16.325625 228.50335938 15.45703125 228.9296875 C-1.08221543 236.37344965 -20.78062581 237.1689907 -38.1484375 231.7890625 C-42.55598634 230.04078745 -46.66776025 227.9029506 -50.734375 225.46875 C-55.09660296 223.8813308 -57.96735311 225.82419884 -61.98828125 227.67578125 C-62.83132812 228.08957031 -63.674375 228.50335938 -64.54296875 228.9296875 C-74.51530785 233.42388832 -83.46581973 234.78301129 -94.35546875 234.9296875 C-95.36319336 234.95200439 -96.37091797 234.97432129 -97.40917969 234.99731445 C-98.36985352 234.9943335 -99.33052734 234.99135254 -100.3203125 234.98828125 C-101.18132568 234.99013428 -102.04233887 234.9919873 -102.92944336 234.99389648 C-106.40082369 234.29403515 -107.93974958 233.01592679 -110.41796875 230.4921875 C-110.91189634 227.84021073 -111.0752429 225.82590278 -111.01924133 223.17767334 C-111.02351346 222.43921622 -111.02778558 221.70075909 -111.03218716 220.93992448 C-111.04042654 218.46421633 -111.01291899 215.99020057 -110.9855957 213.51464844 C-110.98418543 211.74068237 -110.98497681 209.96671339 -110.98780823 208.19274902 C-110.98924459 203.37470271 -110.95981925 198.55727701 -110.92493844 193.73937511 C-110.89371157 188.70520856 -110.8907471 183.67102825 -110.8848114 178.63677979 C-110.86926217 169.10279717 -110.82821904 159.56910074 -110.77806395 150.03524423 C-110.72220411 139.18171037 -110.69469243 128.32816295 -110.66958678 117.47452116 C-110.6173041 95.14688132 -110.52559883 72.81963387 -110.41796875 50.4921875 C-94.57796875 50.4921875 -78.73796875 50.4921875 -62.41796875 50.4921875 C-62.57482118 42.75953262 -62.57482118 42.75953262 -62.77832031 35.02807617 C-62.89719425 23.27585342 -59.57056324 14.03223203 -51.41796875 5.4921875 C-37.63784493 -7.66275112 -16.31305228 -10.17259803 0 0 Z M-40.29296875 19.4296875 C-47.93156939 28.8216942 -46.41796875 38.29129021 -46.41796875 50.4921875 C-30.57796875 50.4921875 -14.73796875 50.4921875 1.58203125 50.4921875 C2.39880849 33.65891012 2.39880849 33.65891012 -4.41796875 19.4921875 C-9.81661637 14.13210165 -14.41880907 11.21956836 -22.23046875 11.1171875 C-30.27506671 11.29464187 -34.87415197 13.5435395 -40.29296875 19.4296875 Z M71.70703125 19.4296875 C64.06843061 28.8216942 65.58203125 38.29129021 65.58203125 50.4921875 C81.42203125 50.4921875 97.26203125 50.4921875 113.58203125 50.4921875 C114.39880849 33.65891012 114.39880849 33.65891012 107.58203125 19.4921875 C102.18338363 14.13210165 97.58119093 11.21956836 89.76953125 11.1171875 C81.72493329 11.29464187 77.12584803 13.5435395 71.70703125 19.4296875 Z " fill="#CBE4F4" transform="translate(110.41796875,277.5078125)"/>
<path d="M0 0 C3.75102601 1.7282007 7.21988348 3.83427171 10.71066284 6.03640747 C13.08187101 7.53120939 15.47725414 8.98514413 17.87184143 10.4420929 C19.10725247 11.19415456 20.34149037 11.94814661 21.5745697 12.70402527 C86.53840264 52.47366323 157.54589848 84.32861693 230.08691406 107.38696289 C232.02481485 108.00795177 233.95794917 108.64224937 235.890625 109.27929688 C239.70334817 110.53108332 243.53613172 111.70581938 247.375 112.875 C248.5079248 113.25156738 249.64084961 113.62813477 250.80810547 114.01611328 C260.4755293 116.84101903 267.76614126 115.02253462 277 112 C278.53693841 111.51768403 280.07405279 111.0359285 281.61132812 110.5546875 C286.61965721 108.96134311 291.59310433 107.27289015 296.5625 105.5625 C297.45296021 105.25731445 298.34342041 104.95212891 299.26086426 104.63769531 C326.39732145 95.3048914 352.36482054 83.86712439 378 71 C378.9173291 70.53996582 379.8346582 70.07993164 380.77978516 69.60595703 C402.27237842 58.74658477 422.5881105 45.90206502 442.1875 31.9375 C442.74308594 31.54240234 443.29867188 31.14730469 443.87109375 30.74023438 C446.94200541 28.5370338 449.94726337 26.27037378 452.91796875 23.93359375 C453.908573 23.16897827 453.908573 23.16897827 454.91918945 22.38891602 C456.18438916 21.40957469 457.43786184 20.41480953 458.67651367 19.40209961 C463.25247134 15.88522029 466.24666826 15.38227386 472 16 C474.5 17.5 474.5 17.5 476 20 C476.54686219 22.77988279 476.72991469 25.25208587 476 28 C475.33258789 28.51280518 474.66517578 29.02561035 473.97753906 29.55395508 C470.98929205 33.25015838 471.60118575 36.53559195 471.828125 41.13671875 C471.85620743 42.04114212 471.88428986 42.94556549 471.91322327 43.87739563 C471.97553131 45.81302077 472.04703776 47.74836766 472.12686157 49.68334961 C472.25016683 52.69157013 472.34809841 55.69959956 472.43823242 58.70898438 C472.55781207 62.6661482 472.68469562 66.62292627 472.81982422 70.57958984 C473.04941199 77.3860435 473.23064648 84.18989248 473.3125 91 C473.34182617 91.98701904 473.37115234 92.97403809 473.40136719 93.9909668 C473.45835967 100.28578636 473.45835967 100.28578636 471.35546875 103.5625 C468.38777349 105.37363077 466.49007141 105.92666105 463 106 C459.93359375 104.91015625 459.93359375 104.91015625 456.4375 103.0625 C455.78128662 102.71985107 455.12507324 102.37720215 454.44897461 102.02416992 C451.95256459 100.70650511 449.47604001 99.35557808 447 98 C445.86723633 97.38189453 444.73447266 96.76378906 443.56738281 96.12695312 C437.85395984 93.005257 432.14922644 89.8680175 426.45832825 86.70542908 C424.70074529 85.72956747 422.94048973 84.75852429 421.18017578 83.78759766 C419.21106952 82.68075012 417.25753888 81.54501331 415.33154297 80.36474609 C414.56084473 79.89762207 413.79014648 79.43049805 412.99609375 78.94921875 C412.35728271 78.54405029 411.71847168 78.13888184 411.06030273 77.72143555 C406.52295783 76.13263899 401.81128938 78.22570205 397.64602375 80.18940926 C393.09594166 82.57877525 389.76482659 84.41062333 387.48208618 89.15435791 C386.66516588 92.96161094 386.25521262 96.69652364 385.98828125 100.5703125 C385.84210626 101.98003469 385.68982626 103.38913577 385.53178406 104.7975769 C385.13296821 108.48376777 384.80989196 112.17255286 384.50506592 115.86755371 C384.12243201 120.35316309 383.65862276 124.83095117 383.19793224 129.30911064 C382.83970593 132.79364849 382.49629645 136.27716381 382.20051575 139.76760864 C382.08576401 141.02266205 381.97101227 142.27771545 381.8527832 143.57080078 C381.75955276 144.6703006 381.66632233 145.76980042 381.57026672 146.90261841 C380.92911999 150.38498205 379.79675207 152.95834433 378 156 C374.74080788 157.62959606 371.51861177 157.58276516 368 157 C365.15156369 155.59310634 362.81801599 153.70387 360.375 151.6875 C359.68623779 151.14496582 358.99747559 150.60243164 358.2878418 150.04345703 C356.86782703 148.92210974 355.45430139 147.79249638 354.04736328 146.65478516 C352.1481705 145.11975908 350.23383209 143.60762359 348.30859375 142.10546875 C345.99464042 140.29964381 343.68569761 138.48788996 341.3828125 136.66796875 C336.9338258 133.15581373 332.4825816 129.65032536 327.94140625 126.2578125 C325 124 325 124 322.71484375 121.8671875 C320.41848256 119.88416157 318.93679681 118.79764852 316 118 C313.14283859 118.33058066 310.83868192 118.7512363 308.125 119.5625 C307.46967285 119.74756104 306.8143457 119.93262207 306.13916016 120.12329102 C303.46658114 121.10790714 301.42368535 122.14446551 300.12969971 124.75737 C298.18132906 131.14185646 296.56878588 137.58137926 295.0390625 144.078125 C294.48001179 146.39603733 293.92009011 148.71373974 293.359375 151.03125 C292.4865992 154.652383 291.61924793 158.274461 290.76660156 161.90039062 C289.93612127 165.42208369 289.08328606 168.93773755 288.2265625 172.453125 C287.97742096 173.53652161 287.72827942 174.61991821 287.47158813 175.73614502 C286.03501207 181.5445496 284.96776856 185.44744012 280 189 C276.68713993 189.55542991 275.10272348 189.8146944 272 189 C269.59442173 187.16875354 267.93613105 185.66883784 266 183.4375 C265.04474767 182.39170864 264.0863592 181.34877406 263.125 180.30859375 C262.62444092 179.76187012 262.12388184 179.21514648 261.6081543 178.65185547 C259.95065992 176.94931912 258.21280779 175.43902751 256.39453125 173.91015625 C252.71720638 170.75984766 249.43465676 167.34722616 246.13671875 163.8125 C244.5326591 162.11870372 242.92628161 160.42712998 241.31958008 158.73583984 C240.2268586 157.57364842 239.14418334 156.40193304 238.0715332 155.22119141 C232.04802178 148.18054737 232.04802178 148.18054737 223.94750977 144.43920898 C221.13691902 144.67600735 218.69414553 145.18315055 216 146 C214.45505859 146.26490234 214.45505859 146.26490234 212.87890625 146.53515625 C212.11449219 146.70917969 211.35007813 146.88320312 210.5625 147.0625 C207.48995259 147.75597446 205.22150849 148 202 148 C201.75013588 148.78276558 201.75013588 148.78276558 201.495224 149.5813446 C199.46215546 155.82652946 197.12981904 161.92259637 194.69140625 168.01953125 C194.28341293 169.04052414 193.87541962 170.06151703 193.45506287 171.1134491 C192.59687697 173.25620223 191.73707529 175.39830888 190.87573242 177.53979492 C189.56088233 180.81653139 188.25997416 184.09859966 186.95898438 187.38085938 C186.12065014 189.46909484 185.28148621 191.55699746 184.44140625 193.64453125 C184.05586075 194.62372025 183.67031525 195.60290924 183.27308655 196.61177063 C179.70817779 205.38546562 179.70817779 205.38546562 176 208 C170.58173077 208.77403846 170.58173077 208.77403846 168 208 C164.20807526 204.66843673 161.13377373 200.79857208 158.0625 196.8125 C157.5979541 196.21518066 157.1334082 195.61786133 156.65478516 195.00244141 C155.64265155 193.70046198 154.63196464 192.39735692 153.62255859 191.09326172 C151.91664492 188.89246367 150.2032118 186.69768409 148.48828125 184.50390625 C147.89394287 183.74142578 147.29960449 182.97894531 146.68725586 182.19335938 C145.48100275 180.65023941 144.26957967 179.11114661 143.05297852 177.57617188 C140.38697818 174.19072818 137.83223733 170.8427273 135.6015625 167.15234375 C133.57595637 163.93321134 131.9469484 161.40683246 129 159 C124.05843707 158.15287493 119.78550826 158.5299017 115 160 C112.31921423 162.22404008 110.83629782 164.81473935 109.171875 167.84765625 C108.62635986 168.8337085 108.08084473 169.81976074 107.51879883 170.83569336 C106.93509521 171.90053955 106.3513916 172.96538574 105.75 174.0625 C104.49993876 176.315793 103.24859208 178.56837325 101.99609375 180.8203125 C101.67279587 181.40246017 101.34949799 181.98460785 101.0164032 182.58439636 C97.64785298 188.64594486 94.24410426 194.68694443 90.80065918 200.70626831 C89.82446677 202.41653449 88.85602946 204.13121959 87.88769531 205.84594727 C87.29182617 206.88549561 86.69595703 207.92504395 86.08203125 208.99609375 C85.55843018 209.91575928 85.0348291 210.8354248 84.49536133 211.78295898 C83 214 83 214 80 216 C74.40983607 216.63114754 74.40983607 216.63114754 72 216 C68.41141068 212.77034183 65.96894917 209.61664147 63.6875 205.37890625 C63.09420898 204.28819824 62.50091797 203.19749023 61.88964844 202.07373047 C61.26606445 200.91502441 60.64248047 199.75631836 60 198.5625 C59.3331376 197.35968268 58.66416434 196.15803341 57.99316406 194.95751953 C54.76153914 189.16057812 51.65711539 183.35586456 48.796875 177.36328125 C44.49587217 167.61051988 44.49587217 167.61051988 36.69824219 161.02685547 C31.74265148 160.03165145 27.12719682 160.44299939 22.14550781 160.97900391 C18.51739965 161.01450883 16.1438593 159.75251687 13 158 C11.43528767 154.87057535 11.30298042 151.38917777 12 148 C14.06684201 145.42188162 15.245236 144.13887542 18.54110718 143.53244019 C19.5012674 143.54735504 20.46142761 143.5622699 21.45068359 143.57763672 C23.10028076 143.58762192 23.10028076 143.58762192 24.78320312 143.59780884 C25.97623047 143.6248288 27.16925781 143.65184875 28.3984375 143.6796875 C29.64383301 143.69099701 30.88922852 143.70230652 32.17236328 143.71395874 C34.8483288 143.7391102 37.52326344 143.77092753 40.19891357 143.81359863 C47.19465107 143.92239449 54.1910679 143.94580049 61.1875 143.9765625 C61.88008282 143.98016281 62.57266563 143.98376312 63.28623581 143.98747253 C146.64881276 145.27209636 146.64881276 145.27209636 226 125 C225.0613208 124.69408936 224.1226416 124.38817871 223.15551758 124.07299805 C205.32232191 118.24929818 187.58745118 112.28711066 170.1027832 105.47924805 C167.96762918 104.64874568 165.8279299 103.82977582 163.68261719 103.02587891 C162.0902266 102.41692138 160.51004089 101.77078005 158.96582031 101.04833984 C157.05369581 100.14932341 157.05369581 100.14932341 154 100 C150.75563026 101.4957939 148.13680135 103.63132699 145.375 105.875 C144.5603125 106.50543213 143.745625 107.13586426 142.90625 107.78540039 C141.16292831 109.13644158 139.42712368 110.49722793 137.69824219 111.86669922 C134.06373215 114.74023783 130.38805308 117.55796111 126.70556641 120.36962891 C124.95516266 121.70746681 123.20968375 123.05178364 121.47021484 124.40380859 C105.32644018 136.85228951 105.32644018 136.85228951 99.0625 137.25 C95.35347976 135.73611419 94.20072716 134.31819381 92 131 C91.32725525 128.04064941 91.32725525 128.04064941 91.07788086 124.72851562 C90.97354233 123.48372437 90.8692038 122.23893311 90.76170349 120.9564209 C90.69003873 119.96662483 90.69003873 119.96662483 90.61692619 118.95683289 C90.46271526 116.87755075 90.28075187 114.80244855 90.09022522 112.72619629 C89.55109542 106.82701954 89.03984594 100.92657839 88.60083008 95.01904297 C88.32964339 91.39682783 88.00766959 87.78212938 87.65316963 84.16716003 C87.52845747 82.79411745 87.42283503 81.41919604 87.33714104 80.04316711 C87.06832385 75.78450167 86.65669838 71.95013568 85 68 C81.61375983 65.06737522 78.39533192 63.76190386 74 63 C70.48937104 63.40375856 70.48937104 63.40375856 67.609375 65.3359375 C66.49860596 65.96274414 65.38783691 66.58955078 64.2434082 67.23535156 C63.07856958 67.94796453 61.91410818 68.66119443 60.75 69.375 C59.52732346 70.08186212 58.30226451 70.7846181 57.07495117 71.48339844 C54.5762523 72.9147664 52.09290204 74.36822771 49.62060547 75.84472656 C45.20522532 78.48156091 40.74183447 81.03164831 36.26855469 83.56884766 C34.35441218 84.65744902 32.44697935 85.75796982 30.54785156 86.87255859 C17.16682973 94.61959712 17.16682973 94.61959712 11.125 93.4375 C8.68192764 91.7848334 7.50842564 90.54293467 6 88 C5.68945312 84.92797852 5.68945312 84.92797852 5.78125 81.31640625 C5.79385864 80.66160782 5.80646729 80.00680939 5.81945801 79.33216858 C5.86424347 77.22074932 5.93117543 75.11076054 6 73 C6.03608903 71.60532981 6.07124756 70.21063524 6.10546875 68.81591797 C6.21700611 64.52241431 6.35632096 60.23003195 6.5 55.9375 C6.54845339 54.48633732 6.59663103 53.03516542 6.64453125 51.58398438 C6.6799855 50.5132946 6.6799855 50.5132946 6.71615601 49.42097473 C6.78034754 47.30706289 6.8273926 45.19322961 6.87353516 43.07885742 C6.93769358 40.37063946 7.10391182 37.73163705 7.32568359 35.0246582 C7.94815142 28.62199869 7.94815142 28.62199869 5.43652344 23.02172852 C3.23293212 21.4670871 1.09946316 20.38065652 -1.375 19.3125 C-2.94774996 18.5427206 -4.51817841 17.76817497 -6.0859375 16.98828125 C-6.7876709 16.67415283 -7.4894043 16.36002441 -8.21240234 16.03637695 C-10 15 -10 15 -12 12 C-12.65753425 5.09589041 -12.65753425 5.09589041 -10.5 1.5 C-6.92358026 -0.64585184 -4.0004558 -0.79802866 0 0 Z " fill="#E5F6FD" transform="translate(20,0)"/>
<path d="M0 0 C3.46620196 2.79213891 4.95933676 5.65679909 6.578125 9.75390625 C7.01640625 10.85541016 7.4546875 11.95691406 7.90625 13.09179688 C8.3496875 14.23712891 8.793125 15.38246094 9.25 16.5625 C9.93835938 18.28629883 9.93835938 18.28629883 10.640625 20.04492188 C14 28.57833426 14 28.57833426 14 32 C14.62506817 31.99631283 15.25013634 31.99262566 15.89414597 31.98882675 C31.10046858 31.90050562 46.30671257 31.8343051 61.51322556 31.79275131 C68.86698363 31.77212227 76.22057054 31.74399541 83.57421875 31.69824219 C89.98335548 31.65838455 96.39236826 31.63256966 102.80162549 31.62364602 C106.19563213 31.61842934 109.58928416 31.60616195 112.98317719 31.57707977 C116.77122749 31.54814866 120.55853713 31.54403986 124.34667969 31.54589844 C126.03629318 31.52432678 126.03629318 31.52432678 127.76004028 31.50231934 C129.30807846 31.51056732 129.30807846 31.51056732 130.88739014 31.51898193 C131.78337292 31.51529476 132.6793557 31.51160759 133.60248947 31.50780869 C136.77515203 32.15913302 137.97881186 33.52912003 140 36 C140.53125 38 140.53125 38 140.5 40 C140.51546875 40.99 140.51546875 40.99 140.53125 42 C139.74602769 44.95613104 138.37494875 46.09984561 136 48 C132.97558594 48.45410156 132.97558594 48.45410156 129.484375 48.390625 C128.23398437 48.37773437 126.98359375 48.36484375 125.6953125 48.3515625 C123.74238281 48.30128906 123.74238281 48.30128906 121.75 48.25 C120.43257812 48.23195312 119.11515625 48.21390625 117.7578125 48.1953125 C114.50489844 48.14816882 111.25235783 48.07642616 108 48 C108 53.28 108 58.56 108 64 C109.14370056 63.99111755 110.28740112 63.98223511 111.46575928 63.9730835 C122.23667582 63.89204609 133.00753063 63.83205782 143.77868271 63.79275131 C149.31645143 63.77186414 154.85397433 63.74352557 160.39160156 63.69824219 C165.73434113 63.6548252 171.07684405 63.63087141 176.4197464 63.62049103 C178.4595538 63.61309223 180.49934804 63.59864432 182.53905487 63.57707977 C185.39318473 63.54810113 188.24633297 63.5440417 191.10058594 63.54589844 C192.3694162 63.52432678 192.3694162 63.52432678 193.66387939 63.50231934 C197.39714137 63.52865067 199.38598848 63.57946796 202.52386475 65.72857666 C204.21893615 68.336891 204.50575754 69.70736185 204.51757812 72.796875 C204.53018677 73.7446582 204.54279541 74.69244141 204.55578613 75.66894531 C204.54768921 76.68569336 204.53959229 77.70244141 204.53125 78.75 C204.5350769 79.80026367 204.53890381 80.85052734 204.54284668 81.93261719 C204.54556696 84.15170247 204.53819777 86.37081974 204.52148438 88.58984375 C204.50007745 91.98770595 204.52128325 95.38345361 204.546875 98.78125 C204.54423175 100.93750467 204.53910682 103.09375802 204.53125 105.25 C204.53934692 106.26674805 204.54744385 107.28349609 204.55578613 108.33105469 C204.46316405 115.29339463 204.46316405 115.29339463 202.26464844 118.64746094 C199.66115953 120.20236914 198.24879904 120.46791792 195.234375 120.390625 C193.90019531 120.37128906 193.90019531 120.37128906 192.5390625 120.3515625 C191.61867188 120.31804687 190.69828125 120.28453125 189.75 120.25 C188.81414062 120.23195313 187.87828125 120.21390625 186.9140625 120.1953125 C184.60893562 120.14826909 182.30433646 120.07652778 180 120 C180 125.28 180 130.56 180 136 C174.72 136 169.44 136 164 136 C164 130.72 164 125.44 164 120 C116.48 120 68.96 120 20 120 C20 125.28 20 130.56 20 136 C14.72 136 9.44 136 4 136 C4 130.72 4 125.44 4 120 C2.60265625 120.04640625 1.2053125 120.0928125 -0.234375 120.140625 C-2.07289529 120.17814582 -3.9114387 120.21454565 -5.75 120.25 C-6.67039062 120.28351563 -7.59078125 120.31703125 -8.5390625 120.3515625 C-9.42851562 120.36445313 -10.31796875 120.37734375 -11.234375 120.390625 C-12.05131836 120.41157227 -12.86826172 120.43251953 -13.70996094 120.45410156 C-16.91579445 119.81840323 -17.91979215 118.50092441 -20 116 C-21.12399292 112.98504639 -21.12399292 112.98504639 -22.01123047 109.40917969 C-22.2609964 108.4273748 -22.2609964 108.4273748 -22.51580811 107.42573547 C-23.06299318 105.26089517 -23.59007353 103.09168171 -24.1171875 100.921875 C-24.49943478 99.39294237 -24.88293164 97.86432166 -25.26760864 96.33599854 C-26.28053902 92.29747155 -27.27654974 88.25495557 -28.26904297 84.21136475 C-29.25924805 80.18920517 -30.26488501 76.17091584 -31.26953125 72.15234375 C-32.63124044 66.70117728 -33.98457171 61.248072 -35.32692337 55.79210663 C-36.81630084 49.73972594 -38.32840943 43.69589303 -39.90722656 37.66601562 C-40.19131378 36.57065491 -40.475401 35.47529419 -40.76809692 34.34674072 C-41.28017209 32.37998405 -41.80040727 30.41532169 -42.33126831 28.45355225 C-43.73637458 23.02300809 -44.95756604 17.61156858 -44 12 C-41.30706268 7.83822582 -37.80732685 7.05977785 -33.14453125 5.859375 C-32.15292244 5.60151215 -32.15292244 5.60151215 -31.14128113 5.33843994 C-29.74523874 4.9789758 -28.34741173 4.62638059 -26.94799805 4.28027344 C-24.83186563 3.75480875 -22.72377565 3.20348542 -20.61523438 2.6484375 C-6.89205246 -0.88745016 -6.89205246 -0.88745016 0 0 Z M21 48 C23.5430902 57.51453334 23.5430902 57.51453334 27 64 C48.45 64 69.9 64 92 64 C92 58.72 92 53.44 92 48 C68.57 48 45.14 48 21 48 Z " fill="#93A3B2" transform="translate(284,192)"/>
<path d="M0 0 C36.96 0 73.92 0 112 0 C112 54.78 112 109.56 112 166 C94.8909834 170.27725415 80.72746212 168.18835071 65.33984375 159.46484375 C63 158 63 158 61.06640625 156.31640625 C58.18412143 154.48024371 56.36200685 154.57600168 53 155 C50.39398218 156.31956618 50.39398218 156.31956618 47.9375 158.1875 C36.18261241 166.10438467 24.63772176 168.13463704 10.8125 168.4296875 C9.58660156 168.47609375 9.58660156 168.47609375 8.3359375 168.5234375 C7.59907715 168.54325684 6.8622168 168.56307617 6.10302734 168.58349609 C3.46839426 168.94750936 3.46839426 168.94750936 0 172 C0 115.24 0 58.48 0 0 Z " fill="#E5F6FF" transform="translate(0,328)"/>
<path d="M0 0 C3.75102601 1.7282007 7.21988348 3.83427171 10.71066284 6.03640747 C13.08187101 7.53120939 15.47725414 8.98514413 17.87184143 10.4420929 C19.10725247 11.19415456 20.34149037 11.94814661 21.5745697 12.70402527 C95.40867915 57.90387985 177.29517703 93.95667048 261 116 C261 116.66 261 117.32 261 118 C256.85938318 119.18573642 252.71180317 120.34506231 248.5625 121.5 C247.39783203 121.83386719 246.23316406 122.16773437 245.03320312 122.51171875 C231.23303938 126.32134142 222.50469428 124.28460976 209.25 119.6875 C207.65360953 119.14473338 206.05700851 118.60258565 204.46020508 118.06103516 C191.77908143 113.73184064 179.24771268 109.03951097 166.76171875 104.1796875 C165.74561523 103.79893066 164.72951172 103.41817383 163.68261719 103.02587891 C162.0902266 102.41692138 160.51004089 101.77078005 158.96582031 101.04833984 C157.05369581 100.14932341 157.05369581 100.14932341 154 100 C150.75563026 101.4957939 148.13680135 103.63132699 145.375 105.875 C144.5603125 106.50543213 143.745625 107.13586426 142.90625 107.78540039 C141.16292831 109.13644158 139.42712368 110.49722793 137.69824219 111.86669922 C134.06373215 114.74023783 130.38805308 117.55796111 126.70556641 120.36962891 C124.95516266 121.70746681 123.20968375 123.05178364 121.47021484 124.40380859 C105.32644018 136.85228951 105.32644018 136.85228951 99.0625 137.25 C95.35347976 135.73611419 94.20072716 134.31819381 92 131 C91.32725525 128.04064941 91.32725525 128.04064941 91.07788086 124.72851562 C90.97354233 123.48372437 90.8692038 122.23893311 90.76170349 120.9564209 C90.69003873 119.96662483 90.69003873 119.96662483 90.61692619 118.95683289 C90.46271526 116.87755075 90.28075187 114.80244855 90.09022522 112.72619629 C89.55109542 106.82701954 89.03984594 100.92657839 88.60083008 95.01904297 C88.32964339 91.39682783 88.00766959 87.78212938 87.65316963 84.16716003 C87.52845747 82.79411745 87.42283503 81.41919604 87.33714104 80.04316711 C87.06832385 75.78450167 86.65669838 71.95013568 85 68 C81.61375983 65.06737522 78.39533192 63.76190386 74 63 C70.48937104 63.40375856 70.48937104 63.40375856 67.609375 65.3359375 C66.49860596 65.96274414 65.38783691 66.58955078 64.2434082 67.23535156 C63.07856958 67.94796453 61.91410818 68.66119443 60.75 69.375 C59.52732346 70.08186212 58.30226451 70.7846181 57.07495117 71.48339844 C54.5762523 72.9147664 52.09290204 74.36822771 49.62060547 75.84472656 C45.20522532 78.48156091 40.74183447 81.03164831 36.26855469 83.56884766 C34.35441218 84.65744902 32.44697935 85.75796982 30.54785156 86.87255859 C17.16682973 94.61959712 17.16682973 94.61959712 11.125 93.4375 C8.68192764 91.7848334 7.50842564 90.54293467 6 88 C5.68945312 84.92797852 5.68945312 84.92797852 5.78125 81.31640625 C5.79385864 80.66160782 5.80646729 80.00680939 5.81945801 79.33216858 C5.86424347 77.22074932 5.93117543 75.11076054 6 73 C6.03608903 71.60532981 6.07124756 70.21063524 6.10546875 68.81591797 C6.21700611 64.52241431 6.35632096 60.23003195 6.5 55.9375 C6.54845339 54.48633732 6.59663103 53.03516542 6.64453125 51.58398438 C6.6799855 50.5132946 6.6799855 50.5132946 6.71615601 49.42097473 C6.78034754 47.30706289 6.8273926 45.19322961 6.87353516 43.07885742 C6.93769358 40.37063946 7.10391182 37.73163705 7.32568359 35.0246582 C7.94815142 28.62199869 7.94815142 28.62199869 5.43652344 23.02172852 C3.23293212 21.4670871 1.09946316 20.38065652 -1.375 19.3125 C-2.94774996 18.5427206 -4.51817841 17.76817497 -6.0859375 16.98828125 C-6.7876709 16.67415283 -7.4894043 16.36002441 -8.21240234 16.03637695 C-10 15 -10 15 -12 12 C-12.65753425 5.09589041 -12.65753425 5.09589041 -10.5 1.5 C-6.92358026 -0.64585184 -4.0004558 -0.79802866 0 0 Z " fill="#CAE3F3" transform="translate(20,0)"/>
<path d="M0 0 C2.67578125 1.390625 2.67578125 1.390625 5.3125 3.25 C18.8039669 12.29915463 32.8142485 15.09579866 48.79296875 12.34765625 C58.22602527 9.90825318 65.95676024 5.36215984 74 0 C78.89577286 -0.56257855 81.33811986 0.447326 85.3125 3.25 C98.77403486 12.27907826 112.877838 15.17704134 128.828125 12.3125 C137.02785586 10.14517026 145.45550941 6.96493005 151.9296875 1.31640625 C154.81890413 -0.52069942 156.63039677 -0.42761462 160 0 C162.640625 1.390625 162.640625 1.390625 165.25 3.25 C178.46246456 12.13610049 193.19007575 15.11880394 208.83203125 12.3125 C217.03019997 10.14319406 225.45622971 6.96430161 231.9296875 1.31640625 C234.81979304 -0.52126463 236.62895076 -0.42725592 240 0 C242.67578125 1.390625 242.67578125 1.390625 245.3125 3.25 C258.57628313 12.14643991 272.81211794 15.3469007 288.5703125 12.3125 C296.53717964 10.00882757 305.59818161 6.77173703 311.96484375 1.31640625 C314.85646845 -0.55399207 316.60853021 -0.4561379 320 0 C323.04296875 1.609375 323.04296875 1.609375 326.1875 3.75 C338.99064036 12.128729 352.78199539 14.77568334 367.9296875 12.57421875 C376.04570077 10.61144403 385.64369973 6.67902518 392.03515625 1.28125 C394.85532184 -0.55774466 396.69362568 -0.41905885 400 0 C402.67578125 1.390625 402.67578125 1.390625 405.3125 3.25 C417.04589324 11.11995888 427.62564566 13.31345447 441.57421875 13.390625 C448.36806231 13.56607577 448.36806231 13.56607577 451.60546875 15.7890625 C453.05878951 18.0932069 453.56777345 19.29999499 453.5625 22 C453.58441406 22.66 453.60632813 23.32 453.62890625 24 C452.57058661 27.36558792 451.05834348 28.26757189 448 30 C444.36551389 30.5923262 440.80026769 30.56836878 437.125 30.5 C436.09793945 30.48791504 435.07087891 30.47583008 434.01269531 30.46337891 C421.93402664 30.15090159 411.65060244 27.689562 401.3671875 21.07421875 C398.3440786 19.7023459 397.12910705 19.96962636 394 21 C391.95915963 21.91495394 389.93942018 22.87776095 387.9375 23.875 C370.99149901 31.70781824 351.14514215 32.86968785 333.20703125 27.29296875 C329.00848741 25.60025497 325.17203125 23.52188303 321.3671875 21.07421875 C318.34510654 19.70281237 317.12736627 19.96863453 314 21 C311.98047383 21.91646976 309.98162784 22.87923201 308 23.875 C289.97027924 32.23660963 268.70959432 32.77557518 250 26 C246.73083322 24.47463153 243.57758575 22.87645659 240.453125 21.07421875 C238.14530477 19.83412861 238.14530477 19.83412861 236.04296875 20.15234375 C233.32222171 21.28121967 230.70052687 22.56413869 228.0625 23.875 C211.5614101 31.4684219 190.33351156 33.35271016 173 27 C169.62379633 25.51895374 166.29010769 23.95621049 163.02172852 22.24975586 C159.65151135 20.48901405 159.65151135 20.48901405 155.94140625 20.1171875 C153.27264686 21.33074811 150.63021335 22.57923313 148 23.875 C131.00459571 31.67002556 111.24557491 32.86521176 93.26953125 27.296875 C88.86198241 25.54859995 84.7502085 23.4107631 80.68359375 20.9765625 C76.32136579 19.3891433 73.45061564 21.33201134 69.4296875 23.18359375 C68.58664063 23.59738281 67.74359375 24.01117188 66.875 24.4375 C50.33575332 31.88126215 30.63734294 32.6768032 13.26953125 27.296875 C8.86198241 25.54859995 4.7502085 23.4107631 0.68359375 20.9765625 C-3.67863421 19.3891433 -6.54938436 21.33201134 -10.5703125 23.18359375 C-11.41335937 23.59738281 -12.25640625 24.01117188 -13.125 24.4375 C-23.0973391 28.93170082 -32.04785098 30.29082379 -42.9375 30.4375 C-43.94522461 30.45981689 -44.95294922 30.48213379 -45.99121094 30.50512695 C-50.42447352 30.4913706 -53.24123507 30.42727481 -57.15625 28.22265625 C-59.09671682 25.88340706 -59.66175799 24.98941699 -59.5625 22 C-59.56378906 21.34 -59.56507812 20.68 -59.56640625 20 C-58.69711514 16.93050312 -57.61640959 15.84806674 -55 14 C-52.00403302 13.43723011 -49.04171411 13.4487755 -46 13.4375 C-32.55609698 13.02384145 -18.58776823 10.26657312 -7.96875 1.28125 C-5.14579218 -0.55591302 -3.30808046 -0.41927509 0 0 Z " fill="#75CEFE" transform="translate(59,482)"/>
<path d="M0 0 C31.68 0 63.36 0 96 0 C96 18.48 96 36.96 96 56 C64.32 56 32.64 56 0 56 C0 37.52 0 19.04 0 0 Z " fill="#E6F7FF" transform="translate(128,328)"/>
<path d="M0 0 C31.68 0 63.36 0 96 0 C96 13.2 96 26.4 96 40 C64.32 40 32.64 40 0 40 C0 26.8 0 13.6 0 0 Z " fill="#E6F7FF" transform="translate(128,400)"/>
<path d="M0 0 C31.68 0 63.36 0 96 0 C96 9.57 96 19.14 96 29 C94.35 28.34 92.7 27.68 91 27 C86.1461284 26.47474401 83.84807768 27.35278449 79.9375 30.1875 C66.59740782 39.18430636 51.17006536 42.29995836 35.3828125 39.31640625 C27.35303335 36.9960504 19.4887622 33.51509687 12.875 28.3359375 C10.16456252 26.40475079 8.25784368 26.66756697 5 27 C3.35 27.66 1.7 28.32 0 29 C0 19.43 0 9.86 0 0 Z " fill="#E5F6FF" transform="translate(128,456)"/>
<path d="M0 0 C0.99 0.495 0.99 0.495 2 1 C1.02191035 9.24256742 0.03171817 17.48355339 -0.97377491 25.72281837 C-1.44033578 29.54906943 -1.90277899 33.37572326 -2.35571289 37.20361328 C-2.79332188 40.9006732 -3.24187592 44.59625761 -3.69791222 48.2910881 C-3.86962562 49.69794404 -4.0374513 51.10528034 -4.20124245 52.5130806 C-4.43208002 54.49124809 -4.67828061 56.46760423 -4.92504883 58.44384766 C-5.12823479 60.12929184 -5.12823479 60.12929184 -5.33552551 61.8487854 C-6.06495571 65.30804702 -7.21292766 67.9568675 -9 71 C-12.25919212 72.62959606 -15.48138823 72.58276516 -19 72 C-21.84843631 70.59310634 -24.18198401 68.70387 -26.625 66.6875 C-27.31376221 66.14496582 -28.00252441 65.60243164 -28.7121582 65.04345703 C-30.13217297 63.92210974 -31.54569861 62.79249638 -32.95263672 61.65478516 C-34.8518295 60.11975908 -36.76616791 58.60762359 -38.69140625 57.10546875 C-41.00469285 55.3004139 -43.31206751 53.48839084 -45.61328125 51.66796875 C-49.01434505 48.98229774 -52.43992702 46.32947965 -55.875 43.6875 C-56.41108887 43.27419434 -56.94717773 42.86088867 -57.49951172 42.43505859 C-61.18390449 39.60258836 -64.91645021 36.84482707 -68.70703125 34.15625 C-69.34705078 33.58390625 -69.34705078 33.58390625 -70 33 C-70 32.34 -70 31.68 -70 31 C-68.73446289 30.49569458 -68.73446289 30.49569458 -67.44335938 29.98120117 C-45.38466827 21.16759908 -23.42381313 12.190733 -2.4140625 1.046875 C-1.61742187 0.70140625 -0.82078125 0.3559375 0 0 Z " fill="#B3EA7F" transform="translate(407,85)"/>
<path d="M0 0 C1.06241533 8.66487692 1.33109111 17.34436659 1.5625 26.0625 C1.58234955 26.80356995 1.6021991 27.54463989 1.62265015 28.3081665 C1.7415062 32.82664019 1.84845076 37.3453033 1.94995117 41.86419678 C1.99753422 43.89477424 2.05228239 45.92518008 2.10742188 47.95556641 C2.19752621 51.42872072 2.26020807 54.90109853 2.3125 58.375 C2.342229 59.40117432 2.37195801 60.42734863 2.40258789 61.48461914 C2.45782861 68.27573906 2.45782861 68.27573906 0.35546875 71.6015625 C-2.61383566 73.36443311 -4.53200737 73.927125 -8 74 C-11.06640625 72.91015625 -11.06640625 72.91015625 -14.5625 71.0625 C-15.22016357 70.71912598 -15.87782715 70.37575195 -16.55541992 70.02197266 C-19.05043858 68.7051496 -21.52553959 67.35508221 -24 66 C-25.12212891 65.38721191 -26.24425781 64.77442383 -27.40039062 64.14306641 C-33.66092177 60.71936703 -39.90803435 57.27195696 -46.14453125 53.8046875 C-52.07950432 50.5051716 -58.03238415 47.24006482 -64 44 C-64 43.34 -64 42.68 -64 42 C-63.20980469 41.56171875 -62.41960937 41.1234375 -61.60546875 40.671875 C-41.02528927 29.09993408 -21.83661272 15.83538174 -3.08984375 1.51171875 C-1 0 -1 0 0 0 Z " fill="#F87DA3" transform="translate(491,32)"/>
<path d="M0 0 C-1.848416 7.7418705 -3.71608075 15.47873446 -5.60821056 23.21002483 C-6.48629444 26.80049948 -7.35776661 30.39231008 -8.21411133 33.98803711 C-9.0414425 37.46085227 -9.88616078 40.92901658 -10.74288368 44.39469337 C-11.06600563 45.71480581 -11.38293082 47.03645158 -11.69341087 48.35959435 C-14.78169589 61.48628439 -14.78169589 61.48628439 -20 65 C-23.31286007 65.55542991 -24.89727652 65.8146944 -28 65 C-30.40557827 63.16875354 -32.06386895 61.66883784 -34 59.4375 C-34.95525233 58.39170864 -35.9136408 57.34877406 -36.875 56.30859375 C-37.62813477 55.48766235 -37.62813477 55.48766235 -38.39648438 54.65014648 C-40.03300862 52.96603148 -41.74154458 51.45719046 -43.53125 49.9375 C-49.85686025 44.50274653 -55.62827535 38.47671528 -61.5 32.5625 C-62.71591114 31.3415631 -63.93205516 30.12085808 -65.1484375 28.90039062 C-68.10164966 25.93625987 -71.05169398 22.96901042 -74 20 C-73 18 -73 18 -71.27612305 17.39331055 C-70.15524292 17.14254761 -70.15524292 17.14254761 -69.01171875 16.88671875 C-68.17116943 16.69368164 -67.33062012 16.50064453 -66.46459961 16.30175781 C-65.0899353 15.9977002 -65.0899353 15.9977002 -63.6875 15.6875 C-61.74463561 15.23895668 -59.80193061 14.78972245 -57.859375 14.33984375 C-55.90629473 13.89303358 -53.9531716 13.44641073 -52 13 C-38.84980623 9.98448913 -26.0568725 6.21767785 -13.29077148 1.85839844 C-11.5690271 1.2826709 -11.5690271 1.2826709 -9.8125 0.6953125 C-8.78769531 0.34484863 -7.76289063 -0.00561523 -6.70703125 -0.36669922 C-3.89283036 -1.02507197 -2.69602838 -0.79458057 0 0 Z " fill="#FED899" transform="translate(320,124)"/>
<path d="M0 0 C4.03880718 1.31726438 7.80204909 2.77170062 11.61328125 4.65234375 C13.21997681 5.43834961 13.21997681 5.43834961 14.85913086 6.24023438 C15.99874268 6.80033203 17.13835449 7.36042969 18.3125 7.9375 C35.29416492 16.20153323 52.54934799 23.77930543 70 31 C65.89783712 35.3870353 61.36552506 38.80920167 56.5 42.3125 C48.26710514 48.29726829 40.15649646 54.42412817 32.11914062 60.66918945 C20.04531081 69.96533372 20.04531081 69.96533372 14.3125 70.0625 C10.2678682 68.76516527 9.30630136 67.51395438 7 64 C6.25323486 60.96903992 6.25323486 60.96903992 5.90332031 57.55737305 C5.76347717 56.27642258 5.62363403 54.99547211 5.47955322 53.67570496 C5.34537581 52.28774508 5.21157514 50.89974874 5.078125 49.51171875 C4.92839365 48.08381173 4.77714642 46.65606291 4.62445068 45.22846985 C4.22796585 41.48332371 3.85203013 37.73639222 3.48040771 33.9887085 C3.09703902 30.15979462 2.69417368 26.332938 2.29296875 22.50585938 C1.50960402 15.00577897 0.74794766 7.50370412 0 0 Z " fill="#F87DA3" transform="translate(105,67)"/>
<path d="M0 0 C3.17856301 1.21545486 6.12435539 2.54318716 9.0625 4.2578125 C9.84512207 4.71075684 10.62774414 5.16370117 11.43408203 5.63037109 C12.28083496 6.12359863 13.12758789 6.61682617 14 7.125 C22.98618222 12.31138467 32.0363216 17.37138005 41.125 22.375 C41.7348877 22.71098206 42.34477539 23.04696411 42.97314453 23.39312744 C50.63821524 27.61475137 58.31440368 31.81585886 66 36 C66 36.66 66 37.32 66 38 C64.90836548 38.57947388 64.90836548 38.57947388 63.79467773 39.1706543 C60.3406303 41.00650639 56.88863179 42.84617525 53.4375 44.6875 C52.80862885 45.02269653 52.17975769 45.35789307 51.53182983 45.70324707 C41.76619863 50.91369496 32.09390564 56.26315929 22.55053711 61.8737793 C9.15212233 69.61671959 9.15212233 69.61671959 3.125 68.4375 C0.68187579 66.78479833 -0.49173465 65.54311409 -2 63 C-2.30834961 59.92797852 -2.30834961 59.92797852 -2.21484375 56.31640625 C-2.20202866 55.66160782 -2.18921356 55.00680939 -2.17601013 54.33216858 C-2.13136721 52.22085299 -2.06563589 50.11075628 -2 48 C-1.96866617 46.60533992 -1.9388772 45.21064427 -1.91064453 43.81591797 C-1.83433168 40.24701184 -1.73576034 36.67915924 -1.62768555 33.11108398 C-1.56243928 30.93547544 -1.50271871 28.75976059 -1.44335938 26.58398438 C-1.18817723 17.69921108 -0.71471636 8.86160591 0 0 Z " fill="#73CDFE" transform="translate(28,25)"/>
<path d="M0 0 C-1.62396583 5.94469917 -4.63314999 10.9516654 -7.6875 16.25 C-8.25259277 17.23766357 -8.81768555 18.22532715 -9.39990234 19.24291992 C-10.6173909 21.36879629 -11.83720227 23.49334372 -13.05908203 25.61669922 C-14.73601664 28.53983882 -16.40118802 31.46903824 -18.05982971 34.40255737 C-19.41304208 36.7937678 -20.77238199 39.18145875 -22.13296509 41.56848145 C-23.11316925 43.2917013 -24.08726372 45.01839181 -25.0612793 46.74511719 C-25.66238525 47.79473633 -26.26349121 48.84435547 -26.8828125 49.92578125 C-27.41277832 50.85817627 -27.94274414 51.79057129 -28.48876953 52.7512207 C-30 55 -30 55 -33 57 C-38.59016393 57.63114754 -38.59016393 57.63114754 -41 57 C-44.58858932 53.77034183 -47.03105083 50.61664147 -49.3125 46.37890625 C-49.90732178 45.28819824 -50.50214355 44.19749023 -51.11499023 43.07373047 C-51.73704346 41.91502441 -52.35909668 40.75631836 -53 39.5625 C-54.31911372 37.13652 -55.64523784 34.71441287 -56.97265625 32.29296875 C-57.30596451 31.68358459 -57.63927277 31.07420044 -57.98268127 30.4463501 C-61.86407411 23.37750172 -65.98829385 16.45478412 -70.13867188 9.54125977 C-70.64849609 8.68975342 -71.15832031 7.83824707 -71.68359375 6.9609375 C-72.13275146 6.21634277 -72.58190918 5.47174805 -73.04467773 4.70458984 C-74 3 -74 3 -74 2 C-73.42609528 1.98969254 -72.85219055 1.97938507 -72.26089478 1.96876526 C-66.19175398 1.85909462 -60.12271516 1.74466478 -54.05371094 1.62768555 C-51.80015228 1.58484162 -49.54657155 1.54314076 -47.29296875 1.50268555 C-35.75390267 1.29479757 -24.22996376 1.07407186 -12.71109009 0.32704163 C-8.4660171 0.05396885 -4.25358075 -0.0410524 0 0 Z " fill="#F87CA3" transform="translate(133,159)"/>
<path d="M0 0 C-2.1664029 6.78683126 -4.6635951 13.40605524 -7.30859375 20.01953125 C-7.71658707 21.04052414 -8.12458038 22.06151703 -8.54493713 23.1134491 C-9.40312303 25.25620223 -10.26292471 27.39830888 -11.12426758 29.53979492 C-12.43911767 32.81653139 -13.74002584 36.09859966 -15.04101562 39.38085938 C-15.87934986 41.46909484 -16.71851379 43.55699746 -17.55859375 45.64453125 C-17.94413925 46.62372025 -18.32968475 47.60290924 -18.72691345 48.61177063 C-22.29182221 57.38546562 -22.29182221 57.38546562 -26 60 C-31.41826923 60.77403846 -31.41826923 60.77403846 -34 60 C-37.79192474 56.66843673 -40.86622627 52.79857208 -43.9375 48.8125 C-44.4020459 48.21518066 -44.8665918 47.61786133 -45.34521484 47.00244141 C-46.35734845 45.70046198 -47.36803536 44.39735692 -48.37744141 43.09326172 C-50.08335508 40.89246367 -51.7967882 38.69768409 -53.51171875 36.50390625 C-60.09939448 28.06943521 -66.62716611 19.59826794 -73 11 C-69.19041488 8.61658011 -65.10350334 8.33796737 -60.73828125 7.8515625 C-59.92282333 7.75412247 -59.10736542 7.65668243 -58.26719666 7.55628967 C-56.5207314 7.34786718 -54.77389392 7.14254456 -53.0267334 6.94003296 C-48.48583937 6.41298496 -43.94783809 5.86253877 -39.41015625 5.30859375 C-38.51336151 5.19927017 -37.61656677 5.08994659 -36.69259644 4.97731018 C-28.16185413 3.92292298 -19.6854059 2.61618866 -11.2121582 1.16845703 C-10.30167725 1.0136084 -9.39119629 0.85875977 -8.453125 0.69921875 C-7.29538574 0.49558716 -7.29538574 0.49558716 -6.11425781 0.2878418 C-4 0 -4 0 0 0 Z " fill="#73CDFF" transform="translate(222,148)"/>
<path d="M0 0 C15.83769759 -0.09342391 31.67532085 -0.16396954 47.51322556 -0.20724869 C54.86698363 -0.22787773 62.22057054 -0.25600459 69.57421875 -0.30175781 C75.98335548 -0.34161545 82.39236826 -0.36743034 88.80162549 -0.37635398 C92.19563213 -0.38157066 95.58928416 -0.39383805 98.98317719 -0.42292023 C102.77122749 -0.45185134 106.55853713 -0.45596014 110.34667969 -0.45410156 C112.03629318 -0.47567322 112.03629318 -0.47567322 113.76004028 -0.49768066 C114.79206573 -0.49218201 115.82409119 -0.48668335 116.88739014 -0.48101807 C117.78337292 -0.48470524 118.6793557 -0.48839241 119.60248947 -0.49219131 C122.77515203 0.15913302 123.97881186 1.52912003 126 4 C126.53125 6 126.53125 6 126.5 8 C126.51546875 8.99 126.51546875 8.99 126.53125 10 C125.74602769 12.95613104 124.37494875 14.09984561 122 16 C118.97558594 16.45410156 118.97558594 16.45410156 115.484375 16.390625 C114.23398437 16.37773437 112.98359375 16.36484375 111.6953125 16.3515625 C109.74238281 16.30128906 109.74238281 16.30128906 107.75 16.25 C106.43257813 16.23195312 105.11515625 16.21390625 103.7578125 16.1953125 C100.50489844 16.14816882 97.25235783 16.07642616 94 16 C94 21.28 94 26.56 94 32 C88.72 32 83.44 32 78 32 C78 26.72 78 21.44 78 16 C54.24 16 30.48 16 6 16 C1 4 1 4 0 0 Z " fill="#78869B" transform="translate(298,224)"/>
<path d="M0 0 C5.28 0 10.56 0 16 0 C16 5.28 16 10.56 16 16 C10.72 16 5.44 16 0 16 C0 10.72 0 5.44 0 0 Z " fill="#78869B" transform="translate(448,312)"/>
<path d="M0 0 C5.28 0 10.56 0 16 0 C16 5.28 16 10.56 16 16 C10.72 16 5.44 16 0 16 C0 10.72 0 5.44 0 0 Z " fill="#78869B" transform="translate(288,312)"/>
</svg>
