<?xml version="1.0" encoding="UTF-8"?>
<svg version="1.1" xmlns="http://www.w3.org/2000/svg" width="512" height="512">
<path d="M0 0 C4.59749753 3.32633514 8.05899663 6.98352486 11.2578125 11.66015625 C13.89308797 15.33357055 15.73823576 16.73501543 20.171875 17.76953125 C29.4485609 20.37564534 37.93141266 26.59748884 43.01953125 34.84375 C48.89257332 46.02478928 50.34663101 56.89217945 46.921875 69.20703125 C44.90474198 75.22228098 42.02970925 79.974197 37.546875 84.45703125 C36.05006767 97.0327715 36.56885393 108.14900626 40.05029297 120.32739258 C41.42783713 126.23512008 41.68593013 131.98920052 41.64453125 138.015625 C41.64240883 139.19935448 41.64240883 139.19935448 41.64024353 140.40699768 C41.63469055 142.9028824 41.62214708 145.3986741 41.609375 147.89453125 C41.60435391 149.5970039 41.59979207 151.29947798 41.59570312 153.00195312 C41.58473658 157.15368113 41.56750491 161.30534047 41.546875 165.45703125 C42.48853516 165.59947266 43.43019531 165.74191406 44.40039062 165.88867188 C50.15456196 166.92806595 54.64818952 170.19957081 58.38671875 174.64453125 C64.64854955 183.7081103 65.7201337 192.34876815 64.15234375 203.18359375 C60.1901097 220.10616754 49.06031766 237.78140281 34.546875 247.45703125 C34.06694924 250.03561394 34.06694924 250.03561394 34.11209106 253.11050415 C34.09207031 254.31333038 34.07204956 255.51615662 34.05142212 256.75543213 C34.04449583 258.09557922 34.03794733 259.4357283 34.03173828 260.77587891 C34.01458268 262.18190924 33.99626461 263.5879258 33.97686768 264.993927 C33.92889065 268.82063425 33.90136583 272.64721355 33.88044596 276.4741559 C33.86721593 278.86595346 33.85095951 281.25771332 33.83391953 283.64948654 C33.78212154 291.13525912 33.74400449 298.62093872 33.7234937 306.10686266 C33.69948823 314.74346974 33.62938252 323.37808332 33.51949131 332.01401484 C33.43745929 338.69100664 33.39784421 345.36743123 33.38989055 352.04491842 C33.38414782 356.03217936 33.36043717 360.01738647 33.29214859 364.00410843 C33.22892261 367.75940946 33.21854569 371.51126515 33.24781036 375.2669487 C33.25040083 377.29340734 33.19860717 379.31970977 33.14492798 381.34545898 C33.22798958 388.34439723 33.22798958 388.34439723 36.95739365 394.00904465 C39.73879285 396.0479945 42.5407465 397.77347203 45.546875 399.45703125 C56.91488979 407.61568396 64.93095047 420.41280087 69.546875 433.45703125 C69.8984668 434.39554932 70.25005859 435.33406738 70.61230469 436.30102539 C74.43550259 448.1401949 74.15385477 460.10007643 74.06835938 472.44018555 C74.04669852 476.17496015 74.06835869 479.90785785 74.09375 483.64257812 C74.09111045 486.02213965 74.08599323 488.40170002 74.078125 490.78125 C74.08622192 491.89473312 74.09431885 493.00821625 74.10266113 494.15544128 C74.08374817 495.70404594 74.08374817 495.70404594 74.06445312 497.28393555 C74.06127075 498.18911423 74.05808838 499.09429291 74.05480957 500.02690125 C73.36965022 503.30493427 72.13878398 504.36984076 69.546875 506.45703125 C66.84894562 506.95842791 66.84894562 506.95842791 63.69348145 506.96039581 C62.48969597 506.9708268 61.28591049 506.98125779 60.04564667 506.99200487 C58.70816308 506.98335645 57.37068189 506.97432982 56.03320312 506.96496582 C54.61366383 506.96957344 53.19412931 506.97592543 51.7746048 506.9838748 C47.8690939 507.00061061 43.96397274 506.9923027 40.05846024 506.97992992 C35.84843522 506.97089903 31.63847837 506.98483938 27.4284668 506.99584961 C19.17920418 507.01366045 10.93008693 507.00978346 2.68081856 506.99819905 C-4.0219632 506.98917506 -10.72470415 506.98793623 -17.42749023 506.99229431 C-18.38051765 506.99290724 -19.33354506 506.99352018 -20.3154521 506.99415168 C-22.25135105 506.99543055 -24.18724999 506.9967274 -26.12314892 506.99804205 C-44.28721983 507.00945536 -62.45121007 506.99632237 -80.61526775 506.97484058 C-96.20969808 506.95696892 -111.80400932 506.96007282 -127.3984375 506.97851562 C-145.49635022 506.99990909 -163.59419219 507.00835665 -181.69211578 506.99606657 C-183.6209971 506.99479234 -185.54987843 506.99353486 -187.47875977 506.99229431 C-188.90242646 506.99136866 -188.90242646 506.99136866 -190.35485411 506.99042431 C-197.05160943 506.98696683 -203.74831997 506.9928083 -210.44506836 507.00221252 C-218.60329629 507.01341697 -226.76137023 507.0104253 -234.91958046 506.98908955 C-239.08413801 506.9785581 -243.24843858 506.97449273 -247.41299438 506.98768616 C-251.22262848 506.99957289 -255.03176648 506.99310973 -258.84135532 506.97177595 C-260.22218108 506.96729398 -261.60304843 506.96961181 -262.98384762 506.9792791 C-264.85578034 506.99138337 -266.72782986 506.97661613 -268.59973145 506.96039581 C-270.16168621 506.9594217 -270.16168621 506.9594217 -271.75519562 506.95842791 C-275.15626647 506.32635593 -276.34181089 505.14438041 -278.453125 502.45703125 C-278.96105957 500.02690125 -278.96105957 500.02690125 -278.97070312 497.28393555 C-278.98331177 496.25153244 -278.99592041 495.21912933 -279.00891113 494.15544128 C-279.00081421 493.04195816 -278.99271729 491.92847504 -278.984375 490.78125 C-278.9882019 489.62389847 -278.99202881 488.46654694 -278.99597168 487.27412415 C-278.99869535 484.81872694 -278.99130255 482.36330095 -278.97460938 479.90795898 C-278.95342122 476.19642012 -278.97428597 472.48686486 -279 468.77539062 C-279.01998094 453.03545525 -278.17386873 439.21750742 -270.640625 425.08203125 C-270.29733154 424.41703613 -269.95403809 423.75204102 -269.6003418 423.06689453 C-266.76577168 417.72379182 -263.43060132 413.01548725 -259.453125 408.45703125 C-258.69773437 407.49667969 -257.94234375 406.53632813 -257.1640625 405.546875 C-254.39949448 402.22501427 -251.22402307 399.70993412 -247.765625 397.14453125 C-247.18490234 396.70302734 -246.60417969 396.26152344 -246.00585938 395.80664062 C-241.79563492 392.62828621 -241.79563492 392.62828621 -239.453125 391.45703125 C-239.21924114 372.83748806 -239.04304497 354.21824401 -238.93500328 335.59753513 C-238.88349765 326.95099772 -238.81331466 318.30537439 -238.69873047 309.65942383 C-238.59887389 302.12113395 -238.5345003 294.58350615 -238.51224005 287.04457325 C-238.49923218 283.05448628 -238.46879839 279.06629289 -238.39582443 275.07681465 C-238.32759688 271.31611252 -238.30707452 267.55807052 -238.32204819 263.79680824 C-238.31801388 261.76927232 -238.26437245 259.74202206 -238.20892334 257.71524048 C-238.2873937 250.70405244 -238.2873937 250.70405244 -241.61067581 244.72334099 C-244.12709723 242.45051087 -246.72127093 240.46106748 -249.453125 238.45703125 C-261.26341595 227.17433056 -269.38524558 210.70592631 -269.765625 194.26953125 C-269.67712542 185.56707248 -267.20878631 178.41555942 -261.23046875 171.99609375 C-256.76627561 168.13039684 -252.40075976 165.45703125 -246.453125 165.45703125 C-246.46883545 164.45551025 -246.4845459 163.45398926 -246.50073242 162.42211914 C-246.55604891 158.6181683 -246.58983467 154.8142508 -246.61791992 151.01000977 C-246.63277972 149.38006567 -246.65307336 147.75015984 -246.67944336 146.12036133 C-247.27966123 108.0006423 -232.72740316 74.65750279 -207.453125 46.45703125 C-206.74800781 45.66683594 -206.04289062 44.87664063 -205.31640625 44.0625 C-194.8805497 33.03030879 -181.86462367 24.41953225 -168.453125 17.45703125 C-166.73609375 16.55017578 -166.73609375 16.55017578 -164.984375 15.625 C-157.83114599 11.98999379 -150.53188844 9.3767659 -142.828125 7.14453125 C-141.994021 6.90202637 -141.15991699 6.65952148 -140.30053711 6.40966797 C-127.84086348 2.98195567 -115.55767789 2.08287488 -102.703125 2.14453125 C-101.57993362 2.14626846 -101.57993362 2.14626846 -100.43405151 2.14804077 C-86.22133187 2.1915303 -73.264481 3.64460327 -59.65234375 8.00390625 C-57.11818865 8.52604123 -55.84591977 8.42381702 -53.453125 7.45703125 C-51.60625402 6.00266148 -51.60625402 6.00266148 -49.828125 4.20703125 C-36.42804001 -7.98855172 -15.31038832 -9.6299417 0 0 Z " fill="#FEE2E0" transform="translate(358.453125,5.54296875)"/>
<path d="M0 0 C3.77428337 1.50971335 7.25395123 3.12697561 10.875 4.9375 C18.78442374 8.62676477 27.37537364 10.88834489 36.1484375 11.0625 C40.03313095 12.33965949 40.72204954 14.23619054 42.52319336 17.77734375 C42.90741455 18.57269531 43.29163574 19.36804688 43.6875 20.1875 C53.76254897 39.56481227 68.00164338 52.02068251 85.4921875 64.703125 C90.45994342 68.31265552 95.26917442 72.08399528 100 76 C98.63834494 79.95238391 96.85733074 82.60094407 94.14086914 85.75952148 C80.43495949 102.77049964 78.59891828 116.44645548 79.36914062 137.84814453 C79.48506207 141.60317127 79.50021155 145.35869771 79.52539062 149.11523438 C79.58839696 156.41401533 79.75751021 163.70473163 80 171 C81.91051147 170.96302002 81.91051147 170.96302002 83.85961914 170.92529297 C85.56395817 170.90534546 87.26830443 170.88600963 88.97265625 170.8671875 C89.80817017 170.84938232 90.64368408 170.83157715 91.5045166 170.81323242 C106.39461872 170.69038276 122.21314709 177.08045641 133.18359375 187.09375 C135.04784664 188.27280733 135.04784664 188.27280733 137.43359375 187.36328125 C140.03111258 185.98347292 142.27788482 184.45764874 144.625 182.6875 C156.89613175 174.00747887 169.899586 170.88145652 184.78613281 170.9699707 C185.48090729 170.97213844 186.17568176 170.97430618 186.89151001 170.97653961 C188.59434867 170.98216573 190.297177 170.99078191 192 171 C192.40420507 160.75098968 192.62886371 150.5065512 192.6875 140.25 C192.69188709 139.50194721 192.69627419 138.75389442 192.70079422 137.98317337 C192.77608966 115.97606486 191.62953544 98.74324013 176.12109375 81.83984375 C174.76773719 80.5384066 173.40228322 79.24856493 172 78 C173.45774825 74.44420697 175.27044369 72.74074305 178.33203125 70.4609375 C179.20690186 69.80311279 180.08177246 69.14528809 180.9831543 68.4675293 C182.38368042 67.43172729 182.38368042 67.43172729 183.8125 66.375 C185.23912964 65.30149292 185.23912964 65.30149292 186.69458008 64.20629883 C190.75552113 61.15137068 194.83279695 58.11978209 198.9296875 55.11328125 C208.54716916 47.9994378 216.25347632 40.03797456 222.75 30 C223.13124023 29.4114624 223.51248047 28.8229248 223.90527344 28.21655273 C225.63614256 25.46154798 227.08359286 22.7917732 228.296875 19.76953125 C229.58639371 16.60016222 230.59798521 14.45140201 233 12 C237.16003664 10.69858616 241.13527572 10.16012935 245.44921875 9.66796875 C253.31838568 8.70675949 261.04539464 5.38601888 267.796875 1.3125 C270 0 270 0 272 0 C271.99501401 0.73476311 271.99002802 1.46952621 271.98489094 2.22655487 C271.86724895 20.12159067 271.81051776 38.01587632 271.82121754 55.91130829 C271.82492977 64.56561223 271.80817996 73.2189655 271.74291992 81.87304688 C271.68607726 89.41784038 271.66797288 96.96157345 271.6959936 104.5065465 C271.70948378 108.50048078 271.70384342 112.49228434 271.65177345 116.48594666 C271.6033157 120.24957691 271.60687263 124.00966328 271.64941406 127.77333069 C271.65909681 129.80444937 271.6144501 131.83560229 271.56791687 133.86621094 C271.67389644 140.87853927 271.67389644 140.87853927 275.41318321 146.55397034 C278.19376844 148.59228142 280.99466539 150.31715822 284 152 C295.36801482 160.1586522 303.38407572 172.95577032 308 186 C308.3515918 186.93851807 308.70318359 187.87703613 309.06542969 188.84399414 C312.88862759 200.68316365 312.60697977 212.64304518 312.52148438 224.9831543 C312.49982352 228.7179289 312.52148369 232.4508266 312.546875 236.18554688 C312.54423545 238.5651084 312.53911823 240.94466877 312.53125 243.32421875 C312.53934692 244.43770187 312.54744385 245.551185 312.55578613 246.69841003 C312.53687317 248.24701469 312.53687317 248.24701469 312.51757812 249.8269043 C312.51439575 250.73208298 312.51121338 251.63726166 312.50793457 252.56987 C311.82277522 255.84790302 310.59190898 256.91280951 308 259 C305.30207062 259.50139666 305.30207062 259.50139666 302.14660645 259.50336456 C300.94282097 259.51379555 299.73903549 259.52422654 298.49877167 259.53497362 C297.16128808 259.5263252 295.82380689 259.51729857 294.48632812 259.50793457 C293.06678883 259.51254219 291.64725431 259.51889418 290.2277298 259.52684355 C286.3222189 259.54357936 282.41709774 259.53527145 278.51158524 259.52289867 C274.30156022 259.51386778 270.09160337 259.52780813 265.8815918 259.53881836 C257.63232918 259.5566292 249.38321193 259.55275221 241.13394356 259.5411678 C234.4311618 259.53214381 227.72842085 259.53090498 221.02563477 259.53526306 C220.07260735 259.53587599 219.11957994 259.53648893 218.1376729 259.53712043 C216.20177395 259.5383993 214.26587501 259.53969615 212.32997608 259.5410108 C194.16590517 259.55242411 176.00191493 259.53929112 157.83785725 259.51780933 C142.24342692 259.49993767 126.64911568 259.50304157 111.0546875 259.52148438 C92.95677478 259.54287784 74.85893281 259.5513254 56.76100922 259.53903532 C54.8321279 259.53776109 52.90324657 259.53650361 50.97436523 259.53526306 C49.55069854 259.53433741 49.55069854 259.53433741 48.09827089 259.53339306 C41.40151557 259.52993558 34.70480503 259.53577705 28.00805664 259.54518127 C19.84982871 259.55638572 11.69175477 259.55339405 3.53354454 259.5320583 C-0.63101301 259.52152685 -4.79531358 259.51746148 -8.95986938 259.53065491 C-12.76950348 259.54254164 -16.57864148 259.53607848 -20.38823032 259.5147447 C-21.76905608 259.51026273 -23.14992343 259.51258056 -24.53072262 259.52224785 C-26.40265534 259.53435212 -28.27470486 259.51958488 -30.14660645 259.50336456 C-31.70856121 259.50239045 -31.70856121 259.50239045 -33.30207062 259.50139666 C-36.70314147 258.86932468 -37.88868589 257.68734916 -40 255 C-40.50793457 252.56987 -40.50793457 252.56987 -40.51757812 249.8269043 C-40.53018677 248.79450119 -40.54279541 247.76209808 -40.55578613 246.69841003 C-40.54768921 245.58492691 -40.53959229 244.47144379 -40.53125 243.32421875 C-40.5350769 242.16686722 -40.53890381 241.00951569 -40.54284668 239.8170929 C-40.54557035 237.36169569 -40.53817755 234.9062697 -40.52148438 232.45092773 C-40.50029622 228.73938887 -40.52116097 225.02983361 -40.546875 221.31835938 C-40.56685594 205.578424 -39.72074373 191.76047617 -32.1875 177.625 C-31.84420654 176.96000488 -31.50091309 176.29500977 -31.1472168 175.60986328 C-28.31264668 170.26676057 -24.97747632 165.558456 -21 161 C-19.86691406 159.55947266 -19.86691406 159.55947266 -18.7109375 158.08984375 C-15.94636948 154.76798302 -12.77089807 152.25290287 -9.3125 149.6875 C-8.73177734 149.24599609 -8.15105469 148.80449219 -7.55273438 148.34960938 C-3.34250992 145.17125496 -3.34250992 145.17125496 -1 144 C-0.67 96.48 -0.34 48.96 0 0 Z " fill="#FE94BD" transform="translate(120,253)"/>
<path d="M0 0 C4.59749753 3.32633514 8.05899663 6.98352486 11.2578125 11.66015625 C13.89308797 15.33357055 15.73823576 16.73501543 20.171875 17.76953125 C29.4485609 20.37564534 37.93141266 26.59748884 43.01953125 34.84375 C48.89257332 46.02478928 50.34663101 56.89217945 46.921875 69.20703125 C44.90474198 75.22228098 42.02970925 79.974197 37.546875 84.45703125 C36.05006767 97.0327715 36.56885393 108.14900626 40.05029297 120.32739258 C41.42783713 126.23512008 41.68593013 131.98920052 41.64453125 138.015625 C41.64240883 139.19935448 41.64240883 139.19935448 41.64024353 140.40699768 C41.63469055 142.9028824 41.62214708 145.3986741 41.609375 147.89453125 C41.60435391 149.5970039 41.59979207 151.29947798 41.59570312 153.00195312 C41.58473658 157.15368113 41.56750491 161.30534047 41.546875 165.45703125 C40.58918213 165.43455322 39.63148926 165.4120752 38.64477539 165.38891602 C37.38656982 165.37143311 36.12836426 165.3539502 34.83203125 165.3359375 C33.58558838 165.31345947 32.33914551 165.29098145 31.05493164 165.26782227 C27.08081709 165.48216834 24.59139351 166.35906205 21.29296875 168.484375 C17.54059364 170.57462422 15.17678166 170.6298375 11.015625 169.48828125 C9.68658899 168.9940172 8.36382885 168.4826416 7.046875 167.95703125 C6.3448999 167.68366943 5.6429248 167.41030762 4.91967773 167.12866211 C-9.65730543 161.29885834 -27.78921897 152.00943576 -34.578125 137.01953125 C-35.62168596 134.94692005 -35.62168596 134.94692005 -37.453125 133.45703125 C-41.1161215 132.61553206 -44.6804409 132.31414996 -48.42578125 132.01953125 C-54.68004214 131.36643947 -59.96452691 128.40032669 -65.453125 125.45703125 C-66.26652344 126.13507813 -67.07992187 126.813125 -67.91796875 127.51171875 C-82.47491397 139.42783087 -97.95702638 147.66726449 -115.453125 154.45703125 C-116.63261719 154.92882812 -117.81210938 155.400625 -119.02734375 155.88671875 C-146.84813821 166.48825226 -176.95313979 169.24904895 -206.453125 170.45703125 C-207.94513428 170.51914795 -207.94513428 170.51914795 -209.46728516 170.58251953 C-223.1828515 171.08323457 -223.1828515 171.08323457 -227.453125 167.45703125 C-231.63131075 165.34481014 -235.12284521 165.24525032 -239.765625 165.33203125 C-241.01988281 165.35007813 -242.27414063 165.368125 -243.56640625 165.38671875 C-244.51902344 165.40992188 -245.47164063 165.433125 -246.453125 165.45703125 C-246.52866599 160.64139028 -246.58236448 155.82611224 -246.61791992 151.01000977 C-246.63277972 149.38006567 -246.65307336 147.75015984 -246.67944336 146.12036133 C-247.27966123 108.0006423 -232.72740316 74.65750279 -207.453125 46.45703125 C-206.74800781 45.66683594 -206.04289062 44.87664063 -205.31640625 44.0625 C-194.8805497 33.03030879 -181.86462367 24.41953225 -168.453125 17.45703125 C-166.73609375 16.55017578 -166.73609375 16.55017578 -164.984375 15.625 C-157.83114599 11.98999379 -150.53188844 9.3767659 -142.828125 7.14453125 C-141.994021 6.90202637 -141.15991699 6.65952148 -140.30053711 6.40966797 C-127.84086348 2.98195567 -115.55767789 2.08287488 -102.703125 2.14453125 C-101.57993362 2.14626846 -101.57993362 2.14626846 -100.43405151 2.14804077 C-86.22133187 2.1915303 -73.264481 3.64460327 -59.65234375 8.00390625 C-57.11818865 8.52604123 -55.84591977 8.42381702 -53.453125 7.45703125 C-51.60625402 6.00266148 -51.60625402 6.00266148 -49.828125 4.20703125 C-36.42804001 -7.98855172 -15.31038832 -9.6299417 0 0 Z " fill="#756663" transform="translate(358.453125,5.54296875)"/>
<path d="M0 0 C4.59749753 3.32633514 8.05899663 6.98352486 11.2578125 11.66015625 C13.89308797 15.33357055 15.73823576 16.73501543 20.171875 17.76953125 C29.4485609 20.37564534 37.93141266 26.59748884 43.01953125 34.84375 C48.89257332 46.02478928 50.34663101 56.89217945 46.921875 69.20703125 C44.90474198 75.22228098 42.02970925 79.974197 37.546875 84.45703125 C36.05006767 97.0327715 36.56885393 108.14900626 40.05029297 120.32739258 C41.42783713 126.23512008 41.68593013 131.98920052 41.64453125 138.015625 C41.64240883 139.19935448 41.64240883 139.19935448 41.64024353 140.40699768 C41.63469055 142.9028824 41.62214708 145.3986741 41.609375 147.89453125 C41.60435391 149.5970039 41.59979207 151.29947798 41.59570312 153.00195312 C41.58473658 157.15368113 41.56750491 161.30534047 41.546875 165.45703125 C40.58918213 165.43455322 39.63148926 165.4120752 38.64477539 165.38891602 C37.38656982 165.37143311 36.12836426 165.3539502 34.83203125 165.3359375 C33.58558838 165.31345947 32.33914551 165.29098145 31.05493164 165.26782227 C27.08081709 165.48216834 24.59139351 166.35906205 21.29296875 168.484375 C17.54059364 170.57462422 15.17678166 170.6298375 11.015625 169.48828125 C9.68658899 168.9940172 8.36382885 168.4826416 7.046875 167.95703125 C6.3448999 167.68366943 5.6429248 167.41030762 4.91967773 167.12866211 C-9.65730543 161.29885834 -27.78921897 152.00943576 -34.578125 137.01953125 C-35.61746777 134.94568165 -35.61746777 134.94568165 -37.453125 133.45703125 C-40.48152928 132.76892481 -43.42190093 132.42020248 -46.5144043 132.17089844 C-56.62169011 131.27181796 -65.74392344 126.02176858 -72.453125 118.45703125 C-78.96401215 109.79562329 -81.39949095 100.99039391 -81.765625 90.26953125 C-82.06888411 84.46338293 -83.12448344 81.6680542 -86.88671875 77.34375 C-93.34411155 69.56589284 -93.25515471 59.94634727 -92.63330078 50.35107422 C-91.68602605 40.39313745 -85.53390514 31.77892141 -78.43359375 25.0234375 C-73.56578425 21.17335543 -68.08458277 18.67305404 -62.015625 17.45703125 C-58.29732203 16.79892739 -58.29732203 16.79892739 -56.453125 13.83203125 C-56.123125 13.04828125 -55.793125 12.26453125 -55.453125 11.45703125 C-56.113125 10.79703125 -56.773125 10.13703125 -57.453125 9.45703125 C-56.7725 9.08578125 -56.091875 8.71453125 -55.390625 8.33203125 C-53.04205934 6.83294678 -51.28902136 5.44240515 -49.265625 3.58203125 C-35.92990375 -8.14521485 -14.91304924 -9.38002301 0 0 Z " fill="#B2E97E" transform="translate(358.453125,5.54296875)"/>
<path d="M0 0 C0.58515381 0.39541992 1.17030762 0.79083984 1.77319336 1.19824219 C15.60680763 10.49352246 27.13075271 15.67603053 44 14 C54.66653986 11.81199182 63.09137623 5.94009895 72 0 C85.34419932 12.51905933 92.60752938 25.82078841 93.27082825 44.2545414 C93.44478925 50.96533041 93.40393787 57.66427088 93.25 64.375 C93.23287964 65.12657757 93.21575928 65.87815514 93.19812012 66.65250778 C92.96694203 76.11120058 92.56101489 85.55497715 92 95 C91.04746338 95.08155083 91.04746338 95.08155083 90.07568359 95.16474915 C87.17515005 95.41501803 84.27508377 95.67035537 81.375 95.92578125 C80.37597656 96.01122192 79.37695312 96.0966626 78.34765625 96.18469238 C63.7317113 97.48234147 49.72638223 101.96009405 38.74609375 112.12890625 C37 113 37 113 34.5703125 112.359375 C31.97736949 110.98803128 29.76777501 109.46576401 27.4375 107.6875 C21.95034683 103.77159396 16.33050556 101.25970802 10 99 C8.74316406 98.5359375 8.74316406 98.5359375 7.4609375 98.0625 C1.38246371 96.10534435 -4.53864176 95.69708245 -10.87109375 95.421875 C-11.75051636 95.37981934 -12.62993896 95.33776367 -13.53601074 95.29443359 C-15.69047486 95.19201425 -17.84521448 95.09541879 -20 95 C-20.60609805 84.79597507 -21.01721785 74.59405089 -21.25 64.375 C-21.26712036 63.62865925 -21.28424072 62.8823185 -21.30187988 62.11336136 C-21.76307224 39.39022185 -20.3082498 21.8113134 -4.375 4.27734375 C-2.93735051 2.83070895 -1.48740259 1.3954289 0 0 Z " fill="#F3C8C8" transform="translate(220,329)"/>
<path d="M0 0 C3.77428337 1.50971335 7.25395123 3.12697561 10.875 4.9375 C18.78442374 8.62676477 27.37537364 10.88834489 36.1484375 11.0625 C40.03313095 12.33965949 40.72204954 14.23619054 42.52319336 17.77734375 C42.90741455 18.57269531 43.29163574 19.36804688 43.6875 20.1875 C53.76254897 39.56481227 68.00164338 52.02068251 85.4921875 64.703125 C90.45994342 68.31265552 95.26917442 72.08399528 100 76 C95.67222782 87.77706229 85.21054059 105.48075135 73.5625 111.0625 C71.71484641 111.83170324 69.8653563 112.60109865 67.98046875 113.27392578 C65.0383955 114.3525409 62.21247183 115.66705619 59.36010742 116.96118164 C57.05718499 118.00240308 54.74285821 119.0141706 52.42578125 120.0234375 C48.4666776 121.7688762 44.60172924 123.65586626 40.75 125.625 C33.30892509 129.41627763 25.76418781 132.98435633 18.20227051 136.52655029 C16.82002934 137.17429562 15.4384337 137.82342028 14.05749512 138.47393799 C12.1052927 139.39290844 10.15071256 140.30660697 8.1953125 141.21875 C7.05078613 141.75435547 5.90625977 142.28996094 4.72705078 142.84179688 C2 144 2 144 0 144 C0 96.48 0 48.96 0 0 Z " fill="#756663" transform="translate(120,253)"/>
<path d="M0 0 C0 47.52 0 95.04 0 144 C-4.7055521 142.43148263 -9.0309677 140.67559089 -13.4765625 138.54296875 C-14.19170517 138.20351227 -14.90684784 137.86405579 -15.6436615 137.51431274 C-17.97223832 136.40842505 -20.29860814 135.29797565 -22.625 134.1875 C-25.87547971 132.6414955 -29.12710076 131.09790114 -32.37890625 129.5546875 C-33.19248093 129.16825577 -34.0060556 128.78182404 -34.84428406 128.38368225 C-39.95499079 125.95934112 -45.07737358 123.56238695 -50.21484375 121.1953125 C-50.84688721 120.90382828 -51.47893066 120.61234406 -52.13012695 120.31202698 C-55.05207086 118.96556092 -57.97604149 117.62374349 -60.90283203 116.2878418 C-62.97169763 115.33579321 -65.03356396 114.36834585 -67.0871582 113.38378906 C-68.98896671 112.48030649 -70.91226884 111.62040134 -72.85620117 110.81152344 C-81.89969365 106.66602772 -86.04354718 99.75364054 -91.1875 91.625 C-92.05047647 90.30190997 -92.91569727 88.98028095 -93.78320312 87.66015625 C-95.88169178 84.45633994 -97.94893403 81.23436099 -100 78 C-98.54225175 74.44420697 -96.72955631 72.74074305 -93.66796875 70.4609375 C-92.79309814 69.80311279 -91.91822754 69.14528809 -91.0168457 68.4675293 C-90.08316162 67.77699463 -89.14947754 67.08645996 -88.1875 66.375 C-87.23641357 65.65932861 -86.28532715 64.94365723 -85.30541992 64.20629883 C-81.24447887 61.15137068 -77.16720305 58.11978209 -73.0703125 55.11328125 C-63.45283084 47.9994378 -55.74652368 40.03797456 -49.25 30 C-48.67813965 29.1171936 -48.67813965 29.1171936 -48.09472656 28.21655273 C-46.36385744 25.46154798 -44.91640714 22.7917732 -43.703125 19.76953125 C-42.41360629 16.60016222 -41.40201479 14.45140201 -39 12 C-34.83996336 10.69858616 -30.86472428 10.16012935 -26.55078125 9.66796875 C-18.68161432 8.70675949 -10.95460536 5.38601888 -4.203125 1.3125 C-2 0 -2 0 0 0 Z " fill="#756663" transform="translate(392,253)"/>
<path d="M0 0 C6.84428161 2.81282582 13.64258501 5.67503399 20.328125 8.84765625 C21.04683777 9.18623154 21.76555054 9.52480682 22.50604248 9.87364197 C24.00201659 10.57897555 25.49739931 11.2855648 26.9921875 11.9934082 C29.25908792 13.0668032 31.52781194 14.13626343 33.796875 15.20507812 C35.26573176 15.8982113 36.73448541 16.59156304 38.203125 17.28515625 C38.86789856 17.5988063 39.53267212 17.91245636 40.21759033 18.23561096 C43.58334138 19.83036053 46.93932594 21.44479877 50.28271484 23.0859375 C50.91688324 23.396521 51.55105164 23.70710449 52.20443726 24.02709961 C67.26354825 32.18666686 78.40246675 48.18182255 84 64 C84.3515918 64.93851807 84.70318359 65.87703613 85.06542969 66.84399414 C88.88862759 78.68316365 88.60697977 90.64304518 88.52148438 102.9831543 C88.49982352 106.7179289 88.52148369 110.4508266 88.546875 114.18554688 C88.54423545 116.5651084 88.53911823 118.94466877 88.53125 121.32421875 C88.53934692 122.43770187 88.54744385 123.551185 88.55578613 124.69841003 C88.54317749 125.73081314 88.53056885 126.76321625 88.51757812 127.8269043 C88.51439575 128.73208298 88.51121338 129.63726166 88.50793457 130.56987 C87.8224371 133.84952069 86.67597127 135.0212482 84 137 C81.46893311 137.48101807 81.46893311 137.48101807 78.58886719 137.45410156 C77.50804871 137.45379944 76.42723022 137.45349731 75.31365967 137.45318604 C74.15312073 137.43254089 72.99258179 137.41189575 71.796875 137.390625 C70.60394836 137.38496521 69.41102173 137.37930542 68.1819458 137.37347412 C64.37088944 137.35107926 60.56077233 137.30087429 56.75 137.25 C54.16668024 137.22993915 51.58334575 137.21168766 49 137.1953125 C42.66634606 137.15120411 36.33324013 137.08425978 30 137 C30.16081055 136.08718262 30.32162109 135.17436523 30.48730469 134.23388672 C33.62303084 114.45492073 29.13580626 95.84273253 18.203125 79.27734375 C13.78275956 73.36662574 8.56417335 67.38937728 2.41096497 63.26434326 C0 61 0 61 -0.60127258 58.20318604 C-0.59016953 57.12841003 -0.57906647 56.05363403 -0.56762695 54.94628906 C-0.56706047 53.11484344 -0.56706047 53.11484344 -0.56648254 51.24639893 C-0.54067612 49.93274353 -0.51486969 48.61908813 -0.48828125 47.265625 C-0.47895112 45.90372008 -0.47183594 44.54179833 -0.46684265 43.17987061 C-0.44778774 39.60212549 -0.39870266 36.02540173 -0.34332275 32.44805908 C-0.29209611 28.79494035 -0.26932149 25.14165593 -0.24414062 21.48828125 C-0.19058013 14.32505612 -0.10528846 7.16267138 0 0 Z " fill="#F3C8C8" transform="translate(344,375)"/>
<path d="M0 0 C0.30314142 7.74514952 0.53313273 15.48887576 0.67355824 23.23849106 C0.7410154 26.83871732 0.83222097 30.43484731 0.98071289 34.03271484 C1.99472016 59.24585512 1.99472016 59.24585512 -2.81762695 65.48144531 C-5.87444985 68.59230469 -9.28901716 70.73975678 -13 73 C-26.96307096 87.16825261 -31.31309355 106.02862082 -31.2421875 125.24194336 C-31.16445407 129.25347429 -30.694918 133.05540034 -30 137 C-37.61707204 137.10134036 -45.23397053 137.17144061 -52.8515625 137.21972656 C-55.44342546 137.23985375 -58.03524296 137.26715816 -60.62695312 137.30175781 C-64.35037449 137.35022501 -68.07319599 137.37295816 -71.796875 137.390625 C-73.53768341 137.42159271 -73.53768341 137.42159271 -75.31365967 137.45318604 C-76.93488739 137.45363922 -76.93488739 137.45363922 -78.58886719 137.45410156 C-79.53928894 137.46298401 -80.48971069 137.47186646 -81.46893311 137.48101807 C-84.82869012 136.84251111 -85.98371812 135.73130031 -88 133 C-88.50793457 130.56987 -88.50793457 130.56987 -88.51757812 127.8269043 C-88.53018677 126.79450119 -88.54279541 125.76209808 -88.55578613 124.69841003 C-88.54768921 123.58492691 -88.53959229 122.47144379 -88.53125 121.32421875 C-88.5350769 120.16686722 -88.53890381 119.00951569 -88.54284668 117.8170929 C-88.54557035 115.36169569 -88.53817755 112.9062697 -88.52148438 110.45092773 C-88.50029622 106.73938887 -88.52116097 103.02983361 -88.546875 99.31835938 C-88.56685594 83.578424 -87.72074373 69.76047617 -80.1875 55.625 C-79.84420654 54.96000488 -79.50091309 54.29500977 -79.1472168 53.60986328 C-76.31264668 48.26676057 -72.97747632 43.558456 -69 39 C-68.21109375 38.02417969 -67.4221875 37.04835938 -66.609375 36.04296875 C-56.20336708 23.6140562 -41.0259655 17.97726628 -26.57617188 11.58837891 C-23.14861972 10.06601037 -19.73609492 8.51486341 -16.328125 6.94921875 C-8.33085825 3.27713991 -8.33085825 3.27713991 -4.92578125 1.73046875 C-4.18755127 1.39426514 -3.44932129 1.05806152 -2.6887207 0.71166992 C-1 0 -1 0 0 0 Z " fill="#F3C8C8" transform="translate(168,375)"/>
<path d="M0 0 C0.82175217 -0.00554901 1.64350433 -0.01109802 2.49015808 -0.01681519 C5.19911515 -0.02859978 7.90639499 -0.00434938 10.61523438 0.02148438 C12.50183028 0.02319588 14.38842856 0.02312939 16.27502441 0.0213623 C20.22606199 0.02301487 24.17653173 0.04170121 28.12744141 0.07324219 C33.1883391 0.11291954 38.24849319 0.11728702 43.30951691 0.10977936 C47.20435379 0.10670774 51.09902394 0.11883701 54.99382019 0.13591003 C56.85970514 0.14293428 58.72560898 0.14606527 60.59150696 0.1452179 C63.20067401 0.14701848 65.80895517 0.16842221 68.41796875 0.1953125 C69.18694992 0.1923819 69.95593109 0.18945129 70.74821472 0.18643188 C75.22812538 0.25756011 78.15074365 0.83251037 81.70898438 3.61523438 C85.20859054 10.61444671 83.16113783 23.40122009 81.08398438 30.61523438 C76.15976875 44.27264078 67.99889446 54.18755427 54.79296875 60.42871094 C42.61884068 65.89719765 30.46947175 66.30274636 17.74023438 61.86914062 C4.50455923 56.39407397 -3.69495245 47.90923709 -9.88085938 35.14257812 C-12.6455808 28.2269453 -13.6724461 21.86006145 -13.72851562 14.42773438 C-13.76138672 13.64720703 -13.79425781 12.86667969 -13.828125 12.0625 C-13.83521484 11.30259766 -13.84230469 10.54269531 -13.84960938 9.75976562 C-13.86306396 9.08276611 -13.87651855 8.4057666 -13.89038086 7.70825195 C-11.90469123 0.77411054 -6.31342605 -0.1088928 0 0 Z " fill="#F9AFAF" transform="translate(221.291015625,247.384765625)"/>
<path d="M0 0 C0.99 0.495 0.99 0.495 2 1 C2.7865558 3.87909105 3.45827675 6.70726794 4.0625 9.625 C4.23587891 10.42035156 4.40925781 11.21570313 4.58789062 12.03515625 C6.2049319 19.58134886 7.15066346 26.8423467 7.09765625 34.55859375 C7.0962413 35.34774673 7.09482635 36.13689972 7.09336853 36.94996643 C7.08781555 39.44585115 7.07527208 41.94164285 7.0625 44.4375 C7.05747891 46.13997265 7.05291707 47.84244673 7.04882812 49.54492188 C7.03786158 53.69664988 7.02062991 57.84830922 7 62 C5.56346069 61.96628296 5.56346069 61.96628296 4.09790039 61.93188477 C2.83969482 61.91440186 1.58148926 61.89691895 0.28515625 61.87890625 C-0.96128662 61.85642822 -2.20772949 61.8339502 -3.49194336 61.81079102 C-7.46605791 62.02513709 -9.95548149 62.9020308 -13.25390625 65.02734375 C-17.00628136 67.11759297 -19.37009334 67.17280625 -23.53125 66.03125 C-24.86028601 65.53698595 -26.18304615 65.02561035 -27.5 64.5 C-28.2019751 64.22663818 -28.9039502 63.95327637 -29.62719727 63.67163086 C-45.33818681 57.38830152 -63.85935493 47.2287388 -71 31 C-70.505 29.515 -70.505 29.515 -70 28 C-67.85546875 27.0859375 -67.85546875 27.0859375 -65.1875 26.375 C-63.87845703 26.01535156 -63.87845703 26.01535156 -62.54296875 25.6484375 C-61.70378906 25.43445313 -60.86460937 25.22046875 -60 25 C-59.33484375 24.76667969 -58.6696875 24.53335938 -57.984375 24.29296875 C-55.20878012 23.88318604 -53.6072504 24.80097238 -51.0625 25.9375 C-41.51420046 29.60404702 -31.3410523 29.12366074 -22 25 C-11.17758014 19.66479021 -4.04173276 11.36737339 0 0 Z " fill="#766764" transform="translate(393,109)"/>
<path d="M0 0 C11.04536102 3.68178701 21.4287807 9.12097571 32 14 C32 34.46 32 54.92 32 76 C24.575 72.535 24.575 72.535 17 69 C10.70252806 66.60855496 6.95107331 65.86888416 0 65 C0 43.55 0 22.1 0 0 Z " fill="#F87DA3" transform="translate(312,360)"/>
<path d="M0 0 C0 21.45 0 42.9 0 65 C-4.95 65.99 -9.9 66.98 -15 68 C-20.61 70.64 -26.22 73.28 -32 76 C-32 55.54 -32 35.08 -32 14 C-22.76 9.71 -13.52 5.42 -4 1 C-2 0 -2 0 0 0 Z " fill="#F87DA3" transform="translate(200,360)"/>
<path d="M0 0 C5.22360453 3.56501477 9.11719396 8.1155747 11.640625 13.8984375 C12.76483595 21.90844053 13.19058968 28.72765126 8.140625 35.4609375 C1.94141464 42.09538654 -3.09229104 45.40897204 -12.234375 45.8359375 C-18.95555297 45.6631332 -23.15500359 43.99238285 -28.05859375 39.40234375 C-34.36094527 32.69265892 -36.39651526 27.39234019 -36.16015625 18.19921875 C-35.30508685 10.41475581 -30.89127839 6.1148775 -25.17578125 1.125 C-17.68906963 -4.25331223 -8.09358885 -4.10502168 0 0 Z " fill="#92D169" transform="translate(347.859375,50.5390625)"/>
<path d="M0 0 C5.18793982 2.77925347 9.43896486 5.73686785 11.875 11.25 C12.51197621 15.70883347 12.4136368 17.50541383 9.75 21.1875 C6.875 23.25 6.875 23.25 3.9375 23.875 C-0.26918841 23.01649216 -1.96221637 21.13164731 -5.125 18.25 C-9.22506935 16.88331022 -12.84717709 16.47915853 -17.125 17.25 C-19.35598203 18.6362805 -21.26749319 20.21240503 -23.28125 21.89453125 C-25.125 23.25 -25.125 23.25 -28.3125 23.9375 C-32.25761162 22.97313938 -33.7553503 21.52569223 -36.125 18.25 C-36.79582571 14.15050955 -36.44992896 11.94223996 -34.6875 8.1875 C-26.04874894 -1.71545853 -12.32186677 -5.30756086 0 0 Z " fill="#E2BABA" transform="translate(308.125,195.75)"/>
<path d="M0 0 C5.18793982 2.77925347 9.43896486 5.73686785 11.875 11.25 C12.51197621 15.70883347 12.4136368 17.50541383 9.75 21.1875 C6.875 23.25 6.875 23.25 3.9375 23.875 C-0.26918841 23.01649216 -1.96221637 21.13164731 -5.125 18.25 C-9.22506935 16.88331022 -12.84717709 16.47915853 -17.125 17.25 C-19.35598203 18.6362805 -21.26749319 20.21240503 -23.28125 21.89453125 C-25.125 23.25 -25.125 23.25 -28.3125 23.9375 C-32.25761162 22.97313938 -33.7553503 21.52569223 -36.125 18.25 C-36.79582571 14.15050955 -36.44992896 11.94223996 -34.6875 8.1875 C-26.04874894 -1.71545853 -12.32186677 -5.30756086 0 0 Z " fill="#E2BABA" transform="translate(228.125,195.75)"/>
<path d="M0 0 C5.54293165 4.39611821 8.45205343 10.64350288 11.8125 16.75 C12.40998047 17.81605469 13.00746094 18.88210937 13.62304688 19.98046875 C18 27.83397321 18 27.83397321 18 29 C1.62847476 28.18423671 1.62847476 28.18423671 -4 25 C-5.10546875 22.6953125 -5.10546875 22.6953125 -6 20 C-6.88799331 18.37070253 -7.78393821 16.74571541 -8.6875 15.125 C-10.4376446 11.65060052 -10.99913929 10.05422469 -11.0625 6.0625 C-10 3 -10 3 -8.3125 1.0625 C-5.2135552 -0.3613395 -3.37817188 -0.55153827 0 0 Z " fill="#F2C8C8" transform="translate(140,236)"/>
<path d="M0 0 C2.875 2.125 2.875 2.125 5 5 C5.64847654 10.14458058 4.22697505 12.94311083 1.5 17.25 C-1.07369953 20.86972282 -1.07369953 20.86972282 -2 25 C-9.32328775 27.57611228 -16.25798419 28.61422945 -24 29 C-9.45209328 -1.32329306 -9.45209328 -1.32329306 0 0 Z " fill="#F2C8C8" transform="translate(378,236)"/>
<path d="M0 0 C0.66 0.33 1.32 0.66 2 1 C-6.25 9.25 -14.5 17.5 -23 26 C-23 21.72038214 -20.49007077 19.87968696 -17.6875 16.9375 C-16.8845752 16.08055542 -16.8845752 16.08055542 -16.06542969 15.20629883 C-10.97300336 9.83802028 -5.57524105 4.8618736 0 0 Z " fill="#93827F" transform="translate(166,38)"/>
</svg>
