<?xml version="1.0" encoding="UTF-8"?>
<svg version="1.1" xmlns="http://www.w3.org/2000/svg" width="512" height="512">
<path d="M0 0 C15.84 0 31.68 0 48 0 C48 27.72 48 55.44 48 84 C51.89448555 86.01019648 51.89448555 86.01019648 56 87 C58.56447022 85.76095283 60.89263061 84.47756802 63.3125 83 C64.76085528 82.15642713 66.21142677 81.31664914 67.6640625 80.48046875 C68.75895996 79.84890869 68.75895996 79.84890869 69.87597656 79.20458984 C85.14000198 70.5479575 105.14725112 61.86604287 123 65 C136.54734968 69.7244959 145.98033066 84.59235066 152 97 C157.6711863 110.1030061 160.34806305 122.57643816 160.1875 136.875 C160.18685547 137.98875 160.18621094 139.1025 160.18554688 140.25 C160.137277 149.15311093 160.137277 149.15311093 159 153 C159.61746094 153.17088135 160.23492187 153.3417627 160.87109375 153.51782227 C199.22186285 164.51740073 232.34422464 194.55086685 251.71606445 228.82983398 C259.46214097 243.02355587 265.20688048 258.28354742 269 274 C269.16371094 274.66064453 269.32742188 275.32128906 269.49609375 276.00195312 C274.61870103 297.82595358 274.62290099 325.33529323 269 347 C268.79600586 347.82419434 268.59201172 348.64838867 268.38183594 349.49755859 C265.3603475 361.52413813 261.46195819 372.86947786 256 384 C255.70399902 384.61504395 255.40799805 385.23008789 255.10302734 385.86376953 C247.20505493 402.10773549 236.58755982 416.12265463 224 429 C223.36191406 429.69996094 222.72382813 430.39992188 222.06640625 431.12109375 C209.18894146 444.91632886 186.19042386 463.42303639 166.625 464.5625 C156.56510166 464.15044202 147.92018274 458.82013429 140 453 C138.19603172 456.1606717 137.60838802 458.90911756 137.125 462.5 C136.54717517 465.77871816 136.10965654 467.81864495 134.375 470.6875 C131.01086692 472.54662618 127.7427963 472.99418027 124 472 C119.97525747 468.98690161 119.34218719 466.22519204 118.5625 461.375 C116.75874605 452.13555821 113.98424932 444.66232574 106.52734375 438.59375 C102.26820723 435.90792666 97.66403731 434.14603563 92.9765625 432.359375 C90 431 90 431 88 428 C87.34328358 421.10447761 87.34328358 421.10447761 89.375 417.6875 C93.28726239 415.17247418 97.51761313 414.12915089 102 413 C97.63534905 406.04835396 93.15878864 399.18639206 88.55322266 392.39233398 C85.83762748 388.35803015 83.36894289 384.24775967 81 380 C79.5410574 380.47730838 78.08286504 380.95691042 76.625 381.4375 C75.40683594 381.83775391 75.40683594 381.83775391 74.1640625 382.24609375 C71.98968201 382.95179729 71.98968201 382.95179729 70 384 C66.49962882 384.38893013 64.59175938 384.35586723 61.54345703 382.52270508 C58.16052348 379.16737273 56.82337133 375.71741694 55.1171875 371.32421875 C54.60576706 370.05914238 54.60576706 370.05914238 54.08401489 368.76850891 C53.00064895 366.08009599 51.93749735 363.38421946 50.875 360.6875 C50.15369264 358.88552718 49.43104962 357.0840884 48.70703125 355.28320312 C47.37292525 351.96249968 46.04791552 348.63842889 44.72998047 345.3112793 C43.63838744 342.55813197 42.49801737 339.83712892 41.30126953 337.12817383 C39.87624008 333.70248858 39.44240826 331.6641743 40 328 C42.16313413 324.19288393 43.43459111 323.17657689 47.65234375 321.859375 C48.75707031 321.57578125 49.86179687 321.2921875 51 321 C50.59104492 319.97060303 50.59104492 319.97060303 50.17382812 318.92041016 C48.94569964 315.82332204 47.72278864 312.72420004 46.5 309.625 C46.07074219 308.54476563 45.64148438 307.46453125 45.19921875 306.3515625 C44.59013672 304.8046875 44.59013672 304.8046875 43.96875 303.2265625 C43.59169922 302.27346191 43.21464844 301.32036133 42.82617188 300.33837891 C42 298 42 298 42 296 C30.12 296.33 18.24 296.66 6 297 C4.35 301.269375 2.7 305.53875 1 309.9375 C-3.24962064 320.84217496 -7.77663168 331.52333001 -13 342 C-12.01773438 342.3403125 -12.01773438 342.3403125 -11.015625 342.6875 C-7.01483148 344.42877801 -3.43697228 346.67906421 0.25 349 C0.9821875 349.45117188 1.714375 349.90234375 2.46875 350.3671875 C3.16484375 350.80289062 3.8609375 351.23859375 4.578125 351.6875 C5.21137695 352.08324219 5.84462891 352.47898437 6.49707031 352.88671875 C8.99700002 354.73851854 9.03495872 356.22315753 9.51953125 359.31640625 C9.41843788 366.01723664 5.12381012 371.43761337 1.6875 376.9375 C0.95432064 378.13774902 0.22239421 379.33876426 -0.50830078 380.54052734 C-2.6468262 384.04319266 -4.8201167 387.52292003 -7 391 C-7.89356201 392.43351807 -7.89356201 392.43351807 -8.80517578 393.89599609 C-10.31716291 396.31309996 -11.84026542 398.72228804 -13.375 401.125 C-13.82012939 401.82230225 -14.26525879 402.51960449 -14.72387695 403.23803711 C-17.75186514 407.87593257 -17.75186514 407.87593257 -20 409 C-26.74954267 409.6379804 -30.27736134 408.24254045 -35.8125 404.5 C-40.50630123 401.13381939 -40.50630123 401.13381939 -46 400 C-47.39013508 401.40755347 -47.39013508 401.40755347 -48.6015625 403.33203125 C-49.0869751 404.04270752 -49.5723877 404.75338379 -50.07250977 405.4855957 C-50.58483154 406.25347412 -51.09715332 407.02135254 -51.625 407.8125 C-52.70664458 409.38747487 -53.79128987 410.96039309 -54.87890625 412.53125 C-55.4114502 413.30082031 -55.94399414 414.07039063 -56.49267578 414.86328125 C-62.85870384 423.88749206 -70.4457934 431.97158773 -78 440 C-78.72832031 440.7940625 -79.45664063 441.588125 -80.20703125 442.40625 C-90.23795581 452.9768718 -103.71346341 463.68268538 -118.8046875 464.3671875 C-124.34896289 464.24968879 -128.49763781 462.50533111 -133.375 460 C-134.61044556 459.38813843 -134.61044556 459.38813843 -135.87084961 458.76391602 C-150.53170177 451.35235191 -163.02866733 441.16427654 -175 430 C-176.12728516 428.95392578 -176.12728516 428.95392578 -177.27734375 427.88671875 C-204.10289175 402.09836241 -222.62734479 362.32016532 -224.16113281 325.08862305 C-224.18061786 323.72972255 -224.19440488 322.37073096 -224.203125 321.01171875 C-224.21018463 320.27520584 -224.21724426 319.53869293 -224.22451782 318.77986145 C-224.45470307 287.71241742 -224.45470307 287.71241742 -221 274 C-220.80664062 273.21915039 -220.61328125 272.43830078 -220.4140625 271.63378906 C-214.21037428 247.42217253 -203.74064395 223.75901946 -187 205 C-186.29359375 204.1853125 -185.5871875 203.370625 -184.859375 202.53125 C-182.61423169 199.9792166 -180.32175414 197.48251973 -178 195 C-177.10667969 194.0409375 -176.21335938 193.081875 -175.29296875 192.09375 C-158.42875549 174.3920622 -134.91870059 158.90932603 -111 153 C-111.16008545 152.44852295 -111.3201709 151.8970459 -111.48510742 151.32885742 C-116.27150815 129.6799828 -109.91008127 105.10190167 -98.25 86.8125 C-84.98937742 67.91927011 -84.98937742 67.91927011 -75 65 C-56.11387048 62.01183612 -35.64442028 71.09975449 -19.69921875 80.515625 C-18.97774658 80.93803467 -18.25627441 81.36044434 -17.51293945 81.7956543 C-16.11855139 82.62190525 -14.73478553 83.46643282 -13.36401367 84.33129883 C-9.54077781 86.66953765 -9.54077781 86.66953765 -5.2265625 86.30859375 C-4.49179688 85.87675781 -3.75703125 85.44492188 -3 85 C-2.01 84.67 -1.02 84.34 0 84 C0 56.28 0 28.56 0 0 Z " fill="#CAE3F3" transform="translate(232,0)"/>
<path d="M0 0 C5.33053794 0.59884208 9.67034116 2.36860837 14.5 4.5625 C15.29245117 4.92037598 16.08490234 5.27825195 16.90136719 5.64697266 C34.64911646 13.7995102 50.00672991 24.46427552 64 38 C64.92554688 38.87398437 65.85109375 39.74796875 66.8046875 40.6484375 C89.34127897 62.41891255 103.68164341 90.67704189 111 121 C111.16371094 121.66064453 111.32742188 122.32128906 111.49609375 123.00195312 C116.61870103 144.82595358 116.62290099 172.33529323 111 194 C110.69400879 195.2362915 110.69400879 195.2362915 110.38183594 196.49755859 C107.3603475 208.52413813 103.46195819 219.86947786 98 231 C97.70399902 231.61504395 97.40799805 232.23008789 97.10302734 232.86376953 C89.20505493 249.10773549 78.58755982 263.12265463 66 276 C65.36191406 276.69996094 64.72382813 277.39992188 64.06640625 278.12109375 C51.18894146 291.91632886 28.19042386 310.42303639 8.625 311.5625 C-1.43489834 311.15044202 -10.07981726 305.82013429 -18 300 C-19.80396828 303.1606717 -20.39161198 305.90911756 -20.875 309.5 C-21.45282483 312.77871816 -21.89034346 314.81864495 -23.625 317.6875 C-26.98913308 319.54662618 -30.2572037 319.99418027 -34 319 C-38.02474253 315.98690161 -38.65781281 313.22519204 -39.4375 308.375 C-41.24125395 299.13555821 -44.01575068 291.66232574 -51.47265625 285.59375 C-55.73179277 282.90792666 -60.33596269 281.14603563 -65.0234375 279.359375 C-68 278 -68 278 -70 275 C-70.65671642 268.10447761 -70.65671642 268.10447761 -68.625 264.6875 C-64.71273761 262.17247418 -60.48238687 261.12915089 -56 260 C-60.36465095 253.04835396 -64.84121136 246.18639206 -69.44677734 239.39233398 C-72.16237252 235.35803015 -74.63105711 231.24775967 -77 227 C-78.4589426 227.47730838 -79.91713496 227.95691042 -81.375 228.4375 C-82.18710937 228.70433594 -82.99921875 228.97117187 -83.8359375 229.24609375 C-86.01031799 229.95179729 -86.01031799 229.95179729 -88 231 C-91.50037118 231.38893013 -93.40824062 231.35586723 -96.45654297 229.52270508 C-99.83947652 226.16737273 -101.17662867 222.71741694 -102.8828125 218.32421875 C-103.22375946 217.4808345 -103.56470642 216.63745026 -103.91598511 215.76850891 C-104.99935105 213.08009599 -106.06250265 210.38421946 -107.125 207.6875 C-107.84630736 205.88552718 -108.56895038 204.0840884 -109.29296875 202.28320312 C-110.62707475 198.96249968 -111.95208448 195.63842889 -113.27001953 192.3112793 C-114.36161256 189.55813197 -115.50198263 186.83712892 -116.69873047 184.12817383 C-118.12375992 180.70248858 -118.55759174 178.6641743 -118 175 C-115.83686587 171.19288393 -114.56540889 170.17657689 -110.34765625 168.859375 C-108.69056641 168.43398438 -108.69056641 168.43398438 -107 168 C-107.27263672 167.31373535 -107.54527344 166.6274707 -107.82617188 165.92041016 C-109.05430036 162.82332204 -110.27721136 159.72420004 -111.5 156.625 C-111.92925781 155.54476562 -112.35851562 154.46453125 -112.80078125 153.3515625 C-113.20683594 152.3203125 -113.61289062 151.2890625 -114.03125 150.2265625 C-114.59682617 148.79691162 -114.59682617 148.79691162 -115.17382812 147.33837891 C-116 145 -116 145 -116 143 C-116.55488098 143.00666183 -117.10976196 143.01332367 -117.68145752 143.02018738 C-123.45636196 143.08655498 -129.23115807 143.13180641 -135.00634766 143.16479492 C-137.16166586 143.17988182 -139.31695336 143.20035389 -141.47216797 143.22631836 C-144.57006404 143.26270544 -147.66755423 143.27972739 -150.765625 143.29296875 C-151.72929993 143.30845261 -152.69297485 143.32393646 -153.68585205 143.33988953 C-155.03679962 143.34022942 -155.03679962 143.34022942 -156.41503906 143.34057617 C-157.60084564 143.35056892 -157.60084564 143.35056892 -158.81060791 143.36076355 C-161.59851132 142.90137853 -162.95254751 141.92095121 -165 140 C-165.99249837 137.0225049 -166.14936356 134.98526066 -166.19287109 131.87353516 C-166.21696548 130.30643295 -166.21696548 130.30643295 -166.24154663 128.70767212 C-166.28602343 123.93988736 -166.32704304 119.17224045 -166.35009766 114.40429688 C-166.36667624 111.88825239 -166.39399082 109.37225536 -166.43212891 106.85644531 C-166.48682216 103.22956909 -166.50875922 99.60379524 -166.5234375 95.9765625 C-166.54610687 94.85246979 -166.56877625 93.72837708 -166.59213257 92.57022095 C-166.57123008 84.86178135 -166.57123008 84.86178135 -163.86694336 80.78198242 C-160.46322457 78.66636091 -158.59113348 78.41727172 -154.60546875 78.51171875 C-153.40341797 78.52783203 -152.20136719 78.54394531 -150.96289062 78.56054688 C-149.71701172 78.60244141 -148.47113281 78.64433594 -147.1875 78.6875 C-145.92228516 78.71005859 -144.65707031 78.73261719 -143.35351562 78.75585938 C-140.23447381 78.81470922 -137.11784098 78.8968863 -134 79 C-134.01160156 78.40832031 -134.02320313 77.81664062 -134.03515625 77.20703125 C-134.04417969 76.41683594 -134.05320313 75.62664062 -134.0625 74.8125 C-134.07410156 74.03519531 -134.08570313 73.25789063 -134.09765625 72.45703125 C-134 70 -134 70 -133.51586914 67.58520508 C-132.92769573 64.6376574 -132.78716358 61.82774371 -132.68359375 58.82421875 C-132.62075195 57.08881836 -132.62075195 57.08881836 -132.55664062 55.31835938 C-132.51732422 54.12017578 -132.47800781 52.92199219 -132.4375 51.6875 C-132.37272461 49.8612207 -132.37272461 49.8612207 -132.30664062 47.99804688 C-132.20078504 44.9988053 -132.09870274 41.99948409 -132 39 C-131.02160156 38.90203125 -130.04320312 38.8040625 -129.03515625 38.703125 C-120.53016151 37.7330371 -112.53519488 36.77932907 -105.75 31.125 C-105.1725 30.75375 -104.595 30.3825 -104 30 C-100.29044963 31.14915419 -97.07105147 33.05746413 -93.73657227 35.02050781 C-78.66336766 43.87511246 -56.0003251 56.13049132 -38 53 C-24.02281212 48.82239853 -15.37888242 35.92708649 -8.6875 23.6875 C-4.69664929 16.14735218 -2.24214154 8.20321977 0 0 Z " fill="#B1CADF" transform="translate(390,153)"/>
<path d="M0 0 C15.84 0 31.68 0 48 0 C48 27.72 48 55.44 48 84 C51.89448555 86.01019648 51.89448555 86.01019648 56 87 C58.56447022 85.76095283 60.89263061 84.47756802 63.3125 83 C64.76085528 82.15642713 66.21142677 81.31664914 67.6640625 80.48046875 C68.39399414 80.05942871 69.12392578 79.63838867 69.87597656 79.20458984 C85.14000198 70.5479575 105.14725112 61.86604287 123 65 C136.54734968 69.7244959 145.98033066 84.59235066 152 97 C160.37415327 116.34808267 164.30008993 139.66621976 157.1953125 160.01171875 C156.80085938 160.99785156 156.40640625 161.98398438 156 163 C155.62617188 164.01707031 155.25234375 165.03414062 154.8671875 166.08203125 C150.76856914 176.65429515 145.24368011 185.86245148 137.9375 194.5 C137.44306396 195.08765137 136.94862793 195.67530273 136.43920898 196.28076172 C131.36627522 202.08872066 125.59173627 206.57874072 117.65698242 207.17651367 C110.61795696 207.31841138 104.68241121 206.21050056 98 204.0625 C97.01032227 203.75183594 96.02064453 203.44117188 95.00097656 203.12109375 C81.92004474 198.86277054 69.28500003 193.28634367 58.2265625 185.01953125 C55.98859398 183.70770182 55.98859398 183.70770182 53.41796875 184.69921875 C50.92826501 186.03859087 48.5130755 187.46763898 46.13671875 189 C38.57961933 192.53677779 30.74585395 192.36606133 22.5625 192.375 C21.38623047 192.39949219 20.20996094 192.42398438 18.99804688 192.44921875 C10.12393551 192.478981 3.86669992 190.91366952 -3.25 185.625 C-4.1575 185.08875 -5.065 184.5525 -6 184 C-10.16686006 185.21921895 -13.72807435 187.53720967 -17.4375 189.75 C-28.05620214 195.89664567 -39.0182307 200.1686432 -50.6875 203.875 C-51.6374585 204.18574463 -52.58741699 204.49648926 -53.56616211 204.81665039 C-61.32503637 207.19071951 -69.58208218 208.81261013 -77.25 205.375 C-78.52485904 204.62402028 -79.77662048 203.83221311 -81 203 C-81.55945313 202.62230469 -82.11890625 202.24460938 -82.6953125 201.85546875 C-97.88129645 190.16579273 -106.15074664 170.91934395 -111 153 C-111.17885742 152.37915527 -111.35771484 151.75831055 -111.54199219 151.11865234 C-116.21403404 129.50672315 -109.88241957 105.05851295 -98.25 86.8125 C-84.98937742 67.91927011 -84.98937742 67.91927011 -75 65 C-56.11387048 62.01183612 -35.64442028 71.09975449 -19.69921875 80.515625 C-18.97774658 80.93803467 -18.25627441 81.36044434 -17.51293945 81.7956543 C-16.11855139 82.62190525 -14.73478553 83.46643282 -13.36401367 84.33129883 C-9.54077781 86.66953765 -9.54077781 86.66953765 -5.2265625 86.30859375 C-4.49179688 85.87675781 -3.75703125 85.44492188 -3 85 C-2.01 84.67 -1.02 84.34 0 84 C0 56.28 0 28.56 0 0 Z " fill="#FE94BC" transform="translate(232,0)"/>
<path d="M0 0 C17.44261803 12.41775787 27.42050942 33.40411266 31.3059082 53.98510742 C33.26340198 67.84787045 32.91198273 82.62629317 27.6875 95.6875 C27.31367188 96.70457031 26.93984375 97.72164063 26.5546875 98.76953125 C22.45606914 109.34179515 16.93118011 118.54995148 9.625 127.1875 C9.13056396 127.77515137 8.63612793 128.36280273 8.12670898 128.96826172 C3.05377522 134.77622066 -2.72076373 139.26624072 -10.65551758 139.86401367 C-17.69454304 140.00591138 -23.63008879 138.89800056 -30.3125 136.75 C-31.30217773 136.43933594 -32.29185547 136.12867188 -33.31152344 135.80859375 C-46.34977849 131.5641634 -61.79395849 125.81144836 -72.3125 116.6875 C-72.3125 113.30263235 -71.62848627 112.17642473 -69.9375 109.3125 C-66.80431552 103.98058956 -65.06687592 99.83342568 -65.02197266 93.57128906 C-65.00921295 92.35942932 -64.99645325 91.14756958 -64.98330688 89.89898682 C-64.98108124 88.59685242 -64.97885559 87.29471802 -64.9765625 85.953125 C-64.97012766 84.59177513 -64.96339879 83.23042663 -64.95639038 81.86907959 C-64.94443508 79.01783039 -64.94070757 76.16670217 -64.94189453 73.31542969 C-64.94209724 69.68296566 -64.9148389 66.05128827 -64.88035011 62.41901016 C-64.85797657 59.60663376 -64.85406021 56.79444324 -64.85511398 53.981987 C-64.85164198 51.99853201 -64.83004 50.01513505 -64.80801392 48.03179932 C-64.85361429 38.95754868 -66.44060852 32.71557178 -71.625 25.3125 C-72.181875 24.44625 -72.73875 23.58 -73.3125 22.6875 C-71.90428157 18.46284471 -68.91013249 17.44960587 -65.1875 15.4375 C-64.10214966 14.84424927 -64.10214966 14.84424927 -62.99487305 14.23901367 C-60.77557659 13.0390607 -58.54643077 11.85994962 -56.3125 10.6875 C-55.68972168 10.35637207 -55.06694336 10.02524414 -54.42529297 9.68408203 C-39.65011363 1.93230108 -16.10084293 -8.54889957 0 0 Z " fill="#F87DA3" transform="translate(360.3125,67.3125)"/>
<path d="M0 0 C4.63712064 2.54715078 9.2340446 5.15887145 13.81152344 7.81152344 C13.81152344 12.49376319 12.71444396 13.78289721 10.10058594 17.42089844 C6.0679194 24.89966183 6.49038668 33.13595802 6.47558594 41.40136719 C6.46892914 42.70046524 6.46227234 43.99956329 6.45541382 45.33802795 C6.44349859 48.07719246 6.43972718 50.81623137 6.44091797 53.55541992 C6.44112124 57.04319977 6.41378646 60.53016557 6.37937355 64.01775265 C6.35162831 67.37480127 6.35295249 70.73170566 6.35058594 74.08886719 C6.3362149 75.32974594 6.32184387 76.57062469 6.30703735 77.84910583 C6.34504543 85.10538237 7.19240831 90.49274156 10.81152344 96.81152344 C11.37959213 97.84665321 11.37959213 97.84665321 11.95913696 98.9026947 C12.88280652 100.55443517 13.84295165 102.1857065 14.81152344 103.81152344 C1.4142782 114.52243159 -14.82485739 120.57319573 -31.15698242 125.23046875 C-33.07670375 125.77955381 -34.98653611 126.36287784 -36.89550781 126.94824219 C-43.10657696 128.57652959 -49.5089609 128.94979287 -55.43847656 126.18652344 C-56.7133356 125.43554372 -57.96509704 124.64373655 -59.18847656 123.81152344 C-59.74792969 123.43382812 -60.30738281 123.05613281 -60.88378906 122.66699219 C-76.06977301 110.97731617 -84.33922321 91.73086739 -89.18847656 73.81152344 C-89.36733398 73.19067871 -89.54619141 72.56983398 -89.73046875 71.93017578 C-94.4025106 50.31824659 -88.07089613 25.87003639 -76.43847656 7.62402344 C-55.18400217 -22.65854198 -29.28993164 -15.90622347 0 0 Z " fill="#F87DA3" transform="translate(210.1884765625,79.1884765625)"/>
<path d="M0 0 C19.55289105 15.33505313 29.73874212 44.19991852 36 67.375 C36.31191284 68.52440063 36.31191284 68.52440063 36.63012695 69.69702148 C38.08630295 75.4483745 39.23624344 80.54624408 36.453125 86.0703125 C17.35456326 112.55094243 -6.62544276 130.89226153 -37.5625 141.5 C-38.61401245 141.86496582 -38.61401245 141.86496582 -39.68676758 142.23730469 C-45.070816 143.97963286 -50.36597626 144.61009209 -56 145 C-56.24532471 144.25766113 -56.49064941 143.51532227 -56.7434082 142.75048828 C-65.80824837 115.48689836 -75.52625582 86.85912648 -90.65820312 62.30981445 C-92 60 -92 60 -92 58 C-91.38294189 57.81002441 -90.76588379 57.62004883 -90.13012695 57.42431641 C-54.94387447 46.46620987 -23.4782196 29.16990921 0 0 Z " fill="#50B2EF" transform="translate(464,203)"/>
<path d="M0 0 C0.4021875 1.47146484 0.4021875 1.47146484 0.8125 2.97265625 C4.9575358 17.49570071 11.06881201 29.5392798 21 41 C21.43957031 41.58265625 21.87914062 42.1653125 22.33203125 42.765625 C26.10466507 47.76215675 31.10168313 51.03389438 37 53 C39.57265818 53.07029121 42.11641431 53.09370832 44.6875 53.0625 C45.38939453 53.05798828 46.09128906 53.05347656 46.81445312 53.04882812 C48.54300538 53.03706927 50.27151365 53.01913454 52 53 C49.88123258 56.89853206 47.64110374 60.57617187 45.0625 64.1875 C39.08320967 72.59259891 33.59148141 81.33465434 28 90 C34.57270628 100.49958429 41.63374245 105.45925615 53.23828125 109.859375 C56.05992902 111.02475145 58.5108098 112.22893016 61 114 C62.11331211 117.75742837 62.45759606 119.94560908 60.8828125 123.57421875 C58.48617684 126.66200038 56.56963331 127.24526017 52.875 128.4375 C40.76155506 132.74060572 32.36313397 139.80014858 26 151 C23.31922002 156.92988531 22.46923049 162.95917441 21.8203125 169.3984375 C21 172 21 172 18.65625 173.8515625 C14.97969421 175.44113221 12.80926177 175.12867016 9 174 C6.33178325 171.15390213 5.8783422 168.62478614 5.5625 164.875 C4.63425536 154.49241183 0.03901134 145.60782034 -7 138 C-13.37350814 132.73838113 -20.45839328 129.81363203 -28.25 127.23828125 C-31.26476318 125.88078135 -32.3848602 124.84832086 -34 122 C-34.6376616 118.2537381 -34.41093981 116.62401971 -32.3125 113.4375 C-28.62978123 110.13466053 -23.76158301 108.90638326 -19.18359375 107.26953125 C-15.20203861 105.68179454 -12.30867337 103.69310623 -9 101 C-12.19504932 98.31443152 -15.69490439 96.55722414 -19.39599609 94.68969727 C-36.80160849 85.89775459 -51.70554557 74.36488266 -65.5625 60.6875 C-66.29557373 59.96844482 -66.29557373 59.96844482 -67.04345703 59.23486328 C-70.20301541 56.04661174 -72.62726219 52.77963176 -75 49 C-64.37817463 37.93050489 -53.92822186 27.34686169 -41 19 C-40.38705078 18.60135742 -39.77410156 18.20271484 -39.14257812 17.79199219 C-11.45334008 0 -11.45334008 0 0 0 Z " fill="#E5F6FE" transform="translate(122,153)"/>
<path d="M0 0 C2.75961552 2.73886653 5.48618084 5.50106506 8.171875 8.3125 C25.44957981 26.22670068 45.07848583 38.58837489 67 50 C63.94791722 53.24148508 61.28518416 55.67018324 57.25 57.5625 C56.39019531 57.97242188 55.53039062 58.38234375 54.64453125 58.8046875 C51.35655209 60.29083465 48.04987816 61.72808195 44.71484375 63.10546875 C42.81373777 63.88403874 42.81373777 63.88403874 42 66 C41.52139481 70.37106001 41.52139481 70.37106001 43.640625 74.0546875 C46.37017705 76.3052122 48.70605489 77.15701423 52.0625 78.25 C60.43355301 81.30430313 69.25237118 86.16698171 74 94 C74.09331436 100.67621839 70.84917247 106.752799 68.3125 112.8125 C64.79377412 121.38180273 61.51524738 129.94980147 58.71411133 138.78051758 C57.08179753 143.91820247 57.08179753 143.91820247 56 145 C49.25522983 144.57803325 43.31484092 143.11364861 36.9375 140.9375 C36.02355469 140.62731934 35.10960938 140.31713867 34.16796875 139.99755859 C6.39698998 130.28644294 -16.93418007 111.8921479 -34 88 C-34.58910156 87.19175781 -35.17820312 86.38351562 -35.78515625 85.55078125 C-38.65524888 79.52450958 -36.55185907 73.17378938 -34.875 67.0625 C-34.53722534 65.81569458 -34.53722534 65.81569458 -34.19262695 64.54370117 C-27.74482557 41.37184587 -17.14663134 17.22770288 0 0 Z " fill="#73CDFE" transform="translate(47,203)"/>
<path d="M0 0 C0.33 0 0.66 0 1 0 C1.74669156 5.36076659 2.16853151 10.60718126 2.203125 16.0234375 C2.21018463 16.76263931 2.21724426 17.50184113 2.22451782 18.26344299 C2.44939893 48.70966883 2.44939893 48.70966883 -1 62 C-1.20399414 62.82419434 -1.40798828 63.64838867 -1.61816406 64.49755859 C-4.6396525 76.52413813 -8.53804181 87.86947786 -14 99 C-14.29600098 99.61504395 -14.59200195 100.23008789 -14.89697266 100.86376953 C-22.79494507 117.10773549 -33.41244018 131.12265463 -46 144 C-46.63808594 144.69996094 -47.27617187 145.39992188 -47.93359375 146.12109375 C-57.16352647 156.00883905 -68.81852507 163.96679333 -80.375 170.875 C-81.09421631 171.30989746 -81.81343262 171.74479492 -82.55444336 172.19287109 C-84.32247275 173.21489025 -86.15769015 174.11889529 -88 175 C-88.99 174.67 -89.98 174.34 -91 174 C-90.60167969 173.47792969 -90.20335937 172.95585937 -89.79296875 172.41796875 C-77.85683544 155.83516554 -79.6605411 132.14442802 -82.53710938 112.79296875 C-83.51411892 106.89793224 -84.68287802 101.04226729 -85.875 95.1875 C-86.11943848 93.98375732 -86.36387695 92.78001465 -86.61572266 91.53979492 C-88.10539674 84.48392796 -89.93658889 77.6703214 -92.23486328 70.83325195 C-92.9795819 68.07560691 -93.15035177 65.8387847 -93 63 C-92.11441406 62.78085937 -91.22882813 62.56171875 -90.31640625 62.3359375 C-54.52226968 53.17323449 -23.66798267 35.46516204 -2.8293457 4.11376953 C-1.90718321 2.72833563 -0.9564038 1.36202149 0 0 Z " fill="#CAE3F3" transform="translate(502,285)"/>
<path d="M0 0 C2.94082354 2.79216653 5.26442307 5.66456221 7.5625 9 C17.80787775 23.26354634 30.40154166 34.35780838 45 44 C45.77601562 44.53496094 46.55203125 45.06992187 47.3515625 45.62109375 C61.28327751 54.70378428 77.97935431 59.23043631 94 63 C92.90256803 67.99882887 91.77379588 72.98782645 90.59765625 77.96875 C87.70070917 90.26836497 84.99841387 102.52069612 83 115 C82.74198608 116.38964966 82.74198608 116.38964966 82.47875977 117.80737305 C81.62045272 123.53102485 81.77337872 129.28503275 81.75 135.0625 C81.729375 136.30966797 81.70875 137.55683594 81.6875 138.84179688 C81.63345883 151.83194384 83.6777846 162.19205931 91 173 C91.33 173.66 91.66 174.32 92 175 C74.42208152 169.69746049 60.02323236 156.40307844 47 144 C45.92298828 143.00226563 45.92298828 143.00226563 44.82421875 141.984375 C18.95974057 117.31204712 0.54937947 77.66591367 -1.09413147 41.95465088 C-1.13060292 39.84413596 -1.13873812 37.73581772 -1.1328125 35.625 C-1.13376923 34.85623535 -1.13472595 34.0874707 -1.13571167 33.29541016 C-1.13638735 31.68196531 -1.13457613 30.06851764 -1.13037109 28.45507812 C-1.12501411 26.00644742 -1.13033701 23.5580001 -1.13671875 21.109375 C-1.13605786 19.5312496 -1.13477647 17.95312432 -1.1328125 16.375 C-1.13483673 15.65393066 -1.13686096 14.93286133 -1.13894653 14.18994141 C-1.11712108 9.38248467 -0.67337432 4.76109744 0 0 Z " fill="#E5F6FE" transform="translate(9,285)"/>
<path d="M0 0 C5.33053794 0.59884208 9.67034116 2.36860837 14.5 4.5625 C15.29245117 4.92037598 16.08490234 5.27825195 16.90136719 5.64697266 C39.85620489 16.19141822 57.46864177 31.15804684 75 49 C55.49749068 77.68016077 18.78316591 100.73372761 -15 108 C-16.32 108 -17.64 108 -19 108 C-19.51046875 106.99324219 -20.0209375 105.98648438 -20.546875 104.94921875 C-28.99190422 88.52206422 -38.92198206 73.23037008 -49.69921875 58.24609375 C-52 55 -52 55 -53 53 C-52.02160156 53.04640625 -51.04320312 53.0928125 -50.03515625 53.140625 C-38.68542668 53.45310526 -31.4875244 51.88294875 -23 44 C-11.44743729 30.99884008 -4.55398794 16.6614655 0 0 Z " fill="#CAE3F3" transform="translate(390,153)"/>
<path d="M0 0 C0.66 -0.0103125 1.32 -0.020625 2 -0.03125 C5.05303503 0.77971243 6.12598221 1.95356394 8 4.5 C8.79066443 7.29692858 9.10199718 10.11778001 9.4375 13 C11.29219391 25.95688128 15.62315579 38.37673716 25.98828125 46.98046875 C31.61805284 51.15306373 37.37249617 54.47668452 44.07421875 56.6484375 C46 57.5 46 57.5 48 60.5 C48.65917603 67.42134831 48.65917603 67.42134831 46.625 70.75 C44.18805982 72.37462679 42.16338088 73.24458766 39.4375 74.25 C26.67413418 79.10685602 18.92097874 87.85269642 13.25 100 C10.86666953 105.96220783 9.90190474 112.01041622 9.16308594 118.35742188 C8.69481044 121.94387973 8.34099725 124.03664917 6.16015625 127 C3.8559734 128.60001124 2.77150472 129.04330476 0 129 C-0.99 129.01546875 -0.99 129.01546875 -2 129.03125 C-5.05303503 128.22028757 -6.12598221 127.04643606 -8 124.5 C-8.79066443 121.70307142 -9.10199718 118.88221999 -9.4375 116 C-11.33631967 102.73485643 -16.03129965 89.67888263 -26.9375 81.125 C-30.76633447 78.49867038 -34.79326201 76.44531237 -39 74.5 C-40.48251667 73.79870516 -41.96178562 73.09049788 -43.4375 72.375 C-44.42556641 71.90707031 -44.42556641 71.90707031 -45.43359375 71.4296875 C-47 70.5 -47 70.5 -48 68.5 C-48.56994819 61.43264249 -48.56994819 61.43264249 -46.625 58.25 C-43.44021615 56.12681077 -40.1693588 54.9702673 -36.59765625 53.62890625 C-25.63531028 48.86481905 -17.63510083 38.73848657 -12.8125 28.0625 C-10.67289108 22.48895083 -9.92279574 16.64565009 -9.21411133 10.74438477 C-8.72387318 7.13310632 -8.3501572 4.97627314 -6.15625 1.9921875 C-3.85487372 0.39956841 -2.76575879 -0.04321498 0 0 Z " fill="#FFD899" transform="translate(56,23.5)"/>
<path d="M0 0 C0.66 -0.0103125 1.32 -0.020625 2 -0.03125 C4.99257028 0.76365148 6.13015491 2.04930942 8 4.5 C8.8359375 7.75 8.8359375 7.75 9.375 11.5 C11.23268895 22.60271071 15.95511798 33.19824559 25.3125 39.9375 C30.24617105 43.32248507 35.39043917 45.46915963 40.99731445 47.45874023 C44.54872971 48.74844285 45.83486906 49.25230359 48 52.5 C48.67882697 59.62768316 48.67882697 59.62768316 46.35546875 62.61328125 C43.62751414 64.79835932 41.25513587 65.66965199 37.9375 66.75 C26.10384801 71.11116613 18.39655856 77.63385034 12.82421875 88.87109375 C10.37338244 94.44117628 9.32502768 99.79536274 8.6875 105.8359375 C7.83441523 109.141641 6.69041285 110.43414727 4 112.5 C2 113.03125 2 113.03125 0 113 C-0.99 113.01546875 -0.99 113.01546875 -2 113.03125 C-4.99257028 112.23634852 -6.13015491 110.95069058 -8 108.5 C-8.8359375 105.25 -8.8359375 105.25 -9.375 101.5 C-11.23268895 90.39728929 -15.95511798 79.80175441 -25.3125 73.0625 C-30.24617105 69.67751493 -35.39043917 67.53084037 -40.99731445 65.54125977 C-44.54872971 64.25155715 -45.83486906 63.74769641 -48 60.5 C-48.67882697 53.37231684 -48.67882697 53.37231684 -46.35546875 50.38671875 C-43.62751414 48.20164068 -41.25513587 47.33034801 -37.9375 46.25 C-26.10384801 41.88883387 -18.39655856 35.36614966 -12.82421875 24.12890625 C-10.37338244 18.55882372 -9.32502768 13.20463726 -8.6875 7.1640625 C-7.50173711 2.56923131 -4.83149542 -0.07549212 0 0 Z " fill="#FFD899" transform="translate(456,15.5)"/>
<path d="M0 0 C2.66440497 1.12038786 3.45633553 2.25464559 4.8671875 4.78515625 C5.42736085 7.3483737 5.87199931 9.82186085 6.2421875 12.41015625 C8.07722111 23.52993097 12.15768031 32.42576254 21.3671875 39.28515625 C26.04042876 42.46988363 30.82905489 44.64386164 36.10546875 46.64453125 C38.92711652 47.8099077 41.3779973 49.01408641 43.8671875 50.78515625 C44.98049961 54.54258462 45.32478356 56.73076533 43.75 60.359375 C41.35336434 63.44715663 39.43682081 64.03041642 35.7421875 65.22265625 C23.62874256 69.52576197 15.23032147 76.58530483 8.8671875 87.78515625 C6.18640752 93.71504156 5.33641799 99.74433066 4.6875 106.18359375 C3.8671875 108.78515625 3.8671875 108.78515625 1.5234375 110.63671875 C-2.15311829 112.22628846 -4.32355073 111.91382641 -8.1328125 110.78515625 C-10.80102925 107.93905838 -11.2544703 105.40994239 -11.5703125 101.66015625 C-12.49855714 91.27756808 -17.09380116 82.39297659 -24.1328125 74.78515625 C-30.50632064 69.52353738 -37.59120578 66.59878828 -45.3828125 64.0234375 C-48.39757568 62.6659376 -49.5176727 61.63347711 -51.1328125 58.78515625 C-51.7704741 55.03889435 -51.54375231 53.40917596 -49.4453125 50.22265625 C-46.63930127 47.71159506 -43.45438392 46.68053942 -39.9453125 45.41015625 C-28.0459806 41.06723625 -20.26767168 34.60955083 -14.8515625 23.05078125 C-13.03460422 18.45647246 -11.98082925 14.34447144 -11.6953125 9.41015625 C-11.43139595 5.81285888 -11.12784826 4.77748424 -9.0703125 1.59765625 C-5.59016279 -0.54967017 -3.92834379 -0.54263115 0 0 Z " fill="#FBBF7D" transform="translate(139.1328125,216.21484375)"/>
<path d="M0 0 C4.36192322 1.25487726 7.9179983 3.86556525 11.63574219 6.40039062 C17.2502036 10.15563695 22.81387372 13.51520359 28.89550781 16.46240234 C32.35428147 18.19964353 35.585357 20.22372088 38.82324219 22.33789062 C39.43748047 22.72783203 40.05171875 23.11777344 40.68457031 23.51953125 C45.1330955 26.39509726 45.1330955 26.39509726 46.26074219 28.65039062 C47.57526663 37.04160307 43.25854829 42.68915504 38.94824219 49.58789062 C38.21506283 50.78813964 37.4831364 51.98915489 36.75244141 53.19091797 C34.61391599 56.69358329 32.44062548 60.17331066 30.26074219 63.65039062 C29.66503418 64.60606934 29.06932617 65.56174805 28.45556641 66.54638672 C26.94357927 68.96349059 25.42047677 71.37267867 23.88574219 73.77539062 C23.44061279 74.47269287 22.9954834 75.16999512 22.53686523 75.88842773 C19.50887705 80.52632319 19.50887705 80.52632319 17.26074219 81.65039062 C10.17940916 82.38026486 6.19092623 80.50616499 0.26074219 76.77539062 C-0.51398438 76.31519531 -1.28871094 75.855 -2.08691406 75.38085938 C-6.20849774 72.87301746 -6.20849774 72.87301746 -7.73925781 71.65039062 C-7.73925781 70.99039063 -7.73925781 70.33039063 -7.73925781 69.65039062 C-8.82170776 69.24506104 -8.82170776 69.24506104 -9.92602539 68.83154297 C-14.71503512 66.82084878 -19.01208517 63.99303317 -23.42675781 61.27539062 C-24.38904297 60.69789063 -25.35132813 60.12039063 -26.34277344 59.52539062 C-27.26123047 58.96078125 -28.1796875 58.39617187 -29.12597656 57.81445312 C-29.96346436 57.30350098 -30.80095215 56.79254883 -31.66381836 56.26611328 C-33.91568161 54.51304529 -34.79003663 53.32034014 -35.73925781 50.65039062 C-35.70596314 43.94151445 -32.52669534 39.45356259 -28.98925781 34.02539062 C-27.80897472 32.17290538 -26.62930613 30.3200285 -25.45019531 28.46679688 C-24.84014648 27.51562988 -24.23009766 26.56446289 -23.6015625 25.58447266 C-21.72986146 22.63558656 -19.90366869 19.66311312 -18.09082031 16.67773438 C-17.21635254 15.24131592 -17.21635254 15.24131592 -16.32421875 13.77587891 C-15.20142274 11.92881214 -14.08216396 10.0795896 -12.96679688 8.22802734 C-12.45600586 7.39416504 -11.94521484 6.56030273 -11.41894531 5.70117188 C-10.97276855 4.96552002 -10.5265918 4.22986816 -10.06689453 3.47192383 C-7.20247248 -0.45809694 -4.59516983 -0.71792969 0 0 Z " fill="#50B2EF" transform="translate(194.7392578125,327.349609375)"/>
<path d="M0 0 C3.91288913 3.92489185 5.75830946 8.58450527 7.8203125 13.625 C8.33741287 14.8617749 8.33741287 14.8617749 8.86495972 16.12353516 C9.95926645 18.74592507 11.04223126 21.37282815 12.125 24 C12.85994105 25.7659315 13.59561088 27.53155989 14.33203125 29.296875 C15.9729118 33.23644245 17.6110212 37.17706525 19.22930908 41.12597656 C19.87452269 42.69488752 20.53307926 44.25830232 21.19482422 45.8203125 C22.40137102 49.08654957 22.43087181 51.5530255 22 55 C18.53864372 59.15660315 15.16256528 61.11294342 10.1875 63.12109375 C9.21224365 63.52195946 9.21224365 63.52195946 8.21728516 63.93092346 C6.14947295 64.77835986 4.07529946 65.60859101 2 66.4375 C-0.03747528 67.26302459 -2.07341988 68.09218676 -4.10864258 68.92324829 C-5.44987103 69.47058366 -6.7921565 70.01533616 -8.13549805 70.5574646 C-13.59116492 72.77656999 -18.86648132 75.27778045 -24.1328125 77.91821289 C-27.41886593 79.15803772 -29.51819264 79.48688735 -33 79 C-38.2814186 76.07518545 -39.79972963 71.68788222 -41.8828125 66.32421875 C-42.22375946 65.4808345 -42.56470642 64.63745026 -42.91598511 63.76850891 C-43.99935105 61.08009599 -45.06250265 58.38421946 -46.125 55.6875 C-46.84630736 53.88552718 -47.56895038 52.0840884 -48.29296875 50.28320312 C-49.62707475 46.96249968 -50.95208448 43.63842889 -52.27001953 40.3112793 C-53.36161256 37.55813197 -54.50198263 34.83712892 -55.69873047 32.12817383 C-57.12375992 28.70248858 -57.55759174 26.6641743 -57 23 C-53.68623084 17.04677517 -48.14717795 15.83112379 -42.0625 13.75 C-32.82698637 10.46833473 -23.82973048 6.90605925 -14.95336914 2.74316406 C-9.71267643 0.38297708 -5.76008858 -0.88001353 0 0 Z " fill="#50B2EE" transform="translate(329,305)"/>
<path d="M0 0 C1.73618591 -0.00006042 1.73618591 -0.00006042 3.50744629 -0.00012207 C5.95179684 0.00523347 8.39614694 0.02281732 10.84033203 0.05175781 C14.58028833 0.09359939 18.31844293 0.09282635 22.05859375 0.0859375 C24.43490834 0.09643055 26.81121365 0.10936926 29.1875 0.125 C30.3053186 0.12520142 31.42313721 0.12540283 32.5748291 0.12561035 C34.14170471 0.14947815 34.14170471 0.14947815 35.74023438 0.17382812 C37.11326721 0.18645691 37.11326721 0.18645691 38.51403809 0.19934082 C41.63433226 0.676399 43.54257635 1.76301627 46.09375 3.59375 C47.34331796 6.09288591 47.23417304 7.81015175 47.25488281 10.60668945 C47.26449036 11.65149979 47.2740979 12.69631012 47.28399658 13.77278137 C47.28824646 14.90608383 47.29249634 16.03938629 47.296875 17.20703125 C47.30257507 18.36873337 47.30827515 19.53043549 47.31414795 20.7273407 C47.32360796 23.18955573 47.33013589 25.65178348 47.33398438 28.11401367 C47.3436831 31.88027073 47.37469508 35.64598065 47.40625 39.41210938 C47.41278055 41.80208009 47.41803082 44.19205471 47.421875 46.58203125 C47.4342218 47.70926102 47.4465686 48.83649078 47.45928955 49.99787903 C47.45628845 51.05214584 47.45328735 52.10641266 47.45019531 53.19262695 C47.45566376 54.57923271 47.45566376 54.57923271 47.46124268 55.99385071 C47.01274027 59.16686932 46.00648083 61.03811993 44.09375 63.59375 C41.10007982 64.59164006 39.07986991 64.731735 35.95141602 64.75488281 C34.37947227 64.76929413 34.37947227 64.76929413 32.77577209 64.78399658 C31.64449387 64.78824646 30.51321564 64.79249634 29.34765625 64.796875 C28.18499741 64.80257507 27.02233856 64.80827515 25.82444763 64.81414795 C23.36401276 64.8235985 20.90356524 64.83013215 18.44311523 64.83398438 C14.67474403 64.84370231 10.90691532 64.87473101 7.13867188 64.90625 C4.75000324 64.9127788 2.36133071 64.91802975 -0.02734375 64.921875 C-1.15659775 64.9342218 -2.28585175 64.9465686 -3.44932556 64.95928955 C-4.50044022 64.95628845 -5.55155487 64.95328735 -6.63452148 64.95019531 C-8.01993385 64.95566376 -8.01993385 64.95566376 -9.43333435 64.96124268 C-12.40517716 64.51960591 -13.75266834 63.66308457 -15.90625 61.59375 C-16.89874837 58.6162549 -17.05561356 56.57901066 -17.09912109 53.46728516 C-17.12321548 51.90018295 -17.12321548 51.90018295 -17.14779663 50.30142212 C-17.19227343 45.53363736 -17.23329304 40.76599045 -17.25634766 35.99804688 C-17.27292624 33.48200239 -17.30024082 30.96600536 -17.33837891 28.45019531 C-17.39307216 24.82331909 -17.41500922 21.19754524 -17.4296875 17.5703125 C-17.45235687 16.44621979 -17.47502625 15.32212708 -17.49838257 14.16397095 C-17.48584185 9.53919286 -17.3915723 6.46515725 -15.11767578 2.38232422 C-10.1738313 -0.37110475 -5.56894735 -0.08168084 0 0 Z " fill="#50B2EE" transform="translate(240.90625,231.40625)"/>
<path d="M0 0 C15.84 0 31.68 0 48 0 C48 27.72 48 55.44 48 84 C45.03 83.01 42.06 82.02 39 81 C35.39736129 80.55176325 35.39736129 80.55176325 31.875 80.6015625 C29.94914062 80.59576172 29.94914062 80.59576172 27.984375 80.58984375 C26.01210938 80.60724609 26.01210938 80.60724609 24 80.625 C22.68515625 80.61339844 21.3703125 80.60179688 20.015625 80.58984375 C18.73171875 80.59371094 17.4478125 80.59757812 16.125 80.6015625 C14.97257813 80.60494629 13.82015625 80.60833008 12.6328125 80.61181641 C8.0054793 80.97543997 8.0054793 80.97543997 0 84 C0 56.28 0 28.56 0 0 Z " fill="#F97DA3" transform="translate(232,0)"/>
<path d="M0 0 C2.60239418 1.0943122 3.46723465 2.34882039 4.8671875 4.78515625 C5.38671875 7.37890625 5.38671875 7.37890625 5.6796875 10.28515625 C7.00144485 19.14743091 10.47325015 27.99617808 17.80859375 33.55078125 C21.14328104 35.55032809 24.63338847 37.11461826 28.21875 38.609375 C30.95580747 39.82449933 33.41574992 41.06054841 35.8671875 42.78515625 C36.9841244 46.55481828 37.33573574 48.73132249 35.72265625 52.359375 C33.44177084 55.34133256 31.69765261 55.99294501 28.1796875 57.22265625 C20.58819618 60.17490288 14.15662323 63.83050376 9.94921875 71.03515625 C8.127042 75.66624807 7.23884706 80.54455795 6.38574219 85.43847656 C5.53689624 89.9920807 4.87395304 92.99144817 0.8671875 95.78515625 C-1.1328125 96.31640625 -1.1328125 96.31640625 -3.1328125 96.28515625 C-4.1228125 96.300625 -4.1228125 96.300625 -5.1328125 96.31640625 C-8.10990185 95.52561689 -9.26078546 94.20964987 -11.1328125 91.78515625 C-12.00390625 88.68359375 -12.00390625 88.68359375 -12.5703125 85.16015625 C-14.37406645 75.92071446 -17.14856318 68.44748199 -24.60546875 62.37890625 C-28.86460527 59.69308291 -33.46877519 57.93119188 -38.15625 56.14453125 C-41.1328125 54.78515625 -41.1328125 54.78515625 -43.1328125 51.78515625 C-43.81120599 44.66202458 -43.81120599 44.66202458 -41.50390625 41.6796875 C-38.7124438 39.44927681 -36.20629374 38.53218529 -32.8203125 37.41015625 C-22.99606704 33.75078965 -18.83294249 29.5263191 -14.3359375 20.0234375 C-13.12131692 16.75421522 -12.52971884 13.79745758 -12.0703125 10.34765625 C-11.5474724 6.47965476 -11.17077915 4.84433956 -9.0078125 1.47265625 C-5.58526052 -0.53623296 -3.82822164 -0.52880104 0 0 Z " fill="#FBBF7C" transform="translate(363.1328125,376.21484375)"/>
<path d="M0 0 C2.5 1.5 2.5 1.5 4 4 C4.4543552 7.18048637 4.70229445 8.98673662 4 12 C1.75 14.8125 1.75 14.8125 -1 17 C-1.721875 17.598125 -2.44375 18.19625 -3.1875 18.8125 C-5 20 -5 20 -7 20 C-7.309375 20.78375 -7.61875 21.5675 -7.9375 22.375 C-9 25 -9 25 -10 27 C-10.71183776 33.5251795 -9.1138033 37.65623273 -6.19140625 43.484375 C-2.52449631 51.22696517 -2.92565445 60.70942292 -5.5 68.75 C-8.74998284 76.60031066 -14.59026813 82.9955654 -21.984375 87.1875 C-25.61535092 88.65114921 -28.11111248 88.58333313 -32 88 C-34.5 86.5 -34.5 86.5 -36 84 C-36.4543552 80.81951363 -36.70229445 79.01326338 -36 76 C-33.75 73.1875 -33.75 73.1875 -31 71 C-30.278125 70.401875 -29.55625 69.80375 -28.8125 69.1875 C-27 68 -27 68 -25 68 C-24.690625 67.21625 -24.38125 66.4325 -24.0625 65.625 C-23 63 -23 63 -22 61 C-21.28816224 54.4748205 -22.8861967 50.34376727 -25.80859375 44.515625 C-29.47550369 36.77303483 -29.07434555 27.29057708 -26.5 19.25 C-23.25001716 11.39968934 -17.40973187 5.0044346 -10.015625 0.8125 C-6.38464908 -0.65114921 -3.88888752 -0.58333313 0 0 Z " fill="#F97CA3" transform="translate(236,424)"/>
<path d="M0 0 C7.30780667 1.8519784 14.32424308 8.27164523 18.28125 14.578125 C22.6072287 22.98674609 24.12183193 32.25650016 21.4453125 41.44921875 C20.48288679 43.88422815 19.41839786 46.22082579 18.28125 48.578125 C16.30236239 53.07749052 15.59973422 56.69886708 16.28125 61.578125 C17.67010248 64.39593034 17.67010248 64.39593034 19.28125 66.578125 C19.28125 67.238125 19.28125 67.898125 19.28125 68.578125 C19.8175 68.825625 20.35375 69.073125 20.90625 69.328125 C28.70982143 73.43526786 28.70982143 73.43526786 30.28125 76.578125 C30.84997038 83.6302577 30.84997038 83.6302577 28.78125 87.078125 C26.00128509 88.74610394 23.81659793 89.32624019 20.5625 89.15625 C13.25469333 87.3042716 6.23825692 80.88460477 2.28125 74.578125 C-2.0447287 66.16950391 -3.55933193 56.89974984 -0.8828125 47.70703125 C0.07961321 45.27202185 1.14410214 42.93542421 2.28125 40.578125 C4.26013761 36.07875948 4.96276578 32.45738292 4.28125 27.578125 C2.89239752 24.76031966 2.89239752 24.76031966 1.28125 22.578125 C1.28125 21.918125 1.28125 21.258125 1.28125 20.578125 C0.745 20.330625 0.20875 20.083125 -0.34375 19.828125 C-8.14732143 15.72098214 -8.14732143 15.72098214 -9.71875 12.578125 C-10.28747038 5.5259923 -10.28747038 5.5259923 -8.21875 2.078125 C-5.43878509 0.41014606 -3.25409793 -0.16999019 0 0 Z " fill="#F97CA3" transform="translate(281.71875,399.421875)"/>
</svg>
