<?xml version="1.0" encoding="UTF-8"?>
<svg version="1.1" xmlns="http://www.w3.org/2000/svg" width="512" height="512">
<path d="M0 0 C1.57982017 -0.00543108 3.15963526 -0.01255924 4.73944092 -0.02124023 C8.99985097 -0.03935951 13.25987033 -0.03245363 17.52028656 -0.01972389 C21.99677009 -0.00953673 26.47322206 -0.01900534 30.94970703 -0.02526855 C38.46457878 -0.03252841 45.97929286 -0.02300105 53.49414062 -0.00390625 C62.15968781 0.01785931 70.82485843 0.01080676 79.4903965 -0.01121187 C86.95487992 -0.0294134 94.41925054 -0.03190104 101.88374901 -0.0214572 C106.3312738 -0.0152483 110.77862208 -0.01431438 115.22613525 -0.02760315 C119.40916663 -0.03923055 123.59171652 -0.0310115 127.77469635 -0.00802612 C129.30200657 -0.00277556 130.82935792 -0.00418954 132.35665131 -0.01307678 C145.67825696 -0.08339723 156.18342282 2.0941591 166.0546875 11.51757812 C175.73537662 21.6583396 177.65680204 32.33393888 177.57226562 45.99414062 C177.57769857 47.41632805 177.58482776 48.83850983 177.59350586 50.26068115 C177.61160321 54.09136749 177.60472864 57.92161863 177.59198952 61.75231171 C177.58179073 65.78036078 177.59127414 69.80837509 177.59753418 73.83642578 C177.60479072 80.59804911 177.59527552 87.3594971 177.57617188 94.12109375 C177.55440688 101.91415015 177.56145968 109.7067878 177.5834775 117.49983406 C177.60168862 124.21698121 177.60416204 130.93400303 177.59372282 137.65116692 C177.58751913 141.65156787 177.58656532 145.65177266 177.59986877 149.65216064 C177.61151038 153.41497435 177.60325212 157.1772535 177.58029175 160.94001007 C177.57256773 162.96193223 177.5842892 164.98390014 177.59680176 167.00579834 C177.48517066 179.15624522 174.53519666 188.63403487 166.0546875 197.51757812 C150.6700476 212.20423815 134.39719809 208.51757812 113.0546875 208.51757812 C113.0546875 308.83757812 113.0546875 409.15757812 113.0546875 512.51757812 C108.36938717 511.58051806 104.54557296 510.09173565 100.2578125 508.11523438 C99.48914856 507.76633652 98.72048462 507.41743866 97.92852783 507.05796814 C96.26134104 506.3008271 94.59517896 505.54142651 92.92993164 504.7800293 C88.40902127 502.7136037 83.88007763 500.66492771 79.3515625 498.61523438 C77.94596069 497.97843246 77.94596069 497.97843246 76.51196289 497.32876587 C66.89431279 492.9785675 57.22785884 488.74249392 47.5546875 484.51757812 C31.06304565 477.30889316 14.63428265 469.96752612 -1.7638855 462.54879761 C-4.02706794 461.52714435 -6.29290869 460.51158023 -8.55908203 459.49658203 C-11.53259106 458.163076 -14.48824874 456.79697604 -17.43701172 455.40966797 C-18.86547103 454.75143473 -20.29401549 454.09338621 -21.72265625 453.43554688 C-22.36465469 453.12523026 -23.00665314 452.81491364 -23.66810608 452.49519348 C-27.91377136 450.56502546 -30.48154796 450.19643875 -34.9453125 451.51757812 C-37.94929269 452.65965545 -40.86839249 453.95625317 -43.79296875 455.28710938 C-44.66026108 455.67493088 -45.52755341 456.06275238 -46.42112732 456.46232605 C-49.28626781 457.745191 -52.146951 459.0377025 -55.0078125 460.33007812 C-57.03091868 461.23771802 -59.05436205 462.14460669 -61.078125 463.05078125 C-65.28402959 464.93474966 -69.48846157 466.82194957 -73.69189453 468.71142578 C-82.34424164 472.59782638 -91.0140081 476.44487146 -99.68389893 480.29193115 C-104.29925261 482.34044512 -108.91320366 484.39211373 -113.52734375 486.44335938 C-120.51312495 489.54838907 -127.49944146 492.65221143 -134.48617554 495.75509644 C-138.68880382 497.62157293 -142.89128299 499.48838503 -147.09375 501.35522461 C-149.10881181 502.25025005 -151.12394772 503.14510868 -153.13916016 504.03979492 C-155.92238471 505.2754647 -158.70536001 506.51169419 -161.48828125 507.74804688 C-162.73480721 508.3011982 -162.73480721 508.3011982 -164.0065155 508.86552429 C-168.00394002 510.63154899 -168.00394002 510.63154899 -171.9453125 512.51757812 C-177.53315819 513.12418967 -181.35691506 511.32235655 -186.27734375 508.99414062 C-187.49494133 508.43530937 -187.49494133 508.43530937 -188.73713684 507.8651886 C-190.49385019 507.0576356 -192.24824786 506.24503014 -194.00054932 505.427948 C-198.73605493 503.22036902 -203.48862751 501.04997151 -208.23828125 498.87304688 C-209.21486694 498.42411575 -210.19145264 497.97518463 -211.19763184 497.51264954 C-220.93740771 493.04208356 -230.74683047 488.73773677 -240.5703125 484.45507812 C-256.16994126 477.64212218 -271.71390205 470.71239102 -287.22705078 463.70483398 C-288.0119841 463.35034683 -288.79691742 462.99585968 -289.6056366 462.63063049 C-291.022031 461.99067133 -292.43818175 461.3501723 -293.85395813 460.70884705 C-302.19899091 456.93558461 -310.57564686 453.23742952 -318.9453125 449.51757812 C-318.9453125 338.30757812 -318.9453125 227.09757812 -318.9453125 112.51757812 C-314.26001217 113.45463819 -310.43619796 114.9434206 -306.1484375 116.91992188 C-304.99544159 117.44326866 -304.99544159 117.44326866 -303.81915283 117.97718811 C-302.15196604 118.73432915 -300.48580396 119.49372974 -298.82055664 120.25512695 C-294.29964627 122.32155255 -289.77070263 124.37022854 -285.2421875 126.41992188 C-284.30511963 126.84445648 -283.36805176 127.26899109 -282.40258789 127.70639038 C-272.78493779 132.05658875 -263.11848384 136.29266233 -253.4453125 140.51757812 C-236.95367065 147.72626309 -220.52490765 155.06763013 -204.1267395 162.48635864 C-201.86355706 163.5080119 -199.59771631 164.52357602 -197.33154297 165.53857422 C-194.35803394 166.87208025 -191.40237626 168.23818021 -188.45361328 169.62548828 C-187.02515397 170.28372152 -185.59660951 170.94177004 -184.16796875 171.59960938 C-183.20497108 172.0650843 -183.20497108 172.0650843 -182.22251892 172.53996277 C-177.97685364 174.47013079 -175.40907704 174.8387175 -170.9453125 173.51757812 C-167.94133179 172.3755006 -165.02223247 171.07890458 -162.09765625 169.74804688 C-160.79583405 169.16590675 -160.79583405 169.16590675 -159.4677124 168.57200623 C-156.60317774 167.28939269 -153.74308916 165.99715566 -150.8828125 164.70507812 C-148.86923124 163.80182499 -146.85530953 162.89933046 -144.84106445 161.99755859 C-140.6446433 160.11806888 -136.4497179 158.23529835 -132.25585938 156.35009766 C-122.39389608 151.91979156 -112.5133047 147.53136381 -102.6328125 143.14257812 C-101.70156555 142.72877899 -100.7703186 142.31497986 -99.81085205 141.88864136 C-88.00215459 136.64183261 -76.19300221 131.39580393 -64.36416626 126.19451904 C-62.97346464 125.58251442 -61.58329574 124.96929765 -60.19369507 124.35479736 C-58.31689861 123.5252865 -56.43781388 122.70095853 -54.55859375 121.87695312 C-53.51485596 121.41772461 -52.47111816 120.95849609 -51.39575195 120.48535156 C-48.9453125 119.51757812 -48.9453125 119.51757812 -46.9453125 119.51757812 C-46.95419495 118.43953415 -46.96307739 117.36149017 -46.972229 116.2507782 C-47.0535658 106.055976 -47.11339793 95.86124024 -47.15256119 85.66618633 C-47.1733728 80.42567534 -47.20157236 75.18542778 -47.24707031 69.94506836 C-47.29075809 64.88110096 -47.31449786 59.81738582 -47.32482147 54.7532444 C-47.33217186 52.82807257 -47.3465248 50.90291343 -47.36823273 48.97784996 C-47.52715284 34.29122962 -46.58080972 22.65852471 -35.9453125 11.51757812 C-25.38187679 1.43339091 -14.08149767 -0.08193949 0 0 Z " fill="#73CDFE" transform="translate(326.9453125,-0.517578125)"/>
<path d="M0 0 C41.70676881 13.52651961 41.70676881 13.52651961 60.08249664 19.8117485 C66.93091416 22.14973149 73.7882469 24.46151274 80.64345169 26.77950096 C86.59698791 28.79421554 92.54744001 30.81735577 98.49267578 32.85644531 C104.35783436 34.86748284 110.23005375 36.85647681 116.10771942 38.83064651 C118.31915146 39.57780905 120.52791324 40.33292709 122.73377228 41.09638596 C125.79144928 42.15348422 128.85737144 43.1820797 131.92675781 44.20458984 C132.81809921 44.5202037 133.70944061 44.83581757 134.62779236 45.16099548 C140.8028768 47.1725036 144.87331033 47.01975775 151 45 C151.96422001 44.6963899 152.92844002 44.39277981 153.92187881 44.07996941 C157.38522603 42.96061576 160.8283813 41.7904786 164.27148438 40.61035156 C165.58808351 40.16300194 166.90484543 39.71613114 168.22175598 39.2696991 C171.04125107 38.31324272 173.85987909 37.35428759 176.67793274 36.39359283 C181.13944087 34.87361611 185.6046227 33.36464699 190.07067871 31.85809326 C190.82674172 31.60298579 191.58280473 31.34787833 192.36177874 31.08504033 C193.90680181 30.56372583 195.45183006 30.04242665 196.99686337 29.52114248 C207.381781 26.01659689 217.76382783 22.50389802 228.13720703 18.96533203 C235.15244731 16.57238933 242.17292555 14.19557092 249.19978762 11.83696532 C252.91144136 10.59039399 256.61991529 9.33576731 260.32206726 8.06122589 C263.80252762 6.86310849 267.28949574 5.68635202 270.78247643 4.52526283 C272.6644488 3.89357449 274.5388664 3.23951481 276.41291809 2.58470154 C283.45924531 0.26961681 288.01698368 -0.50838798 295 2 C295.96669302 2.30217123 296.93338604 2.60434246 297.92937279 2.91567039 C301.42871769 4.01597061 304.90519335 5.17420991 308.38256836 6.34204102 C309.71055603 6.78443949 311.03867461 7.22644517 312.36691284 7.66809082 C315.94834964 8.86020267 319.52790678 10.05786623 323.10710979 11.25666547 C326.85941099 12.51246778 330.61334675 13.76336562 334.36708069 15.01487732 C340.66150148 17.11424515 346.95478834 19.21698185 353.24731445 21.32202148 C361.32897257 24.02555987 369.41249092 26.7234912 377.49660397 29.41967869 C384.45061363 31.73900701 391.40376959 34.06089072 398.35678792 36.38318896 C400.59183433 37.12957099 402.82699814 37.87560062 405.06217766 38.62158394 C408.56669023 39.79138349 412.07066742 40.96277313 415.57423019 42.13541412 C417.47711122 42.77193877 419.38047939 43.40700652 421.28385925 44.04203796 C422.97233978 44.60771988 422.97233978 44.60771988 424.69493103 45.18482971 C425.6769345 45.51315576 426.65893797 45.8414818 427.67069912 46.17975712 C430 47 430 47 432 48 C432 87.6 432 127.2 432 168 C427.31469967 167.06293993 423.49088546 165.57415753 419.203125 163.59765625 C418.43446106 163.24875839 417.66579712 162.89986053 416.87384033 162.54039001 C415.20665354 161.78324898 413.54049146 161.02384838 411.87524414 160.26245117 C407.35433377 158.19602557 402.82539013 156.14734958 398.296875 154.09765625 C397.35980713 153.67312164 396.42273926 153.24858704 395.45727539 152.81118774 C385.83962529 148.46098938 376.17317134 144.22491579 366.5 140 C350.00835815 132.79131504 333.57959515 125.449948 317.181427 118.03121948 C314.91824456 117.00956622 312.65240381 115.9940021 310.38623047 114.97900391 C307.41272144 113.64549788 304.45706376 112.27939792 301.50830078 110.89208984 C300.07984147 110.2338566 298.65129701 109.57580808 297.22265625 108.91796875 C296.58065781 108.60765213 295.93865936 108.29733551 295.27720642 107.97761536 C291.03154114 106.04744733 288.46376454 105.67886062 284 107 C280.99601981 108.14207733 278.07692001 109.43867505 275.15234375 110.76953125 C274.28505142 111.15735275 273.41775909 111.54517426 272.52418518 111.94474792 C269.65904469 113.22761287 266.7983615 114.52012438 263.9375 115.8125 C261.91439382 116.7201399 259.89095045 117.62702857 257.8671875 118.53320312 C253.66128291 120.41717153 249.45685093 122.30437145 245.25341797 124.19384766 C236.60107086 128.08024826 227.9313044 131.92729333 219.26141357 135.77435303 C214.64605989 137.82286699 210.03210884 139.87453561 205.41796875 141.92578125 C198.43218755 145.03081095 191.44587104 148.13463331 184.45913696 151.23751831 C180.25650868 153.1039948 176.05402951 154.97080691 171.8515625 156.83764648 C169.83650069 157.73267193 167.82136478 158.62753055 165.80615234 159.5222168 C163.02292779 160.75788657 160.23995249 161.99411606 157.45703125 163.23046875 C156.62601395 163.5992363 155.79499664 163.96800385 154.938797 164.34794617 C150.94137248 166.11397086 150.94137248 166.11397086 147 168 C141.41215431 168.60661154 137.58839744 166.80477843 132.66796875 164.4765625 C131.85623703 164.10400833 131.04450531 163.73145416 130.20817566 163.34761047 C128.45146231 162.54005747 126.69706464 161.72745202 124.94476318 160.91036987 C120.20925757 158.70279089 115.45668499 156.53239338 110.70703125 154.35546875 C109.73044556 153.90653763 108.75385986 153.45760651 107.74768066 152.99507141 C98.00790479 148.52450544 88.19848203 144.22015865 78.375 139.9375 C62.77537124 133.12454406 47.23141045 126.19481289 31.71826172 119.18725586 C30.54086174 118.65552513 30.54086174 118.65552513 29.3396759 118.11305237 C27.9232815 117.4730932 26.50713075 116.83259417 25.09135437 116.19126892 C16.74632159 112.41800648 8.36966564 108.7198514 0 105 C0 70.35 0 35.7 0 0 Z " fill="#50B2EE" transform="translate(8,344)"/>
<path d="M0 0 C1.57982017 -0.00543108 3.15963526 -0.01255924 4.73944092 -0.02124023 C8.99985097 -0.03935951 13.25987033 -0.03245363 17.52028656 -0.01972389 C21.99677009 -0.00953673 26.47322206 -0.01900534 30.94970703 -0.02526855 C38.46457878 -0.03252841 45.97929286 -0.02300105 53.49414062 -0.00390625 C62.15968781 0.01785931 70.82485843 0.01080676 79.4903965 -0.01121187 C86.95487992 -0.0294134 94.41925054 -0.03190104 101.88374901 -0.0214572 C106.3312738 -0.0152483 110.77862208 -0.01431438 115.22613525 -0.02760315 C119.40916663 -0.03923055 123.59171652 -0.0310115 127.77469635 -0.00802612 C129.30200657 -0.00277556 130.82935792 -0.00418954 132.35665131 -0.01307678 C145.67825696 -0.08339723 156.18342282 2.0941591 166.0546875 11.51757812 C175.73537662 21.6583396 177.65680204 32.33393888 177.57226562 45.99414062 C177.57769857 47.41632805 177.58482776 48.83850983 177.59350586 50.26068115 C177.61160321 54.09136749 177.60472864 57.92161863 177.59198952 61.75231171 C177.58179073 65.78036078 177.59127414 69.80837509 177.59753418 73.83642578 C177.60479072 80.59804911 177.59527552 87.3594971 177.57617188 94.12109375 C177.55440688 101.91415015 177.56145968 109.7067878 177.5834775 117.49983406 C177.60168862 124.21698121 177.60416204 130.93400303 177.59372282 137.65116692 C177.58751913 141.65156787 177.58656532 145.65177266 177.59986877 149.65216064 C177.61151038 153.41497435 177.60325212 157.1772535 177.58029175 160.94001007 C177.57256773 162.96193223 177.5842892 164.98390014 177.59680176 167.00579834 C177.48517066 179.15624522 174.53519666 188.63403487 166.0546875 197.51757812 C157.16187949 206.00693171 147.89638963 208.99025875 135.72877216 208.73013878 C134.17218155 208.683728 132.61574075 208.63204142 131.05948448 208.57551956 C128.57189665 208.49223187 126.08635263 208.44769275 123.59761047 208.41488647 C116.53088393 208.3216725 109.46729815 208.2147207 102.40454102 207.95214844 C81.84897275 206.17757823 81.84897275 206.17757823 63.70263672 213.36987305 C60.52511561 217.02112865 58.2226988 220.91158239 56.16891479 225.28056335 C54.45313634 228.72530192 52.17492277 231.55481922 49.8046875 234.58007812 C49.11890625 235.51980469 48.433125 236.45953125 47.7265625 237.42773438 C45.58188734 240.10857833 44.6441512 240.43898296 41.2421875 240.89257812 C35.76275374 240.24793886 32.98637064 235.50033218 29.71484375 231.37304688 C28.51204836 229.81982041 27.31290576 228.26375931 26.1171875 226.70507812 C25.52228516 225.93615234 24.92738281 225.16722656 24.31445312 224.375 C23.72470703 223.61123047 23.13496094 222.84746094 22.52734375 222.06054688 C21.93630859 221.30845947 21.34527344 220.55637207 20.73632812 219.78149414 C19.0546875 217.51757812 19.0546875 217.51757812 17.68554688 215.18920898 C15.66894822 211.89979707 14.36410048 209.86497341 10.53051758 208.84790039 C7.46997093 208.60976882 4.49785961 208.61509478 1.4296875 208.70507812 C-0.72793104 208.69294304 -2.88551961 208.67221297 -5.04296875 208.64257812 C-6.06793457 208.63226563 -7.09290039 208.62195313 -8.14892578 208.61132812 C-16.58262699 208.32858487 -22.5992399 205.7153339 -29.9453125 201.51757812 C-30.2753125 219.66757813 -30.6053125 237.81757813 -30.9453125 256.51757812 C-37.8134375 256.67226563 -37.8134375 256.67226563 -44.8203125 256.83007812 C-46.9547583 256.89835815 -46.9547583 256.89835815 -49.13232422 256.96801758 C-58.04051056 257.06453435 -65.10897186 255.95234087 -71.84472656 249.77587891 C-77.75427364 243.50050272 -79.54341629 236.94692146 -79.2890625 228.44726562 C-78.38706662 220.75980072 -73.89256509 215.21578277 -67.9453125 210.51757812 C-62.92915007 207.59525688 -57.74207909 205.08390106 -52.5078125 202.58007812 C-51.09375833 201.89063958 -49.68034042 201.19989443 -48.26757812 200.5078125 C-44.83397429 198.82924456 -41.39224031 197.16860082 -37.9453125 195.51757812 C-38.42742187 194.59976563 -38.90953125 193.68195313 -39.40625 192.73632812 C-40.04470742 191.4969696 -40.68270352 190.25737336 -41.3203125 189.01757812 C-41.63742187 188.416875 -41.95453125 187.81617188 -42.28125 187.19726562 C-42.590625 186.59140625 -42.9 185.98554688 -43.21875 185.36132812 C-43.50153809 184.81669922 -43.78432617 184.27207031 -44.07568359 183.7109375 C-47.2306319 175.75359455 -47.24182809 168.2171518 -47.23583984 159.7487793 C-47.24183327 158.36644633 -47.24864067 156.9841167 -47.25619507 155.60179138 C-47.27377924 151.86609037 -47.27854722 148.13048113 -47.27982664 144.39474273 C-47.28125308 142.05549857 -47.28553196 139.71627738 -47.29082108 137.37703896 C-47.30929608 129.20113278 -47.31749484 121.02529159 -47.31591797 112.84936523 C-47.31471717 105.25236848 -47.33581385 97.65565609 -47.3674053 90.05873126 C-47.39363528 83.51576355 -47.40428246 76.97288834 -47.40300715 70.42986852 C-47.4024995 66.53111297 -47.4080728 62.63261043 -47.42936325 58.7339077 C-47.4488597 55.06392093 -47.44879334 51.39442559 -47.43432999 47.72442055 C-47.43127322 45.75253517 -47.447838 43.78064912 -47.46520996 41.80883789 C-47.38082845 29.75489292 -44.35016915 20.32187351 -35.9453125 11.51757812 C-25.38187679 1.43339091 -14.08149767 -0.08193949 0 0 Z " fill="#FB6F68" transform="translate(326.9453125,-0.517578125)"/>
<path d="M0 0 C20.01016984 6.39205062 39.9523507 12.9667823 59.83903503 19.73357391 C66.76993179 22.08972079 73.70508339 24.43333063 80.63976288 26.7783165 C86.59455532 28.79334811 92.54621841 30.81693678 98.49267578 32.85644531 C104.35783436 34.86748284 110.23005375 36.85647681 116.10771942 38.83064651 C118.31915146 39.57780905 120.52791324 40.33292709 122.73377228 41.09638596 C125.79144928 42.15348422 128.85737144 43.1820797 131.92675781 44.20458984 C132.81809921 44.5202037 133.70944061 44.83581757 134.62779236 45.16099548 C140.8028768 47.1725036 144.87331033 47.01975775 151 45 C151.96422001 44.6963899 152.92844002 44.39277981 153.92187881 44.07996941 C157.38522603 42.96061576 160.8283813 41.7904786 164.27148438 40.61035156 C165.58808351 40.16300194 166.90484543 39.71613114 168.22175598 39.2696991 C171.04125107 38.31324272 173.85987909 37.35428759 176.67793274 36.39359283 C181.13944087 34.87361611 185.6046227 33.36464699 190.07067871 31.85809326 C190.82674172 31.60298579 191.58280473 31.34787833 192.36177874 31.08504033 C193.90680181 30.56372583 195.45183006 30.04242665 196.99686337 29.52114248 C207.381781 26.01659689 217.76382783 22.50389802 228.13720703 18.96533203 C235.15244731 16.57238933 242.17292555 14.19557092 249.19978762 11.83696532 C252.91144136 10.59039399 256.61991529 9.33576731 260.32206726 8.06122589 C263.80252762 6.86310849 267.28949574 5.68635202 270.78247643 4.52526283 C272.6644488 3.89357449 274.5388664 3.23951481 276.41291809 2.58470154 C283.45924531 0.26961681 288.01698368 -0.50838798 295 2 C295.96669302 2.30217123 296.93338604 2.60434246 297.92937279 2.91567039 C301.42871769 4.01597061 304.90519335 5.17420991 308.38256836 6.34204102 C309.71055603 6.78443949 311.03867461 7.22644517 312.36691284 7.66809082 C315.94834964 8.86020267 319.52790678 10.05786623 323.10710979 11.25666547 C326.85941099 12.51246778 330.61334675 13.76336562 334.36708069 15.01487732 C340.66150148 17.11424515 346.95478834 19.21698185 353.24731445 21.32202148 C361.32897257 24.02555987 369.41249092 26.7234912 377.49660397 29.41967869 C384.45061363 31.73900701 391.40376959 34.06089072 398.35678792 36.38318896 C400.59183433 37.12957099 402.82699814 37.87560062 405.06217766 38.62158394 C408.56669023 39.79138349 412.07066742 40.96277313 415.57423019 42.13541412 C417.47711122 42.77193877 419.38047939 43.40700652 421.28385925 44.04203796 C422.97233978 44.60771988 422.97233978 44.60771988 424.69493103 45.18482971 C425.6769345 45.51315576 426.65893797 45.8414818 427.67069912 46.17975712 C430 47 430 47 432 48 C432 69.12 432 90.24 432 112 C419.62817662 108.62586635 419.62817662 108.62586635 414.72653198 106.95536804 C413.61374878 106.57813095 412.50096558 106.20089386 411.35446167 105.81222534 C410.17385162 105.40843658 408.99324158 105.00464783 407.77685547 104.58862305 C406.48947587 104.15110103 405.20197633 103.7139318 403.91436768 103.27708435 C401.16450055 102.34380299 398.4151792 101.40893709 395.66619492 100.4730587 C391.31329439 98.99214278 386.95734396 97.52034915 382.60061646 96.05073547 C381.49298441 95.67706102 381.49298441 95.67706102 380.36297596 95.29583758 C378.85443557 94.78695726 377.34588434 94.27810911 375.83732247 93.76929247 C365.71080703 90.35363988 355.58606311 86.93315874 345.47119141 83.4831543 C338.62368055 81.14766314 331.77095793 78.82825024 324.91177285 76.52726203 C321.290745 75.31185441 317.67285155 74.08852785 314.06121445 72.84546471 C310.66773798 71.67764175 307.26775624 70.53125252 303.86173248 69.40056801 C302.02749844 68.78557524 300.20080432 68.14823407 298.3744812 67.51013184 C291.41008556 65.22584225 286.90132176 64.5275795 280 67 C279.03950682 67.30485919 278.07901363 67.60971838 277.0894146 67.92381573 C273.62043496 69.03701996 270.17490176 70.20839613 266.72851562 71.38964844 C265.41191649 71.83699806 264.09515457 72.28386886 262.77824402 72.7303009 C259.95874893 73.68675728 257.14012091 74.64571241 254.32206726 75.60640717 C249.86055913 77.12638389 245.3953773 78.63535301 240.92932129 80.14190674 C240.17325828 80.39701421 239.41719527 80.65212167 238.63822126 80.91495967 C237.09319819 81.43627417 235.54816994 81.95757335 234.00313663 82.47885752 C223.618219 85.98340311 213.23617217 89.49610198 202.86279297 93.03466797 C195.84755269 95.42761067 188.82707445 97.80442908 181.80021238 100.16303468 C178.08855864 101.40960601 174.38008471 102.66423269 170.67793274 103.93877411 C167.19747238 105.13689151 163.71050426 106.31364798 160.21752357 107.47473717 C158.3355512 108.10642551 156.4611336 108.76048519 154.58708191 109.41529846 C147.54015252 111.73058104 142.9835944 112.50755588 136 110 C135.03236473 109.69782877 134.06472946 109.39565754 133.06777191 109.08432961 C129.56412625 107.9839828 126.08329134 106.82575684 122.6015625 105.65795898 C121.27195042 105.21556571 119.94220939 104.77355986 118.61235046 104.33190918 C115.02683189 103.13985176 111.44320342 101.94220686 107.85995865 100.74333453 C104.10445925 99.48771295 100.34740826 98.23674989 96.59057617 96.98512268 C90.29192292 94.88586511 83.99447093 92.78303618 77.69775391 90.67797852 C70.41174106 88.24222994 63.12396196 85.81182738 55.83520126 83.38431495 C48.81885853 81.04742884 41.80365134 78.70715277 34.78900146 76.36519051 C31.80371545 75.36854476 28.81805401 74.37303546 25.83209229 73.37841606 C22.32468656 72.2099065 18.81828836 71.03842284 15.31266212 69.86458588 C13.40634772 69.22704938 11.49904475 68.59247124 9.59172058 67.95796204 C8.46744156 67.58084076 7.34316254 67.20371948 6.18481445 66.81517029 C4.71042656 66.32268122 4.71042656 66.32268122 3.20625305 65.82024288 C1 65 1 65 0 64 C-0.09405142 62.0056827 -0.11743249 60.00800457 -0.11352539 58.01147461 C-0.11344986 56.73022202 -0.11337433 55.44896942 -0.11329651 54.12889099 C-0.10818909 52.72004152 -0.10297309 51.31119244 -0.09765625 49.90234375 C-0.09579202 48.46887766 -0.09436814 47.03541093 -0.09336853 45.60194397 C-0.08954372 41.82240043 -0.07971377 38.0428951 -0.06866455 34.2633667 C-0.05844963 30.40930702 -0.05387074 26.55524118 -0.04882812 22.70117188 C-0.03809146 15.13409713 -0.02101549 7.56705391 0 0 Z " fill="#FED799" transform="translate(8,280)"/>
<path d="M0 0 C0.96706847 0.30201199 1.93413694 0.60402397 2.93051052 0.91518784 C6.42926719 2.01620398 9.90552101 3.17431995 13.38256836 4.34204102 C14.71055603 4.78443949 16.03867461 5.22644517 17.36691284 5.66809082 C20.94834964 6.86020267 24.52790678 8.05786623 28.10710979 9.25666547 C31.85941099 10.51246778 35.61334675 11.76336562 39.36708069 13.01487732 C45.66150148 15.11424515 51.95478834 17.21698185 58.24731445 19.32202148 C66.32897257 22.02555987 74.41249092 24.7234912 82.49660397 27.41967869 C89.45061363 29.73900701 96.40376959 32.06089072 103.35678792 34.38318896 C105.59183433 35.12957099 107.82699814 35.87560062 110.06217766 36.62158394 C113.56669023 37.79138349 117.07066742 38.96277313 120.57423019 40.13541412 C122.47711122 40.77193877 124.38047939 41.40700652 126.28385925 42.04203796 C127.97233978 42.60771988 127.97233978 42.60771988 129.69493103 43.18482971 C130.6769345 43.51315576 131.65893797 43.8414818 132.67069912 44.17975712 C135 45 135 45 137 46 C137 85.6 137 125.2 137 166 C133.42540567 165.28508113 131.11562272 164.7565892 127.95092773 163.31347656 C127.18920761 162.96931702 126.42748749 162.62515747 125.64268494 162.27056885 C124.83118484 161.89768738 124.01968475 161.52480591 123.18359375 161.140625 C122.33128677 160.75436951 121.4789798 160.36811401 120.60084534 159.97015381 C117.87746663 158.73501447 115.15734861 157.49289103 112.4375 156.25 C108.87486866 154.62762462 105.31088463 153.00824934 101.74609375 151.390625 C100.89397308 151.0035437 100.04185242 150.6164624 99.16390991 150.21765137 C92.82675851 147.34883137 86.45243625 144.60113578 80 142 C80.66 141.67 81.32 141.34 82 141 C74.99899124 119.4807703 63.77304872 100.74345241 43.26757812 89.71337891 C35.54708004 85.78773358 27.65389665 83.03781342 19.33154297 80.67578125 C16.69073232 79.91036095 14.06648083 79.09899131 11.44140625 78.28125 C-7.56626304 72.36558174 -26.29638312 67.91183144 -46 65 C-47.20366211 64.81775879 -47.20366211 64.81775879 -48.43164062 64.63183594 C-59.16889849 63.06384057 -69.91246628 62.77755229 -80.75 62.6875 C-82.02883057 62.66977539 -83.30766113 62.65205078 -84.62524414 62.63378906 C-104.05716362 62.64878379 -125.27479541 67.70485318 -139.875 81.3125 C-144.65675376 86.48006763 -147.87290772 92.74581544 -151 99 C-151 81.51 -151 64.02 -151 46 C-139.74643346 41.49857338 -139.74643346 41.49857338 -134.8467865 39.83511353 C-133.73537796 39.45650177 -132.62396942 39.07789001 -131.47888184 38.68780518 C-129.70257385 38.08751495 -129.70257385 38.08751495 -127.89038086 37.47509766 C-126.6029732 37.03794497 -125.31562652 36.60061268 -124.02833557 36.16311646 C-112.3648652 32.20335106 -100.69008247 28.2766267 -89.01300716 24.35718727 C-80.39806195 21.46522924 -71.78843166 18.55843881 -63.1851663 15.63191187 C-57.11284159 13.56773624 -51.03484683 11.52087356 -44.95244318 9.4865917 C-41.3282806 8.27394253 -37.7070435 7.05385261 -34.09177971 5.81489944 C-30.69425442 4.65093936 -27.29018514 3.50866084 -23.88002586 2.38227463 C-22.04344124 1.76962309 -20.21433152 1.13470257 -18.3855896 0.49902344 C-11.41171504 -1.77630217 -6.90812618 -2.45810621 0 0 Z " fill="#50B2EE" transform="translate(303,346)"/>
<path d="M0 0 C4.68530033 0.93706007 8.50911454 2.42584247 12.796875 4.40234375 C13.56553894 4.75124161 14.33420288 5.10013947 15.12615967 5.45960999 C16.79334646 6.21675102 18.45950854 6.97615162 20.12475586 7.73754883 C24.64566623 9.80397443 29.17460987 11.85265042 33.703125 13.90234375 C34.64019287 14.32687836 35.57726074 14.75141296 36.54272461 15.18881226 C46.16037471 19.53901062 55.82682866 23.77508421 65.5 28 C81.99164185 35.20868496 98.42040485 42.550052 114.818573 49.96878052 C117.08175544 50.99043378 119.34759619 52.0059979 121.61376953 53.02099609 C124.58727856 54.35450212 127.54293624 55.72060208 130.49169922 57.10791016 C131.92015853 57.7661434 133.34870299 58.42419192 134.77734375 59.08203125 C135.41934219 59.39234787 136.06134064 59.70266449 136.72279358 60.02238464 C140.98835431 61.96159756 143.52125205 62.34643948 148 61 C151.45036345 59.65007145 154.81485548 58.13859325 158.18359375 56.59765625 C159.64418968 55.94101234 159.64418968 55.94101234 161.1342926 55.27110291 C164.23840043 53.87485978 167.33825367 52.46949766 170.4375 51.0625 C173.53351341 49.65986356 176.63042752 48.25937334 179.72999573 46.86460876 C181.65544377 45.9979398 183.57884553 45.12670584 185.49986267 44.2502594 C190.28370612 42.09444167 194.90801917 40.27789344 200 39 C200.10186657 46.09826323 200.17166082 53.19633619 200.21972656 60.29516602 C200.23977552 62.70734705 200.26702192 65.11947989 200.30175781 67.53149414 C200.35057051 71.00939873 200.37303683 74.48665772 200.390625 77.96484375 C200.41127014 79.03395493 200.43191528 80.1030661 200.45318604 81.20457458 C200.45615606 91.23538779 197.12752058 99.79665473 190 107 C180.09322389 114.27680134 171.10328342 116.17008784 158.9609375 114.609375 C155.77640245 114.05464954 152.60763439 113.44429291 149.4375 112.8125 C137.97118812 110.64272946 126.49049587 108.82147846 114.9375 107.1875 C113.77382401 107.02140732 113.77382401 107.02140732 112.5866394 106.85195923 C104.32411983 105.53402328 104.32411983 105.53402328 96 105 C95.71390869 105.589021 95.42781738 106.17804199 95.13305664 106.78491211 C87.7889102 121.75324731 82.07660787 133.37239179 66 140 C64.84757812 140.54720703 64.84757812 140.54720703 63.671875 141.10546875 C60.20142218 142.26736012 57.15787913 142.33899725 53.5 142.375 C52.2109375 142.40335938 50.921875 142.43171875 49.59375 142.4609375 C38.91686012 141.86436221 28.27739123 136.74739785 18.31176758 133.0534668 C16.27754232 132.29954402 14.24147681 131.55076453 12.20507812 130.80273438 C2.32571343 127.16285671 2.32571343 127.16285671 0 126 C0 84.42 0 42.84 0 0 Z " fill="#91D069" transform="translate(8,112)"/>
<path d="M0 0 C0.6653627 0.34566513 1.3307254 0.69133026 2.01625061 1.04747009 C3.3425071 1.72574608 3.3425071 1.72574608 4.69555664 2.41772461 C5.56716934 2.86651474 6.43878204 3.31530487 7.33680725 3.7776947 C14.36364353 7.00274824 21.34713381 7.11586799 28.95556641 6.96826172 C42.06412338 6.83847403 42.06412338 6.83847403 47.06640625 9.83984375 C48.93574487 12.14193249 50.4344497 14.43867307 51.84912109 17.04101562 C54.35301922 21.30306028 57.48241865 25.16982845 60.4375 29.125 C61.05447754 29.97884277 61.67145508 30.83268555 62.30712891 31.71240234 C62.8851123 32.5111377 63.4630957 33.30987305 64.05859375 34.1328125 C64.57736084 34.85355957 65.09612793 35.57430664 65.63061523 36.31689453 C67.57764563 38.70998199 68.74362194 38.96581626 71.8125 39.375 C76.77053699 38.79170153 78.85633211 35.43251286 81.83569336 31.70068359 C83.9331278 28.9830031 86.00214161 26.24588551 88.0625 23.5 C89.46955565 21.63504202 90.87709255 19.77044701 92.28515625 17.90625 C93.21146851 16.67358398 93.21146851 16.67358398 94.15649414 15.41601562 C96.0656234 12.91399693 98.03395933 10.45755084 100 8 C114.52 8 129.04 8 144 8 C144 47.6 144 87.2 144 128 C131.62452834 124.62487137 131.62452834 124.62487137 126.67269897 122.97555542 C125.54835449 122.60265381 124.42401001 122.2297522 123.26559448 121.84555054 C122.07241608 121.44647491 120.87923767 121.04739929 119.64990234 120.63623047 C118.34950841 120.20367145 117.04902981 119.77136686 115.74847412 119.33929443 C112.25236984 118.17693785 108.75752128 117.01084994 105.26295805 115.84386969 C101.59653091 114.62002856 97.92912133 113.39913761 94.26187134 112.17776489 C88.11673181 110.13059329 81.97243404 108.08091089 75.82861328 106.02978516 C68.72062877 103.65681424 61.61120103 101.28820727 54.50102651 98.92180717 C48.38630315 96.8865861 42.27235833 94.84903971 36.15906489 92.80952752 C32.51158071 91.59265921 28.86382975 90.3766074 25.21537399 89.16265488 C21.79496619 88.02443757 18.37554205 86.88331388 14.95687103 85.73989105 C13.09828841 85.11905548 11.23871478 84.50118918 9.37911987 83.88339233 C8.28297363 83.51613037 7.18682739 83.14886841 6.0574646 82.77047729 C4.62015771 82.29099797 4.62015771 82.29099797 3.15381432 81.8018322 C1 81 1 81 0 80 C-0.09502416 77.50507612 -0.12557566 75.03793986 -0.11352539 72.54272461 C-0.11367142 71.76229294 -0.11381744 70.98186127 -0.1139679 70.17778015 C-0.11326858 67.5859402 -0.10547536 64.99417122 -0.09765625 62.40234375 C-0.09579213 60.6101536 -0.0943682 58.81796294 -0.09336853 57.02577209 C-0.08954284 52.29929203 -0.07971212 47.57284248 -0.06866455 42.84637451 C-0.05845153 38.0271445 -0.05387115 33.20790958 -0.04882812 28.38867188 C-0.03808989 18.92576781 -0.02101286 9.46288644 0 0 Z " fill="#50B1EE" transform="translate(296,200)"/>
<path d="M0 0 C0.68628479 -0.00067474 1.37256958 -0.00134949 2.07965088 -0.00204468 C31.85489274 0.04407105 60.53965405 5.22929745 88.83203125 14.34375 C93.28374129 15.77433248 97.74305449 17.03537691 102.27490234 18.18237305 C123.25998114 23.53570947 142.64672337 35.45859395 154.08862305 54.28100586 C163.875 71.10343051 163.875 71.10343051 163.875 79.25 C158.29059529 78.66190186 153.76110944 76.63624423 148.7109375 74.33984375 C147.81726974 73.94013367 146.92360199 73.54042358 146.00285339 73.12860107 C144.08126872 72.26810444 142.16109884 71.40444275 140.24221802 70.53793335 C137.22979264 69.17838011 134.21308005 67.82879169 131.19506836 66.48168945 C122.34157617 62.52568808 113.50013844 58.54450664 104.68341064 54.50718689 C101.37943543 52.99606235 98.07068879 51.49557435 94.7612915 49.99636841 C92.47583339 48.95496715 90.19875267 47.89659947 87.92138672 46.83764648 C86.53263245 46.20727561 85.14349467 45.57774868 83.75390625 44.94921875 C82.5635376 44.40096436 81.37316895 43.85270996 80.14672852 43.2878418 C73.4588198 41.16633594 68.07805477 44.26609774 62.02734375 47.01953125 C61.16005142 47.40735275 60.29275909 47.79517426 59.39918518 48.19474792 C56.53404469 49.47761287 53.6733615 50.77012438 50.8125 52.0625 C48.78939382 52.9701399 46.76595045 53.87702857 44.7421875 54.78320312 C40.53628291 56.66717153 36.33185093 58.55437145 32.12841797 60.44384766 C22.55743231 64.74287588 12.96543007 68.99457976 3.375 73.25 C-0.3231653 74.89136762 -4.02108641 76.53328366 -7.71875 78.17578125 C-9.09884499 78.78879089 -9.09884499 78.78879089 -10.50682068 79.41418457 C-16.53856147 82.09526315 -22.56495258 84.78808691 -28.58850098 87.48751831 C-32.76072992 89.35680609 -36.93461736 91.22237377 -41.10864258 93.08764648 C-43.10410683 93.98063894 -45.09875055 94.87546744 -47.0925293 95.7722168 C-49.85131541 97.01291104 -52.61282691 98.24733746 -55.375 99.48046875 C-56.19053345 99.8492363 -57.00606689 100.21800385 -57.84631348 100.59794617 C-58.60343628 100.93453751 -59.36055908 101.27112885 -60.140625 101.61791992 C-60.79321289 101.91067307 -61.44580078 102.20342621 -62.11816406 102.50505066 C-64.42520834 103.36143911 -66.70511153 103.8221397 -69.125 104.25 C-69.19471046 95.65248188 -69.24791754 87.05508315 -69.28043652 78.45735168 C-69.29604913 74.46446706 -69.3172061 70.47177674 -69.35131836 66.47900391 C-69.38407005 62.62105415 -69.40188609 58.76329053 -69.40963173 54.9052124 C-69.41514702 53.43810092 -69.42591673 51.97099888 -69.44219017 50.50396729 C-69.59019727 36.60012962 -66.8347736 28.75236714 -57.453125 18.40625 C-47.14039731 8.36731154 -32.87325724 4.02473379 -19.125 1.25 C-18.35969971 1.0749292 -17.59439941 0.8998584 -16.8059082 0.71948242 C-11.27277217 -0.24948403 -5.60394893 0.00493644 0 0 Z " fill="#B2E980" transform="translate(221.125,407.75)"/>
<path d="M0 0 C6.66528828 3.68591293 12.62257452 8.29216067 15.05859375 15.69140625 C15.71859375 15.69140625 16.37859375 15.69140625 17.05859375 15.69140625 C17.33703125 14.67046875 17.33703125 14.67046875 17.62109375 13.62890625 C21.77580187 5.13885052 29.63846994 1.23047098 38.05859375 -2.30859375 C44.42880352 -4.4067184 53.01083175 -4.50861493 59.24609375 -1.99609375 C62.05859375 -0.30859375 62.05859375 -0.30859375 64.05859375 2.69140625 C64.40365594 5.93499088 64.3639301 8.02685066 62.99609375 11.00390625 C59.70083286 13.87397218 55.98066849 13.79460489 51.73046875 13.56640625 C44.85238352 13.22033907 39.58272224 14.39380543 34.05859375 18.69140625 C30.91169337 22.70003391 28.66792067 26.86342549 27.05859375 31.69140625 C27.67863281 31.40265625 28.29867187 31.11390625 28.9375 30.81640625 C37.62125783 27.17605362 46.74063843 25.93879348 55.9453125 28.4921875 C59.86293345 30.1261067 61.6571285 31.08920837 64.05859375 34.69140625 C64.27881669 37.49219026 63.90935229 40.01679934 63.05859375 42.69140625 C60.93359375 44.75390625 60.93359375 44.75390625 58.05859375 45.69140625 C55.71374719 45.45213619 53.38048911 45.09681655 51.05859375 44.69140625 C44.00940377 44.06028043 38.52265781 43.9593155 32.67578125 48.265625 C28.3384905 52.08956491 25.45308805 56.13180097 24.80615234 61.96923828 C24.63873512 64.64740813 24.52456766 67.32207114 24.43359375 70.00390625 C24.39492188 70.93525391 24.35625 71.86660156 24.31640625 72.82617188 C24.22253062 75.11439032 24.13684866 77.4026092 24.05859375 79.69140625 C25.05697266 79.36906006 26.05535156 79.04671387 27.08398438 78.71459961 C33.03270786 77.02307826 39.15310609 77.28110306 45.2890625 77.26586914 C47.5258902 77.25407863 49.75985522 77.20491844 51.99609375 77.15429688 C66.10065612 76.99587889 78.39494434 80.40295209 90.05859375 88.69140625 C90.67992187 89.1296875 91.30125 89.56796875 91.94140625 90.01953125 C102.16914284 97.99991764 110.38407672 111.73715645 112.05859375 124.69140625 C112.83139568 135.35883284 112.83139568 135.35883284 110.7265625 138.98828125 C108.60990256 141.14955464 106.86633828 141.64282492 103.87339115 141.82283401 C102.59113478 141.82729601 102.59113478 141.82729601 101.28297424 141.83184814 C99.80877518 141.84041336 99.80877518 141.84041336 98.30479431 141.84915161 C97.22782791 141.85026947 96.15086151 141.85138733 95.04125977 141.85253906 C93.9060791 141.85750397 92.77089844 141.86246887 91.60131836 141.86758423 C87.83837279 141.88221437 84.07546936 141.88900861 80.3125 141.89453125 C77.70320128 141.90028113 75.09390257 141.90603888 72.48460388 141.9118042 C67.71100801 141.92137345 62.93742127 141.92727184 58.16381699 141.93030095 C51.13764953 141.93478406 44.11167638 141.95234582 37.08556801 141.98130155 C30.99922782 142.00551395 24.91296795 142.01324476 18.82658195 142.0149765 C16.23695759 142.01800937 13.64733416 142.02605911 11.05774117 142.03916168 C7.44011712 142.05616202 3.82296973 142.05435662 0.20532227 142.04785156 C-0.8696199 142.05706635 -1.94456207 142.06628113 -3.05207825 142.07577515 C-4.03769745 142.07020599 -5.02331665 142.06463684 -6.0388031 142.05889893 C-6.89401771 142.06036549 -7.74923231 142.06183205 -8.63036251 142.06334305 C-11.49279154 141.60266692 -12.8495892 140.67416406 -14.94140625 138.69140625 C-18.32081164 128.55319007 -14.82480743 118.04818406 -10.5859375 108.703125 C-6.95810712 101.67116424 -2.66903693 94.90968954 4.2421875 90.796875 C6.55592229 88.88983166 7.02195581 87.88509769 7.58837891 84.890625 C7.76022116 81.36863745 7.72812149 77.90331095 7.62109375 74.37890625 C7.61916016 73.18072266 7.61722656 71.98253906 7.61523438 70.74804688 C7.5051947 63.35093554 7.2685306 56.6315657 2.41015625 50.66796875 C1.84039062 50.22195312 1.270625 49.7759375 0.68359375 49.31640625 C0.11898437 48.85492188 -0.445625 48.3934375 -1.02734375 47.91796875 C-5.06145787 45.33284256 -8.48210336 44.42794412 -13.25390625 44.50390625 C-14.68863281 44.52324219 -14.68863281 44.52324219 -16.15234375 44.54296875 C-18.61685406 44.67413316 -20.94890179 44.96935494 -23.37890625 45.37890625 C-26.94140625 45.69140625 -26.94140625 45.69140625 -29.37890625 44.75390625 C-31.75359566 41.61931623 -32.38385575 38.59716734 -31.94140625 34.69140625 C-28.8766008 30.4192532 -25.90705517 29.04567414 -20.94140625 27.69140625 C-11.50774465 26.78086203 -3.54021853 27.68696976 5.05859375 31.69140625 C1.77856798 23.90134504 -0.88997143 18.07335222 -8.94140625 14.69140625 C-13.62087645 13.13158285 -18.48503603 13.78669795 -23.375 13.94921875 C-27.08957621 13.68069517 -28.45145566 13.40105836 -30.94140625 10.69140625 C-32.06102549 8.02882915 -32.28189455 5.55485699 -31.94140625 2.69140625 C-24.39035504 -7.1669106 -10.14812531 -4.35984331 0 0 Z " fill="#FED798" transform="translate(343.94140625,34.30859375)"/>
<path d="M0 0 C16.06811841 1.84467825 32.04823329 4.34137221 48 7 C48 41.32 48 75.64 48 111 C42.63923886 110.32990486 38.82503485 109.81658784 33.91957092 108.17810059 C32.77410797 107.79953415 31.62864502 107.42096771 30.44847107 107.03092957 C29.21645462 106.61531265 27.98443817 106.19969574 26.71508789 105.77148438 C25.38570925 105.32898028 24.05611322 104.88712881 22.72631836 104.44587708 C19.13569326 103.25231261 15.5482382 102.04947681 11.96135259 100.84472847 C8.20389785 99.58427722 4.44375312 98.33190014 0.6839447 97.07849121 C-5.62133838 94.9751904 -11.92469677 92.8662065 -18.22680664 90.75341797 C-25.51959567 88.30854083 -32.81479648 85.87098071 -40.11145014 83.43766356 C-47.88068988 80.8467192 -55.64839472 78.25119961 -63.41552281 75.65393257 C-65.65594019 74.90504785 -67.89661747 74.15694511 -70.13734245 73.40898132 C-73.64888337 72.2365069 -77.15936867 71.06092443 -80.66904449 69.88287926 C-82.57775727 69.2429628 -84.4874536 68.60598243 -86.39717102 67.96907043 C-87.5228952 67.590504 -88.64861938 67.21193756 -89.80845642 66.82189941 C-90.7926805 66.49227455 -91.77690458 66.16264969 -92.79095364 65.82303619 C-95 65 -95 65 -96 64 C-96.08874135 60.89748799 -96.11518455 57.8173188 -96.09765625 54.71484375 C-96.0962413 53.78402481 -96.09482635 52.85320587 -96.09336853 51.8941803 C-96.08775172 48.90858809 -96.0751964 45.92306971 -96.0625 42.9375 C-96.05748716 40.91862087 -96.05292388 38.89974057 -96.04882812 36.88085938 C-96.03777683 31.92054428 -96.02050095 26.96028468 -96 22 C-90.13440331 23.7110214 -84.35948294 25.52279326 -78.63671875 27.6640625 C-77.32487566 28.15105747 -76.01302653 28.63803618 -74.70117188 29.125 C-72.68214276 29.87883665 -70.66359658 30.63394985 -68.64526367 31.38964844 C-66.66439138 32.13006348 -64.68188508 32.86596775 -62.69921875 33.6015625 C-61.53221436 34.03807129 -60.36520996 34.47458008 -59.1628418 34.92431641 C-48.37972591 38.59165786 -36.0635698 38.66050387 -25.75 33.671875 C-17.11571798 28.422624 -11.62752823 21.85591657 -7 13 C-6.362568 11.82449349 -5.72313261 10.65007183 -5.08203125 9.4765625 C-3.36743569 6.32853617 -1.67814972 3.16763172 0 0 Z " fill="#50B2EE" transform="translate(104,216)"/>
<path d="M0 0 C28.24341585 9.08008512 56.40044579 18.41420946 84.54223633 27.80395508 C90.58808787 29.8211761 96.63486501 31.83560734 102.68188763 33.84931469 C107.37890931 35.41378987 112.07545815 36.9796804 116.77186012 38.54601479 C119.00571839 39.29085622 121.23972474 40.0352537 123.47388268 40.77919579 C126.556885 41.80602223 129.63924571 42.83475141 132.72143555 43.86401367 C133.63794388 44.16884171 134.55445221 44.47366974 135.49873352 44.78773499 C136.33149811 45.06626312 137.1642627 45.34479126 138.02226257 45.63175964 C138.74666881 45.87335406 139.47107504 46.11494848 140.21743298 46.36386395 C142 47 142 47 144 48 C144 69.12 144 90.24 144 112 C131.62452834 108.62487137 131.62452834 108.62487137 126.67269897 106.97555542 C125.54835449 106.60265381 124.42401001 106.2297522 123.26559448 105.84555054 C122.07241608 105.44647491 120.87923767 105.04739929 119.64990234 104.63623047 C118.34950841 104.20367145 117.04902981 103.77136686 115.74847412 103.33929443 C112.25236984 102.17693785 108.75752128 101.01084994 105.26295805 99.84386969 C101.59653091 98.62002856 97.92912133 97.39913761 94.26187134 96.17776489 C88.11673181 94.13059329 81.97243404 92.08091089 75.82861328 90.02978516 C68.72062877 87.65681424 61.61120103 85.28820727 54.50102651 82.92180717 C48.38630315 80.8865861 42.27235833 78.84903971 36.15906489 76.80952752 C32.51158071 75.59265921 28.86382975 74.3766074 25.21537399 73.16265488 C21.79496619 72.02443757 18.37554205 70.88331388 14.95687103 69.73989105 C13.09828841 69.11905548 11.23871478 68.50118918 9.37911987 67.88339233 C8.28297363 67.51613037 7.18682739 67.14886841 6.0574646 66.77047729 C4.62015771 66.29099797 4.62015771 66.29099797 3.15381432 65.8018322 C1 65 1 65 0 64 C-0.09405142 62.0056827 -0.11743249 60.00800457 -0.11352539 58.01147461 C-0.11344986 56.73022202 -0.11337433 55.44896942 -0.11329651 54.12889099 C-0.10818909 52.72004152 -0.10297309 51.31119244 -0.09765625 49.90234375 C-0.09579202 48.46887766 -0.09436814 47.03541093 -0.09336853 45.60194397 C-0.08954372 41.82240043 -0.07971377 38.0428951 -0.06866455 34.2633667 C-0.05844963 30.40930702 -0.05387074 26.55524118 -0.04882812 22.70117188 C-0.03809146 15.13409713 -0.02101549 7.56705391 0 0 Z " fill="#FBBE7C" transform="translate(296,280)"/>
<path d="M0 0 C28.24341585 9.08008512 56.40044579 18.41420946 84.54223633 27.80395508 C90.58808787 29.8211761 96.63486501 31.83560734 102.68188763 33.84931469 C107.37890931 35.41378987 112.07545815 36.9796804 116.77186012 38.54601479 C119.00571839 39.29085622 121.23972474 40.0352537 123.47388268 40.77919579 C126.556885 41.80602223 129.63924571 42.83475141 132.72143555 43.86401367 C133.63794388 44.16884171 134.55445221 44.47366974 135.49873352 44.78773499 C136.33149811 45.06626312 137.1642627 45.34479126 138.02226257 45.63175964 C138.74666881 45.87335406 139.47107504 46.11494848 140.21743298 46.36386395 C142 47 142 47 144 48 C144 68.79 144 89.58 144 111 C138.63923886 110.32990486 134.82503485 109.81658784 129.91957092 108.17810059 C128.77410797 107.79953415 127.62864502 107.42096771 126.44847107 107.03092957 C125.21645462 106.61531265 123.98443817 106.19969574 122.71508789 105.77148438 C121.38570925 105.32898028 120.05611322 104.88712881 118.72631836 104.44587708 C115.13569326 103.25231261 111.5482382 102.04947681 107.96135259 100.84472847 C104.20389785 99.58427722 100.44375312 98.33190014 96.6839447 97.07849121 C90.37866162 94.9751904 84.07530323 92.8662065 77.77319336 90.75341797 C70.48040433 88.30854083 63.18520352 85.87098071 55.88854986 83.43766356 C48.11931012 80.8467192 40.35160528 78.25119961 32.58447719 75.65393257 C30.34405981 74.90504785 28.10338253 74.15694511 25.86265755 73.40898132 C22.35111663 72.2365069 18.84063133 71.06092443 15.33095551 69.88287926 C13.42224273 69.2429628 11.5125464 68.60598243 9.60282898 67.96907043 C8.4771048 67.590504 7.35138062 67.21193756 6.19154358 66.82189941 C5.2073195 66.49227455 4.22309542 66.16264969 3.20904636 65.82303619 C1 65 1 65 0 64 C-0.09405142 62.0056827 -0.11743249 60.00800457 -0.11352539 58.01147461 C-0.11344986 56.73022202 -0.11337433 55.44896942 -0.11329651 54.12889099 C-0.10818909 52.72004152 -0.10297309 51.31119244 -0.09765625 49.90234375 C-0.09579202 48.46887766 -0.09436814 47.03541093 -0.09336853 45.60194397 C-0.08954372 41.82240043 -0.07971377 38.0428951 -0.06866455 34.2633667 C-0.05844963 30.40930702 -0.05387074 26.55524118 -0.04882812 22.70117188 C-0.03809146 15.13409713 -0.02101549 7.56705391 0 0 Z " fill="#FBBE7C" transform="translate(8,280)"/>
<path d="M0 0 C0 24.42 0 48.84 0 74 C-3.7515892 73.37473513 -7.4027836 72.72620056 -11.10546875 71.9140625 C-32.05851651 67.43109294 -52.81277033 64.76505073 -74.25 64.625 C-75.49797363 64.61106201 -76.74594727 64.59712402 -78.03173828 64.58276367 C-97.30401665 64.68144471 -118.41546599 69.83596063 -132.875 83.3125 C-137.65675376 88.48006763 -140.87290772 94.74581544 -144 101 C-144 83.51 -144 66.02 -144 48 C-132.74957122 43.49982849 -132.74957122 43.49982849 -127.79968262 41.84857178 C-126.67815796 41.47285034 -125.5566333 41.09712891 -124.40112305 40.71002197 C-123.20592041 40.31297058 -122.01071777 39.91591919 -120.77929688 39.50683594 C-119.48050828 39.07300095 -118.18180463 38.63891155 -116.88317871 38.20458984 C-113.38880624 37.03678511 -109.89319778 35.87272419 -106.39728355 34.70954418 C-102.73011464 33.48885246 -99.06392934 32.2652128 -95.39758301 31.04205322 C-89.25210043 28.99235037 -83.10578425 26.94516281 -76.95898438 24.89941406 C-69.84918005 22.53312017 -62.74083796 20.1624739 -55.63322401 17.78960967 C-49.52082527 15.74912228 -43.40765335 13.71096478 -37.29382372 11.67476869 C-33.6460228 10.45987494 -29.99849784 9.24416947 -26.35166931 8.02635956 C-22.93143429 6.88436107 -19.51024061 5.74528316 -16.08827209 4.60848999 C-14.22973058 3.99028278 -12.37217662 3.36910911 -10.51464844 2.74786377 C-9.41568237 2.38342163 -8.31671631 2.01897949 -7.18444824 1.64349365 C-5.74657581 1.16457987 -5.74657581 1.16457987 -4.27965546 0.67599106 C-2 0 -2 0 0 0 Z " fill="#73CDFE" transform="translate(296,344)"/>
<path d="M0 0 C6.66528828 3.68591293 12.62257452 8.29216067 15.05859375 15.69140625 C15.71859375 15.69140625 16.37859375 15.69140625 17.05859375 15.69140625 C17.33703125 14.67046875 17.33703125 14.67046875 17.62109375 13.62890625 C21.77580187 5.13885052 29.63846994 1.23047098 38.05859375 -2.30859375 C44.42880352 -4.4067184 53.01083175 -4.50861493 59.24609375 -1.99609375 C62.05859375 -0.30859375 62.05859375 -0.30859375 64.05859375 2.69140625 C64.40365594 5.93499088 64.3639301 8.02685066 62.99609375 11.00390625 C59.70083286 13.87397218 55.98066849 13.79460489 51.73046875 13.56640625 C44.85238352 13.22033907 39.58272224 14.39380543 34.05859375 18.69140625 C30.91169337 22.70003391 28.66792067 26.86342549 27.05859375 31.69140625 C27.67863281 31.40265625 28.29867187 31.11390625 28.9375 30.81640625 C37.62125783 27.17605362 46.74063843 25.93879348 55.9453125 28.4921875 C59.86293345 30.1261067 61.6571285 31.08920837 64.05859375 34.69140625 C64.27881669 37.49219026 63.90935229 40.01679934 63.05859375 42.69140625 C60.93359375 44.75390625 60.93359375 44.75390625 58.05859375 45.69140625 C55.71374719 45.45213619 53.38048911 45.09681655 51.05859375 44.69140625 C44.00940377 44.06028043 38.52265781 43.9593155 32.67578125 48.265625 C28.3384905 52.08956491 25.45308805 56.13180097 24.80615234 61.96923828 C24.63873512 64.64740813 24.52456766 67.32207114 24.43359375 70.00390625 C24.39492188 70.93525391 24.35625 71.86660156 24.31640625 72.82617188 C24.22253549 75.11427164 24.13949293 77.40281114 24.05859375 79.69140625 C16.13859375 83.65140625 16.13859375 83.65140625 8.05859375 87.69140625 C8.00251953 84.90703125 8.00251953 84.90703125 7.9453125 82.06640625 C7.87963132 79.60805344 7.81318473 77.14972099 7.74609375 74.69140625 C7.71225586 72.86029297 7.71225586 72.86029297 7.67773438 70.9921875 C7.39398555 60.11148673 7.39398555 60.11148673 2.41015625 50.66796875 C1.84039062 50.22195312 1.270625 49.7759375 0.68359375 49.31640625 C0.11898437 48.85492188 -0.445625 48.3934375 -1.02734375 47.91796875 C-5.06145787 45.33284256 -8.48210336 44.42794412 -13.25390625 44.50390625 C-14.68863281 44.52324219 -14.68863281 44.52324219 -16.15234375 44.54296875 C-18.61685406 44.67413316 -20.94890179 44.96935494 -23.37890625 45.37890625 C-26.94140625 45.69140625 -26.94140625 45.69140625 -29.37890625 44.75390625 C-31.75359566 41.61931623 -32.38385575 38.59716734 -31.94140625 34.69140625 C-28.8766008 30.4192532 -25.90705517 29.04567414 -20.94140625 27.69140625 C-11.50774465 26.78086203 -3.54021853 27.68696976 5.05859375 31.69140625 C1.77856798 23.90134504 -0.88997143 18.07335222 -8.94140625 14.69140625 C-13.62087645 13.13158285 -18.48503603 13.78669795 -23.375 13.94921875 C-27.08957621 13.68069517 -28.45145566 13.40105836 -30.94140625 10.69140625 C-32.06102549 8.02882915 -32.28189455 5.55485699 -31.94140625 2.69140625 C-24.39035504 -7.1669106 -10.14812531 -4.35984331 0 0 Z " fill="#B4E87E" transform="translate(343.94140625,34.30859375)"/>
<path d="M0 0 C0.10186657 7.09826323 0.17166082 14.19633619 0.21972656 21.29516602 C0.23977552 23.70734705 0.26702192 26.11947989 0.30175781 28.53149414 C0.35057051 32.00939873 0.37303683 35.48665772 0.390625 38.96484375 C0.41127014 40.03395493 0.43191528 41.1030661 0.45318604 42.20457458 C0.45615606 52.23538779 -2.87247942 60.79665473 -10 68 C-19.22450809 74.77565659 -26.66213049 76.52490137 -38 76 C-43.94 75.01 -49.88 74.02 -56 73 C-56 57.16 -56 41.32 -56 25 C-55.34 25 -54.68 25 -54 25 C-54 24.34 -54 23.68 -54 23 C-48.52410772 20.52586438 -43.04718056 18.05403856 -37.56933594 15.58422852 C-35.71098585 14.74597552 -33.85290633 13.90712242 -31.99511719 13.06762695 C-3.07355569 0 -3.07355569 0 0 0 Z " fill="#B2E97F" transform="translate(208,151)"/>
<path d="M0 0 C1.47533203 0.43699219 1.47533203 0.43699219 2.98046875 0.8828125 C3.63926025 1.07721924 4.29805176 1.27162598 4.97680664 1.47192383 C6.47780676 1.91534463 7.97827871 2.36055648 9.47827148 2.80737305 C13.71825537 4.0631384 17.96436054 5.26610891 22.2421875 6.38671875 C46.11633382 12.71713458 67.39262901 23.71114873 80.25 45.8125 C89 61.45604918 89 61.45604918 89 69 C83.41554268 68.41189632 78.88618801 66.38614771 73.8359375 64.08984375 C72.49523193 63.49048256 72.49523193 63.49048256 71.12744141 62.87901306 C68.20698694 61.57169505 65.29100723 60.25470398 62.375 58.9375 C60.35919053 58.03268874 58.34307436 57.12856044 56.32666016 56.22509766 C52.22044863 54.38472511 48.11569472 52.54115248 44.01171875 50.69580078 C38.39157737 48.17176561 32.76072829 45.67259984 27.125 43.18359375 C26.28796539 42.81356735 25.45093079 42.44354095 24.58853149 42.06230164 C21.40782174 40.65629983 18.22708238 39.25038178 15.0446167 37.84835815 C12.89057923 36.89886467 10.73809698 35.94592837 8.5859375 34.9921875 C7.3798584 34.45964355 6.1737793 33.92709961 4.93115234 33.37841797 C2 32 2 32 -1 30 C-1.2487793 27.01904297 -1.2487793 27.01904297 -1.07421875 23.2421875 C-1.04777786 22.57913605 -1.02133698 21.91608459 -0.99409485 21.23294067 C-0.90623748 19.11272015 -0.79713011 16.99419553 -0.6875 14.875 C-0.62425045 13.43886308 -0.56238406 12.00266453 -0.50195312 10.56640625 C-0.3506859 7.04341418 -0.1803457 3.52163668 0 0 Z " fill="#91D16B" transform="translate(296,418)"/>
<path d="M0 0 C4.65652512 3.59445422 4.65652512 3.59445422 5.1290741 6.85173035 C5.12241226 7.8399025 5.11575043 8.82807465 5.10888672 9.84619141 C5.10854683 11.52759468 5.10854683 11.52759468 5.10820007 13.2429657 C5.09271622 14.45241348 5.07723236 15.66186127 5.0612793 16.90795898 C5.05703445 18.14669266 5.05278961 19.38542633 5.04841614 20.66169739 C5.03445787 23.95148024 5.00751268 27.24082227 4.9743042 30.53045654 C4.94358987 33.8886577 4.92990794 37.24692342 4.91479492 40.60522461 C4.88168413 47.19198597 4.83145311 53.77845204 4.76831055 60.36499023 C1.33634119 60.44228684 -2.09562883 60.51930869 -5.52764893 60.59432983 C-7.52143765 60.64065629 -9.51518264 60.69059594 -11.50848389 60.75454712 C-21.03775081 61.05826453 -28.87227763 60.27939177 -36.13110352 53.62329102 C-42.0406506 47.34791483 -43.82979324 40.79433357 -43.57543945 32.29467773 C-42.67076125 24.58435211 -38.16198304 19.10528232 -32.23168945 14.36499023 C-27.96077616 11.78697226 -23.58281994 9.51476838 -19.10595703 7.31835938 C-17.0272457 6.29414175 -14.96667394 5.23846897 -12.90551758 4.17944336 C-11.58421584 3.51930742 -10.26198137 2.86103437 -8.9387207 2.20483398 C-8.32511185 1.88836411 -7.71150299 1.57189423 -7.07929993 1.24583435 C-2.82045374 -0.80253804 -2.82045374 -0.80253804 0 0 Z " fill="#B2E97F" transform="translate(291.231689453125,195.635009765625)"/>
<path d="M0 0 C2.12617784 0.60367471 3.99406032 1.35810411 5.87109375 2.53125 C6.36609375 2.015625 6.86109375 1.5 7.37109375 0.96875 C10.56547612 -0.86801986 12.47116894 -0.66817683 16.02734375 -0.03125 C17.87109375 0.53125 17.87109375 0.53125 19.93359375 2.09375 C21.4120977 5.93786028 21.43338213 8.79064896 19.87109375 12.53125 C16.26371375 17.35733945 11.85086523 22.66161673 5.74609375 24.09375 C0.19134588 23.28741563 -2.33775535 20.46530459 -6.12890625 16.53125 C-6.93328125 15.891875 -7.73765625 15.2525 -8.56640625 14.59375 C-10.93533365 11.46676583 -11.55980698 8.4247459 -11.12890625 4.53125 C-8.00177121 -0.41164087 -5.40493783 -1.06259647 0 0 Z " fill="#90D06C" transform="translate(99.12890625,424.46875)"/>
<path d="M0 0 C2.12617784 0.60367471 3.99406032 1.35810411 5.87109375 2.53125 C6.36609375 2.015625 6.86109375 1.5 7.37109375 0.96875 C10.56547612 -0.86801986 12.47116894 -0.66817683 16.02734375 -0.03125 C17.87109375 0.53125 17.87109375 0.53125 19.93359375 2.09375 C21.4120977 5.93786028 21.43338213 8.79064896 19.87109375 12.53125 C16.26371375 17.35733945 11.85086523 22.66161673 5.74609375 24.09375 C0.19134588 23.28741563 -2.33775535 20.46530459 -6.12890625 16.53125 C-6.93328125 15.891875 -7.73765625 15.2525 -8.56640625 14.59375 C-10.93533365 11.46676583 -11.55980698 8.4247459 -11.12890625 4.53125 C-8.00177121 -0.41164087 -5.40493783 -1.06259647 0 0 Z " fill="#90D06C" transform="translate(43.12890625,400.46875)"/>
</svg>
