<svg xmlns="http://www.w3.org/2000/svg" viewBox="0 0 90 90" xml:space="preserve"><path d="m76.181 46.687 3.006 3.006-7.613 7.614-3.006-3.006zm0-13.844 3.006 3.006-7.613 7.614-3.006-3.006zM76.182 19l3.006 3.006-7.613 7.612-3.006-3.006zM15.86 19l7.613 7.613-3.006 3.006-7.613-7.612zm0 13.844 7.613 7.613-3.006 3.006-7.614-7.613zm0 13.844 7.613 7.613-3.006 3.006-7.614-7.613zm47.489-13.001-3.459.048c3.208-4.126 3.39-9.285 3.399-9.914l.06-4.371-4.371.06c-.477.007-3.566.107-6.831 1.558.57-1.495.973-3.204.973-5.055 0-6.011-4.236-10.539-4.719-11.036l-3.048-3.133-3.048 3.133c-.483.497-4.719 5.025-4.719 11.036 0 1.851.403 3.56.973 5.055-3.265-1.45-6.354-1.551-6.831-1.558l-4.371-.06.06 4.371c.009.629.19 5.787 3.399 9.914l-3.459-.048.06 4.371c.009.629.19 5.787 3.399 9.914l-3.459-.048.06 4.371c.01.693.216 6.89 4.466 11.141C36.1 67.649 42.222 67.887 43 67.901V84h4V67.956v.005-.056l.483-.004c.693-.01 6.989-.216 11.24-4.467 4.25-4.25 4.506-10.448 4.516-11.141l.085-4.371-3.447.048c3.208-4.126 3.396-9.285 3.405-9.914zM43 48.375v1.036c-.646-.024-5.186-.296-8.108-3.219-3.152-3.152-3.221-8.193-3.221-8.193s5.041.07 8.193 3.221c2.27 2.272 2.938 5.515 3.136 7.155m4.622 1.038s.07-5.041 3.222-8.193 8.193-3.221 8.193-3.221-.07 5.041-3.222 8.193-8.193 3.221-8.193 3.221m11.415-25.65s-.07 5.041-3.222 8.193-8.193 3.222-8.193 3.222.07-5.041 3.222-8.193 8.193-3.222 8.193-3.222M45.354 7.943s3.515 3.614 3.515 8.071-3.515 8.071-3.515 8.071-3.515-3.614-3.515-8.071 3.515-8.071 3.515-8.071m-5.491 19.041c2.813 2.813 3.17 7.119 3.215 8.016H43v.174c-.646-.024-5.186-.296-8.108-3.219-3.152-3.152-3.221-8.193-3.221-8.193s5.04.07 8.192 3.222m-4.971 33.444c-3.152-3.152-3.221-8.193-3.221-8.193s5.041.07 8.193 3.222c2.271 2.271 2.939 5.514 3.137 7.154v1.036c-.647-.024-5.187-.296-8.109-3.219m20.923 0c-3.152 3.152-8.193 3.222-8.193 3.222s.07-5.041 3.222-8.193 8.193-3.222 8.193-3.222-.07 5.041-3.222 8.193"/></svg>